
CASCADE Topology V1, (c) Matra-Datavision
Locations 11
1
1.000000000000000 0.000000000000000 0.000000000000000 0.000000000000000 
0.000000000000000 1.000000000000000 0.000000000000000 0.000000000000000 
0.000000000000000 0.000000000000000 1.000000000000000 0.000000000000000 
1
0.999999997754398 -0.000000000000000 0.000067016443635 0.000000046056215 
0.000000001020215 -0.999999999884125 -0.000015223351732 -0.000000010462059 
0.000067016443627 0.000015223351766 -0.999999997638523 -10.000687237521181 
1
1.000000000000000 0.000000000000000 0.000000000000000 0.000000000000000 
0.000000000000000 1.000000000000000 0.000000000000000 0.000000000000000 
0.000000000000000 0.000000000000000 1.000000000000000 -10.000000000000000 
2  1 1 2 1 3 -1 0
1
1.000000000000000 0.000000000000000 0.000000000000000 0.000402098661810 
0.000000000000000 1.000000000000000 0.000000000000000 -0.000091340110391 
0.000000000000000 0.000000000000000 1.000000000000000 -5.999999985831137 
2  1 1 2 1 3 -1 5 1 0
2  3 1 2 -1 1 -1 0
2  5 -1 3 1 2 -1 1 -1 0
2  3 -1 0
2  1 1 2 1 0
2  3 -1 5 1 0
Curve2ds 4
1 0.00000000000000000 0.00000000000000000 0.00000000000000000 -1.00000000000000000 
1 6.28318530717958623 0.00000000000000000 0.00000000000000000 -1.00000000000000000 
1 0.00000000000000000 0.00000000000000000 1.00000000000000000 0.00000000000000000 
1 0.00000000000000000 -6.00000000000000000 1.00000000000000000 0.00000000000000000 
Curves 2
1 2.47500004049835010 -0.00000000793702667 -0.00052137182320331 0.00006701644363496 -0.00001522335173190 -0.99999999763852288 
2 0.00000000000000000 0.00000000000000000 0.00000000000000000 0.00000000000000000 0.00000000000000000 1.00000000000000000 1.00000000000000000 0.00000000000000000 0.00000000000000000 0.00000000000000000 1.00000000000000000 0.00000000000000000 2.47500000000000009
Polygon3D 0
PolygonOnTriangulations 0
Surfaces 2
2 0.00000004605621471 -0.00000001046205853 -0.00068723752118061 -0.00006701644363496 0.00001522335173190 0.99999999763852288 0.99999999775439818 0.00000000102021490 0.00006701644362719 -0.00000000000000000 -0.99999999988412491 0.00001522335176609 2.47499999999999964
1 0.00000004605621463 -0.00000001046205861 -10.00068723752117883 -0.00006701644363531 0.00001522335173195 0.99999999763852299 0.99999999775439830 0.00000000000000000 0.00006701644364307 0.00000000102021489 0.99999999988412480 -0.00001522335169777 
Triangulations 0

TShapes 9
Ve
0.000000100000000
2.475000000000000 0.000000000000000 0.000000000000000
0 0

0101101
*
Ed
 0.000000100000000 1 1 0
1  1 0 0.000000000000000 6.000000000000000
3  1 2CN 1 0 0.000000000000000 6.000000000000000
0

0101000
+9 4 -9 6 *
Ed
 0.000000100000000 1 1 0
1  2 0 0.000000000000000 6.283185307179586
2  3 1 7 0.000000000000000 6.283185307179586
2  4 1 8 0.000000000000000 6.283185307179586
0

0101100
+9 0 -9 0 *
Wi

0101100
+8 0 -8 0 -7 4 +7 6 *
Fa
0  0.000000100000000 1 0

0101000
+6 0 *
Wi

0101100
+7 0 *
Fa
0  0.000000100000000 2 0

0101000
-4 10 *
Sh

0101100
-5 0 +3 9 -3 11 *
So

1100000
+2 0 *

+1 0 