
CASCADE Topology V1, (c) Matra-Datavision
Locations 1
1
1.000000000000000 0.000000000000000 0.000000000000000 2.500000000000000 
0.000000000000000 0.000000000000000 -1.000000000000000 3.804226065180610 
0.000000000000000 1.000000000000000 0.000000000000000 -1.236067977499790 
Curve2ds 4
1 6.28318530717958623 0.00000000000000000 0.00000000000000000 1.00000000000000000 
1 0.00000000000000000 0.00000000000000000 0.00000000000000000 1.00000000000000000 
1 0.00000000000000000 -1.57079632679489656 1.00000000000000000 0.00000000000000000 
1 0.00000000000000000 1.57079632679489656 1.00000000000000000 0.00000000000000000 
Curves 1
8 4.71238898038468967 7.85398163397448279
2 -0.00000000000000005 0.00000000000000005 0.00000000000000000 -0.00000000000000000 0.00000000000000000 1.00000000000000000 0.00000000000000000 -1.00000000000000000 0.00000000000000000 1.00000000000000000 0.00000000000000000 0.00000000000000000 0.90000000000000002
Polygon3D 0
PolygonOnTriangulations 0
Surfaces 1
4 -0.00000000000000005 0.00000000000000005 0.00000000000000000 1.00000000000000000 0.00000000000000000 0.00000000000000000 0.00000000000000000 -1.00000000000000000 0.00000000000000000 0.00000000000000000 0.00000000000000000 -1.00000000000000000 0.90000000000000002
Triangulations 0

TShapes 9
Ve
0.000000100000000
-0.900000000000000 -0.000000000000000 0.000000000000000
0 0

0101101
*
Ve
0.000000100000000
0.900000000000000 -0.000000000000000 0.000000000000000
0 0

0101101
*
Ed
 0.000000100000000 1 1 0
1  1 0 -1.570796326794897 1.570796326794897
3  1 2CN 1 0 -1.570796326794897 1.570796326794897
0

0101000
+9 0 -8 0 *
Ed
 0.000000100000000 1 1 1
2  3 1 0 0.000000000000000 6.283185307179586
0

0101000
+9 0 -9 0 *
Ed
 0.000000100000000 1 1 1
2  4 1 0 0.000000000000000 6.283185307179586
0

0101000
+8 0 -8 0 *
Wi

0101100
-7 0 +6 0 +7 0 -5 0 *
Fa
0  0.000000100000000 1 0

0101000
+4 0 *
Sh

0101100
+3 0 *
So

0100000
+2 0 *

+1 1 