
CASCADE Topology V1, (c) Matra-Datavision
Locations 11
1
1.000000000000000 0.000000000000000 0.000000000000000 0.000000000000000 
0.000000000000000 1.000000000000000 0.000000000000000 0.000000000000000 
0.000000000000000 0.000000000000000 1.000000000000000 0.000000000000000 
1
-0.669130606357828 -0.743144825477391 0.000001176415793 -28.499988235861505 
0.743144825476493 -0.669130606358855 -0.000001159648516 -0.000011596466001 
0.000001648962607 0.000000098290995 0.999999999998636 -0.000016518921807 
1
-0.669130606358858 -0.743144825477395 0.000000000000000 -28.500000000000000 
0.743144825477395 -0.669130606358858 0.000000000000000 0.000000000000003 
0.000000000000000 0.000000000000000 1.000000000000000 -10.000000000000000 
2  1 1 2 1 3 -1 0
1
1.000000000000000 0.000000000000000 0.000000000000000 0.000000824481303 
0.000000000000000 1.000000000000000 0.000000000000000 0.000000049145497 
0.000000000000000 0.000000000000000 1.000000000000000 -0.499999999999318 
2  1 1 2 1 3 -1 5 1 0
2  3 1 2 -1 1 -1 0
2  5 -1 3 1 2 -1 1 -1 0
2  3 -1 0
2  1 1 2 1 0
2  3 -1 5 1 0
Curve2ds 4
1 0.00000000000000000 0.00000000000000000 0.00000000000000000 -1.00000000000000000 
1 6.28318530717958623 0.00000000000000000 0.00000000000000000 -1.00000000000000000 
1 0.00000000000000000 0.00000000000000000 1.00000000000000000 0.00000000000000000 
1 0.00000000000000000 -0.49999999999999994 1.00000000000000000 0.00000000000000000 
Curves 2
1 28.55393551036235422 -0.00000098291293520 10.00003056547732072 0.00000164896260691 0.00000009829099463 -0.99999999999863565 
2 0.00000000000000000 0.00000000000000000 0.00000000000000000 0.00000000000000000 0.00000000000000000 1.00000000000000000 1.00000000000000000 0.00000000000000000 0.00000000000000000 0.00000000000000000 1.00000000000000000 0.00000000000000000 28.55395199999999889
Polygon3D 0
PolygonOnTriangulations 0
Surfaces 2
2 -0.00001648959883127 -0.00000098290831474 9.99998348107819268 -0.00000164896260691 -0.00000009829099463 0.99999999999863576 0.99999999999864053 -0.00000000000016182 0.00000164896260691 -0.00000000000000022 0.99999999999999523 0.00000009829099464 28.55395200000000600
1 -28.49998823586150820 -0.00001159646600497 -0.00001651892180732 0.00000117641579308 -0.00000115964851589 0.99999999999863565 0.99999999999930811 0.00000000000000000 -0.00000117641579308 0.00000000000136423 0.99999999999932776 0.00000115964851589 
Triangulations 0

TShapes 9
Ve
0.000000100000000
28.553951999999999 0.000000000000000 0.000000000000000
0 0

0101101
*
Ed
 0.000000100000000 1 1 0
1  1 0 0.000000000000000 0.500000000000000
3  1 2CN 1 0 0.000000000000000 0.500000000000000
0

0101000
+9 4 -9 6 *
Ed
 0.000000100000000 1 1 0
1  2 0 0.000000000000000 6.283185307179586
2  3 1 7 0.000000000000000 6.283185307179586
2  4 1 8 0.000000000000000 6.283185307179586
0

0101100
+9 0 -9 0 *
Wi

0101100
+8 0 -8 0 -7 4 +7 6 *
Fa
0  0.000000100000000 1 0

0101000
+6 0 *
Wi

0101100
+7 0 *
Fa
0  0.000000100000000 2 0

0101000
+4 10 *
Sh

0101100
+5 0 +3 9 -3 11 *
So

1100000
+2 0 *

+1 0 