
CASCADE Topology V1, (c) Matra-Datavision
Locations 18
1
1.000000000000000 0.000000000000000 0.000000000000000 0.000000000000000 
0.000000000000000 1.000000000000000 0.000000000000000 0.000000000000000 
0.000000000000000 0.000000000000000 1.000000000000000 0.000000000000000 
1
1.000000000000000 0.000000000000000 0.000000000000000 0.000000000000000 
0.000000000000000 1.000000000000000 0.000000000000000 0.000000000000000 
0.000000000000000 0.000000000000000 1.000000000000000 0.000000000000000 
1
1.000000000000000 0.000000000000000 0.000000000000000 0.000000000000000 
0.000000000000000 1.000000000000000 0.000000000000000 0.000000000000000 
0.000000000000000 0.000000000000000 1.000000000000000 0.000000000000000 
2  2 1 3 -1 0
1
1.000000000000000 0.000000000000000 0.000000000000000 0.000000000000000 
0.000000000000000 1.000000000000000 0.000000000000000 0.000000000000000 
0.000000000000000 0.000000000000000 1.000000000000000 0.000000000000000 
1
1.000000000000000 0.000000000000000 0.000000000000000 0.000000000000000 
0.000000000000000 0.000000000000000 -1.000000000000000 0.000000000000000 
0.000000000000000 1.000000000000000 0.000000000000000 0.000000000000000 
1
1.000000000000000 0.000000000000000 0.000000000000000 0.000000000000000 
0.000000000000000 1.000000000000000 0.000000000000000 0.000000000000000 
0.000000000000000 0.000000000000000 1.000000000000000 0.000000000000000 
2  5 1 6 1 7 -1 0
2  3 1 2 -1 0
2  5 1 6 1 7 -1 2 1 3 -1 0
1
1.000000000000000 0.000000000000000 0.000000000000000 0.000000000000000 
0.000000000000000 1.000000000000000 0.000000000000000 0.000000000000000 
0.000000000000000 0.000000000000000 1.000000000000000 0.000000000000000 
1
1.000000000000000 0.000000000000000 0.000000000000000 0.000000000000000 
0.000000000000000 1.000000000000000 0.000000000000000 0.000000000000004 
0.000000000000000 0.000000000000000 1.000000000000000 19.500000000000000 
2  11 1 12 1 3 -1 0
2  3 1 12 -1 11 -1 0
1
1.000000000000000 0.000000000000000 0.000000000000000 -0.000000000000000 
0.000000000000000 1.000000000000000 0.000000000000000 -0.000000000000000 
0.000000000000000 0.000000000000000 1.000000000000000 -220.506386528825942 
2  15 -1 3 1 12 -1 11 -1 0
2  7 -1 2 1 3 -1 0
2  3 1 2 -1 7 1 6 -1 5 -1 0
Curve2ds 72
2 -42.25000000000000000 -13.50000000000000000 1.00000000000000000 0.00000000000000000 -0.00000000000000000 1.00000000000000000 25.00000000000000000
1 0.00000000000000000 -3.50000000000000000 1.00000000000000000 0.00000000000000000 
2 -13.75000000000000000 -13.50000000000000000 1.00000000000000000 0.00000000000000000 -0.00000000000000000 1.00000000000000000 19.00000000000000000
1 0.00000000000000000 -3.50000000000000000 1.00000000000000000 0.00000000000000000 
2 11.75000000000000000 -13.50000000000000000 1.00000000000000000 0.00000000000000000 -0.00000000000000000 1.00000000000000000 11.50000000000000000
1 0.00000000000000000 -3.50000000000000000 1.00000000000000000 0.00000000000000000 
8 -3.85000000000000497 0.00048362693069492
1 -0.00000000000000407 -18.33030277982335932 -1.00000000000000000 0.00000000000000022 
8 -3.85000000000000497 0.00048362693069492
1 0.82303369213497601 0.00000000000000000 0.00000000000000000 1.00000000000000000 
1 0.00000000000000000 0.00000000000000000 1.00000000000000000 0.00000000000000000 
1 0.00000000000000000 -220.50638652882594215 1.00000000000000000 0.00000000000000000 
8 -18.15000000000000568 0.00048362693069492
1 16.50000000000000355 -17.85357107135712340 1.00000000000000000 0.00000000000000022 
8 -18.15000000000000568 0.00048362693069492
1 2.34619382340564986 0.00000000000000000 0.00000000000000000 1.00000000000000000 
2 27.50000000000000000 -0.00000000000000366 1.00000000000000000 0.00000000000000000 0.00000000000000000 -1.00000000000000000 25.00000000000000000
1 0.00000000000000000 -16.50000000000000000 1.00000000000000000 0.00000000000000000 
1 3.14159265358979312 0.00000000000000000 0.00000000000000000 -1.00000000000000000 
2 -17.50000000000000000 -0.00000000000000744 -1.00000000000000000 0.00000000000000000 -0.00000000000000000 -1.00000000000000000 25.00000000000000000
1 0.00000000000000000 -33.50000000000000000 1.00000000000000000 0.00000000000000000 
8 -47.80000000000000426 -32.20000000000000284
1 46.50000000000000711 -17.85357107135712340 1.00000000000000000 0.00000000000000022 
8 -47.80000000000000426 -32.20000000000000284
1 2.34619382340564986 0.00000000000000000 0.00000000000000000 1.00000000000000000 
2 17.50000000000000000 -0.00000000000001033 -1.00000000000000000 0.00000000000000000 -0.00000000000000000 -1.00000000000000000 25.00000000000000000
1 0.00000000000000000 -46.50000000000000000 1.00000000000000000 0.00000000000000000 
8 -47.60000000000000853 -34.40000000000000568
1 -35.50000000000000711 -17.85357107135712340 -1.00000000000000000 0.00000000000000022 
8 -47.60000000000000853 -34.40000000000000568
1 0.79539883018414348 0.00000000000000000 0.00000000000000000 1.00000000000000000 
2 40.50000000000000000 -0.00000000000000788 -1.00000000000000000 0.00000000000000000 -0.00000000000000000 -1.00000000000000000 25.00000000000000000
1 0.00000000000000000 -35.50000000000000000 1.00000000000000000 0.00000000000000000 
1 2.10160706655301643 0.00000000000000000 0.00000000000000000 -1.00000000000000000 
1 0.71474079082115693 0.00000000000000000 0.00000000000000000 -1.00000000000000000 
2 -9.50000000000000000 -0.00000000000000677 1.00000000000000000 0.00000000000000000 0.00000000000000000 -1.00000000000000000 25.00000000000000000
1 0.00000000000000000 -30.50000000000000000 1.00000000000000000 0.00000000000000000 
8 -39.30000000000001137 -29.70000000000000284
1 38.50000000000000711 -23.12466215969435623 1.00000000000000000 0.00000000000000022 
8 -39.30000000000001137 -29.70000000000000284
1 1.18100003032063605 0.00000000000000000 0.00000000000000000 1.00000000000000000 
2 9.50000000000000000 -0.00000000000000855 1.00000000000000000 0.00000000000000000 0.00000000000000000 -1.00000000000000000 25.00000000000000000
1 0.00000000000000000 -38.50000000000000000 1.00000000000000000 0.00000000000000000 
8 -39.30000000000000426 -29.70000000000000284
1 -30.50000000000000355 -23.12466215969435623 -1.00000000000000000 0.00000000000000022 
8 -39.30000000000000426 -29.70000000000000284
1 1.96059262326915706 0.00000000000000000 0.00000000000000000 1.00000000000000000 
2 24.50000000000000000 -0.00000000000000677 1.00000000000000000 0.00000000000000000 0.00000000000000000 -1.00000000000000000 25.00000000000000000
1 0.00000000000000000 -30.50000000000000000 1.00000000000000000 0.00000000000000000 
8 -31.60000000000000142 -18.40000000000000213
1 -19.50000000000000000 -4.97493718553309971 -1.00000000000000000 0.00000000000000022 
8 -31.60000000000000142 -18.40000000000000213
1 2.94125781126667363 0.00000000000000000 0.00000000000000000 1.00000000000000000 
2 -9.50000000000000000 -0.00000000000000433 -1.00000000000000000 0.00000000000000000 -0.00000000000000000 -1.00000000000000000 25.00000000000000000
1 0.00000000000000000 -19.50000000000000000 1.00000000000000000 0.00000000000000000 
8 -20.65000000000000568 -6.85000000000000497
1 -8.00000000000000533 -23.12466215969435268 -1.00000000000000000 0.00000000000000022 
8 -20.65000000000000568 -6.85000000000000497
1 1.96059262326915706 0.00000000000000000 0.00000000000000000 1.00000000000000000 
2 14.00000000000000000 -0.00000000000000178 -1.00000000000000000 0.00000000000000000 -0.00000000000000000 -1.00000000000000000 25.00000000000000000
1 0.00000000000000000 -8.00000000000000000 1.00000000000000000 0.00000000000000000 
8 -8.55000000000000426 -7.95000000000000462
1 8.50000000000000533 -20.71231517720797655 1.00000000000000000 0.00000000000000022 
8 -8.55000000000000426 -7.95000000000000462
1 0.97641052679383444 0.00000000000000000 0.00000000000000000 1.00000000000000000 
2 65.50000000000000000 -0.00000000000000189 -1.00000000000000000 0.00000000000000000 -0.00000000000000000 -1.00000000000000000 25.00000000000000000
1 0.00000000000000000 -8.50000000000000000 1.00000000000000000 0.00000000000000000 
2 37.00000000000000000 -0.00000000000000189 -1.00000000000000000 0.00000000000000000 -0.00000000000000000 -1.00000000000000000 19.00000000000000000
1 0.00000000000000000 -8.50000000000000000 1.00000000000000000 0.00000000000000000 
1 2.37268415833947044 0.00000000000000000 0.00000000000000000 -1.00000000000000000 
1 0.43440470991552499 0.00000000000000000 0.00000000000000000 -1.00000000000000000 
1 0.00000000000000000 0.00000000000000000 0.00000000000000000 -1.00000000000000000 
2 11.50000000000000000 -0.00000000000000189 -1.00000000000000000 0.00000000000000000 -0.00000000000000000 -1.00000000000000000 11.50000000000000000
1 0.00000000000000000 -8.50000000000000000 1.00000000000000000 0.00000000000000000 
2 12.00000000000000000 -0.00000000000000788 -1.00000000000000000 0.00000000000000000 -0.00000000000000000 -1.00000000000000000 19.00000000000000000
1 0.00000000000000000 -35.50000000000000000 1.00000000000000000 0.00000000000000000 
2 -9.00000000000000000 -0.00000000000000455 1.00000000000000000 0.00000000000000000 0.00000000000000000 -1.00000000000000000 19.00000000000000000
1 0.00000000000000000 -20.50000000000000000 1.00000000000000000 0.00000000000000000 
8 -31.50000000000000355 -19.50000000000000355
1 30.50000000000000355 -16.73320053068151125 1.00000000000000000 0.00000000000000022 
8 -31.50000000000000355 -19.50000000000000355
1 1.07732693216157438 0.00000000000000000 0.00000000000000000 1.00000000000000000 
2 19.00000000000000000 -0.00000000000000677 1.00000000000000000 0.00000000000000000 0.00000000000000000 -1.00000000000000000 19.00000000000000000
1 0.00000000000000000 -30.50000000000000000 1.00000000000000000 0.00000000000000000 
8 -36.50000000000000000 -24.50000000000000355
1 -25.50000000000000355 -14.73091986265623454 -1.00000000000000000 0.00000000000000022 
8 -36.50000000000000000 -24.50000000000000355
1 0.88720826762245342 0.00000000000000000 0.00000000000000000 1.00000000000000000 
2 39.00000000000000000 -0.00000000000000566 -1.00000000000000000 0.00000000000000000 -0.00000000000000000 -1.00000000000000000 19.00000000000000000
1 0.00000000000000000 -25.50000000000000000 1.00000000000000000 0.00000000000000000 
2 13.50000000000000000 -0.00000000000000566 -1.00000000000000000 0.00000000000000000 -0.00000000000000000 -1.00000000000000000 11.50000000000000000
1 0.00000000000000000 -25.50000000000000000 1.00000000000000000 0.00000000000000000 
2 16.50000000000000000 -0.00000000000000455 1.00000000000000000 0.00000000000000000 0.00000000000000000 -1.00000000000000000 11.50000000000000000
1 0.00000000000000000 -20.50000000000000000 1.00000000000000000 0.00000000000000000 
Curves 84
1 -11.50000000000000000 0.00000000000000355 16.00000000000000000 -0.00000000000000000 1.00000000000000000 -0.00000000000000022 
2 -28.50000000000000000 0.00000000000000433 16.00000000000000000 0.00000000000000000 0.00000000000000000 1.00000000000000000 1.00000000000000000 0.00000000000000000 -0.00000000000000000 -0.00000000000000000 1.00000000000000000 0.00000000000000000 25.00000000000000000
2 0.00000000000000000 0.00000000000000433 16.00000000000000000 0.00000000000000000 0.00000000000000000 1.00000000000000000 1.00000000000000000 0.00000000000000000 -0.00000000000000000 -0.00000000000000000 1.00000000000000000 0.00000000000000000 19.00000000000000000
2 25.50000000000000000 0.00000000000000433 16.00000000000000000 0.00000000000000000 0.00000000000000000 1.00000000000000000 1.00000000000000000 0.00000000000000000 -0.00000000000000000 -0.00000000000000000 1.00000000000000000 0.00000000000000000 11.50000000000000000
1 18.00000000000000000 0.00000000000000355 16.00000000000000000 1.00000000000000000 0.00000000000000000 0.00000000000000000 
1 -11.50000000000000000 19.50000000000000000 0.00000000000000000 0.00000000000000000 -1.00000000000000000 0.00000000000000000 
1 -11.50000000000000000 18.33030277982336287 19.50000000000000000 0.00000000000000000 0.00000000000000000 1.00000000000000000 
1 -11.50000000000000000 0.00000000000000433 19.50000000000000000 -0.00000000000000000 1.00000000000000000 -0.00000000000000022 
2 -28.50000000000000000 0.00000000000000000 0.00000000000000000 0.00000000000000000 0.00000000000000000 1.00000000000000000 1.00000000000000000 0.00000000000000000 -0.00000000000000000 -0.00000000000000000 1.00000000000000000 0.00000000000000000 25.00000000000000000
1 -46.00000000000000000 17.85357107135712695 19.50000000000000000 0.00000000000000000 0.00000000000000000 1.00000000000000000 
2 -28.50000000000000000 0.00000000000000433 3.00000000000000000 0.00000000000000000 0.00000000000000000 1.00000000000000000 1.00000000000000000 0.00000000000000000 -0.00000000000000000 -0.00000000000000000 1.00000000000000000 0.00000000000000000 25.00000000000000000
1 -53.50000000000000000 0.00000000000000739 19.50000000000000000 -0.00000000000000000 -0.00000000000000000 -1.00000000000000000 
2 -28.50000000000000000 0.00000000000000433 -14.00000000000000000 0.00000000000000000 0.00000000000000000 1.00000000000000000 1.00000000000000000 0.00000000000000000 -0.00000000000000000 -0.00000000000000000 1.00000000000000000 0.00000000000000000 25.00000000000000000
1 -46.00000000000000000 17.85357107135712695 19.50000000000000000 0.00000000000000000 0.00000000000000000 1.00000000000000000 
2 -28.50000000000000000 0.00000000000000433 -27.00000000000000000 0.00000000000000000 0.00000000000000000 1.00000000000000000 1.00000000000000000 0.00000000000000000 -0.00000000000000000 -0.00000000000000000 1.00000000000000000 0.00000000000000000 25.00000000000000000
1 -11.00000000000000000 17.85357107135712695 19.50000000000000000 0.00000000000000000 0.00000000000000000 1.00000000000000000 
2 -28.50000000000000000 0.00000000000000433 -16.00000000000000000 0.00000000000000000 0.00000000000000000 1.00000000000000000 1.00000000000000000 0.00000000000000000 -0.00000000000000000 -0.00000000000000000 1.00000000000000000 0.00000000000000000 25.00000000000000000
1 -9.61842105263157876 16.38554168937645272 19.50000000000000000 -0.00000000000000000 -0.00000000000000000 -1.00000000000000000 
2 -28.50000000000000000 0.00000000000000433 -11.00000000000000000 0.00000000000000000 0.00000000000000000 1.00000000000000000 1.00000000000000000 0.00000000000000000 -0.00000000000000000 -0.00000000000000000 1.00000000000000000 0.00000000000000000 25.00000000000000000
1 -19.00000000000000000 23.12466215969435979 19.50000000000000000 0.00000000000000000 0.00000000000000000 1.00000000000000000 
2 -28.50000000000000000 0.00000000000000433 -19.00000000000000000 0.00000000000000000 0.00000000000000000 1.00000000000000000 1.00000000000000000 0.00000000000000000 -0.00000000000000000 -0.00000000000000000 1.00000000000000000 0.00000000000000000 25.00000000000000000
1 -38.00000000000000000 23.12466215969435979 19.50000000000000000 0.00000000000000000 0.00000000000000000 1.00000000000000000 
2 -28.50000000000000000 0.00000000000000433 -11.00000000000000000 0.00000000000000000 0.00000000000000000 1.00000000000000000 1.00000000000000000 0.00000000000000000 -0.00000000000000000 -0.00000000000000000 1.00000000000000000 0.00000000000000000 25.00000000000000000
1 -53.00000000000000000 4.97493718553310416 19.50000000000000000 0.00000000000000000 0.00000000000000000 1.00000000000000000 
2 -28.50000000000000000 0.00000000000000433 0.00000000000000000 0.00000000000000000 0.00000000000000000 1.00000000000000000 1.00000000000000000 0.00000000000000000 -0.00000000000000000 -0.00000000000000000 1.00000000000000000 0.00000000000000000 25.00000000000000000
1 -38.00000000000000000 23.12466215969435979 19.50000000000000000 0.00000000000000000 0.00000000000000000 1.00000000000000000 
2 -28.50000000000000000 0.00000000000000433 11.50000000000000000 0.00000000000000000 0.00000000000000000 1.00000000000000000 1.00000000000000000 0.00000000000000000 -0.00000000000000000 -0.00000000000000000 1.00000000000000000 0.00000000000000000 25.00000000000000000
1 -14.50000000000000000 20.71231517720798365 19.50000000000000000 0.00000000000000000 0.00000000000000000 1.00000000000000000 
2 -28.50000000000000000 0.00000000000000433 11.00000000000000000 0.00000000000000000 0.00000000000000000 1.00000000000000000 1.00000000000000000 0.00000000000000000 -0.00000000000000000 -0.00000000000000000 1.00000000000000000 0.00000000000000000 25.00000000000000000
2 0.00000000000000000 0.00000000000000433 11.00000000000000000 0.00000000000000000 0.00000000000000000 1.00000000000000000 1.00000000000000000 0.00000000000000000 -0.00000000000000000 -0.00000000000000000 1.00000000000000000 0.00000000000000000 19.00000000000000000
1 17.23529411764705799 7.99653904374891145 19.50000000000000000 -0.00000000000000000 -0.00000000000000000 -1.00000000000000000 
1 37.00000000000000000 0.00000000000000433 19.50000000000000000 -0.00000000000000000 -0.00000000000000000 -1.00000000000000000 
2 25.50000000000000000 0.00000000000000433 11.00000000000000000 0.00000000000000000 0.00000000000000000 1.00000000000000000 1.00000000000000000 0.00000000000000000 -0.00000000000000000 -0.00000000000000000 1.00000000000000000 0.00000000000000000 11.50000000000000000
1 -46.00000000000000000 19.50000000000000000 0.00000000000000000 1.00000000000000000 0.00000000000000000 0.00000000000000000 
1 -46.00000000000000000 3.00000000000000000 0.00000000000000000 0.00000000000000000 1.00000000000000000 0.00000000000000000 
1 -56.00000000000000000 3.00000000000000000 0.00000000000000000 1.00000000000000000 0.00000000000000000 0.00000000000000000 
1 -46.00000000000000000 -14.00000000000000000 0.00000000000000000 -1.00000000000000000 0.00000000000000000 0.00000000000000000 
1 -46.00000000000000000 -27.00000000000000000 0.00000000000000000 0.00000000000000000 1.00000000000000000 0.00000000000000000 
1 -11.00000000000000000 -27.00000000000000000 0.00000000000000000 -1.00000000000000000 0.00000000000000000 0.00000000000000000 
1 -11.00000000000000000 -16.00000000000000000 0.00000000000000000 0.00000000000000000 -1.00000000000000000 0.00000000000000000 
1 12.00000000000000000 -16.00000000000000000 0.00000000000000000 -1.00000000000000000 0.00000000000000000 0.00000000000000000 
1 12.00000000000000000 -6.00000000000000000 0.00000000000000000 0.00000000000000000 -1.00000000000000000 0.00000000000000000 
1 39.00000000000000000 -6.00000000000000000 0.00000000000000000 -1.00000000000000000 0.00000000000000000 0.00000000000000000 
1 9.00000000000000000 -1.00000000000000000 0.00000000000000000 1.00000000000000000 0.00000000000000000 0.00000000000000000 
1 9.00000000000000000 -11.00000000000000000 0.00000000000000000 0.00000000000000000 1.00000000000000000 0.00000000000000000 
1 -19.00000000000000000 -11.00000000000000000 0.00000000000000000 1.00000000000000000 0.00000000000000000 0.00000000000000000 
1 -19.00000000000000000 -19.00000000000000000 0.00000000000000000 0.00000000000000000 1.00000000000000000 0.00000000000000000 
1 -38.00000000000000000 -19.00000000000000000 0.00000000000000000 1.00000000000000000 0.00000000000000000 0.00000000000000000 
1 -38.00000000000000000 -11.00000000000000000 0.00000000000000000 0.00000000000000000 -1.00000000000000000 0.00000000000000000 
1 -53.00000000000000000 -11.00000000000000000 0.00000000000000000 1.00000000000000000 0.00000000000000000 0.00000000000000000 
1 -53.00000000000000000 0.00000000000000000 0.00000000000000000 0.00000000000000000 -1.00000000000000000 0.00000000000000000 
1 -38.00000000000000000 0.00000000000000000 0.00000000000000000 -1.00000000000000000 0.00000000000000000 0.00000000000000000 
1 -38.00000000000000000 11.50000000000000000 0.00000000000000000 0.00000000000000000 -1.00000000000000000 0.00000000000000000 
1 -14.50000000000000000 11.50000000000000000 0.00000000000000000 -1.00000000000000000 0.00000000000000000 0.00000000000000000 
1 -14.50000000000000000 11.00000000000000000 0.00000000000000000 0.00000000000000000 1.00000000000000000 0.00000000000000000 
1 37.00000000000000000 11.00000000000000000 0.00000000000000000 -1.00000000000000000 0.00000000000000000 0.00000000000000000 
1 -46.00000000000000000 0.00000000000000433 19.50000000000000000 -0.00000000000000000 1.00000000000000000 -0.00000000000000022 
1 -46.00000000000000000 0.00000000000000067 3.00000000000000000 -0.00000000000000000 1.00000000000000000 -0.00000000000000022 
1 -46.00000000000000000 -0.00000000000000311 -14.00000000000000000 -0.00000000000000000 1.00000000000000000 -0.00000000000000022 
1 -46.00000000000000000 -0.00000000000000600 -27.00000000000000000 -0.00000000000000000 1.00000000000000000 -0.00000000000000022 
1 -11.00000000000000000 -0.00000000000000600 -27.00000000000000000 -0.00000000000000000 1.00000000000000000 -0.00000000000000022 
1 -11.00000000000000000 -0.00000000000000355 -16.00000000000000000 -0.00000000000000000 1.00000000000000000 -0.00000000000000022 
2 0.00000000000000000 0.00000000000000433 -16.00000000000000000 0.00000000000000000 0.00000000000000000 1.00000000000000000 1.00000000000000000 0.00000000000000000 -0.00000000000000000 -0.00000000000000000 1.00000000000000000 0.00000000000000000 19.00000000000000000
1 12.00000000000000000 -0.00000000000000355 -16.00000000000000000 -0.00000000000000000 1.00000000000000000 -0.00000000000000022 
2 0.00000000000000000 0.00000000000000433 -1.00000000000000000 0.00000000000000000 0.00000000000000000 1.00000000000000000 1.00000000000000000 0.00000000000000000 -0.00000000000000000 -0.00000000000000000 1.00000000000000000 0.00000000000000000 19.00000000000000000
1 9.00000000000000000 16.73320053068151481 19.50000000000000000 0.00000000000000000 0.00000000000000000 1.00000000000000000 
2 0.00000000000000000 0.00000000000000433 -11.00000000000000000 0.00000000000000000 0.00000000000000000 1.00000000000000000 1.00000000000000000 0.00000000000000000 -0.00000000000000000 -0.00000000000000000 1.00000000000000000 0.00000000000000000 19.00000000000000000
1 12.00000000000000000 14.73091986265623810 19.50000000000000000 0.00000000000000000 0.00000000000000000 1.00000000000000000 
2 0.00000000000000000 0.00000000000000433 -6.00000000000000000 0.00000000000000000 0.00000000000000000 1.00000000000000000 1.00000000000000000 0.00000000000000000 -0.00000000000000000 -0.00000000000000000 1.00000000000000000 0.00000000000000000 19.00000000000000000
1 9.00000000000000000 -0.00000000000000244 -11.00000000000000000 -0.00000000000000000 1.00000000000000000 -0.00000000000000022 
1 -19.00000000000000000 -0.00000000000000244 -11.00000000000000000 -0.00000000000000000 1.00000000000000000 -0.00000000000000022 
1 -19.00000000000000000 -0.00000000000000422 -19.00000000000000000 -0.00000000000000000 1.00000000000000000 -0.00000000000000022 
1 -38.00000000000000000 -0.00000000000000422 -19.00000000000000000 -0.00000000000000000 1.00000000000000000 -0.00000000000000022 
1 -38.00000000000000000 -0.00000000000000244 -11.00000000000000000 -0.00000000000000000 1.00000000000000000 -0.00000000000000022 
1 -53.00000000000000000 -0.00000000000000244 -11.00000000000000000 -0.00000000000000000 1.00000000000000000 -0.00000000000000022 
1 -53.00000000000000000 0.00000000000000000 0.00000000000000000 -0.00000000000000000 1.00000000000000000 -0.00000000000000022 
1 -38.00000000000000000 0.00000000000000000 0.00000000000000000 -0.00000000000000000 1.00000000000000000 -0.00000000000000022 
1 -38.00000000000000000 0.00000000000000255 11.50000000000000000 -0.00000000000000000 1.00000000000000000 -0.00000000000000022 
1 -14.50000000000000000 0.00000000000000255 11.50000000000000000 -0.00000000000000000 1.00000000000000000 -0.00000000000000022 
1 -14.50000000000000000 0.00000000000000244 11.00000000000000000 -0.00000000000000000 1.00000000000000000 -0.00000000000000022 
1 12.00000000000000000 -0.00000000000000133 -6.00000000000000000 -0.00000000000000000 1.00000000000000000 -0.00000000000000022 
2 25.50000000000000000 0.00000000000000433 -6.00000000000000000 0.00000000000000000 0.00000000000000000 1.00000000000000000 1.00000000000000000 0.00000000000000000 -0.00000000000000000 -0.00000000000000000 1.00000000000000000 0.00000000000000000 11.50000000000000000
2 25.50000000000000000 0.00000000000000433 -1.00000000000000000 0.00000000000000000 0.00000000000000000 1.00000000000000000 1.00000000000000000 0.00000000000000000 -0.00000000000000000 -0.00000000000000000 1.00000000000000000 0.00000000000000000 11.50000000000000000
1 9.00000000000000000 -0.00000000000000022 -1.00000000000000000 -0.00000000000000000 1.00000000000000000 -0.00000000000000022 
Polygon3D 0
PolygonOnTriangulations 0
Surfaces 29
1 13.75000000000000000 13.50000000000000355 16.00000000000000000 0.00000000000000000 0.00000000000000000 1.00000000000000000 1.00000000000000000 0.00000000000000000 -0.00000000000000000 -0.00000000000000000 1.00000000000000000 0.00000000000000000 
2 -28.50000000000000000 0.00000000000000433 19.50000000000000000 0.00000000000000000 0.00000000000000000 1.00000000000000000 1.00000000000000000 0.00000000000000000 0.00000000000000000 0.00000000000000000 1.00000000000000000 0.00000000000000000 25.00000000000000000
2 0.00000000000000000 0.00000000000000433 19.50000000000000000 0.00000000000000000 0.00000000000000000 1.00000000000000000 1.00000000000000000 0.00000000000000000 0.00000000000000000 0.00000000000000000 1.00000000000000000 0.00000000000000000 19.00000000000000000
2 25.50000000000000000 0.00000000000000433 19.50000000000000000 0.00000000000000000 0.00000000000000000 1.00000000000000000 1.00000000000000000 0.00000000000000000 0.00000000000000000 0.00000000000000000 1.00000000000000000 0.00000000000000000 11.50000000000000000
1 -11.50000000000000000 0.00000000000000433 19.50000000000000000 -1.00000000000000000 -0.00000000000000000 0.00000000000000000 0.00000000000000000 -0.00000000000000022 -1.00000000000000000 0.00000000000000000 -1.00000000000000000 0.00000000000000022 
1 -46.00000000000000000 0.00000000000000067 3.00000000000000000 1.00000000000000000 0.00000000000000000 -0.00000000000000000 0.00000000000000000 0.00000000000000022 1.00000000000000000 0.00000000000000000 -1.00000000000000000 0.00000000000000022 
1 -56.00000000000000000 0.00000000000000067 3.00000000000000000 0.00000000000000000 -0.00000000000000022 -1.00000000000000000 1.00000000000000000 0.00000000000000000 0.00000000000000000 0.00000000000000000 -1.00000000000000000 0.00000000000000022 
1 -46.00000000000000000 -0.00000000000000311 -14.00000000000000000 0.00000000000000000 0.00000000000000022 1.00000000000000000 -1.00000000000000000 0.00000000000000000 0.00000000000000000 0.00000000000000000 -1.00000000000000000 0.00000000000000022 
1 -46.00000000000000000 -0.00000000000000600 -27.00000000000000000 1.00000000000000000 0.00000000000000000 -0.00000000000000000 0.00000000000000000 0.00000000000000022 1.00000000000000000 0.00000000000000000 -1.00000000000000000 0.00000000000000022 
1 -11.00000000000000000 -0.00000000000000600 -27.00000000000000000 0.00000000000000000 0.00000000000000022 1.00000000000000000 -1.00000000000000000 0.00000000000000000 0.00000000000000000 0.00000000000000000 -1.00000000000000000 0.00000000000000022 
1 -11.00000000000000000 -0.00000000000000355 -16.00000000000000000 -1.00000000000000000 -0.00000000000000000 0.00000000000000000 0.00000000000000000 -0.00000000000000022 -1.00000000000000000 0.00000000000000000 -1.00000000000000000 0.00000000000000022 
1 12.00000000000000000 -0.00000000000000355 -16.00000000000000000 0.00000000000000000 0.00000000000000022 1.00000000000000000 -1.00000000000000000 0.00000000000000000 0.00000000000000000 0.00000000000000000 -1.00000000000000000 0.00000000000000022 
1 -19.00000000000000000 -0.00000000000000244 -11.00000000000000000 0.00000000000000000 -0.00000000000000022 -1.00000000000000000 1.00000000000000000 0.00000000000000000 0.00000000000000000 0.00000000000000000 -1.00000000000000000 0.00000000000000022 
1 -19.00000000000000000 -0.00000000000000422 -19.00000000000000000 1.00000000000000000 0.00000000000000000 -0.00000000000000000 0.00000000000000000 0.00000000000000022 1.00000000000000000 0.00000000000000000 -1.00000000000000000 0.00000000000000022 
1 -38.00000000000000000 -0.00000000000000422 -19.00000000000000000 0.00000000000000000 -0.00000000000000022 -1.00000000000000000 1.00000000000000000 0.00000000000000000 0.00000000000000000 0.00000000000000000 -1.00000000000000000 0.00000000000000022 
1 -38.00000000000000000 -0.00000000000000244 -11.00000000000000000 -1.00000000000000000 -0.00000000000000000 0.00000000000000000 0.00000000000000000 -0.00000000000000022 -1.00000000000000000 0.00000000000000000 -1.00000000000000000 0.00000000000000022 
1 -53.00000000000000000 -0.00000000000000244 -11.00000000000000000 0.00000000000000000 -0.00000000000000022 -1.00000000000000000 1.00000000000000000 0.00000000000000000 0.00000000000000000 0.00000000000000000 -1.00000000000000000 0.00000000000000022 
1 -53.00000000000000000 0.00000000000000000 0.00000000000000000 -1.00000000000000000 -0.00000000000000000 0.00000000000000000 0.00000000000000000 -0.00000000000000022 -1.00000000000000000 0.00000000000000000 -1.00000000000000000 0.00000000000000022 
1 -38.00000000000000000 0.00000000000000000 0.00000000000000000 0.00000000000000000 0.00000000000000022 1.00000000000000000 -1.00000000000000000 0.00000000000000000 0.00000000000000000 0.00000000000000000 -1.00000000000000000 0.00000000000000022 
1 -38.00000000000000000 0.00000000000000255 11.50000000000000000 -1.00000000000000000 -0.00000000000000000 0.00000000000000000 0.00000000000000000 -0.00000000000000022 -1.00000000000000000 0.00000000000000000 -1.00000000000000000 0.00000000000000022 
1 -14.50000000000000000 0.00000000000000255 11.50000000000000000 0.00000000000000000 0.00000000000000022 1.00000000000000000 -1.00000000000000000 0.00000000000000000 0.00000000000000000 0.00000000000000000 -1.00000000000000000 0.00000000000000022 
1 -14.50000000000000000 0.00000000000000244 11.00000000000000000 1.00000000000000000 0.00000000000000000 -0.00000000000000000 0.00000000000000000 0.00000000000000022 1.00000000000000000 0.00000000000000000 -1.00000000000000000 0.00000000000000022 
1 37.00000000000000000 0.00000000000000244 11.00000000000000000 0.00000000000000000 0.00000000000000022 1.00000000000000000 -1.00000000000000000 0.00000000000000000 0.00000000000000000 0.00000000000000000 -1.00000000000000000 0.00000000000000022 
1 -10.48950381679389388 -0.00000000000000030 -1.34923664122137410 0.00000000000000000 1.00000000000000000 0.00000000000000000 0.00000000000000000 -0.00000000000000000 1.00000000000000000 1.00000000000000000 0.00000000000000000 -0.00000000000000000 
1 -46.00000000000000000 0.00000000000000433 19.50000000000000000 0.00000000000000000 -0.00000000000000022 -1.00000000000000000 1.00000000000000000 0.00000000000000000 0.00000000000000000 0.00000000000000000 -1.00000000000000000 0.00000000000000022 
1 9.00000000000000000 -0.00000000000000022 -1.00000000000000000 0.00000000000000000 -0.00000000000000022 -1.00000000000000000 1.00000000000000000 0.00000000000000000 0.00000000000000000 0.00000000000000000 -1.00000000000000000 0.00000000000000022 
1 9.00000000000000000 -0.00000000000000244 -11.00000000000000000 1.00000000000000000 0.00000000000000000 -0.00000000000000000 0.00000000000000000 0.00000000000000022 1.00000000000000000 0.00000000000000000 -1.00000000000000000 0.00000000000000022 
1 12.00000000000000000 -0.00000000000000133 -6.00000000000000000 -1.00000000000000000 -0.00000000000000000 0.00000000000000000 0.00000000000000000 -0.00000000000000022 -1.00000000000000000 0.00000000000000000 -1.00000000000000000 0.00000000000000022 
1 39.00000000000000000 -0.00000000000000133 -6.00000000000000000 0.00000000000000000 0.00000000000000022 1.00000000000000000 -1.00000000000000000 0.00000000000000000 0.00000000000000000 0.00000000000000000 -1.00000000000000000 0.00000000000000022 
Triangulations 0

TShapes 209
Ve
0.000000100000071
-11.500000000000000 16.000000000000000 0.000000000000000
0 0

0101101
*
Ve
0.000000100000004
-11.500000000000000 18.330302779823363 15.999999999999996
0 0

0101101
*
Ed
 0.000000100000000 1 1 0
1  1 0 0.000000000000000 18.330302779823359
0

0101000
+209 8 -208 9 *
Ve
0.000000100000002
-9.618421052631579 16.385541689376453 16.000000000000000
0 0

0101101
*
Ed
 0.000000100000000 1 1 0
1  2 0 0.714740790821157 0.823033692134976
2  1 1 4 0.714740790821157 0.823033692134976
2  2 2 0 0.714740790821157 0.823033692134976
0

0101000
+206 0 -208 0 *
Ve
0.000000100000001
17.235294117647058 7.996539043748911 16.000000000000000
0 0

0101101
*
Ed
 0.000000100000000 1 1 0
1  3 0 0.434404709915525 2.101607066553016
2  3 1 4 0.434404709915525 2.101607066553016
2  4 3 0 0.434404709915525 2.101607066553016
0

0101000
+204 0 -206 0 *
Ve
0.000000100000005
37.000000000000000 0.000000000000004 16.000000000000000
0 0

0101101
*
Ed
 0.000000100000000 1 1 0
1  4 0 0.000000000000000 2.372684158339470
2  5 1 4 0.000000000000000 2.372684158339470
2  6 4 0 0.000000000000000 2.372684158339470
0

0101000
+202 0 -204 0 *
Ed
 0.000000100000000 1 1 0
1  5 0 -29.500000000000000 19.000000000000000
0

0101000
+209 8 -202 9 *
Wi

0101100
-207 4 +205 0 +203 0 +201 0 +200 4 *
Fa
0  0.000000100000000 1 4

0101000
+199 0 *
Ve
0.000000100000071
-11.500000000000000 19.500000000000000 0.000000000000000
0 0

0101101
*
Ed
 0.000000100000071 1 1 0
1  6 0 0.000000000000000 3.500000000000000
0

0101000
+197 0 -209 0 *
Ve
0.000000100000359
-11.499999999999829 18.330302779823047 19.500000000000000
0 0

0101101
*
Ed
 0.000000100000000 1 1 0
1  7 0 -3.500000000000004 0.000000000000000
2  7 5 4 -3.500000000000004 0.000000000000000
2  8 2 0 -3.500000000000004 0.000000000000000
0

0101000
+208 0 -195 0 *
Ed
 0.000000100000000 1 1 0
1  8 0 0.000000000000000 18.330302779823043
0

0101000
+197 8 -195 9 *
Wi

0101100
-196 10 -207 4 -194 0 +193 4 *
Fa
0  0.000000100000000 5 4

0101000
+192 0 *
Ve
0.000000100000928
-46.000000000000419 17.853571071356299 19.500000000000000
0 0

0101101
*
Ed
 0.000000100000007 1 1 0
1  9 0 0.823033692134962 2.346193823405685
2  9 2 14 0.823033692134962 2.346193823405685
2  10 2 16 0.823033692134962 2.346193823405685
0

0101000
+195 14 -190 14 *
Ve
0.000000100000008
-46.000000000000000 17.853571071357127 2.999999999999996
0 0

0101101
*
Ed
 0.000000100000000 1 1 0
1  10 0 -16.500000000000004 0.000000000000000
2  11 6 4 -16.500000000000004 0.000000000000000
2  12 2 0 -16.500000000000004 0.000000000000000
0

0101000
+188 0 -190 0 *
Ve
0.000000100000071
-53.500000000000000 0.000000000000004 3.000000000000000
0 0

0101101
*
Ed
 0.000000100000000 1 1 0
1  11 0 2.346193823405649 3.141592653589793
2  13 7 4 2.346193823405649 3.141592653589793
2  14 2 0 2.346193823405649 3.141592653589793
0

0101000
+188 0 -186 0 *
Ve
0.000000100000071
-53.500000000000000 0.000000000000002 -14.000000000000000
0 0

0101101
*
Ed
 0.000000100000071 1 1 0
1  12 0 16.500000000000000 33.500000000000000
2  15 2 0 16.500000000000000 33.500000000000000
0

0101000
+186 0 -184 0 *
Ve
0.000000100000008
-46.000000000000000 17.853571071357127 -14.000000000000004
0 0

0101101
*
Ed
 0.000000100000000 1 1 0
1  13 0 2.346193823405649 3.141592653589793
2  16 8 4 2.346193823405649 3.141592653589793
2  17 2 0 2.346193823405649 3.141592653589793
0

0101000
+182 0 -184 0 *
Ve
0.000000100000008
-46.000000000000000 17.853571071357127 -27.000000000000004
0 0

0101101
*
Ed
 0.000000100000000 1 1 0
1  14 0 -46.500000000000000 -33.500000000000000
2  18 9 4 -46.500000000000000 -33.500000000000000
2  19 2 0 -46.500000000000000 -33.500000000000000
0

0101000
+180 0 -182 0 *
Ve
0.000000100000004
-11.000000000000000 17.853571071357127 -27.000000000000004
0 0

0101101
*
Ed
 0.000000100000000 1 1 0
1  15 0 0.795398830184144 2.346193823405649
2  20 10 4 0.795398830184144 2.346193823405649
2  21 2 0 0.795398830184144 2.346193823405649
0

0101000
+178 0 -180 0 *
Ve
0.000000100000004
-11.000000000000000 17.853571071357127 -16.000000000000004
0 0

0101101
*
Ed
 0.000000100000000 1 1 0
1  16 0 -46.500000000000000 -35.500000000000000
2  22 11 4 -46.500000000000000 -35.500000000000000
2  23 2 0 -46.500000000000000 -35.500000000000000
0

0101000
+178 0 -176 0 *
Ve
0.000000100000002
-9.618421052631579 16.385541689376453 -16.000000000000000
0 0

0101101
*
Ed
 0.000000100000000 1 1 0
1  17 0 0.714740790821157 0.795398830184144
2  24 12 4 0.714740790821157 0.795398830184144
2  25 2 0 0.714740790821157 0.795398830184144
0

0101000
+174 0 -176 0 *
Ve
0.000000100000004
-9.618421052631579 16.385541689376453 -11.000000000000004
0 0

0101101
*
Ed
 0.000000100000001 1 1 0
1  18 0 30.500000000000004 35.500000000000000
2  26 3 0 30.500000000000004 35.500000000000000
2  27 2 0 30.500000000000004 35.500000000000000
0

0101000
+172 0 -174 0 *
Ve
0.000000100000005
-19.000000000000000 23.124662159694360 -11.000000000000005
0 0

0101101
*
Ed
 0.000000100000000 1 1 0
1  19 0 0.714740790821157 1.181000030320636
2  28 13 4 0.714740790821157 1.181000030320636
2  29 2 0 0.714740790821157 1.181000030320636
0

0101000
+172 0 -170 0 *
Ve
0.000000100000004
-19.000000000000000 23.124662159694360 -19.000000000000004
0 0

0101101
*
Ed
 0.000000100000000 1 1 0
1  20 0 -38.500000000000000 -30.500000000000007
2  30 14 4 -38.500000000000000 -30.500000000000007
2  31 2 0 -38.500000000000000 -30.500000000000007
0

0101000
+168 0 -170 0 *
Ve
0.000000100000005
-38.000000000000000 23.124662159694360 -19.000000000000004
0 0

0101101
*
Ed
 0.000000100000000 1 1 0
1  21 0 1.181000030320636 1.960592623269157
2  32 15 4 1.181000030320636 1.960592623269157
2  33 2 0 1.181000030320636 1.960592623269157
0

0101000
+168 0 -166 0 *
Ve
0.000000100000006
-38.000000000000000 23.124662159694360 -11.000000000000005
0 0

0101101
*
Ed
 0.000000100000000 1 1 0
1  22 0 -38.500000000000000 -30.500000000000007
2  34 16 4 -38.500000000000000 -30.500000000000007
2  35 2 0 -38.500000000000000 -30.500000000000007
0

0101000
+166 0 -164 0 *
Ve
0.000000100000002
-53.000000000000000 4.974937185533104 -11.000000000000002
0 0

0101101
*
Ed
 0.000000100000000 1 1 0
1  23 0 1.960592623269157 2.941257811266674
2  36 17 4 1.960592623269157 2.941257811266674
2  37 2 0 1.960592623269157 2.941257811266674
0

0101000
+164 0 -162 0 *
Ve
0.000000100000001
-53.000000000000000 4.974937185533104 -0.000000000000001
0 0

0101101
*
Ed
 0.000000100000000 1 1 0
1  24 0 -30.500000000000000 -19.500000000000000
2  38 18 4 -30.500000000000000 -19.500000000000000
2  39 2 0 -30.500000000000000 -19.500000000000000
0

0101000
+162 0 -160 0 *
Ve
0.000000100000006
-38.000000000000000 23.124662159694360 -0.000000000000005
0 0

0101101
*
Ed
 0.000000100000000 1 1 0
1  25 0 1.960592623269157 2.941257811266674
2  40 19 4 1.960592623269157 2.941257811266674
2  41 2 0 1.960592623269157 2.941257811266674
0

0101000
+158 0 -160 0 *
Ve
0.000000100000006
-38.000000000000000 23.124662159694363 11.499999999999995
0 0

0101101
*
Ed
 0.000000100000000 1 1 0
1  26 0 -19.500000000000004 -8.000000000000005
2  42 20 4 -19.500000000000004 -8.000000000000005
2  43 2 0 -19.500000000000004 -8.000000000000005
0

0101000
+158 0 -156 0 *
Ve
0.000000100000007
-14.500000000000000 20.712315177207987 11.499999999999995
0 0

0101101
*
Ed
 0.000000100000000 1 1 0
1  27 0 0.976410526793834 1.960592623269157
2  44 21 4 0.976410526793834 1.960592623269157
2  45 2 0 0.976410526793834 1.960592623269157
0

0101000
+154 0 -156 0 *
Ve
0.000000100000007
-14.500000000000000 20.712315177207987 10.999999999999995
0 0

0101101
*
Ed
 0.000000100000000 1 1 0
1  28 0 -8.500000000000005 -8.000000000000005
2  46 22 4 -8.500000000000005 -8.000000000000005
2  47 2 0 -8.500000000000005 -8.000000000000005
0

0101000
+152 0 -154 0 *
Ve
0.000000100000004
-9.618421052631579 16.385541689376453 10.999999999999996
0 0

0101101
*
Ed
 0.000000100000000 1 1 0
1  29 0 0.714740790821157 0.976410526793834
2  48 23 4 0.714740790821157 0.976410526793834
2  49 2 0 0.714740790821157 0.976410526793834
0

0101000
+150 0 -152 0 *
Ed
 0.000000100000001 1 1 0
1  18 0 3.500000000000000 8.500000000000004
2  26 3 0 3.500000000000000 8.500000000000004
2  27 2 0 3.500000000000000 8.500000000000004
0

0101000
+206 0 -150 0 *
Wi

0101100
-205 0 -194 0 -189 13 +187 0 -185 0 -183 0 +181 0 +179 0 +177 0 -175 0 
+173 0 +171 0 -169 0 +167 0 -165 0 -163 0 -161 0 -159 0 +157 0 -155 0 
+153 0 +151 0 +149 0 +148 0 *
Fa
0  0.000000100000000 2 0

0101000
+147 0 *
Ve
0.000000100000002
17.235294117647058 7.996539043748911 10.999999999999998
0 0

0101101
*
Ed
 0.000000100000000 1 1 0
1  30 0 0.434404709915525 2.101607066553016
2  50 23 4 0.434404709915525 2.101607066553016
2  51 3 0 0.434404709915525 2.101607066553016
0

0101000
+145 0 -150 0 *
Ed
 0.000000100000000 1 1 0
1  31 0 3.500000000000000 8.500000000000002
2  52 4 0 3.500000000000000 8.500000000000002
2  53 3 0 3.500000000000000 8.500000000000002
0

0101000
+204 0 -145 0 *
Wi

0101100
-203 0 -148 0 +144 0 +143 0 *
Fa
0  0.000000100000000 3 0

0101000
+142 0 *
Ve
0.000120906733674
37.000000000000000 0.000000000000002 11.000000000000000
0 0

0101101
*
Ed
 0.000000100000005 1 1 0
1  32 0 3.500000000000000 8.500000000000000
2  54 4 0 3.500000000000000 8.500000000000000
0

0101000
+202 0 -140 0 *
Ed
 0.000000100000000 1 1 0
1  33 0 0.000000000000000 2.372684158339470
2  55 23 4 0.000000000000000 2.372684158339470
2  56 4 0 0.000000000000000 2.372684158339470
0

0101000
+140 0 -145 0 *
Wi

0101100
+139 0 -201 0 -143 0 +138 0 *
Fa
0  0.000000100000000 4 0

0101000
+137 0 *
Ve
0.000000100000071
-46.000000000000000 19.500000000000000 0.000000000000000
0 0

0101101
*
Ed
 0.000000100000071 1 1 0
1  34 0 0.000000000000000 34.500000000000000
0

0101000
+135 0 -197 0 *
Ve
0.000000100000071
-46.000000000000000 3.000000000000000 0.000000000000000
0 0

0101101
*
Ed
 0.000000100000071 1 1 0
1  35 0 0.000000000000000 16.500000000000000
0

0101000
+133 0 -135 0 *
Ed
 0.000000100000071 1 1 0
1  36 0 2.500000000000000 10.000000000000000
0

0101000
+186 18 -133 0 *
Ve
0.000000100000071
-46.000000000000000 -14.000000000000000 0.000000000000000
0 0

0101101
*
Ed
 0.000000100000071 1 1 0
1  37 0 0.000000000000000 7.500000000000000
0

0101000
+130 0 -184 18 *
Ve
0.000000100000071
-46.000000000000000 -27.000000000000000 0.000000000000000
0 0

0101101
*
Ed
 0.000000100000071 1 1 0
1  38 0 0.000000000000000 13.000000000000000
0

0101000
+128 0 -130 0 *
Ve
0.000000100000071
-11.000000000000000 -27.000000000000000 0.000000000000000
0 0

0101101
*
Ed
 0.000000100000071 1 1 0
1  39 0 0.000000000000000 35.000000000000000
0

0101000
+126 0 -128 0 *
Ve
0.000000100000071
-11.000000000000000 -16.000000000000000 0.000000000000000
0 0

0101101
*
Ed
 0.000000100000071 1 1 0
1  40 0 0.000000000000000 11.000000000000000
0

0101000
+124 0 -126 0 *
Ve
0.000000100000071
12.000000000000000 -16.000000000000000 0.000000000000000
0 0

0101101
*
Ed
 0.000000100000071 1 1 0
1  41 0 0.000000000000000 23.000000000000000
0

0101000
+122 0 -124 0 *
Ve
0.000000100000071
12.000000000000000 -6.000000000000000 0.000000000000000
0 0

0101101
*
Ed
 0.000000100000071 1 1 0
1  42 0 0.000000000000000 10.000000000000000
0

0101000
+120 0 -122 0 *
Ve
0.000000100000071
37.000000000000000 0.000000000000001 -6.000000000000000
0 0

0101101
*
Ed
 0.000000100000071 1 1 0
1  43 0 2.000000000000000 27.000000000000000
0

0101000
+118 18 -120 0 *
Ve
0.000120906733674
37.000000000000000 -0.000000000000000 -1.000000000000000
0 0

0101101
*
Ed
 0.000000100000071 1 1 0
1  32 0 20.500000000000000 25.500000000000000
2  54 4 0 20.500000000000000 25.500000000000000
0

0101000
+116 0 -118 0 *
Ve
0.000000100000071
9.000000000000000 -1.000000000000000 0.000000000000000
0 0

0101101
*
Ed
 0.000000100000071 1 1 0
1  44 0 0.000000000000000 28.000000000000000
0

0101000
+114 0 -116 18 *
Ve
0.000000100000071
9.000000000000000 -11.000000000000000 0.000000000000000
0 0

0101101
*
Ed
 0.000000100000071 1 1 0
1  45 0 0.000000000000000 10.000000000000000
0

0101000
+112 0 -114 0 *
Ve
0.000000100000071
-19.000000000000000 -11.000000000000000 0.000000000000000
0 0

0101101
*
Ed
 0.000000100000071 1 1 0
1  46 0 0.000000000000000 28.000000000000000
0

0101000
+110 0 -112 0 *
Ve
0.000000100000071
-19.000000000000000 -19.000000000000000 0.000000000000000
0 0

0101101
*
Ed
 0.000000100000071 1 1 0
1  47 0 0.000000000000000 8.000000000000000
0

0101000
+108 0 -110 0 *
Ve
0.000000100000071
-38.000000000000000 -19.000000000000000 0.000000000000000
0 0

0101101
*
Ed
 0.000000100000071 1 1 0
1  48 0 0.000000000000000 19.000000000000000
0

0101000
+106 0 -108 0 *
Ve
0.000000100000071
-38.000000000000000 -11.000000000000000 0.000000000000000
0 0

0101101
*
Ed
 0.000000100000071 1 1 0
1  49 0 0.000000000000000 8.000000000000000
0

0101000
+104 0 -106 0 *
Ve
0.000000100000071
-53.000000000000000 -11.000000000000000 0.000000000000000
0 0

0101101
*
Ed
 0.000000100000071 1 1 0
1  50 0 0.000000000000000 15.000000000000000
0

0101000
+102 0 -104 0 *
Ve
0.000000100000071
-53.000000000000000 0.000000000000000 0.000000000000000
0 0

0101101
*
Ed
 0.000000100000071 1 1 0
1  51 0 0.000000000000000 11.000000000000000
0

0101000
+100 0 -102 0 *
Ve
0.000000100000071
-38.000000000000000 0.000000000000000 0.000000000000000
0 0

0101101
*
Ed
 0.000000100000071 1 1 0
1  52 0 0.000000000000000 15.000000000000000
0

0101000
+98 0 -100 0 *
Ve
0.000000100000071
-38.000000000000000 11.500000000000000 0.000000000000000
0 0

0101101
*
Ed
 0.000000100000071 1 1 0
1  53 0 0.000000000000000 11.500000000000000
0

0101000
+96 0 -98 0 *
Ve
0.000000100000071
-14.500000000000000 11.500000000000000 0.000000000000000
0 0

0101101
*
Ed
 0.000000100000071 1 1 0
1  54 0 0.000000000000000 23.500000000000000
0

0101000
+94 0 -96 0 *
Ve
0.000000100000071
-14.500000000000000 11.000000000000000 0.000000000000000
0 0

0101101
*
Ed
 0.000000100000071 1 1 0
1  55 0 0.000000000000000 0.500000000000000
0

0101000
+92 0 -94 0 *
Ed
 0.000000100000000 1 1 0
1  56 0 0.000000000000000 51.500000000000000
0

0101000
+140 18 -92 0 *
Wi

0101100
+200 4 +196 10 +134 10 +132 10 +131 10 -183 0 +129 10 +127 10 +125 10 +123 10 
+121 10 +119 10 +117 10 +115 0 +113 10 +111 10 +109 10 +107 10 +105 10 +103 10 
+101 10 +99 10 +97 10 +95 10 +93 10 +91 10 +90 10 +139 0 *
Fa
0  0.000000100000000 24 17

0101000
+89 0 *
Ed
 0.000000100000000 1 1 0
1  57 0 0.000000000000000 17.853571071356296
0

0101000
+135 8 -190 9 *
Wi

0101100
-134 10 -193 4 -189 13 +87 4 *
Fa
0  0.000000100000000 25 4

0101000
+86 0 *
Ed
 0.000000100000000 1 1 0
1  58 0 0.000000000000000 17.853571071357127
0

0101000
+133 8 -188 9 *
Wi

0101100
-132 10 -87 4 +187 0 +84 4 *
Fa
0  0.000000100000000 6 4

0101000
+83 0 *
Wi

0101100
-131 10 -84 4 -185 0 *
Fa
0  0.000000100000000 7 4

0101000
+81 0 *
Ed
 0.000000100000000 1 1 0
1  59 0 0.000000000000000 17.853571071357131
0

0101000
+130 8 -182 9 *
Wi

0101100
-129 10 +181 0 +79 4 *
Fa
0  0.000000100000000 8 4

0101000
+78 0 *
Ed
 0.000000100000000 1 1 0
1  60 0 0.000000000000000 17.853571071357134
0

0101000
+128 8 -180 9 *
Wi

0101100
-127 10 -79 4 +179 0 +76 4 *
Fa
0  0.000000100000000 9 4

0101000
+75 0 *
Ed
 0.000000100000000 1 1 0
1  61 0 0.000000000000000 17.853571071357134
0

0101000
+126 8 -178 9 *
Wi

0101100
-125 10 -76 4 +177 0 +73 4 *
Fa
0  0.000000100000000 10 4

0101000
+72 0 *
Ed
 0.000000100000000 1 1 0
1  62 0 0.000000000000000 17.853571071357131
0

0101000
+124 8 -176 9 *
Wi

0101100
-123 10 -73 4 -175 0 +70 4 *
Fa
0  0.000000100000000 11 4

0101000
+69 0 *
Ve
0.000000100000004
12.000000000000000 14.730919862656238 -16.000000000000004
0 0

0101101
*
Ed
 0.000000100000000 1 1 0
1  63 0 0.887208267622454 2.101607066553016
2  57 12 4 0.887208267622454 2.101607066553016
2  58 3 0 0.887208267622454 2.101607066553016
0

0101000
+67 0 -174 0 *
Ed
 0.000000100000000 1 1 0
1  64 0 0.000000000000000 14.730919862656242
0

0101000
+122 8 -67 9 *
Wi

0101100
-121 10 -70 4 +173 0 +66 0 +65 4 *
Fa
0  0.000000100000000 12 4

0101000
+64 0 *
Ve
0.000000100000001
17.235294117647058 7.996539043748911 -1.000000000000000
0 0

0101101
*
Ve
0.000000100000004
9.000000000000000 16.733200530681515 -1.000000000000004
0 0

0101101
*
Ed
 0.000000100000000 1 1 0
1  65 0 0.434404709915525 1.077326932161574
2  59 26 4 0.434404709915525 1.077326932161574
2  60 3 0 0.434404709915525 1.077326932161574
0

0101000
+62 0 -61 0 *
Ve
0.000000100000004
9.000000000000000 16.733200530681515 -11.000000000000004
0 0

0101101
*
Ed
 0.000000100000000 1 1 0
1  66 0 -30.500000000000004 -20.500000000000004
2  61 27 4 -30.500000000000004 -20.500000000000004
2  62 3 0 -30.500000000000004 -20.500000000000004
0

0101000
+59 0 -61 0 *
Ed
 0.000000100000000 1 1 0
1  67 0 1.077326932161574 2.101607066553016
2  63 13 4 1.077326932161574 2.101607066553016
2  64 3 0 1.077326932161574 2.101607066553016
0

0101000
+59 0 -172 0 *
Ve
0.000000100000004
12.000000000000000 14.730919862656238 -6.000000000000004
0 0

0101101
*
Ed
 0.000000100000000 1 1 0
1  68 0 -35.500000000000000 -25.500000000000004
2  65 28 4 -35.500000000000000 -25.500000000000004
2  66 3 0 -35.500000000000000 -25.500000000000004
0

0101000
+67 0 -56 0 *
Ve
0.000000100000001
17.235294117647058 7.996539043748911 -6.000000000000000
0 0

0101101
*
Ed
 0.000000100000000 1 1 0
1  69 0 0.434404709915525 0.887208267622454
2  67 29 4 0.434404709915525 0.887208267622454
2  68 3 0 0.434404709915525 0.887208267622454
0

0101000
+54 0 -56 0 *
Ed
 0.000000100000000 1 1 0
1  31 0 20.500000000000000 25.500000000000000
2  52 4 0 20.500000000000000 25.500000000000000
2  53 3 0 20.500000000000000 25.500000000000000
0

0101000
+62 0 -54 0 *
Wi

0101100
-60 0 +58 0 -57 0 -171 0 +66 0 -55 0 +53 0 +52 0 *
Fa
0  0.000000100000000 3 0

0101000
+51 0 *
Ed
 0.000000100000000 1 1 0
1  70 0 0.000000000000000 16.733200530681518
0

0101000
+112 8 -59 9 *
Ed
 0.000000100000000 1 1 0
1  71 0 0.000000000000000 23.124662159694363
0

0101000
+110 8 -170 9 *
Wi

0101100
-109 10 -49 4 -57 0 -169 0 +48 4 *
Fa
0  0.000000100000000 13 4

0101000
+47 0 *
Ed
 0.000000100000000 1 1 0
1  72 0 0.000000000000000 23.124662159694363
0

0101000
+108 8 -168 9 *
Wi

0101100
-107 10 -48 4 +167 0 +45 4 *
Fa
0  0.000000100000000 14 4

0101000
+44 0 *
Ed
 0.000000100000000 1 1 0
1  73 0 0.000000000000000 23.124662159694363
0

0101000
+106 8 -166 9 *
Wi

0101100
-105 10 -45 4 -165 0 +42 4 *
Fa
0  0.000000100000000 15 4

0101000
+41 0 *
Ed
 0.000000100000000 1 1 0
1  74 0 0.000000000000000 23.124662159694363
0

0101000
+104 8 -164 9 *
Wi

0101100
-103 10 -42 4 -163 0 +39 4 *
Fa
0  0.000000100000000 16 4

0101000
+38 0 *
Ed
 0.000000100000000 1 1 0
1  75 0 0.000000000000000 4.974937185533107
0

0101000
+102 8 -162 9 *
Wi

0101100
-101 10 -39 4 -161 0 +36 4 *
Fa
0  0.000000100000000 17 4

0101000
+35 0 *
Ed
 0.000000100000000 1 1 0
1  76 0 0.000000000000000 4.974937185533104
0

0101000
+100 8 -160 9 *
Wi

0101100
-99 10 -36 4 -159 0 +33 4 *
Fa
0  0.000000100000000 18 4

0101000
+32 0 *
Ed
 0.000000100000000 1 1 0
1  77 0 0.000000000000000 23.124662159694360
0

0101000
+98 8 -158 9 *
Wi

0101100
-97 10 -33 4 +157 0 +30 4 *
Fa
0  0.000000100000000 19 4

0101000
+29 0 *
Ed
 0.000000100000000 1 1 0
1  78 0 0.000000000000000 23.124662159694360
0

0101000
+96 8 -156 9 *
Wi

0101100
-95 10 -30 4 -155 0 +27 4 *
Fa
0  0.000000100000000 20 4

0101000
+26 0 *
Ed
 0.000000100000000 1 1 0
1  79 0 0.000000000000000 20.712315177207984
0

0101000
+94 8 -154 9 *
Wi

0101100
-93 10 -27 4 +153 0 +24 4 *
Fa
0  0.000000100000000 21 4

0101000
+23 0 *
Ed
 0.000000100000000 1 1 0
1  80 0 0.000000000000000 20.712315177207984
0

0101000
+92 8 -152 9 *
Wi

0101100
-91 10 -24 4 +151 0 +21 4 *
Fa
0  0.000000100000000 22 4

0101000
+20 0 *
Wi

0101100
-90 10 -21 4 +149 0 +144 0 +138 0 *
Fa
0  0.000000100000000 23 4

0101000
+18 0 *
Ed
 0.000000100000000 1 1 0
1  81 0 0.000000000000000 14.730919862656240
0

0101000
+120 8 -56 9 *
Wi

0101100
-119 10 -65 4 -55 0 +16 4 *
Fa
0  0.000000100000000 28 4

0101000
+15 0 *
Ed
 0.000000100000000 1 1 0
1  82 0 0.000000000000000 2.372684158339470
2  69 29 4 0.000000000000000 2.372684158339470
2  70 4 0 0.000000000000000 2.372684158339470
0

0101000
+118 0 -54 0 *
Wi

0101100
-117 10 -16 4 +53 0 +13 0 *
Fa
0  0.000000100000000 29 4

0101000
+12 0 *
Ed
 0.000000100000000 1 1 0
1  83 0 0.000000000000000 2.372684158339470
2  71 26 4 0.000000000000000 2.372684158339470
2  72 4 0 0.000000000000000 2.372684158339470
0

0101000
+116 0 -62 0 *
Wi

0101100
-10 0 -52 0 +13 0 +115 0 *
Fa
0  0.000000100000000 4 0

0101000
+9 0 *
Ed
 0.000000100000000 1 1 0
1  84 0 0.000000000000000 16.733200530681515
0

0101000
+114 8 -61 9 *
Wi

0101100
-113 10 -10 0 -60 0 +7 4 *
Fa
0  0.000000100000000 26 4

0101000
+6 0 *
Wi

0101100
-111 10 -7 4 +58 0 +49 4 *
Fa
0  0.000000100000000 27 4

0101000
+4 0 *
Sh

0101100
+198 0 -191 0 +146 0 +141 0 +136 0 -88 0 -85 0 -82 0 -80 0 -77 0 
-74 0 -71 0 -68 0 -63 0 +50 0 -46 0 -43 0 -40 0 -37 0 -34 0 
-31 0 -28 0 -25 0 -22 0 -19 0 -17 0 -14 0 -11 0 +8 0 -5 0 
-3 0 *
So

0100000
+2 0 *

+1 1 