
CASCADE Topology V1, (c) Matra-Datavision
Locations 11
1
1.000000000000000 0.000000000000000 0.000000000000000 0.000000000000000 
0.000000000000000 1.000000000000000 0.000000000000000 0.000000000000000 
0.000000000000000 0.000000000000000 1.000000000000000 0.000000000000000 
1
1.000000000000000 0.000000000000000 0.000000000000000 0.000000000000000 
0.000000000000000 1.000000000000000 0.000000000000000 0.000000000000004 
0.000000000000000 0.000000000000000 1.000000000000000 19.500000000000000 
1
1.000000000000000 0.000000000000000 0.000000000000000 0.000000000000000 
0.000000000000000 1.000000000000000 0.000000000000000 0.000000000000000 
0.000000000000000 0.000000000000000 1.000000000000000 0.000000000000000 
2  1 1 2 1 3 -1 0
1
1.000000000000000 0.000000000000000 0.000000000000000 -0.000000000000000 
0.000000000000000 1.000000000000000 0.000000000000000 -0.000000000000000 
0.000000000000000 0.000000000000000 1.000000000000000 -220.506386528825942 
2  1 1 2 1 3 -1 5 1 0
2  3 1 2 -1 1 -1 0
2  5 -1 3 1 2 -1 1 -1 0
2  3 -1 0
2  1 1 2 1 0
2  3 -1 5 1 0
Curve2ds 12
1 0.00000000000000000 0.00000000000000000 0.00000000000000000 -1.00000000000000000 
1 2.37268415833947044 0.00000000000000000 0.00000000000000000 -1.00000000000000000 
1 0.43440470991552499 0.00000000000000000 0.00000000000000000 -1.00000000000000000 
1 0.00000000000000000 0.00000000000000000 1.00000000000000000 0.00000000000000000 
1 0.00000000000000000 -220.50638652882594215 1.00000000000000000 0.00000000000000000 
1 2.10160706655301643 0.00000000000000000 0.00000000000000000 -1.00000000000000000 
1 0.71474079082115693 0.00000000000000000 0.00000000000000000 -1.00000000000000000 
1 0.00000000000000000 0.00000000000000000 1.00000000000000000 0.00000000000000000 
1 0.00000000000000000 -220.50638652882594215 1.00000000000000000 0.00000000000000000 
1 3.14159265358979312 0.00000000000000000 0.00000000000000000 -1.00000000000000000 
1 0.00000000000000000 0.00000000000000000 1.00000000000000000 0.00000000000000000 
1 0.00000000000000000 -220.50638652882594215 1.00000000000000000 0.00000000000000000 
Curves 16
1 39.00000000000000000 27.00000000000000355 19.50000000000000000 -0.00000000000000000 -0.00000000000000000 -1.00000000000000000 
1 39.00000000000000000 0.00000000000000433 19.50000000000000000 -0.00000000000000000 -0.00000000000000000 -1.00000000000000000 
1 39.00000000000000000 27.00000000000000000 0.00000000000000000 0.00000000000000000 -1.00000000000000000 0.00000000000000000 
1 37.00000000000000000 0.00000000000000433 19.50000000000000000 -0.00000000000000000 -0.00000000000000000 -1.00000000000000000 
1 39.00000000000000000 0.00000000000000000 0.00000000000000000 -1.00000000000000000 0.00000000000000000 0.00000000000000000 
1 17.23529411764705799 7.99653904374891145 19.50000000000000000 -0.00000000000000000 -0.00000000000000000 -1.00000000000000000 
2 25.50000000000000000 0.00000000000000000 0.00000000000000000 0.00000000000000000 0.00000000000000000 1.00000000000000000 1.00000000000000000 0.00000000000000000 -0.00000000000000000 -0.00000000000000000 1.00000000000000000 0.00000000000000000 11.50000000000000000
1 -9.61842105263157876 16.38554168937645272 19.50000000000000000 -0.00000000000000000 -0.00000000000000000 -1.00000000000000000 
2 0.00000000000000000 0.00000000000000000 0.00000000000000000 0.00000000000000000 0.00000000000000000 1.00000000000000000 1.00000000000000000 0.00000000000000000 -0.00000000000000000 -0.00000000000000000 1.00000000000000000 0.00000000000000000 19.00000000000000000
1 -53.50000000000000000 0.00000000000000739 19.50000000000000000 -0.00000000000000000 -0.00000000000000000 -1.00000000000000000 
2 -28.50000000000000000 0.00000000000000000 0.00000000000000000 0.00000000000000000 0.00000000000000000 1.00000000000000000 1.00000000000000000 0.00000000000000000 -0.00000000000000000 -0.00000000000000000 1.00000000000000000 0.00000000000000000 25.00000000000000000
1 -56.00000000000000000 0.00000000000000433 19.50000000000000000 -0.00000000000000000 -0.00000000000000000 -1.00000000000000000 
1 -56.00000000000000000 0.00000000000000000 0.00000000000000000 1.00000000000000000 0.00000000000000122 0.00000000000000000 
1 -56.00000000000000000 27.00000000000000355 19.50000000000000000 -0.00000000000000000 -0.00000000000000000 -1.00000000000000000 
1 -56.00000000000000000 27.00000000000000000 0.00000000000000000 0.00000000000000000 -1.00000000000000000 0.00000000000000000 
1 39.00000000000000000 27.00000000000000000 0.00000000000000000 -1.00000000000000000 0.00000000000000000 0.00000000000000000 
Polygon3D 0
PolygonOnTriangulations 0
Surfaces 9
1 39.00000000000000000 27.00000000000000355 19.50000000000000000 -1.00000000000000000 0.00000000000000000 0.00000000000000000 0.00000000000000000 -1.00000000000000000 0.00000000000000000 0.00000000000000000 0.00000000000000000 1.00000000000000000 
1 39.00000000000000000 0.00000000000000433 19.50000000000000000 0.00000000000000000 1.00000000000000000 -0.00000000000000000 -1.00000000000000000 0.00000000000000000 0.00000000000000000 0.00000000000000000 0.00000000000000000 1.00000000000000000 
2 25.50000000000000000 0.00000000000000433 19.50000000000000000 0.00000000000000000 0.00000000000000000 1.00000000000000000 1.00000000000000000 0.00000000000000000 0.00000000000000000 0.00000000000000000 1.00000000000000000 0.00000000000000000 11.50000000000000000
2 0.00000000000000000 0.00000000000000433 19.50000000000000000 0.00000000000000000 0.00000000000000000 1.00000000000000000 1.00000000000000000 0.00000000000000000 0.00000000000000000 0.00000000000000000 1.00000000000000000 0.00000000000000000 19.00000000000000000
2 -28.50000000000000000 0.00000000000000433 19.50000000000000000 0.00000000000000000 0.00000000000000000 1.00000000000000000 1.00000000000000000 0.00000000000000000 0.00000000000000000 0.00000000000000000 1.00000000000000000 0.00000000000000000 25.00000000000000000
1 -56.00000000000000000 0.00000000000000433 19.50000000000000000 0.00000000000000122 -1.00000000000000000 0.00000000000000000 1.00000000000000000 0.00000000000000122 0.00000000000000000 -0.00000000000000000 0.00000000000000000 1.00000000000000000 
1 -56.00000000000000000 27.00000000000000355 19.50000000000000000 -1.00000000000000000 0.00000000000000000 0.00000000000000000 0.00000000000000000 -1.00000000000000000 0.00000000000000000 0.00000000000000000 0.00000000000000000 1.00000000000000000 
1 39.00000000000000000 27.00000000000000355 19.50000000000000000 0.00000000000000000 1.00000000000000000 -0.00000000000000000 -1.00000000000000000 0.00000000000000000 0.00000000000000000 0.00000000000000000 0.00000000000000000 1.00000000000000000 
1 -9.13668607762653373 18.50319101255136900 19.49999999999999645 0.00000000000000000 0.00000000000000000 1.00000000000000000 1.00000000000000000 0.00000000000000000 -0.00000000000000000 -0.00000000000000000 1.00000000000000000 0.00000000000000000 
Triangulations 0

TShapes 44
Ve
0.000000100000000
39.000000000000000 27.000000000000000 0.000000000000000
0 0

0101101
*
Ed
 0.000000100000000 1 1 0
1  1 0 0.000000000000000 220.506386528825942
0

0101000
+44 4 -44 6 *
Ve
0.000000100000000
39.000000000000000 0.000000000000000 0.000000000000000
0 0

0101101
*
Ed
 0.000000100000000 1 1 0
1  2 0 0.000000000000000 220.506386528825942
0

0101000
+42 4 -42 6 *
Ed
 0.000000100000000 1 1 0
1  3 0 0.000000000000000 27.000000000000000
0

0101000
+44 0 -42 0 *
Wi

0101100
+43 0 -41 0 -40 4 +40 6 *
Fa
0  0.000000100000000 1 0

0101000
+39 0 *
Ve
0.000000100000000
37.000000000000000 0.000000000000000 0.000000000000000
0 0

0101101
*
Ed
 0.000000100000000 1 1 0
1  4 0 0.000000000000000 220.506386528825942
2  1 3 0 0.000000000000000 220.506386528825942
0

0101000
+37 4 -37 6 *
Ed
 0.000000100000000 1 1 0
1  5 0 0.000000000000000 2.000000000000000
0

0101000
+42 0 -37 0 *
Wi

0101100
+41 0 -36 0 -35 4 +35 6 *
Fa
0  0.000000100000000 2 0

0101000
+34 0 *
Ve
0.000000100000000
17.235294117647058 7.996539043748907 0.000000000000000
0 0

0101101
*
Ed
 0.000000100000000 1 1 0
1  6 0 0.000000000000000 220.506386528825942
2  2 3 0 0.000000000000000 220.506386528825942
2  3 4 0 0.000000000000000 220.506386528825942
0

0101000
+32 4 -32 6 *
Ed
 0.000000100000000 1 1 0
1  7 0 0.000000000000000 2.372684158339470
2  4 3 7 0.000000000000000 2.372684158339470
2  5 3 8 0.000000000000000 2.372684158339470
0

0101000
+37 0 -32 0 *
Wi

0101100
+36 0 -31 0 -30 4 +30 6 *
Fa
0  0.000000100000000 3 0

0101000
+29 0 *
Ve
0.000000100000001
-9.618421052631579 16.385541689376449 0.000000000000000
0 0

0101101
*
Ed
 0.000000100000001 1 1 0
1  8 0 0.000000000000000 220.506386528825942
2  6 4 0 0.000000000000000 220.506386528825942
2  7 5 0 0.000000000000000 220.506386528825942
0

0101000
+27 4 -27 6 *
Ed
 0.000000100000000 1 1 0
1  9 0 0.434404709915525 2.101607066553016
2  8 4 7 0.434404709915525 2.101607066553016
2  9 4 8 0.434404709915525 2.101607066553016
0

0101000
+32 0 -27 0 *
Wi

0101100
+31 0 -26 0 -25 4 +25 6 *
Fa
0  0.000000100000000 4 0

0101000
+24 0 *
Ve
0.000000100000000
-53.500000000000000 0.000000000000003 0.000000000000000
0 0

0101101
*
Ed
 0.000000100000000 1 1 0
1  10 0 0.000000000000000 220.506386528825942
2  10 5 0 0.000000000000000 220.506386528825942
0

0101000
+22 4 -22 6 *
Ed
 0.000000100000000 1 1 0
1  11 0 0.714740790821157 3.141592653589793
2  11 5 7 0.714740790821157 3.141592653589793
2  12 5 8 0.714740790821157 3.141592653589793
0

0101000
+27 0 -22 0 *
Wi

0101100
+26 0 -21 0 -20 4 +20 6 *
Fa
0  0.000000100000000 5 0

0101000
+19 0 *
Ve
0.000000100000000
-56.000000000000000 0.000000000000000 0.000000000000000
0 0

0101101
*
Ed
 0.000000100000000 1 1 0
1  12 0 0.000000000000000 220.506386528825942
0

0101000
+17 4 -17 6 *
Ed
 0.000000100000000 1 1 0
1  13 0 0.000000000000000 2.500000000000000
0

0101000
+17 0 -22 0 *
Wi

0101100
+16 0 -21 0 -15 4 +15 6 *
Fa
0  0.000000100000000 6 0

0101000
+14 0 *
Ve
0.000000100000000
-56.000000000000000 27.000000000000000 0.000000000000000
0 0

0101101
*
Ed
 0.000000100000000 1 1 0
1  14 0 0.000000000000000 220.506386528825942
0

0101000
+12 4 -12 6 *
Ed
 0.000000100000000 1 1 0
1  15 0 0.000000000000000 27.000000000000000
0

0101000
+12 0 -17 0 *
Wi

0101100
+11 0 -16 0 -10 4 +10 6 *
Fa
0  0.000000100000000 7 0

0101000
+9 0 *
Ed
 0.000000100000000 1 1 0
1  16 0 0.000000000000000 95.000000000000000
0

0101000
+44 0 -12 0 *
Wi

0101100
+43 0 -11 0 -7 4 +7 6 *
Fa
0  0.000000100000000 8 0

0101000
+6 0 *
Wi

0101100
+40 0 +35 0 +30 0 +25 0 +20 0 -15 0 -10 0 -7 0 *
Fa
0  0.000000100000000 9 0

0101000
-4 10 *
Sh

0101100
-38 0 -33 0 -28 0 -23 0 -18 0 +13 0 +8 0 +5 0 +3 9 -3 11 
*
So

1100000
+2 0 *

+1 0 