
CASCADE Topology V1, (c) Matra-Datavision
Locations 11
1
1.000000000000000 0.000000000000000 0.000000000000000 0.000000000000000 
0.000000000000000 1.000000000000000 0.000000000000000 0.000000000000000 
0.000000000000000 0.000000000000000 1.000000000000000 0.000000000000000 
1
1.000000000000000 0.000000000000000 0.000000000000000 0.000000000000000 
0.000000000000000 0.000000000000000 -1.000000000000000 0.000000000000000 
0.000000000000000 1.000000000000000 0.000000000000000 0.000000000000000 
1
1.000000000000000 0.000000000000000 0.000000000000000 0.000000000000000 
0.000000000000000 1.000000000000000 0.000000000000000 0.000000000000000 
0.000000000000000 0.000000000000000 1.000000000000000 0.000000000000000 
2  1 1 2 1 3 -1 0
1
1.000000000000000 0.000000000000000 0.000000000000000 -0.000000000000000 
0.000000000000000 1.000000000000000 0.000000000000000 27.000000000000000 
0.000000000000000 0.000000000000000 1.000000000000000 -0.000000000000006 
2  1 1 2 1 3 -1 5 1 0
2  3 -1 0
2  1 1 2 1 0
2  3 1 2 -1 1 -1 0
2  3 -1 5 1 0
2  5 -1 3 1 2 -1 1 -1 0
Curve2ds 0
Curves 57
1 39.00000000000000000 0.00000000000000355 16.00000000000000000 -0.00000000000000000 1.00000000000000000 -0.00000000000000022 
1 39.00000000000000000 -0.00000000000000133 -6.00000000000000000 -0.00000000000000000 1.00000000000000000 -0.00000000000000022 
1 39.00000000000000000 16.00000000000000000 0.00000000000000000 0.00000000000000000 -1.00000000000000000 0.00000000000000000 
1 12.00000000000000000 -0.00000000000000133 -6.00000000000000000 -0.00000000000000000 1.00000000000000000 -0.00000000000000022 
1 39.00000000000000000 -6.00000000000000000 0.00000000000000000 -1.00000000000000000 0.00000000000000000 0.00000000000000000 
1 12.00000000000000000 -0.00000000000000355 -16.00000000000000000 -0.00000000000000000 1.00000000000000000 -0.00000000000000022 
1 12.00000000000000000 -6.00000000000000000 0.00000000000000000 0.00000000000000000 -1.00000000000000000 0.00000000000000000 
1 -11.00000000000000000 -0.00000000000000355 -16.00000000000000000 -0.00000000000000000 1.00000000000000000 -0.00000000000000022 
1 12.00000000000000000 -16.00000000000000000 0.00000000000000000 -1.00000000000000000 0.00000000000000000 0.00000000000000000 
1 -11.00000000000000000 -0.00000000000000600 -27.00000000000000000 -0.00000000000000000 1.00000000000000000 -0.00000000000000022 
1 -11.00000000000000000 -16.00000000000000000 0.00000000000000000 0.00000000000000000 -1.00000000000000000 0.00000000000000000 
1 -46.00000000000000000 -0.00000000000000600 -27.00000000000000000 -0.00000000000000000 1.00000000000000000 -0.00000000000000022 
1 -11.00000000000000000 -27.00000000000000000 0.00000000000000000 -1.00000000000000000 0.00000000000000000 0.00000000000000000 
1 -46.00000000000000000 -0.00000000000000311 -14.00000000000000000 -0.00000000000000000 1.00000000000000000 -0.00000000000000022 
1 -46.00000000000000000 -27.00000000000000000 0.00000000000000000 0.00000000000000000 1.00000000000000000 0.00000000000000000 
1 -56.00000000000000000 -0.00000000000000311 -14.00000000000000000 -0.00000000000000000 1.00000000000000000 -0.00000000000000022 
1 -46.00000000000000000 -14.00000000000000000 0.00000000000000000 -1.00000000000000000 0.00000000000000000 0.00000000000000000 
1 -56.00000000000000000 0.00000000000000067 3.00000000000000000 -0.00000000000000000 1.00000000000000000 -0.00000000000000022 
1 -56.00000000000000000 -14.00000000000000000 0.00000000000000000 0.00000000000000000 1.00000000000000000 0.00000000000000000 
1 -46.00000000000000000 0.00000000000000067 3.00000000000000000 -0.00000000000000000 1.00000000000000000 -0.00000000000000022 
1 -56.00000000000000000 3.00000000000000000 0.00000000000000000 1.00000000000000000 0.00000000000000000 0.00000000000000000 
1 -46.00000000000000000 0.00000000000000433 19.50000000000000000 -0.00000000000000000 1.00000000000000000 -0.00000000000000022 
1 -46.00000000000000000 3.00000000000000000 0.00000000000000000 0.00000000000000000 1.00000000000000000 0.00000000000000000 
1 -11.50000000000000000 0.00000000000000433 19.50000000000000000 -0.00000000000000000 1.00000000000000000 -0.00000000000000022 
1 -46.00000000000000000 19.50000000000000000 0.00000000000000000 1.00000000000000000 0.00000000000000000 0.00000000000000000 
1 -11.50000000000000000 0.00000000000000355 16.00000000000000000 -0.00000000000000000 1.00000000000000000 -0.00000000000000022 
1 -11.50000000000000000 19.50000000000000000 0.00000000000000000 0.00000000000000000 -1.00000000000000000 0.00000000000000000 
1 18.00000000000000000 0.00000000000000355 16.00000000000000000 1.00000000000000000 0.00000000000000000 0.00000000000000000 
1 -53.00000000000000000 0.00000000000000000 0.00000000000000000 0.00000000000000000 -1.00000000000000000 0.00000000000000000 
1 -53.00000000000000000 -11.00000000000000000 0.00000000000000000 1.00000000000000000 0.00000000000000000 0.00000000000000000 
1 -38.00000000000000000 -11.00000000000000000 0.00000000000000000 0.00000000000000000 -1.00000000000000000 0.00000000000000000 
1 -38.00000000000000000 -19.00000000000000000 0.00000000000000000 1.00000000000000000 0.00000000000000000 0.00000000000000000 
1 -19.00000000000000000 -19.00000000000000000 0.00000000000000000 0.00000000000000000 1.00000000000000000 0.00000000000000000 
1 -19.00000000000000000 -11.00000000000000000 0.00000000000000000 1.00000000000000000 0.00000000000000000 0.00000000000000000 
1 9.00000000000000000 -11.00000000000000000 0.00000000000000000 0.00000000000000000 1.00000000000000000 0.00000000000000000 
1 9.00000000000000000 -1.00000000000000000 0.00000000000000000 1.00000000000000000 0.00000000000000000 0.00000000000000000 
1 37.00000000000000000 -1.00000000000000000 0.00000000000000000 0.00000000000000000 1.00000000000000000 0.00000000000000000 
1 37.00000000000000000 11.00000000000000000 0.00000000000000000 -1.00000000000000000 0.00000000000000000 0.00000000000000000 
1 -14.50000000000000000 11.00000000000000000 0.00000000000000000 0.00000000000000000 1.00000000000000000 0.00000000000000000 
1 -14.50000000000000000 11.50000000000000000 0.00000000000000000 -1.00000000000000000 0.00000000000000000 0.00000000000000000 
1 -38.00000000000000000 11.50000000000000000 0.00000000000000000 0.00000000000000000 -1.00000000000000000 0.00000000000000000 
1 -38.00000000000000000 0.00000000000000000 0.00000000000000000 -1.00000000000000000 0.00000000000000000 0.00000000000000000 
1 -53.00000000000000000 0.00000000000000000 0.00000000000000000 -0.00000000000000000 1.00000000000000000 -0.00000000000000022 
1 -53.00000000000000000 -0.00000000000000244 -11.00000000000000000 -0.00000000000000000 1.00000000000000000 -0.00000000000000022 
1 -38.00000000000000000 -0.00000000000000244 -11.00000000000000000 -0.00000000000000000 1.00000000000000000 -0.00000000000000022 
1 -38.00000000000000000 -0.00000000000000422 -19.00000000000000000 -0.00000000000000000 1.00000000000000000 -0.00000000000000022 
1 -19.00000000000000000 -0.00000000000000422 -19.00000000000000000 -0.00000000000000000 1.00000000000000000 -0.00000000000000022 
1 -19.00000000000000000 -0.00000000000000244 -11.00000000000000000 -0.00000000000000000 1.00000000000000000 -0.00000000000000022 
1 9.00000000000000000 -0.00000000000000244 -11.00000000000000000 -0.00000000000000000 1.00000000000000000 -0.00000000000000022 
1 9.00000000000000000 -0.00000000000000022 -1.00000000000000000 -0.00000000000000000 1.00000000000000000 -0.00000000000000022 
1 37.00000000000000000 -0.00000000000000022 -1.00000000000000000 -0.00000000000000000 1.00000000000000000 -0.00000000000000022 
1 37.00000000000000000 0.00000000000000244 11.00000000000000000 -0.00000000000000000 1.00000000000000000 -0.00000000000000022 
1 -14.50000000000000000 0.00000000000000244 11.00000000000000000 -0.00000000000000000 1.00000000000000000 -0.00000000000000022 
1 -14.50000000000000000 0.00000000000000255 11.50000000000000000 -0.00000000000000000 1.00000000000000000 -0.00000000000000022 
1 -38.00000000000000000 0.00000000000000255 11.50000000000000000 -0.00000000000000000 1.00000000000000000 -0.00000000000000022 
1 -38.00000000000000000 0.00000000000000000 0.00000000000000000 -0.00000000000000000 1.00000000000000000 -0.00000000000000022 
1 -11.50000000000000000 27.00000000000000355 15.99999999999999467 1.00000000000000000 0.00000000000000000 0.00000000000000000 
Polygon3D 0
PolygonOnTriangulations 0
Surfaces 29
1 39.00000000000000000 0.00000000000000355 16.00000000000000000 -1.00000000000000000 -0.00000000000000000 0.00000000000000000 0.00000000000000000 -0.00000000000000022 -1.00000000000000000 0.00000000000000000 -1.00000000000000000 0.00000000000000022 
1 39.00000000000000000 -0.00000000000000133 -6.00000000000000000 0.00000000000000000 0.00000000000000022 1.00000000000000000 -1.00000000000000000 0.00000000000000000 0.00000000000000000 0.00000000000000000 -1.00000000000000000 0.00000000000000022 
1 12.00000000000000000 -0.00000000000000133 -6.00000000000000000 -1.00000000000000000 -0.00000000000000000 0.00000000000000000 0.00000000000000000 -0.00000000000000022 -1.00000000000000000 0.00000000000000000 -1.00000000000000000 0.00000000000000022 
1 12.00000000000000000 -0.00000000000000355 -16.00000000000000000 0.00000000000000000 0.00000000000000022 1.00000000000000000 -1.00000000000000000 0.00000000000000000 0.00000000000000000 0.00000000000000000 -1.00000000000000000 0.00000000000000022 
1 -11.00000000000000000 -0.00000000000000355 -16.00000000000000000 -1.00000000000000000 -0.00000000000000000 0.00000000000000000 0.00000000000000000 -0.00000000000000022 -1.00000000000000000 0.00000000000000000 -1.00000000000000000 0.00000000000000022 
1 -11.00000000000000000 -0.00000000000000600 -27.00000000000000000 0.00000000000000000 0.00000000000000022 1.00000000000000000 -1.00000000000000000 0.00000000000000000 0.00000000000000000 0.00000000000000000 -1.00000000000000000 0.00000000000000022 
1 -46.00000000000000000 -0.00000000000000600 -27.00000000000000000 1.00000000000000000 0.00000000000000000 -0.00000000000000000 0.00000000000000000 0.00000000000000022 1.00000000000000000 0.00000000000000000 -1.00000000000000000 0.00000000000000022 
1 -46.00000000000000000 -0.00000000000000311 -14.00000000000000000 0.00000000000000000 0.00000000000000022 1.00000000000000000 -1.00000000000000000 0.00000000000000000 0.00000000000000000 0.00000000000000000 -1.00000000000000000 0.00000000000000022 
1 -56.00000000000000000 -0.00000000000000311 -14.00000000000000000 1.00000000000000000 0.00000000000000000 -0.00000000000000000 0.00000000000000000 0.00000000000000022 1.00000000000000000 0.00000000000000000 -1.00000000000000000 0.00000000000000022 
1 -56.00000000000000000 0.00000000000000067 3.00000000000000000 0.00000000000000000 -0.00000000000000022 -1.00000000000000000 1.00000000000000000 0.00000000000000000 0.00000000000000000 0.00000000000000000 -1.00000000000000000 0.00000000000000022 
1 -46.00000000000000000 0.00000000000000067 3.00000000000000000 1.00000000000000000 0.00000000000000000 -0.00000000000000000 0.00000000000000000 0.00000000000000022 1.00000000000000000 0.00000000000000000 -1.00000000000000000 0.00000000000000022 
1 -46.00000000000000000 0.00000000000000433 19.50000000000000000 0.00000000000000000 -0.00000000000000022 -1.00000000000000000 1.00000000000000000 0.00000000000000000 0.00000000000000000 0.00000000000000000 -1.00000000000000000 0.00000000000000022 
1 -11.50000000000000000 0.00000000000000433 19.50000000000000000 -1.00000000000000000 -0.00000000000000000 0.00000000000000000 0.00000000000000000 -0.00000000000000022 -1.00000000000000000 0.00000000000000000 -1.00000000000000000 0.00000000000000022 
1 -10.48950381679389388 -0.00000000000000030 -1.34923664122137410 0.00000000000000000 1.00000000000000000 0.00000000000000000 0.00000000000000000 -0.00000000000000000 1.00000000000000000 1.00000000000000000 0.00000000000000000 -0.00000000000000000 
1 -53.00000000000000000 0.00000000000000000 0.00000000000000000 -1.00000000000000000 -0.00000000000000000 0.00000000000000000 0.00000000000000000 -0.00000000000000022 -1.00000000000000000 0.00000000000000000 -1.00000000000000000 0.00000000000000022 
1 -53.00000000000000000 -0.00000000000000244 -11.00000000000000000 0.00000000000000000 -0.00000000000000022 -1.00000000000000000 1.00000000000000000 0.00000000000000000 0.00000000000000000 0.00000000000000000 -1.00000000000000000 0.00000000000000022 
1 -38.00000000000000000 -0.00000000000000244 -11.00000000000000000 -1.00000000000000000 -0.00000000000000000 0.00000000000000000 0.00000000000000000 -0.00000000000000022 -1.00000000000000000 0.00000000000000000 -1.00000000000000000 0.00000000000000022 
1 -38.00000000000000000 -0.00000000000000422 -19.00000000000000000 0.00000000000000000 -0.00000000000000022 -1.00000000000000000 1.00000000000000000 0.00000000000000000 0.00000000000000000 0.00000000000000000 -1.00000000000000000 0.00000000000000022 
1 -19.00000000000000000 -0.00000000000000422 -19.00000000000000000 1.00000000000000000 0.00000000000000000 -0.00000000000000000 0.00000000000000000 0.00000000000000022 1.00000000000000000 0.00000000000000000 -1.00000000000000000 0.00000000000000022 
1 -19.00000000000000000 -0.00000000000000244 -11.00000000000000000 0.00000000000000000 -0.00000000000000022 -1.00000000000000000 1.00000000000000000 0.00000000000000000 0.00000000000000000 0.00000000000000000 -1.00000000000000000 0.00000000000000022 
1 9.00000000000000000 -0.00000000000000244 -11.00000000000000000 1.00000000000000000 0.00000000000000000 -0.00000000000000000 0.00000000000000000 0.00000000000000022 1.00000000000000000 0.00000000000000000 -1.00000000000000000 0.00000000000000022 
1 9.00000000000000000 -0.00000000000000022 -1.00000000000000000 0.00000000000000000 -0.00000000000000022 -1.00000000000000000 1.00000000000000000 0.00000000000000000 0.00000000000000000 0.00000000000000000 -1.00000000000000000 0.00000000000000022 
1 37.00000000000000000 -0.00000000000000022 -1.00000000000000000 1.00000000000000000 0.00000000000000000 -0.00000000000000000 0.00000000000000000 0.00000000000000022 1.00000000000000000 0.00000000000000000 -1.00000000000000000 0.00000000000000022 
1 37.00000000000000000 0.00000000000000244 11.00000000000000000 0.00000000000000000 0.00000000000000022 1.00000000000000000 -1.00000000000000000 0.00000000000000000 0.00000000000000000 0.00000000000000000 -1.00000000000000000 0.00000000000000022 
1 -14.50000000000000000 0.00000000000000244 11.00000000000000000 1.00000000000000000 0.00000000000000000 -0.00000000000000000 0.00000000000000000 0.00000000000000022 1.00000000000000000 0.00000000000000000 -1.00000000000000000 0.00000000000000022 
1 -14.50000000000000000 0.00000000000000255 11.50000000000000000 0.00000000000000000 0.00000000000000022 1.00000000000000000 -1.00000000000000000 0.00000000000000000 0.00000000000000000 0.00000000000000000 -1.00000000000000000 0.00000000000000022 
1 -38.00000000000000000 0.00000000000000255 11.50000000000000000 -1.00000000000000000 -0.00000000000000000 0.00000000000000000 0.00000000000000000 -0.00000000000000022 -1.00000000000000000 0.00000000000000000 -1.00000000000000000 0.00000000000000022 
1 -38.00000000000000000 0.00000000000000000 0.00000000000000000 0.00000000000000000 0.00000000000000022 1.00000000000000000 -1.00000000000000000 0.00000000000000000 0.00000000000000000 0.00000000000000000 -1.00000000000000000 0.00000000000000022 
1 13.75000000000000000 13.50000000000000355 16.00000000000000000 0.00000000000000000 0.00000000000000000 1.00000000000000000 1.00000000000000000 0.00000000000000000 -0.00000000000000000 -0.00000000000000000 1.00000000000000000 0.00000000000000000 
Triangulations 0

TShapes 148
Ve
0.000000100000000
39.000000000000000 16.000000000000000 0.000000000000000
0 0

0101101
*
Ed
 0.000000100000000 1 1 0
1  1 0 0.000000000000000 27.000000000000000
0

0101000
+148 4 -148 6 *
Ve
0.000000100000000
39.000000000000000 -6.000000000000000 0.000000000000000
0 0

0101101
*
Ed
 0.000000100000000 1 1 0
1  2 0 0.000000000000000 27.000000000000000
0

0101000
+146 4 -146 6 *
Ed
 0.000000100000000 1 1 0
1  3 0 0.000000000000000 22.000000000000000
0

0101000
+148 0 -146 0 *
Wi

0101100
+147 0 -145 0 -144 4 +144 6 *
Fa
0  0.000000100000000 1 0

0101000
+143 0 *
Ve
0.000000100000071
12.000000000000000 -6.000000000000000 0.000000000000000
0 0

0101101
*
Ed
 0.000000100000000 1 1 0
1  4 0 0.000000000000000 27.000000000000000
0

0101000
+141 4 -141 6 *
Ed
 0.000000100000000 1 1 0
1  5 0 0.000000000000000 27.000000000000000
0

0101000
+146 0 -141 0 *
Wi

0101100
+145 0 -140 0 -139 4 +139 6 *
Fa
0  0.000000100000000 2 0

0101000
+138 0 *
Ve
0.000000100000071
12.000000000000000 -16.000000000000000 0.000000000000000
0 0

0101101
*
Ed
 0.000000100000000 1 1 0
1  6 0 0.000000000000000 27.000000000000000
0

0101000
+136 4 -136 6 *
Ed
 0.000000100000071 1 1 0
1  7 0 0.000000000000000 10.000000000000000
0

0101000
+141 0 -136 0 *
Wi

0101100
+140 0 -135 0 -134 4 +134 6 *
Fa
0  0.000000100000000 3 0

0101000
+133 0 *
Ve
0.000000100000071
-11.000000000000000 -16.000000000000000 0.000000000000000
0 0

0101101
*
Ed
 0.000000100000000 1 1 0
1  8 0 0.000000000000000 27.000000000000000
0

0101000
+131 4 -131 6 *
Ed
 0.000000100000071 1 1 0
1  9 0 0.000000000000000 23.000000000000000
0

0101000
+136 0 -131 0 *
Wi

0101100
+135 0 -130 0 -129 4 +129 6 *
Fa
0  0.000000100000000 4 0

0101000
+128 0 *
Ve
0.000000100000071
-11.000000000000000 -27.000000000000000 0.000000000000000
0 0

0101101
*
Ed
 0.000000100000000 1 1 0
1  10 0 0.000000000000000 27.000000000000000
0

0101000
+126 4 -126 6 *
Ed
 0.000000100000071 1 1 0
1  11 0 0.000000000000000 11.000000000000000
0

0101000
+131 0 -126 0 *
Wi

0101100
+130 0 -125 0 -124 4 +124 6 *
Fa
0  0.000000100000000 5 0

0101000
+123 0 *
Ve
0.000000100000071
-46.000000000000000 -27.000000000000000 0.000000000000000
0 0

0101101
*
Ed
 0.000000100000000 1 1 0
1  12 0 0.000000000000000 27.000000000000000
0

0101000
+121 4 -121 6 *
Ed
 0.000000100000071 1 1 0
1  13 0 0.000000000000000 35.000000000000000
0

0101000
+126 0 -121 0 *
Wi

0101100
+125 0 -120 0 -119 4 +119 6 *
Fa
0  0.000000100000000 6 0

0101000
+118 0 *
Ve
0.000000100000071
-46.000000000000000 -14.000000000000000 0.000000000000000
0 0

0101101
*
Ed
 0.000000100000000 1 1 0
1  14 0 0.000000000000000 27.000000000000000
0

0101000
+116 4 -116 6 *
Ed
 0.000000100000071 1 1 0
1  15 0 0.000000000000000 13.000000000000000
0

0101000
+121 0 -116 0 *
Wi

0101100
+120 0 -115 0 -114 4 +114 6 *
Fa
0  0.000000100000000 7 0

0101000
+113 0 *
Ve
0.000000100000000
-56.000000000000000 -14.000000000000000 0.000000000000000
0 0

0101101
*
Ed
 0.000000100000000 1 1 0
1  16 0 0.000000000000000 27.000000000000000
0

0101000
+111 4 -111 6 *
Ed
 0.000000100000000 1 1 0
1  17 0 0.000000000000000 10.000000000000000
0

0101000
+116 0 -111 0 *
Wi

0101100
+115 0 -110 0 -109 4 +109 6 *
Fa
0  0.000000100000000 8 0

0101000
+108 0 *
Ve
0.000000100000000
-56.000000000000000 3.000000000000000 0.000000000000000
0 0

0101101
*
Ed
 0.000000100000000 1 1 0
1  18 0 0.000000000000000 27.000000000000000
0

0101000
+106 4 -106 6 *
Ed
 0.000000100000000 1 1 0
1  19 0 0.000000000000000 17.000000000000000
0

0101000
+111 0 -106 0 *
Wi

0101100
+110 0 -105 0 -104 4 +104 6 *
Fa
0  0.000000100000000 9 0

0101000
+103 0 *
Ve
0.000000100000071
-46.000000000000000 3.000000000000000 0.000000000000000
0 0

0101101
*
Ed
 0.000000100000000 1 1 0
1  20 0 0.000000000000000 27.000000000000000
0

0101000
+101 4 -101 6 *
Ed
 0.000000100000000 1 1 0
1  21 0 0.000000000000000 10.000000000000000
0

0101000
+106 0 -101 0 *
Wi

0101100
+105 0 -100 0 -99 4 +99 6 *
Fa
0  0.000000100000000 10 0

0101000
+98 0 *
Ve
0.000000100000071
-46.000000000000000 19.500000000000000 0.000000000000000
0 0

0101101
*
Ed
 0.000000100000000 1 1 0
1  22 0 0.000000000000000 27.000000000000000
0

0101000
+96 4 -96 6 *
Ed
 0.000000100000071 1 1 0
1  23 0 0.000000000000000 16.500000000000000
0

0101000
+101 0 -96 0 *
Wi

0101100
+100 0 -95 0 -94 4 +94 6 *
Fa
0  0.000000100000000 11 0

0101000
+93 0 *
Ve
0.000000100000071
-11.500000000000000 19.500000000000000 0.000000000000000
0 0

0101101
*
Ed
 0.000000100000000 1 1 0
1  24 0 0.000000000000000 27.000000000000000
0

0101000
+91 4 -91 6 *
Ed
 0.000000100000071 1 1 0
1  25 0 0.000000000000000 34.500000000000000
0

0101000
+96 0 -91 0 *
Wi

0101100
+95 0 -90 0 -89 4 +89 6 *
Fa
0  0.000000100000000 12 0

0101000
+88 0 *
Ve
0.000000100000071
-11.500000000000000 16.000000000000000 0.000000000000000
0 0

0101101
*
Ed
 0.000000100000000 1 1 0
1  26 0 0.000000000000000 27.000000000000000
0

0101000
+86 4 -86 6 *
Ed
 0.000000100000071 1 1 0
1  27 0 0.000000000000000 3.500000000000000
0

0101000
+91 0 -86 0 *
Wi

0101100
+90 0 -85 0 -84 4 +84 6 *
Fa
0  0.000000100000000 13 0

0101000
+83 0 *
Ed
 0.000000100000000 1 1 0
1  28 0 -29.500000000000000 21.000000000000000
0

0101000
+86 4 -148 4 *
Wi

0101000
+144 0 +139 0 +134 0 +129 0 +124 0 +119 0 +114 0 +109 0 +104 0 +99 0 
+94 0 +89 0 +84 0 +81 9 *
Ve
0.000000100000071
-53.000000000000000 0.000000000000000 0.000000000000000
0 0

0101101
*
Ve
0.000000100000071
-53.000000000000000 -11.000000000000000 0.000000000000000
0 0

0101101
*
Ed
 0.000000100000071 1 1 0
1  29 0 0.000000000000000 11.000000000000000
0

0101000
+79 0 -78 0 *
Ve
0.000000100000071
-38.000000000000000 -11.000000000000000 0.000000000000000
0 0

0101101
*
Ed
 0.000000100000071 1 1 0
1  30 0 0.000000000000000 15.000000000000000
0

0101000
+78 0 -76 0 *
Ve
0.000000100000071
-38.000000000000000 -19.000000000000000 0.000000000000000
0 0

0101101
*
Ed
 0.000000100000071 1 1 0
1  31 0 0.000000000000000 8.000000000000000
0

0101000
+76 0 -74 0 *
Ve
0.000000100000071
-19.000000000000000 -19.000000000000000 0.000000000000000
0 0

0101101
*
Ed
 0.000000100000071 1 1 0
1  32 0 0.000000000000000 19.000000000000000
0

0101000
+74 0 -72 0 *
Ve
0.000000100000071
-19.000000000000000 -11.000000000000000 0.000000000000000
0 0

0101101
*
Ed
 0.000000100000071 1 1 0
1  33 0 0.000000000000000 8.000000000000000
0

0101000
+72 0 -70 0 *
Ve
0.000000100000071
9.000000000000000 -11.000000000000000 0.000000000000000
0 0

0101101
*
Ed
 0.000000100000071 1 1 0
1  34 0 0.000000000000000 28.000000000000000
0

0101000
+70 0 -68 0 *
Ve
0.000000100000071
9.000000000000000 -1.000000000000000 0.000000000000000
0 0

0101101
*
Ed
 0.000000100000071 1 1 0
1  35 0 0.000000000000000 10.000000000000000
0

0101000
+68 0 -66 0 *
Ve
0.000000100000000
37.000000000000000 -1.000000000000000 0.000000000000000
0 0

0101101
*
Ed
 0.000000100000000 1 1 0
1  36 0 0.000000000000000 28.000000000000000
0

0101000
+66 0 -64 0 *
Ve
0.000000100000000
37.000000000000000 11.000000000000000 0.000000000000000
0 0

0101101
*
Ed
 0.000000100000000 1 1 0
1  37 0 0.000000000000000 12.000000000000000
0

0101000
+64 0 -62 0 *
Ve
0.000000100000071
-14.500000000000000 11.000000000000000 0.000000000000000
0 0

0101101
*
Ed
 0.000000100000000 1 1 0
1  38 0 0.000000000000000 51.500000000000000
0

0101000
+62 0 -60 0 *
Ve
0.000000100000071
-14.500000000000000 11.500000000000000 0.000000000000000
0 0

0101101
*
Ed
 0.000000100000071 1 1 0
1  39 0 0.000000000000000 0.500000000000000
0

0101000
+60 0 -58 0 *
Ve
0.000000100000071
-38.000000000000000 11.500000000000000 0.000000000000000
0 0

0101101
*
Ed
 0.000000100000071 1 1 0
1  40 0 0.000000000000000 23.500000000000000
0

0101000
+58 0 -56 0 *
Ve
0.000000100000071
-38.000000000000000 0.000000000000000 0.000000000000000
0 0

0101101
*
Ed
 0.000000100000071 1 1 0
1  41 0 0.000000000000000 11.500000000000000
0

0101000
+56 0 -54 0 *
Ed
 0.000000100000071 1 1 0
1  42 0 0.000000000000000 15.000000000000000
0

0101000
+54 0 -79 0 *
Wi

0101100
+77 0 +75 0 +73 0 +71 0 +69 0 +67 0 +65 0 +63 0 +61 0 +59 0 
+57 0 +55 0 +53 0 +52 0 *
Fa
0  0.000000100000000 14 0

0101000
+80 8 +51 8 *
Ed
 0.000000100000000 1 1 0
1  43 0 0.000000000000000 27.000000000000000
0

0101000
+79 4 -79 6 *
Ed
 0.000000100000000 1 1 0
1  44 0 0.000000000000000 27.000000000000000
0

0101000
+78 4 -78 6 *
Wi

0101100
+49 0 -48 0 -77 4 +77 6 *
Fa
0  0.000000100000000 15 0

0101000
+47 0 *
Ed
 0.000000100000000 1 1 0
1  45 0 0.000000000000000 27.000000000000000
0

0101000
+76 4 -76 6 *
Wi

0101100
+48 0 -45 0 -75 4 +75 6 *
Fa
0  0.000000100000000 16 0

0101000
+44 0 *
Ed
 0.000000100000000 1 1 0
1  46 0 0.000000000000000 27.000000000000000
0

0101000
+74 4 -74 6 *
Wi

0101100
+45 0 -42 0 -73 4 +73 6 *
Fa
0  0.000000100000000 17 0

0101000
+41 0 *
Ed
 0.000000100000000 1 1 0
1  47 0 0.000000000000000 27.000000000000000
0

0101000
+72 4 -72 6 *
Wi

0101100
+42 0 -39 0 -71 4 +71 6 *
Fa
0  0.000000100000000 18 0

0101000
+38 0 *
Ed
 0.000000100000000 1 1 0
1  48 0 0.000000000000000 27.000000000000000
0

0101000
+70 4 -70 6 *
Wi

0101100
+39 0 -36 0 -69 4 +69 6 *
Fa
0  0.000000100000000 19 0

0101000
+35 0 *
Ed
 0.000000100000000 1 1 0
1  49 0 0.000000000000000 27.000000000000000
0

0101000
+68 4 -68 6 *
Wi

0101100
+36 0 -33 0 -67 4 +67 6 *
Fa
0  0.000000100000000 20 0

0101000
+32 0 *
Ed
 0.000000100000000 1 1 0
1  50 0 0.000000000000000 27.000000000000000
0

0101000
+66 4 -66 6 *
Wi

0101100
+33 0 -30 0 -65 4 +65 6 *
Fa
0  0.000000100000000 21 0

0101000
+29 0 *
Ed
 0.000000100000000 1 1 0
1  51 0 0.000000000000000 27.000000000000000
0

0101000
+64 4 -64 6 *
Wi

0101100
+30 0 -27 0 -63 4 +63 6 *
Fa
0  0.000000100000000 22 0

0101000
+26 0 *
Ed
 0.000000100000000 1 1 0
1  52 0 0.000000000000000 27.000000000000000
0

0101000
+62 4 -62 6 *
Wi

0101100
+27 0 -24 0 -61 4 +61 6 *
Fa
0  0.000000100000000 23 0

0101000
+23 0 *
Ed
 0.000000100000000 1 1 0
1  53 0 0.000000000000000 27.000000000000000
0

0101000
+60 4 -60 6 *
Wi

0101100
+24 0 -21 0 -59 4 +59 6 *
Fa
0  0.000000100000000 24 0

0101000
+20 0 *
Ed
 0.000000100000000 1 1 0
1  54 0 0.000000000000000 27.000000000000000
0

0101000
+58 4 -58 6 *
Wi

0101100
+21 0 -18 0 -57 4 +57 6 *
Fa
0  0.000000100000000 25 0

0101000
+17 0 *
Ed
 0.000000100000000 1 1 0
1  55 0 0.000000000000000 27.000000000000000
0

0101000
+56 4 -56 6 *
Wi

0101100
+18 0 -15 0 -55 4 +55 6 *
Fa
0  0.000000100000000 26 0

0101000
+14 0 *
Ed
 0.000000100000000 1 1 0
1  56 0 0.000000000000000 27.000000000000000
0

0101000
+54 4 -54 6 *
Wi

0101100
+15 0 -12 0 -53 4 +53 6 *
Fa
0  0.000000100000000 27 0

0101000
+11 0 *
Wi

0101100
+12 0 -49 0 -52 4 +52 6 *
Fa
0  0.000000100000000 28 0

0101000
+9 0 *
Ed
 0.000000100000000 1 1 0
1  57 0 0.000000000000000 50.500000000000000
0

0101000
+86 6 -148 6 *
Wi

0101000
+144 0 +139 0 +134 0 +129 0 +124 0 +119 0 +114 0 +109 0 +104 0 +99 0 
+94 0 +89 0 +84 0 +7 11 *
Fa
0  0.000000100000000 14 0

0101000
+6 8 +51 8 *
Wi

0101000
-85 0 +81 0 +147 0 -7 0 *
Fa
0  0.000000100000000 29 0

0101000
+4 0 *
Sh

0101000
-142 0 -137 0 -132 0 -127 0 -122 0 -117 0 -112 0 -107 0 -102 0 -97 0 
-92 0 -87 0 -82 0 -50 7 -46 0 -43 0 -40 0 -37 0 -34 0 -31 0 
-28 0 -25 0 -22 0 -19 0 -16 0 -13 0 -10 0 -8 0 +5 10 +3 0 
*
So

1100000
+2 0 *

+1 0 