
CASCADE Topology V1, (c) Matra-Datavision
Locations 9
1
1.000000000000000 0.000000000000000 0.000000000000000 0.000000000000000 
0.000000000000000 1.000000000000000 0.000000000000000 0.000000000000000 
0.000000000000000 0.000000000000000 1.000000000000000 0.000000000000000 
1
1.000000000000000 0.000000000000000 0.000000000000000 0.000000000000000 
0.000000000000000 1.000000000000000 0.000000000000000 0.000000000000000 
0.000000000000000 0.000000000000000 1.000000000000000 0.000000000000000 
1
1.000000000000000 0.000000000000000 0.000000000000000 0.000000000000000 
0.000000000000000 1.000000000000000 0.000000000000000 0.000000000000000 
0.000000000000000 0.000000000000000 1.000000000000000 0.000000000000000 
2  1 1 2 1 3 -1 0
1
1.000000000000000 0.000000000000000 0.000000000000000 0.000000000000000 
0.000000000000000 1.000000000000000 0.000000000000000 0.000000000000000 
0.000000000000000 0.000000000000000 1.000000000000000 6.000000000000000 
2  1 1 2 1 3 -1 5 1 0
2  3 -1 0
2  1 1 2 1 0
2  3 -1 5 1 0
Curve2ds 0
Curves 12
1 6.87046820335654651 0.00000000000000000 0.00000000000000000 0.00000000000000000 0.00000000000000000 1.00000000000000000 
1 3.43523410167827326 5.95000000000000018 0.00000000000000000 0.00000000000000000 0.00000000000000000 1.00000000000000000 
1 6.87046820335654651 0.00000000000000000 0.00000000000000000 -0.50000000000000000 0.86602540378443871 0.00000000000000000 
1 -3.43523410167827326 5.95000000000000018 0.00000000000000000 0.00000000000000000 0.00000000000000000 1.00000000000000000 
1 3.43523410167827326 5.95000000000000018 0.00000000000000000 -1.00000000000000000 0.00000000000000000 0.00000000000000000 
1 -6.87046820335654651 0.00000000000000000 0.00000000000000000 0.00000000000000000 0.00000000000000000 1.00000000000000000 
1 -3.43523410167827326 5.95000000000000018 0.00000000000000000 -0.50000000000000000 -0.86602540378443871 0.00000000000000000 
1 -3.43523410167827326 -5.95000000000000018 0.00000000000000000 0.00000000000000000 0.00000000000000000 1.00000000000000000 
1 -6.87046820335654651 0.00000000000000000 0.00000000000000000 0.50000000000000000 -0.86602540378443871 0.00000000000000000 
1 3.43523410167827326 -5.95000000000000018 0.00000000000000000 0.00000000000000000 0.00000000000000000 1.00000000000000000 
1 -3.43523410167827326 -5.95000000000000018 0.00000000000000000 1.00000000000000000 0.00000000000000000 0.00000000000000000 
1 3.43523410167827326 -5.95000000000000018 0.00000000000000000 0.50000000000000000 0.86602540378443871 0.00000000000000000 
Polygon3D 0
PolygonOnTriangulations 0
Surfaces 7
1 6.87046820335654651 0.00000000000000000 0.00000000000000000 -0.86602540378443871 -0.50000000000000000 0.00000000000000000 -0.50000000000000000 0.86602540378443871 0.00000000000000000 -0.00000000000000000 0.00000000000000000 -1.00000000000000000 
1 3.43523410167827326 5.95000000000000018 0.00000000000000000 0.00000000000000000 -1.00000000000000000 0.00000000000000000 -1.00000000000000000 0.00000000000000000 0.00000000000000000 -0.00000000000000000 -0.00000000000000000 -1.00000000000000000 
1 -3.43523410167827326 5.95000000000000018 0.00000000000000000 0.86602540378443871 -0.50000000000000000 0.00000000000000000 -0.50000000000000000 -0.86602540378443871 0.00000000000000000 0.00000000000000000 -0.00000000000000000 -1.00000000000000000 
1 -6.87046820335654651 0.00000000000000000 0.00000000000000000 0.86602540378443871 0.50000000000000000 -0.00000000000000000 0.50000000000000000 -0.86602540378443871 0.00000000000000000 0.00000000000000000 -0.00000000000000000 -1.00000000000000000 
1 -3.43523410167827326 -5.95000000000000018 0.00000000000000000 0.00000000000000000 1.00000000000000000 0.00000000000000000 1.00000000000000000 0.00000000000000000 0.00000000000000000 0.00000000000000000 0.00000000000000000 -1.00000000000000000 
1 3.43523410167827326 -5.95000000000000018 0.00000000000000000 -0.86602540378443871 0.50000000000000000 0.00000000000000000 0.50000000000000000 0.86602540378443871 0.00000000000000000 0.00000000000000000 0.00000000000000000 -1.00000000000000000 
1 -0.00000000000000009 -0.00000000000000017 0.00000000000000000 0.00000000000000000 0.00000000000000000 1.00000000000000000 1.00000000000000000 0.00000000000000000 -0.00000000000000000 -0.00000000000000000 1.00000000000000000 0.00000000000000000 
Triangulations 0

TShapes 34
Ve
0.000000100000000
6.870468203356547 0.000000000000000 0.000000000000000
0 0

0101101
*
Ed
 0.000000100000000 1 1 0
1  1 0 0.000000000000000 6.000000000000000
0

0101000
+34 4 -34 6 *
Ve
0.000000100000000
3.435234101678273 5.950000000000000 0.000000000000000
0 0

0101101
*
Ed
 0.000000100000000 1 1 0
1  2 0 0.000000000000000 6.000000000000000
0

0101000
+32 4 -32 6 *
Ed
 0.000000100000000 1 1 0
1  3 0 0.000000000000000 6.870468203356547
0

0101000
+34 0 -32 0 *
Wi

0101100
+33 0 -31 0 -30 4 +30 6 *
Fa
0  0.000000100000000 1 0

0101000
+29 0 *
Ve
0.000000100000000
-3.435234101678273 5.950000000000000 0.000000000000000
0 0

0101101
*
Ed
 0.000000100000000 1 1 0
1  4 0 0.000000000000000 6.000000000000000
0

0101000
+27 4 -27 6 *
Ed
 0.000000100000000 1 1 0
1  5 0 0.000000000000000 6.870468203356547
0

0101000
+32 0 -27 0 *
Wi

0101100
+31 0 -26 0 -25 4 +25 6 *
Fa
0  0.000000100000000 2 0

0101000
+24 0 *
Ve
0.000000100000000
-6.870468203356547 0.000000000000000 0.000000000000000
0 0

0101101
*
Ed
 0.000000100000000 1 1 0
1  6 0 0.000000000000000 6.000000000000000
0

0101000
+22 4 -22 6 *
Ed
 0.000000100000000 1 1 0
1  7 0 0.000000000000000 6.870468203356547
0

0101000
+27 0 -22 0 *
Wi

0101100
+26 0 -21 0 -20 4 +20 6 *
Fa
0  0.000000100000000 3 0

0101000
+19 0 *
Ve
0.000000100000000
-3.435234101678273 -5.950000000000000 0.000000000000000
0 0

0101101
*
Ed
 0.000000100000000 1 1 0
1  8 0 0.000000000000000 6.000000000000000
0

0101000
+17 4 -17 6 *
Ed
 0.000000100000000 1 1 0
1  9 0 0.000000000000000 6.870468203356547
0

0101000
+22 0 -17 0 *
Wi

0101100
+21 0 -16 0 -15 4 +15 6 *
Fa
0  0.000000100000000 4 0

0101000
+14 0 *
Ve
0.000000100000000
3.435234101678273 -5.950000000000000 0.000000000000000
0 0

0101101
*
Ed
 0.000000100000000 1 1 0
1  10 0 0.000000000000000 6.000000000000000
0

0101000
+12 4 -12 6 *
Ed
 0.000000100000000 1 1 0
1  11 0 0.000000000000000 6.870468203356547
0

0101000
+17 0 -12 0 *
Wi

0101100
+16 0 -11 0 -10 4 +10 6 *
Fa
0  0.000000100000000 5 0

0101000
+9 0 *
Ed
 0.000000100000000 1 1 0
1  12 0 0.000000000000000 6.870468203356547
0

0101000
+12 0 -34 0 *
Wi

0101100
+11 0 -33 0 -7 4 +7 6 *
Fa
0  0.000000100000000 6 0

0101000
+6 0 *
Wi

0101100
+30 0 +25 0 +20 0 +15 0 +10 0 +7 0 *
Fa
0  0.000000100000000 7 0

0101000
+4 8 *
Sh

0101100
+28 0 +23 0 +18 0 +13 0 +8 0 +5 0 +3 7 -3 9 *
So

1100000
-2 0 *

+1 0 