
CASCADE Topology V1, (c) Matra-Datavision
Locations 11
1
1.000000000000000 0.000000000000000 0.000000000000000 0.000000000000000 
0.000000000000000 1.000000000000000 0.000000000000000 0.000000000000000 
0.000000000000000 0.000000000000000 1.000000000000000 0.000000000000000 
1
0.999999999984190 0.000000000000000 -0.000005623164950 -0.000056231332259 
0.000000000002573 0.999999999999895 0.000000457490309 0.000004574877279 
0.000005623164950 -0.000000457490309 0.999999999984085 9.999943582236268 
1
1.000000000000000 0.000000000000000 0.000000000000000 0.000000000000000 
0.000000000000000 1.000000000000000 0.000000000000000 0.000000000000000 
0.000000000000000 0.000000000000000 1.000000000000000 0.000000000000000 
2  1 1 2 1 3 -1 0
1
1.000000000000000 0.000000000000000 0.000000000000000 -0.000033738989703 
0.000000000000000 1.000000000000000 0.000000000000000 0.000002744941853 
0.000000000000000 0.000000000000000 1.000000000000000 5.999999999904512 
2  1 1 2 1 3 -1 5 1 0
2  3 1 2 -1 1 -1 0
2  5 -1 3 1 2 -1 1 -1 0
2  3 -1 0
2  1 1 2 1 0
2  3 -1 5 1 0
Curve2ds 4
1 0.00000000000000000 0.00000000000000000 0.00000000000000000 -1.00000000000000000 
1 6.28318530717958623 0.00000000000000000 0.00000000000000000 -1.00000000000000000 
1 0.00000000000000000 0.00000000000000000 1.00000000000000000 0.00000000000000000 
1 0.00000000000000000 -6.00000000000000000 1.00000000000000000 0.00000000000000000 
Curves 2
1 2.47494376862861110 0.00000457488364566 9.99995749956952018 -0.00000562316495047 0.00000045749030891 0.99999999998408529 
2 0.00000000000000000 0.00000000000000000 0.00000000000000000 0.00000000000000000 0.00000000000000000 1.00000000000000000 1.00000000000000000 0.00000000000000000 0.00000000000000000 0.00000000000000000 1.00000000000000000 0.00000000000000000 2.47500000000000009
Polygon3D 0
PolygonOnTriangulations 0
Surfaces 2
2 -0.00005623133225921 0.00000457487727862 9.99994358223626811 0.00000562316495047 -0.00000045749030891 -0.99999999998408551 0.99999999998419009 0.00000000000257254 0.00000562316495047 0.00000000000000000 0.99999999999989542 -0.00000045749030892 2.47500000000000009
1 -0.00005623133225923 0.00000457487727878 9.99994358223626634 -0.00000562316495033 0.00000045749030912 0.99999999998408540 0.99999999998419009 0.00000000000000000 0.00000562316495033 0.00000000000257254 0.99999999999989542 -0.00000045749030911 
Triangulations 0

TShapes 9
Ve
0.000000100000000
2.475000000000000 0.000000000000000 0.000000000000000
0 0

0101101
*
Ed
 0.000000100000000 1 1 0
1  1 0 0.000000000000000 6.000000000000000
3  1 2CN 1 0 0.000000000000000 6.000000000000000
0

0101000
+9 4 -9 6 *
Ed
 0.000000100000000 1 1 0
1  2 0 0.000000000000000 6.283185307179586
2  3 1 7 0.000000000000000 6.283185307179586
2  4 1 8 0.000000000000000 6.283185307179586
0

0101100
+9 0 -9 0 *
Wi

0101100
+8 0 -8 0 -7 4 +7 6 *
Fa
0  0.000000100000000 1 0

0101000
+6 0 *
Wi

0101100
+7 0 *
Fa
0  0.000000100000000 2 0

0101000
+4 10 *
Sh

0101100
+5 0 +3 9 -3 11 *
So

1100000
-2 0 *

+1 0 