
CASCADE Topology V1, (c) Matra-Datavision
Locations 67
1
1.000000000000000 0.000000000000000 0.000000000000000 0.000000000000000 
0.000000000000000 1.000000000000000 0.000000000000000 0.000000000000000 
0.000000000000000 0.000000000000000 1.000000000000000 0.000000000000000 
1
1.000000000000000 0.000000000000000 0.000000000000000 0.000000000000000 
0.000000000000000 1.000000000000000 0.000000000000000 0.000000000000000 
0.000000000000000 0.000000000000000 1.000000000000000 0.000000000000000 
1
1.000000000000000 0.000000000000000 0.000000000000000 0.000000000000000 
0.000000000000000 1.000000000000000 0.000000000000000 0.000000000000000 
0.000000000000000 0.000000000000000 1.000000000000000 0.000000000000000 
1
1.000000000000000 0.000000000000000 0.000000000000000 0.000000000000000 
0.000000000000000 1.000000000000000 0.000000000000000 0.000000000000000 
0.000000000000000 0.000000000000000 1.000000000000000 0.000000000000000 
1
1.000000000000000 0.000000000000000 0.000000000000000 0.000000000000000 
0.000000000000000 1.000000000000000 0.000000000000000 0.000000000000000 
0.000000000000000 0.000000000000000 1.000000000000000 0.000000000000000 
2  2 1 3 -1 4 1 5 -1 0
1
1.000000000000000 0.000000000000000 0.000000000000000 0.000000000000000 
0.000000000000000 1.000000000000000 0.000000000000000 0.000000000000000 
0.000000000000000 0.000000000000000 1.000000000000000 0.000000000000000 
1
1.000000000000000 0.000000000000000 0.000000000000000 0.000000000000000 
0.000000000000000 1.000000000000000 0.000000000000000 0.000000000000000 
0.000000000000000 0.000000000000000 1.000000000000000 0.000000000000000 
1
1.000000000000000 0.000000000000000 0.000000000000000 0.000000000000000 
0.000000000000000 1.000000000000000 0.000000000000000 0.000000000000000 
0.000000000000000 0.000000000000000 1.000000000000000 0.000000000000000 
1
1.000000000000000 0.000000000000000 0.000000000000000 0.000000000000000 
0.000000000000000 1.000000000000000 0.000000000000000 0.000000000000000 
0.000000000000000 0.000000000000000 1.000000000000000 0.000000000000000 
2  7 1 8 -1 9 1 10 -1 0
1
1.000000000000000 0.000000000000000 0.000000000000000 0.000000000000000 
0.000000000000000 1.000000000000000 0.000000000000000 0.000000000000000 
0.000000000000000 0.000000000000000 1.000000000000000 0.000000000000000 
1
1.000000000000000 0.000000000000000 0.000000000000000 0.000000000000000 
0.000000000000000 0.000000000000000 -1.000000000000000 0.000000000000000 
0.000000000000000 1.000000000000000 0.000000000000000 0.000000000000000 
1
1.000000000000000 0.000000000000000 0.000000000000000 0.000000000000000 
0.000000000000000 1.000000000000000 0.000000000000000 0.000000000000000 
0.000000000000000 0.000000000000000 1.000000000000000 0.000000000000000 
2  12 1 13 1 14 -1 7 1 8 -1 9 1 10 -1 0
2  10 1 9 -1 8 1 7 -1 14 1 13 -1 12 -1 0
1
1.000000000000000 0.000000000000000 0.000000000000000 0.000000000000000 
0.000000000000000 1.000000000000000 0.000000000000000 -28.000000000000000 
0.000000000000000 0.000000000000000 1.000000000000000 0.000000000000006 
2  12 1 13 1 14 -1 17 1 7 1 8 -1 9 1 10 -1 0
2  10 1 9 -1 8 1 7 -1 17 -1 14 1 13 -1 12 -1 0
2  14 -1 7 1 8 -1 9 1 10 -1 2 1 3 -1 4 1 5 -1 0
2  12 1 13 1 14 -1 7 1 8 -1 9 1 10 -1 2 1 3 -1 4 1 5 -1 0
1
1.000000000000000 0.000000000000000 0.000000000000000 0.000000000000000 
0.000000000000000 1.000000000000000 0.000000000000000 0.000000000000000 
0.000000000000000 0.000000000000000 1.000000000000000 0.000000000000000 
1
-1.000000000000000 0.000000000000000 0.000000000000000 0.000000000000000 
0.000000000000000 0.000000000000000 1.000000000000000 -0.000000000000001 
0.000000000000000 1.000000000000000 -0.000000000000000 0.000000000000000 
2  22 1 23 1 10 -1 2 1 3 -1 4 1 5 -1 0
2  10 1 23 -1 22 -1 0
2  5 1 4 -1 3 1 2 -1 0
1
1.000000000000000 0.000000000000000 0.000000000000000 0.000000000000000 
0.000000000000000 1.000000000000000 0.000000000000000 0.000000000000000 
0.000000000000000 0.000000000000000 1.000000000000000 0.000000000000000 
1
-1.000000000000000 0.000000000000000 0.000000000000000 0.000000000000000 
0.000000000000000 0.000000000000000 1.000000000000000 -0.000000000000001 
0.000000000000000 1.000000000000000 -0.000000000000000 0.000000000000000 
2  27 1 28 1 8 -1 9 1 10 -1 2 1 3 -1 4 1 5 -1 0
2  8 1 28 -1 27 -1 0
2  5 1 4 -1 3 1 2 -1 10 1 9 -1 8 1 28 -1 27 -1 0
2  3 1 2 -1 10 1 9 -1 8 1 28 -1 27 -1 0
2  4 1 5 -1 0
2  14 -1 7 1 8 -1 9 1 10 -1 2 1 3 -1 0
1
1.000000000000000 0.000000000000000 0.000000000000000 -0.000000000000000 
0.000000000000000 1.000000000000000 0.000000000000000 -0.000000000000000 
0.000000000000000 0.000000000000000 1.000000000000000 -8.000000000000000 
2  3 -1 35 1 0
2  3 1 2 -1 10 1 9 -1 8 1 7 -1 14 1 13 -1 12 -1 0
2  22 1 23 1 10 -1 0
2  14 -1 17 1 7 1 8 -1 9 1 10 -1 0
1
1.000000000000000 0.000000000000000 0.000000000000000 0.000000000000000 
0.000000000000000 1.000000000000000 0.000000000000000 0.000000000000000 
0.000000000000000 0.000000000000000 1.000000000000000 0.000000000000000 
1
1.000000000000000 0.000000000000000 0.000000000001452 0.000000000023228 
0.000000000000000 1.000000000000000 0.000000000000000 0.000000000000004 
-0.000000000001452 0.000000000000000 1.000000000000000 15.999999999981547 
2  40 1 41 1 5 -1 0
2  5 1 41 -1 40 -1 0
1
1.000000000000000 0.000000000000000 0.000000000000000 -0.000000000007259 
0.000000000000000 1.000000000000000 0.000000000000000 -0.000000000000000 
0.000000000000000 0.000000000000000 1.000000000000000 -5.000000000000000 
2  44 -1 5 1 41 -1 40 -1 0
2  40 1 41 1 5 -1 44 1 0
2  9 1 10 -1 2 1 3 -1 4 1 5 -1 0
1
1.000000000000000 0.000000000000000 0.000000000000000 0.000000000000000 
0.000000000000000 1.000000000000000 0.000000000000000 -25.000000000000000 
0.000000000000000 0.000000000000000 1.000000000000000 0.000000000000006 
2  27 1 28 1 8 -1 48 1 0
2  27 1 28 1 8 -1 48 1 9 1 10 -1 2 1 3 -1 4 1 5 -1 0
2  27 1 28 1 8 -1 0
2  9 1 10 -1 2 1 3 -1 0
2  3 1 2 -1 10 1 9 -1 0
2  27 1 28 1 8 -1 9 1 10 -1 2 1 3 -1 0
2  27 1 28 1 8 -1 48 1 9 1 10 -1 2 1 3 -1 0
1
1.000000000000000 0.000000000000000 0.000000000000000 0.000000000000000 
0.000000000000000 1.000000000000000 0.000000000000000 0.000000000000000 
0.000000000000000 0.000000000000000 1.000000000000000 0.000000000000000 
1
1.000000000000000 0.000000000000000 0.000000000000000 0.000000000000000 
0.000000000000000 1.000000000000000 0.000000000000000 0.000000000000004 
0.000000000000000 0.000000000000000 1.000000000000000 19.500000000000000 
2  56 1 57 1 3 -1 35 1 0
2  3 1 57 -1 56 -1 0
2  35 -1 3 1 57 -1 56 -1 0
2  56 1 57 1 3 -1 0
2  7 1 8 -1 9 1 10 -1 2 1 3 -1 0
2  12 1 13 1 14 -1 7 1 8 -1 9 1 10 -1 2 1 3 -1 0
2  2 1 3 -1 0
2  12 1 13 1 14 -1 17 1 7 1 8 -1 9 1 10 -1 2 1 3 -1 0
2  8 -1 48 1 9 1 10 -1 2 1 3 -1 4 1 5 -1 0
2  27 1 28 1 0
Curve2ds 34
1 0.00000000000000000 0.00000000000000000 0.00000000000000000 -1.00000000000000000 
1 6.28318530717958623 0.00000000000000000 0.00000000000000000 -1.00000000000000000 
8 -24.09999999999999432 4.10000000000000320
1 15.25000000000000000 -10.00000000000000355 0.00000000000000000 1.00000000000000000 
8 -24.09999999999999432 4.10000000000000320
1 10.00000000000000355 -0.00000000000000486 1.00000000000000000 0.00000000000000000 
8 -8.00022808179588907 0.00022808179588907
1 23.25000000000000000 -34.10000000000000142 1.00000000000000000 0.00000000000000000 
8 -8.00022808179588907 0.00022808179588907
1 3.14159265358979356 0.00000000000000000 0.00000000000000000 1.00000000000000000 
8 18.75000000000000000 28.75000000000000000
1 -10.25000000000000000 -18.75000000000000000 0.00000000000000000 -1.00000000000000000 
8 18.75000000000000000 28.75000000000000000
1 -18.75000000000000000 -27.99999999999999645 1.00000000000000000 0.00000000000000000 
8 -11.62499999999999645 1.37500000000000178
1 -11.62500000000000355 -37.50000000000000000 1.00000000000000000 0.00000000000000000 
8 -11.62499999999999645 1.37500000000000178
1 11.62499999999999822 -27.99999999999999645 1.00000000000000000 -0.00000000000000022 
8 -11.62499999999999645 -0.62499999999999822
1 -11.62500000000000355 -2.50000000000000000 1.00000000000000000 0.00000000000000000 
8 -11.62499999999999645 -0.62499999999999822
1 11.62499999999999822 -27.99999999999999645 1.00000000000000000 -0.00000000000000022 
8 -1.25000000000000000 21.75000000000000000
1 -12.25000000000000000 -1.25000000000000000 0.00000000000000000 1.00000000000000000 
8 -1.25000000000000000 21.75000000000000000
1 1.25000000000000000 -27.99999999999999645 1.00000000000000000 0.00000000000000000 
8 -6.12499999999999734 3.87500000000000266
1 -6.12500000000000266 20.50000000000000000 1.00000000000000000 0.00000000000000000 
8 -6.12499999999999734 3.87500000000000266
1 6.12499999999999734 -27.99999999999999645 1.00000000000000000 -0.00000000000000022 
8 10.25000000000000000 37.25000000000000000
1 -2.25000000000000000 10.25000000000000000 0.00000000000000000 1.00000000000000000 
8 10.25000000000000000 37.25000000000000000
1 -10.25000000000000000 -27.99999999999999645 1.00000000000000000 0.00000000000000000 
8 -36.37499999998566125 14.12500000001433520
1 19.74999999997773870 11.12500000001433520 0.00000000000145178 -1.00000000000000000 
8 -36.37499999998566125 14.12500000001433520
1 11.12499999998566125 82.50733968836640031 1.00000000000000000 0.00000000000000000 
8 -11.62500000000000355 -8.12500000000000355
1 11.62499999999999645 -3.00000000000000000 -1.00000000000000000 0.00000000000000000 
8 -11.62500000000000355 -8.12500000000000355
1 11.62500000000000355 -28.00000000000000000 1.00000000000000000 0.00000000000000022 
8 -11.62500000000000355 4.87499999999999645
1 11.62499999999999645 -37.50000000000000000 -1.00000000000000000 0.00000000000000000 
8 -11.62500000000000355 4.87499999999999645
1 11.62500000000000355 -28.00000000000000000 1.00000000000000000 0.00000000000000022 
8 18.75000000000000000 28.75000000000000000
1 6.75000000000000000 -18.75000000000000000 0.00000000000000000 -1.00000000000000000 
8 18.75000000000000000 28.75000000000000000
1 -18.75000000000000000 -28.00000000000000000 1.00000000000000000 0.00000000000000000 
1 0.00000000000000000 0.00000000000000000 1.00000000000000000 0.00000000000000000 
1 0.00000000000000000 -5.00000000000000000 1.00000000000000000 0.00000000000000000 
8 -5.00022235761645995 0.00022235761645995
1 19.74999999998967581 2.90000000002322889 1.00000000000000000 0.00000000000145178 
8 -5.00022235761645995 0.00022235761645995
1 3.14159265358979400 0.00000000000000044 0.00000000000000000 1.00000000000000000 
1 0.00000000000000000 0.00000000000000000 1.00000000000000000 0.00000000000000000 
1 0.00000000000000000 -8.00000000000000000 1.00000000000000000 0.00000000000000000 
1 0.00000000000000000 0.00000000000000000 0.00000000000000000 -1.00000000000000000 
1 6.28318530717958623 0.00000000000000000 0.00000000000000000 -1.00000000000000000 
Curves 73
1 -56.00000000000000000 19.50000000000000000 0.00000000000000000 0.00000000000000000 -1.00000000000000000 0.00000000000000000 
1 -56.00000000000000000 -0.00000000000000394 -14.00000000000000000 0.00000000000000000 -1.00000000000000000 0.00000000000000022 
1 -56.00000000000000000 -0.00000000000000017 3.00000000000000000 0.00000000000000000 -1.00000000000000000 0.00000000000000022 
1 46.00000000000000000 -14.00000000000000000 0.00000000000000000 1.00000000000000000 0.00000000000000000 0.00000000000000000 
1 46.00000000000000000 -27.00000000000000000 0.00000000000000000 0.00000000000000000 1.00000000000000000 0.00000000000000000 
1 -56.00000000000000000 -27.00000000000000000 0.00000000000000000 1.00000000000000000 0.00000000000000000 0.00000000000000000 
1 11.00000000000000000 -27.00000000000000000 0.00000000000000000 0.00000000000000000 1.00000000000000000 0.00000000000000000 
1 11.00000000000000000 -16.00000000000000000 0.00000000000000000 -1.00000000000000000 0.00000000000000000 0.00000000000000000 
1 -12.00000000000000000 -16.00000000000000000 0.00000000000000000 0.00000000000000000 1.00000000000000000 0.00000000000000000 
1 -12.00000000000000000 -6.00000000000000000 0.00000000000000000 -1.00000000000000000 0.00000000000000000 0.00000000000000000 
1 39.00000000000000000 -27.00000000000000000 0.00000000000000000 0.00000000000000000 1.00000000000000000 0.00000000000000000 
1 8.50000000000000000 0.00000000000000272 15.99999999992603250 1.00000000000000000 0.00000000000000000 0.00000000000000000 
1 5.60000000002322817 0.00000000000000360 15.99999999997341682 -0.00000000000145178 -0.00000000000000000 -1.00000000000000000 
1 -37.00000000000000000 11.00000000000000000 0.00000000000000000 1.00000000000000000 0.00000000000000000 0.00000000000000000 
1 -37.00000000000000000 -1.00000000000000000 0.00000000000000000 0.00000000000000000 1.00000000000000000 0.00000000000000000 
1 -9.00000000000000000 -1.00000000000000000 0.00000000000000000 -1.00000000000000000 0.00000000000000000 0.00000000000000000 
1 -9.00000000000000000 -11.00000000000000000 0.00000000000000000 0.00000000000000000 1.00000000000000000 0.00000000000000000 
1 19.00000000000000000 -11.00000000000000000 0.00000000000000000 -1.00000000000000000 0.00000000000000000 0.00000000000000000 
1 19.00000000000000000 -19.00000000000000000 0.00000000000000000 0.00000000000000000 1.00000000000000000 0.00000000000000000 
1 38.00000000000000000 -19.00000000000000000 0.00000000000000000 -1.00000000000000000 0.00000000000000000 0.00000000000000000 
1 38.00000000000000000 -11.00000000000000000 0.00000000000000000 0.00000000000000000 -1.00000000000000000 0.00000000000000000 
1 53.00000000000000000 -11.00000000000000000 0.00000000000000000 -1.00000000000000000 0.00000000000000000 0.00000000000000000 
1 53.00000000000000000 0.00000000000000000 0.00000000000000000 0.00000000000000000 -1.00000000000000000 0.00000000000000000 
1 38.00000000000000000 0.00000000000000000 0.00000000000000000 1.00000000000000000 0.00000000000000000 0.00000000000000000 
1 38.00000000000000000 11.50000000000000000 0.00000000000000000 0.00000000000000000 -1.00000000000000000 0.00000000000000000 
1 -18.50000000000000355 -0.00000000000000083 11.50000000000000000 1.00000000000000000 0.00000000000000000 0.00000000000000000 
1 -42.60000000000000142 -0.00000000000000083 19.50000000000000000 0.00000000000000000 0.00000000000000000 1.00000000000000000 
1 39.00000000000000000 19.50000000000000000 0.00000000000000000 -1.00000000000000000 0.00000000000000000 0.00000000000000000 
1 46.00000000000000000 19.50000000000000000 0.00000000000000000 0.00000000000000000 -1.00000000000000000 0.00000000000000000 
1 46.00000000000000000 3.00000000000000000 0.00000000000000000 1.00000000000000000 0.00000000000000000 0.00000000000000000 
1 -27.25000000000000000 -28.00000000000000000 -13.99999999999999289 -1.00000000000000000 0.00000000000000000 0.00000000000000000 
1 -46.00000000000000000 -0.00000000000000394 -14.00000000000000000 0.00000000000000000 -1.00000000000000000 0.00000000000000022 
1 -46.00000000000000000 -28.00000000000000000 -15.37499999999999645 0.00000000000000000 -0.00000000000000000 1.00000000000000000 
1 -11.00000000000000000 -28.00000000000000000 -15.37499999999999645 0.00000000000000000 -0.00000000000000000 1.00000000000000000 
1 -9.75000000000000000 -28.00000000000000000 -15.99999999999999289 1.00000000000000000 -0.00000000000000000 0.00000000000000000 
1 12.00000000000000000 -28.00000000000000000 -9.87499999999999645 0.00000000000000000 -0.00000000000000000 1.00000000000000000 
1 1.75000000000000000 -28.00000000000000000 -5.99999999999999378 1.00000000000000000 -0.00000000000000000 0.00000000000000000 
1 2.62500000001433431 -28.00000000000000000 15.99999999997774403 -1.00000000000000000 0.00000000000000000 0.00000000000145178 
1 -11.50000000000000000 -28.00000000000000000 7.87500000000000355 0.00000000000000000 0.00000000000000000 -1.00000000000000000 
1 -46.00000000000000000 -28.00000000000000000 7.87500000000000355 0.00000000000000000 0.00000000000000000 -1.00000000000000000 
1 -27.25000000000000000 -28.00000000000000000 3.00000000000000622 -1.00000000000000000 0.00000000000000000 0.00000000000000000 
1 -46.00000000000000000 -0.00000000000000017 3.00000000000000000 0.00000000000000000 -1.00000000000000000 0.00000000000000022 
1 -46.00000000000000000 -0.00000000000000683 -27.00000000000000000 0.00000000000000000 -1.00000000000000000 0.00000000000000022 
1 -11.00000000000000000 -0.00000000000000683 -27.00000000000000000 0.00000000000000000 -1.00000000000000000 0.00000000000000022 
1 -11.00000000000000000 -0.00000000000000439 -16.00000000000000000 0.00000000000000000 -1.00000000000000000 0.00000000000000022 
1 12.00000000000000000 -0.00000000000000439 -16.00000000000000000 0.00000000000000000 -1.00000000000000000 0.00000000000000022 
1 12.00000000000000000 -0.00000000000000216 -6.00000000000000000 0.00000000000000000 -1.00000000000000000 0.00000000000000022 
1 39.00000000000000000 -0.00000000000000216 -6.00000000000000000 0.00000000000000000 -1.00000000000000000 0.00000000000000022 
1 39.00000000000000000 0.00000000000000272 15.99999999992603250 0.00000000000000000 -1.00000000000000000 0.00000000000000022 
1 -11.50000000000000000 0.00000000000000272 16.00000000000000000 0.00000000000000000 -1.00000000000000000 0.00000000000000022 
2 0.00000000000000000 0.00000000000000000 0.00000000000000000 0.00000000000000000 0.00000000000000000 1.00000000000000000 1.00000000000000000 0.00000000000000000 0.00000000000000000 0.00000000000000000 1.00000000000000000 0.00000000000000000 5.59999999999999964
1 -5.59999999997677111 -0.00000000000000083 15.99999999998967759 0.00000000000145178 -0.00000000000000000 1.00000000000000000 
1 -14.50000000000000000 0.00000000000000161 11.00000000000000000 0.00000000000000000 -1.00000000000000000 0.00000000000000022 
1 37.00000000000000000 0.00000000000000161 11.00000000000000000 0.00000000000000000 -1.00000000000000000 0.00000000000000022 
1 37.00000000000000000 -0.00000000000000105 -1.00000000000000000 0.00000000000000000 -1.00000000000000000 0.00000000000000022 
1 9.00000000000000000 -0.00000000000000105 -1.00000000000000000 0.00000000000000000 -1.00000000000000000 0.00000000000000022 
1 9.00000000000000000 -0.00000000000000328 -11.00000000000000000 0.00000000000000000 -1.00000000000000000 0.00000000000000022 
1 -19.00000000000000000 -0.00000000000000328 -11.00000000000000000 0.00000000000000000 -1.00000000000000000 0.00000000000000022 
1 -19.00000000000000000 -0.00000000000000505 -19.00000000000000000 0.00000000000000000 -1.00000000000000000 0.00000000000000022 
1 -38.00000000000000000 -0.00000000000000505 -19.00000000000000000 0.00000000000000000 -1.00000000000000000 0.00000000000000022 
1 -38.00000000000000000 -0.00000000000000328 -11.00000000000000000 0.00000000000000000 -1.00000000000000000 0.00000000000000022 
1 -53.00000000000000000 -0.00000000000000328 -11.00000000000000000 0.00000000000000000 -1.00000000000000000 0.00000000000000022 
1 -53.00000000000000000 -0.00000000000000083 0.00000000000000000 0.00000000000000000 -1.00000000000000000 0.00000000000000022 
1 -38.00000000000000000 -0.00000000000000083 0.00000000000000000 0.00000000000000000 -1.00000000000000000 0.00000000000000022 
1 -38.00000000000000000 0.00000000000000172 11.50000000000000000 0.00000000000000000 -1.00000000000000000 0.00000000000000022 
2 -28.50000000000000000 0.00000000000000000 0.00000000000000000 0.00000000000000000 0.00000000000000000 1.00000000000000000 1.00000000000000000 0.00000000000000000 0.00000000000000000 0.00000000000000000 1.00000000000000000 0.00000000000000000 14.09999999999999964
1 -14.40000000000000036 0.00000000000000433 19.50000000000000000 -0.00000000000000000 -0.00000000000000000 -1.00000000000000000 
1 -46.00000000000000000 0.00000000000000350 19.50000000000000000 0.00000000000000000 -1.00000000000000000 0.00000000000000022 
1 -11.50000000000000000 0.00000000000000350 19.50000000000000000 0.00000000000000000 -1.00000000000000000 0.00000000000000022 
1 11.50000000000000000 19.50000000000000000 0.00000000000000000 0.00000000000000000 -1.00000000000000000 0.00000000000000000 
1 14.50000000000000000 11.00000000000000000 0.00000000000000000 0.00000000000000000 1.00000000000000000 0.00000000000000000 
1 -14.50000000000000000 0.00000000000000172 11.50000000000000000 0.00000000000000000 -1.00000000000000000 0.00000000000000022 
1 14.50000000000000000 11.50000000000000000 0.00000000000000000 1.00000000000000000 0.00000000000000000 0.00000000000000000 
Polygon3D 0
PolygonOnTriangulations 0
Surfaces 33
1 -56.00000000000000000 0.00000000000000433 19.50000000000000000 1.00000000000000000 0.00000000000000000 0.00000000000000000 0.00000000000000000 -0.00000000000000022 -1.00000000000000000 0.00000000000000000 1.00000000000000000 -0.00000000000000022 
1 -8.50000000000000000 -0.00000000000000083 -3.75000000000000000 0.00000000000000000 1.00000000000000000 0.00000000000000000 0.00000000000000000 -0.00000000000000000 1.00000000000000000 1.00000000000000000 0.00000000000000000 -0.00000000000000000 
2 0.00000000002322841 0.00000000000000360 15.99999999998154721 0.00000000000145178 -0.00000000000000000 1.00000000000000000 1.00000000000000000 0.00000000000000000 -0.00000000000145178 0.00000000000000000 1.00000000000000000 0.00000000000000000 5.59999999999999964
1 -28.50000000000000711 0.00000000000000403 19.50000000000000000 0.00000000000000000 0.00000000000000000 1.00000000000000000 1.00000000000000000 0.00000000000000000 -0.00000000000000000 -0.00000000000000000 1.00000000000000000 0.00000000000000000 
2 -28.50000000000000000 0.00000000000000433 19.50000000000000000 0.00000000000000000 0.00000000000000000 1.00000000000000000 1.00000000000000000 0.00000000000000000 0.00000000000000000 0.00000000000000000 1.00000000000000000 0.00000000000000000 14.09999999999999964
1 -46.00000000000000000 -0.00000000000000394 -14.00000000000000000 -0.00000000000000000 -0.00000000000000022 -1.00000000000000000 -1.00000000000000000 0.00000000000000000 0.00000000000000000 0.00000000000000000 1.00000000000000000 -0.00000000000000022 
1 -46.00000000000000000 -0.00000000000000683 -27.00000000000000000 -1.00000000000000000 0.00000000000000000 0.00000000000000000 0.00000000000000000 0.00000000000000022 1.00000000000000000 0.00000000000000000 1.00000000000000000 -0.00000000000000022 
1 -11.00000000000000000 -0.00000000000000683 -27.00000000000000000 -1.00000000000000000 0.00000000000000000 0.00000000000000000 0.00000000000000000 0.00000000000000022 1.00000000000000000 0.00000000000000000 1.00000000000000000 -0.00000000000000022 
1 -11.00000000000000000 -0.00000000000000439 -16.00000000000000000 -0.00000000000000000 0.00000000000000022 1.00000000000000000 1.00000000000000000 0.00000000000000000 0.00000000000000000 0.00000000000000000 1.00000000000000000 -0.00000000000000022 
1 12.00000000000000000 -0.00000000000000439 -16.00000000000000000 -1.00000000000000000 0.00000000000000000 0.00000000000000000 0.00000000000000000 0.00000000000000022 1.00000000000000000 0.00000000000000000 1.00000000000000000 -0.00000000000000022 
1 12.00000000000000000 -0.00000000000000216 -6.00000000000000000 -0.00000000000000000 0.00000000000000022 1.00000000000000000 1.00000000000000000 0.00000000000000000 0.00000000000000000 0.00000000000000000 1.00000000000000000 -0.00000000000000022 
1 13.74999999999999645 -110.50733968836640031 15.99999999996160938 -0.00000000000145178 -0.00000000000000023 -1.00000000000000000 -1.00000000000000000 0.00000000000000000 0.00000000000145178 -0.00000000000000000 1.00000000000000000 -0.00000000000000023 
1 -11.50000000000000000 0.00000000000000350 19.50000000000000000 1.00000000000000000 0.00000000000000000 0.00000000000000000 0.00000000000000000 -0.00000000000000022 -1.00000000000000000 0.00000000000000000 1.00000000000000000 -0.00000000000000022 
1 -46.00000000000000000 0.00000000000000350 19.50000000000000000 1.00000000000000000 0.00000000000000000 0.00000000000000000 0.00000000000000000 -0.00000000000000022 -1.00000000000000000 0.00000000000000000 1.00000000000000000 -0.00000000000000022 
1 -46.00000000000000000 -0.00000000000000017 3.00000000000000000 -0.00000000000000000 -0.00000000000000022 -1.00000000000000000 -1.00000000000000000 0.00000000000000000 0.00000000000000000 0.00000000000000000 1.00000000000000000 -0.00000000000000022 
1 -56.00000000000000000 -0.00000000000000600 -27.00000000000000000 -0.00000000000000000 0.00000000000000022 1.00000000000000000 1.00000000000000000 0.00000000000000000 0.00000000000000000 0.00000000000000000 1.00000000000000000 -0.00000000000000022 
1 39.00000000000000000 -0.00000000000000600 -27.00000000000000000 -1.00000000000000000 0.00000000000000000 0.00000000000000000 0.00000000000000000 0.00000000000000022 1.00000000000000000 0.00000000000000000 1.00000000000000000 -0.00000000000000022 
1 37.00000000000000000 0.00000000000000161 11.00000000000000000 -0.00000000000000000 -0.00000000000000022 -1.00000000000000000 -1.00000000000000000 0.00000000000000000 0.00000000000000000 0.00000000000000000 1.00000000000000000 -0.00000000000000022 
1 37.00000000000000000 -0.00000000000000105 -1.00000000000000000 -1.00000000000000000 0.00000000000000000 0.00000000000000000 0.00000000000000000 0.00000000000000022 1.00000000000000000 0.00000000000000000 1.00000000000000000 -0.00000000000000022 
1 9.00000000000000000 -0.00000000000000105 -1.00000000000000000 -0.00000000000000000 0.00000000000000022 1.00000000000000000 1.00000000000000000 0.00000000000000000 0.00000000000000000 0.00000000000000000 1.00000000000000000 -0.00000000000000022 
1 9.00000000000000000 -0.00000000000000328 -11.00000000000000000 -1.00000000000000000 0.00000000000000000 0.00000000000000000 0.00000000000000000 0.00000000000000022 1.00000000000000000 0.00000000000000000 1.00000000000000000 -0.00000000000000022 
1 -19.00000000000000000 -0.00000000000000328 -11.00000000000000000 -0.00000000000000000 0.00000000000000022 1.00000000000000000 1.00000000000000000 0.00000000000000000 0.00000000000000000 0.00000000000000000 1.00000000000000000 -0.00000000000000022 
1 -19.00000000000000000 -0.00000000000000505 -19.00000000000000000 -1.00000000000000000 0.00000000000000000 0.00000000000000000 0.00000000000000000 0.00000000000000022 1.00000000000000000 0.00000000000000000 1.00000000000000000 -0.00000000000000022 
1 -38.00000000000000000 -0.00000000000000505 -19.00000000000000000 -0.00000000000000000 0.00000000000000022 1.00000000000000000 1.00000000000000000 0.00000000000000000 0.00000000000000000 0.00000000000000000 1.00000000000000000 -0.00000000000000022 
1 -38.00000000000000000 -0.00000000000000328 -11.00000000000000000 1.00000000000000000 0.00000000000000000 0.00000000000000000 0.00000000000000000 -0.00000000000000022 -1.00000000000000000 0.00000000000000000 1.00000000000000000 -0.00000000000000022 
1 -53.00000000000000000 -0.00000000000000328 -11.00000000000000000 -0.00000000000000000 0.00000000000000022 1.00000000000000000 1.00000000000000000 0.00000000000000000 0.00000000000000000 0.00000000000000000 1.00000000000000000 -0.00000000000000022 
1 -53.00000000000000000 -0.00000000000000083 0.00000000000000000 1.00000000000000000 0.00000000000000000 0.00000000000000000 0.00000000000000000 -0.00000000000000022 -1.00000000000000000 0.00000000000000000 1.00000000000000000 -0.00000000000000022 
1 -38.00000000000000000 -0.00000000000000083 0.00000000000000000 -0.00000000000000000 -0.00000000000000022 -1.00000000000000000 -1.00000000000000000 0.00000000000000000 0.00000000000000000 0.00000000000000000 1.00000000000000000 -0.00000000000000022 
1 -38.00000000000000000 0.00000000000000172 11.50000000000000000 1.00000000000000000 0.00000000000000000 0.00000000000000000 0.00000000000000000 -0.00000000000000022 -1.00000000000000000 0.00000000000000000 1.00000000000000000 -0.00000000000000022 
1 39.00000000000000000 0.00000000000000433 19.50000000000000000 -0.00000000000000000 -0.00000000000000022 -1.00000000000000000 -1.00000000000000000 0.00000000000000000 0.00000000000000000 0.00000000000000000 1.00000000000000000 -0.00000000000000022 
1 -14.50000000000000000 0.00000000000000161 11.00000000000000000 -1.00000000000000000 0.00000000000000000 0.00000000000000000 0.00000000000000000 0.00000000000000022 1.00000000000000000 0.00000000000000000 1.00000000000000000 -0.00000000000000022 
1 -9.91390041493775875 -0.00000000000000107 -1.05394190871369298 0.00000000000000000 1.00000000000000000 0.00000000000000000 0.00000000000000000 -0.00000000000000000 1.00000000000000000 1.00000000000000000 0.00000000000000000 -0.00000000000000000 
1 -14.50000000000000000 0.00000000000000172 11.50000000000000000 -0.00000000000000000 -0.00000000000000022 -1.00000000000000000 -1.00000000000000000 0.00000000000000000 0.00000000000000000 0.00000000000000000 1.00000000000000000 -0.00000000000000022 
Triangulations 0

TShapes 240
Ve
0.000000100000001
-56.000000000000000 -0.000000000000000 3.000000000000000
0 0

0101101
*
Ve
0.000000100000003
-56.000000000000000 -0.000000000000004 -14.000000000000000
0 0

0101101
*
Ed
 0.000000100000000 1 1 0
1  1 0 16.500000000000000 33.500000000000000
0

0101000
+240 16 -239 16 *
Ve
0.000122609936993
-56.000000000000000 -28.000000000000004 -13.999999999999993
0 0

0101101
*
Ed
 0.000000100000000 1 1 0
1  2 0 0.000000000000000 28.000000000000000
0

0101000
+239 0 -237 0 *
Ve
0.000122609936990
-56.000000000000000 -28.000000000000000 3.000000000000007
0 0

0101101
*
Ed
 0.000000100000000 1 1 0
1  1 0 16.500000000000000 33.500000000000000
0

0101000
+235 19 -237 19 *
Ed
 0.000000100000000 1 1 0
1  3 0 0.000000000000000 28.000000000000000
0

0101000
+240 0 -235 0 *
Wi

0101100
-238 15 -236 0 +234 18 +233 0 *
Fa
0  0.000000100000000 1 11

0101000
+232 0 *
Ve
0.000000100000006
-46.000000000000000 -0.000000000000004 -14.000000000000000
0 0

0101101
*
Ed
 0.000000100000003 1 1 0
1  4 0 0.000000000000000 10.000000000000000
0

0101000
+230 25 -239 25 *
Ve
0.000000100000006
-46.000000000000000 -0.000000000000007 -27.000000000000000
0 0

0101101
*
Ed
 0.000000100000006 1 1 0
1  5 0 0.000000000000000 13.000000000000000
0

0101000
+228 25 -230 25 *
Ve
0.000000100000006
-11.000000000000000 -0.000000000000007 -27.000000000000000
0 0

0101101
*
Ed
 0.000000100000000 1 1 0
1  6 0 10.000000000000000 45.000000000000000
0

0101000
+228 16 -226 16 *
Ve
0.000000100000006
-11.000000000000000 -0.000000000000004 -16.000000000000000
0 0

0101101
*
Ed
 0.000000100000006 1 1 0
1  7 0 0.000000000000000 11.000000000000000
0

0101000
+226 25 -224 25 *
Ve
0.000000100000004
12.000000000000000 -0.000000000000004 -16.000000000000000
0 0

0101101
*
Ed
 0.000000100000004 1 1 0
1  8 0 0.000000000000000 23.000000000000000
0

0101000
+224 25 -222 25 *
Ve
0.000000100000003
12.000000000000000 -0.000000000000002 -6.000000000000000
0 0

0101101
*
Ed
 0.000000100000003 1 1 0
1  9 0 0.000000000000000 10.000000000000000
0

0101000
+222 25 -220 25 *
Ve
0.000000100000001
39.000000000000000 -0.000000000000002 -6.000000000000000
0 0

0101101
*
Ed
 0.000000100000001 1 1 0
1  10 0 0.000000000000000 27.000000000000000
0

0101000
+220 25 -218 25 *
Ve
0.000000100000004
39.000000000000000 0.000000000000003 15.999999999926033
0 0

0101101
*
Ed
 0.000000100000000 1 1 0
1  11 0 21.000000000000000 42.999999999926033
0

0101000
+218 16 -216 16 *
Ve
0.000000100062290
5.600000000023228 0.000000000000004 15.999999999973417
0 0

0101101
*
Ed
 0.000000100000004 1 1 0
1  12 0 -2.899999999976772 30.500000000000000
0

0101000
+214 26 -216 0 *
Ve
0.000000100026586
5.600000000015969 0.000000000000004 10.999999999973417
0 0

0101101
*
Ed
 0.000000100000004 1 1 0
1  13 0 0.000000000000000 5.000000000000000
3  1 2CN 3 0 0.000000000000000 5.000000000000000
0

0101000
+214 0 -212 0 *
Ve
0.000000100000002
37.000000000000000 0.000000000000002 11.000000000000000
0 0

0101101
*
Ed
 0.000000100000002 1 1 0
1  14 0 0.000000000000000 31.399999999984033
0

0101000
+210 30 -212 31 *
Ve
0.000000100000002
37.000000000000000 -0.000000000000001 -1.000000000000000
0 0

0101101
*
Ed
 0.000000100000002 1 1 0
1  15 0 0.000000000000000 12.000000000000000
0

0101000
+208 30 -210 30 *
Ve
0.000000100000002
9.000000000000000 -0.000000000000001 -1.000000000000000
0 0

0101101
*
Ed
 0.000000100000000 1 1 0
1  16 0 0.000000000000000 28.000000000000000
0

0101000
+206 30 -208 30 *
Ve
0.000000100000002
9.000000000000000 -0.000000000000003 -11.000000000000000
0 0

0101101
*
Ed
 0.000000100000002 1 1 0
1  17 0 0.000000000000000 10.000000000000000
0

0101000
+204 30 -206 30 *
Ve
0.000000100000004
-19.000000000000000 -0.000000000000003 -11.000000000000000
0 0

0101101
*
Ed
 0.000000100000002 1 1 0
1  18 0 0.000000000000000 28.000000000000000
0

0101000
+202 30 -204 30 *
Ve
0.000000100000004
-19.000000000000000 -0.000000000000005 -19.000000000000000
0 0

0101101
*
Ed
 0.000000100000004 1 1 0
1  19 0 0.000000000000000 8.000000000000000
0

0101000
+200 30 -202 30 *
Ve
0.000000100000004
-38.000000000000000 -0.000000000000005 -19.000000000000000
0 0

0101101
*
Ed
 0.000000100000004 1 1 0
1  20 0 0.000000000000000 19.000000000000000
0

0101000
+198 30 -200 30 *
Ve
0.000000100000004
-38.000000000000000 -0.000000000000003 -11.000000000000000
0 0

0101101
*
Ed
 0.000000100000004 1 1 0
1  21 0 0.000000000000000 8.000000000000000
0

0101000
+196 30 -198 30 *
Ve
0.000000100000002
-53.000000000000000 -0.000000000000003 -11.000000000000000
0 0

0101101
*
Ed
 0.000000100000002 1 1 0
1  22 0 0.000000000000000 15.000000000000000
0

0101000
+194 30 -196 30 *
Ve
0.000000100000002
-53.000000000000000 -0.000000000000001 0.000000000000000
0 0

0101101
*
Ed
 0.000000100000002 1 1 0
1  23 0 0.000000000000000 11.000000000000000
0

0101000
+192 30 -194 30 *
Ve
0.000000100000002
-38.000000000000000 -0.000000000000001 0.000000000000000
0 0

0101101
*
Ed
 0.000000100000000 1 1 0
1  24 0 0.000000000000000 15.000000000000000
0

0101000
+190 30 -192 30 *
Ve
0.000057020448975
-38.000000000000000 0.000000000000002 11.500000000000000
0 0

0101101
*
Ed
 0.000000100000002 1 1 0
1  25 0 0.000000000000000 11.500000000000000
0

0101000
+188 32 -190 30 *
Ve
0.000057020448980
-42.600000000000001 -0.000000000000000 11.500000000000000
0 0

0101101
*
Ed
 0.000057020448972 1 1 0
1  26 0 -24.099999999999994 -19.499999999999996
2  3 2 34 -24.099999999999994 -19.499999999999996
2  4 4 36 -24.099999999999994 -19.499999999999996
0

0101000
+186 0 -188 0 *
Ve
0.000000100000407
-42.599999999999994 0.000000000000406 19.500000000000000
0 0

0101101
*
Ed
 0.000000100000000 1 1 0
1  27 0 -8.000000000000000 0.000000000000000
2  5 2 34 -8.000000000000000 0.000000000000000
2  6 5 0 -8.000000000000000 0.000000000000000
0

0101000
+186 0 -184 0 *
Ve
0.000000100000004
-46.000000000000000 0.000000000000003 19.500000000000000
0 0

0101101
*
Ed
 0.000000100000000 1 1 0
1  28 0 81.599999999999994 85.000000000000000
0

0101000
+184 37 -182 16 *
Ve
0.000000100000004
-46.000000000000000 -0.000000000000000 3.000000000000000
0 0

0101101
*
Ed
 0.000000100000004 1 1 0
1  29 0 0.000000000000000 16.500000000000000
0

0101000
+182 25 -180 25 *
Ed
 0.000000100000001 1 1 0
1  30 0 0.000000000000000 10.000000000000000
0

0101000
+180 25 -240 25 *
Wi

0101100
-238 21 +229 24 +227 24 -225 21 -223 24 -221 24 -219 24 -217 24 -215 21 +213 6 
-211 0 +209 29 +207 29 +205 29 +203 29 +201 29 +199 29 +197 29 +195 29 +193 29 
+191 29 +189 29 +187 29 +185 33 -183 33 -181 21 -179 24 -178 24 *
Fa
0  0.000000100000000 2 20

0101000
+177 0 *
Ve
0.000122609936992
-46.000000000000000 -28.000000000000000 -13.999999999999995
0 0

0101101
*
Ed
 0.000122609936990 1 1 0
1  31 0 18.750000000000000 28.750000000000000
2  7 2 39 18.750000000000000 28.750000000000000
2  8 6 0 18.750000000000000 28.750000000000000
0

0101000
+175 0 -237 0 *
Ed
 0.000000100000000 1 1 0
1  32 0 0.000000000000000 27.999999999999996
0

0101000
+230 0 -175 0 *
Wi

0101100
-229 38 -236 0 +174 0 +173 0 *
Fa
0  0.000000100000000 6 0

0101000
+172 0 *
Ve
0.000122609936997
-46.000000000000000 -28.000000000000007 -26.999999999999993
0 0

0101101
*
Ed
 0.000122609936990 1 1 0
1  33 0 -11.624999999999996 1.375000000000002
2  9 2 39 -11.624999999999996 1.375000000000002
2  10 7 0 -11.624999999999996 1.375000000000002
0

0101000
+170 0 -175 0 *
Ve
0.000122609936997
-11.000000000000000 -28.000000000000007 -26.999999999999993
0 0

0101101
*
Ed
 0.000000100000000 1 1 0
1  6 0 10.000000000000000 45.000000000000000
0

0101000
+170 19 -168 19 *
Ve
0.000122609936992
-11.000000000000000 -28.000000000000000 -15.999999999999995
0 0

0101101
*
Ed
 0.000122609936990 1 1 0
1  34 0 -11.624999999999996 -0.624999999999998
2  11 2 39 -11.624999999999996 -0.624999999999998
2  12 8 0 -11.624999999999996 -0.624999999999998
0

0101000
+168 0 -166 0 *
Ve
0.000122609936992
12.000000000000000 -28.000000000000000 -15.999999999999995
0 0

0101101
*
Ed
 0.000122609936990 1 1 0
1  35 0 -1.250000000000000 21.750000000000000
2  13 2 39 -1.250000000000000 21.750000000000000
2  14 9 0 -1.250000000000000 21.750000000000000
0

0101000
+166 0 -164 0 *
Ve
0.000122609936990
12.000000000000000 -28.000000000000000 -5.999999999999994
0 0

0101101
*
Ed
 0.000122609936990 1 1 0
1  36 0 -6.124999999999997 3.875000000000003
2  15 2 39 -6.124999999999997 3.875000000000003
2  16 10 0 -6.124999999999997 3.875000000000003
0

0101000
+164 0 -162 0 *
Ve
0.000122609936993
39.000000000000000 -28.000000000000004 -5.999999999999993
0 0

0101101
*
Ed
 0.000122609936990 1 1 0
1  37 0 10.250000000000000 37.250000000000000
2  17 2 39 10.250000000000000 37.250000000000000
2  18 11 0 10.250000000000000 37.250000000000000
0

0101000
+162 0 -160 0 *
Ve
0.000122609938093
39.000000000000000 -27.999999999999996 15.999999999926040
0 0

0101101
*
Ed
 0.000000100000000 1 1 0
1  11 0 21.000000000000000 42.999999999926033
0

0101000
+160 19 -158 19 *
Ve
0.000122609938747
-11.500000000000000 -28.000000000000000 16.000000000000007
0 0

0101101
*
Ed
 0.000122609936990 1 1 0
1  38 0 -36.374999999985661 14.125000000014335
2  19 2 39 -36.374999999985661 14.125000000014335
2  20 12 0 -36.374999999985661 14.125000000014335
0

0101000
+158 0 -156 0 *
Ve
0.000122609936993
-11.500000000000000 -27.999999999999996 19.500000000000007
0 0

0101101
*
Ed
 0.000122609936990 1 1 0
1  39 0 -11.625000000000004 -8.125000000000004
2  21 2 39 -11.625000000000004 -8.125000000000004
2  22 13 0 -11.625000000000004 -8.125000000000004
0

0101000
+154 0 -156 0 *
Ve
0.000122609936993
-46.000000000000000 -27.999999999999996 19.500000000000007
0 0

0101101
*
Ed
 0.000000100000000 1 1 0
1  28 0 50.500000000000000 85.000000000000000
0

0101000
+154 19 -152 19 *
Ve
0.000122609936991
-46.000000000000000 -28.000000000000000 3.000000000000006
0 0

0101101
*
Ed
 0.000122609936990 1 1 0
1  40 0 -11.625000000000004 4.874999999999996
2  23 2 39 -11.625000000000004 4.874999999999996
2  24 14 0 -11.625000000000004 4.874999999999996
0

0101000
+152 0 -150 0 *
Ed
 0.000122609936990 1 1 0
1  41 0 18.750000000000000 28.750000000000000
2  25 2 39 18.750000000000000 28.750000000000000
2  26 15 0 18.750000000000000 28.750000000000000
0

0101000
+150 0 -235 0 *
Wi

0101100
-234 18 +174 0 +169 0 -167 18 -165 0 -163 0 -161 0 -159 0 -157 18 -155 0 
+153 0 -151 18 -149 0 -148 0 *
Fa
0  0.000000100000000 2 39

0101000
+147 0 *
Ed
 0.000000100000000 1 1 0
1  42 0 0.000000000000000 28.000000000000000
0

0101000
+180 0 -150 0 *
Wi

0101100
-178 38 -233 0 +148 0 +145 0 *
Fa
0  0.000000100000000 15 0

0101000
+144 0 *
Ed
 0.000000100000000 1 1 0
1  43 0 0.000000000000000 28.000000000000000
0

0101000
+228 0 -170 0 *
Wi

0101100
-227 38 -173 0 +169 0 +142 0 *
Fa
0  0.000000100000000 7 0

0101000
+141 0 *
Ed
 0.000000100000000 1 1 0
1  44 0 0.000000000000000 28.000000000000000
0

0101000
+226 0 -168 0 *
Wi

0101100
-225 15 -139 0 +167 18 +142 0 *
Fa
0  0.000000100000000 16 11

0101000
+138 0 *
Ed
 0.000000100000000 1 1 0
1  45 0 0.000000000000000 27.999999999999996
0

0101000
+224 0 -166 0 *
Wi

0101100
-223 38 -136 0 +165 0 +139 0 *
Fa
0  0.000000100000000 8 0

0101000
+135 0 *
Ed
 0.000000100000000 1 1 0
1  46 0 0.000000000000000 27.999999999999996
0

0101000
+222 0 -164 0 *
Wi

0101100
-221 38 -133 0 +163 0 +136 0 *
Fa
0  0.000000100000000 9 0

0101000
+132 0 *
Ed
 0.000000100000000 1 1 0
1  47 0 0.000000000000000 27.999999999999996
0

0101000
+220 0 -162 0 *
Wi

0101100
-219 38 -130 0 +161 0 +133 0 *
Fa
0  0.000000100000000 10 0

0101000
+129 0 *
Ed
 0.000000100000000 1 1 0
1  48 0 0.000000000000000 28.000000000000000
0

0101000
+218 0 -160 0 *
Wi

0101100
-217 38 -127 0 +159 0 +130 0 *
Fa
0  0.000000100000000 11 0

0101000
+126 0 *
Ed
 0.000000100000000 1 1 0
1  49 0 0.000000000000000 28.000000000000000
0

0101000
+216 0 -158 0 *
Wi

0101100
-215 15 -124 0 +157 18 +127 0 *
Fa
0  0.000000100000000 17 11

0101000
+123 0 *
Ve
0.000000100000004
-11.500000000000000 0.000000000000003 16.000000000000000
0 0

0101101
*
Ed
 0.000000100000000 1 1 0
1  50 0 0.000000000000000 28.000000000000004
0

0101000
+121 0 -156 0 *
Ve
0.000000100094112
-5.599999999976770 -0.000000000000090 15.999999999957854
0 0

0101101
*
Ed
 0.000000100000002 1 1 0
1  51 0 3.141592653589793 6.283185307179586
2  27 3 43 3.141592653589793 6.283185307179586
2  28 3 45 3.141592653589793 6.283185307179586
0

0101000
+119 43 -214 43 *
Ed
 0.000000100000004 1 1 0
1  12 0 -20.000000000000000 -14.099999999976770
0

0101000
+121 0 -119 26 *
Wi

0101100
-120 6 +155 6 +124 6 +213 6 +118 42 +117 6 *
Fa
0  0.000000100000000 12 6

0101000
+116 0 *
Ve
0.000000100031467
-5.599999999984029 -0.000000000000090 10.999999999994838
0 0

0101101
*
Ed
 0.000000100026306 1 1 0
1  51 0 3.141592653589793 6.283185307179586
2  27 3 43 3.141592653589793 6.283185307179586
2  28 3 45 3.141592653589793 6.283185307179586
0

0101000
+114 45 -212 45 *
Ed
 0.000000100000000 1 1 0
1  52 0 -4.999999999994840 -0.000000000031823
2  29 2 20 -4.999999999994840 -0.000000000031823
2  30 3 0 -4.999999999994840 -0.000000000031823
0

0101000
+114 0 -119 0 *
Wi

0101100
-211 0 +113 46 -112 0 -118 42 *
Fa
0  0.000000100000000 3 0

0101000
+111 0 *
Ve
0.000000100000003
-14.500000000000000 0.000000000000002 11.000000000000000
0 0

0101101
*
Ed
 0.000000100000002 1 1 0
1  14 0 42.599999999984028 51.500000000000000
0

0101000
+114 31 -109 30 *
Ve
0.000000100000000
14.500000000000000 11.000000000000000 0.000000000000000
0 0

0101101
*
Ed
 0.000000100000000 1 1 0
1  53 0 0.000000000000000 25.000000000000000
0

0101000
+109 0 -107 49 *
Ve
0.000000100000000
-37.000000000000000 11.000000000000000 0.000000000000000
0 0

0101101
*
Ed
 0.000000100000000 1 1 0
1  14 0 0.000000000000000 51.500000000000000
0

0101000
+105 0 -107 0 *
Ed
 0.000000100000000 1 1 0
1  54 0 0.000000000000000 25.000000000000000
0

0101000
+210 0 -105 49 *
Wi

0101100
-209 29 +113 46 -108 29 -106 47 +104 50 +103 47 *
Fa
0  0.000000100000000 18 47

0101000
+102 0 *
Ve
0.000000100000000
-37.000000000000000 -1.000000000000000 0.000000000000000
0 0

0101101
*
Ed
 0.000000100000000 1 1 0
1  55 0 0.000000000000000 25.000000000000000
0

0101000
+208 0 -100 49 *
Ed
 0.000000100000000 1 1 0
1  15 0 0.000000000000000 12.000000000000000
0

0101000
+100 0 -105 0 *
Wi

0101100
+99 0 -103 0 -207 51 +98 49 *
Fa
0  0.000000100000000 19 0

0101000
+97 0 *
Ve
0.000000100000000
-9.000000000000000 -1.000000000000000 0.000000000000000
0 0

0101101
*
Ed
 0.000000100000000 1 1 0
1  56 0 0.000000000000000 25.000000000000000
0

0101000
+206 0 -95 49 *
Ed
 0.000000100000000 1 1 0
1  16 0 0.000000000000000 28.000000000000000
0

0101000
+95 0 -100 0 *
Wi

0101100
+94 0 -99 0 -205 51 +93 49 *
Fa
0  0.000000100000000 20 0

0101000
+92 0 *
Ve
0.000000100000000
-9.000000000000000 -11.000000000000000 0.000000000000000
0 0

0101101
*
Ed
 0.000000100000000 1 1 0
1  57 0 0.000000000000000 25.000000000000000
0

0101000
+204 0 -90 49 *
Ed
 0.000000100000000 1 1 0
1  17 0 0.000000000000000 10.000000000000000
0

0101000
+90 0 -95 0 *
Wi

0101100
+89 0 -94 0 -203 51 +88 49 *
Fa
0  0.000000100000000 21 0

0101000
+87 0 *
Ve
0.000000100000000
19.000000000000000 -11.000000000000000 0.000000000000000
0 0

0101101
*
Ed
 0.000000100000000 1 1 0
1  58 0 0.000000000000000 25.000000000000000
0

0101000
+202 0 -85 49 *
Ed
 0.000000100000000 1 1 0
1  18 0 0.000000000000000 28.000000000000000
0

0101000
+85 0 -90 0 *
Wi

0101100
+84 0 -89 0 -201 51 +83 49 *
Fa
0  0.000000100000000 22 0

0101000
+82 0 *
Ve
0.000000100000000
19.000000000000000 -19.000000000000000 0.000000000000000
0 0

0101101
*
Ed
 0.000000100000000 1 1 0
1  59 0 0.000000000000000 25.000000000000000
0

0101000
+200 0 -80 49 *
Ed
 0.000000100000000 1 1 0
1  19 0 0.000000000000000 8.000000000000000
0

0101000
+80 0 -85 0 *
Wi

0101100
+79 0 -84 0 -199 51 +78 49 *
Fa
0  0.000000100000000 23 0

0101000
+77 0 *
Ve
0.000000100000000
38.000000000000000 -19.000000000000000 0.000000000000000
0 0

0101101
*
Ed
 0.000000100000000 1 1 0
1  60 0 0.000000000000000 25.000000000000000
0

0101000
+198 0 -75 49 *
Ed
 0.000000100000000 1 1 0
1  20 0 0.000000000000000 19.000000000000000
0

0101000
+75 0 -80 0 *
Wi

0101100
+74 0 -79 0 -197 51 +73 49 *
Fa
0  0.000000100000000 24 0

0101000
+72 0 *
Ve
0.000000100000000
38.000000000000000 -11.000000000000000 0.000000000000000
0 0

0101101
*
Ed
 0.000000100000000 1 1 0
1  61 0 0.000000000000000 25.000000000000000
0

0101000
+196 0 -70 49 *
Ed
 0.000000100000000 1 1 0
1  21 0 0.000000000000000 8.000000000000000
0

0101000
+70 0 -75 0 *
Wi

0101100
+69 0 -74 0 -195 51 +68 49 *
Fa
0  0.000000100000000 25 0

0101000
+67 0 *
Ve
0.000000100000000
53.000000000000000 -11.000000000000000 0.000000000000000
0 0

0101101
*
Ed
 0.000000100000000 1 1 0
1  62 0 0.000000000000000 25.000000000000000
0

0101000
+194 0 -65 49 *
Ed
 0.000000100000000 1 1 0
1  22 0 0.000000000000000 15.000000000000000
0

0101000
+65 0 -70 0 *
Wi

0101100
+64 0 -69 0 -193 51 +63 49 *
Fa
0  0.000000100000000 26 0

0101000
+62 0 *
Ve
0.000000100000000
53.000000000000000 0.000000000000000 0.000000000000000
0 0

0101101
*
Ed
 0.000000100000000 1 1 0
1  63 0 0.000000000000000 25.000000000000000
0

0101000
+192 0 -60 49 *
Ed
 0.000000100000000 1 1 0
1  23 0 0.000000000000000 11.000000000000000
0

0101000
+60 0 -65 0 *
Wi

0101100
+59 0 -64 0 -191 51 +58 49 *
Fa
0  0.000000100000000 27 0

0101000
+57 0 *
Ve
0.000000100000000
38.000000000000000 0.000000000000000 0.000000000000000
0 0

0101101
*
Ed
 0.000000100000000 1 1 0
1  64 0 0.000000000000000 25.000000000000000
0

0101000
+190 0 -55 49 *
Ed
 0.000000100000000 1 1 0
1  24 0 0.000000000000000 15.000000000000000
0

0101000
+55 0 -60 0 *
Wi

0101100
+54 0 -59 0 -189 51 +53 49 *
Fa
0  0.000000100000000 28 0

0101000
+52 0 *
Ve
0.000000100000057
-38.000000000000057 -10.419213022104781 11.500000000000000
0 0

0101101
*
Ed
 0.000000100000002 1 1 0
1  65 0 0.000000000000000 10.419213022104783
0

0101000
+188 53 -50 53 *
Ve
0.000000100000000
38.000000000000000 11.500000000000000 0.000000000000000
0 0

0101101
*
Ed
 0.000000100000000 1 1 0
1  65 0 10.419213022104783 25.000000000000000
0

0101000
+50 53 -48 49 *
Ed
 0.000000100000000 1 1 0
1  25 0 0.000000000000000 11.500000000000000
0

0101000
+48 0 -55 0 *
Wi

0101100
+49 52 +47 52 -54 52 -187 54 +46 55 *
Fa
0  0.000000100000000 29 52

0101000
+45 0 *
Ed
 0.000000100000000 1 1 0
1  66 0 3.141592653589793 3.973105156442556
2  31 5 59 3.141592653589793 3.973105156442556
2  32 5 60 3.141592653589793 3.973105156442556
0

0101000
+186 60 -50 60 *
Wi

0101100
+43 58 -185 0 -49 52 *
Fa
0  0.000000100000000 4 36

0101000
+42 0 *
Ve
0.000000100000005
-14.400000000000000 0.000000000000004 19.500000000000000
0 0

0101101
*
Ve
0.000057020448978
-14.400000000000000 0.000000000000004 11.500000000000000
0 0

0101101
*
Ed
 0.000000100000005 1 1 0
1  67 0 0.000000000000000 8.000000000000000
3  33 34CN 5 0 0.000000000000000 8.000000000000000
0

0101000
+40 0 -39 0 *
Ve
0.000000100000020
-14.499999999999982 -1.676305461423709 11.500000000000000
0 0

0101101
*
Ed
 0.000000100000000 1 1 0
1  66 0 6.164016538737324 6.283185307179586
2  31 5 59 6.164016538737324 6.283185307179586
2  32 5 60 6.164016538737324 6.283185307179586
0

0101000
+37 60 -39 60 *
Ed
 0.000000100000004 1 1 0
1  66 0 3.973105156442556 6.164016538737324
2  31 5 59 3.973105156442556 6.164016538737324
2  32 5 60 3.973105156442556 6.164016538737324
0

0101000
+50 60 -37 60 *
Ed
 0.000000100000004 1 1 0
1  66 0 3.141592653589793 6.283185307179586
2  31 5 59 3.141592653589793 6.283185307179586
2  32 5 60 3.141592653589793 6.283185307179586
0

0101000
+184 59 -40 59 *
Wi

0101100
-38 0 +36 58 +35 58 +43 58 -183 0 -34 61 *
Fa
0  0.000000100000000 5 0

0101000
+33 0 *
Ve
0.000000100000004
-11.500000000000000 0.000000000000003 19.500000000000000
0 0

0101101
*
Ed
 0.000000100000000 1 1 0
1  28 0 50.500000000000000 53.399999999999999
0

0101000
+31 16 -40 37 *
Ed
 0.000000100000000 1 1 0
1  68 0 0.000000000000000 28.000000000000000
0

0101000
+182 0 -152 0 *
Ed
 0.000000100000000 1 1 0
1  69 0 0.000000000000000 28.000000000000000
0

0101000
+31 0 -154 0 *
Wi

0101100
-30 63 +34 61 -181 63 -29 64 +151 65 +28 64 *
Fa
0  0.000000100000000 30 62

0101000
+27 0 *
Wi

0101100
-179 38 -145 0 +149 0 +29 0 *
Fa
0  0.000000100000000 14 0

0101000
+25 0 *
Ed
 0.000000100000004 1 1 0
1  70 0 0.000000000000000 3.500000000000000
0

0101000
+31 25 -121 25 *
Wi

0101100
-23 38 -120 0 +153 0 +28 0 *
Fa
0  0.000000100000000 13 0

0101000
+22 0 *
Ve
0.000057020448975
-14.500000000000000 0.000000000000002 11.500000000000000
0 0

0101101
*
Ed
 0.000057020448972 1 1 0
1  26 0 4.000000000000004 4.100000000000003
2  3 2 34 4.000000000000004 4.100000000000003
2  4 4 36 4.000000000000004 4.100000000000003
0

0101000
+20 0 -39 0 *
Ed
 0.000000100000003 1 1 0
1  71 0 0.000000000000000 0.500000000000000
0

0101000
+109 30 -20 32 *
Wi

0101100
+117 6 +23 24 -30 21 -38 33 +19 33 +18 29 +108 29 -112 0 *
Fa
0  0.000000100000000 2 20

0101000
+17 0 *
Ed
 0.000000100000000 1 1 0
1  72 0 0.000000000000000 1.676305461423711
0

0101000
+20 53 -37 53 *
Ve
0.000000100000000
14.500000000000000 11.500000000000000 0.000000000000000
0 0

0101101
*
Ed
 0.000000100000000 1 1 0
1  72 0 1.676305461423711 25.000000000000000
0

0101000
+37 53 -14 49 *
Ed
 0.000000100000000 1 1 0
1  71 0 0.000000000000000 0.500000000000000
0

0101000
+107 0 -14 0 *
Wi

0101100
+106 52 -15 52 -13 52 -18 54 +12 55 *
Fa
0  0.000000100000000 31 52

0101000
+11 0 *
Ed
 0.000000100000000 1 1 0
1  73 0 0.000000000000000 23.500000000000000
0

0101000
+14 0 -48 0 *
Wi

0101100
+98 0 +104 0 +12 0 +9 0 +46 0 +53 0 +58 0 +63 0 +68 0 +73 0 
+78 0 +83 0 +88 0 +93 0 *
Fa
0  0.000000100000000 32 0

0101000
-8 67 *
Wi

0101100
+35 58 -47 52 +9 55 +13 52 *
Fa
0  0.000000100000000 33 52

0101000
+6 0 *
Wi

0101100
+15 52 -19 0 +36 58 *
Fa
0  0.000000100000000 4 36

0101000
+4 0 *
Sh

0101100
-231 6 +176 0 +171 6 -146 6 -143 6 +140 6 -137 6 -134 6 -131 6 -128 6 
-125 6 -122 6 -115 0 -110 0 +101 0 +96 47 +91 47 +86 47 +81 47 +76 47 
+71 47 +66 47 +61 47 +56 47 +51 47 +44 33 +41 33 -32 33 -26 33 -24 6 
+21 6 +16 0 +10 33 +7 66 +5 33 +3 33 *
So

0100000
+2 0 *

+1 1 