
CASCADE Topology V1, (c) Matra-Datavision
Locations 30
1
1.000000000000000 0.000000000000000 0.000000000000000 0.000000000000000 
0.000000000000000 1.000000000000000 0.000000000000000 0.000000000000000 
0.000000000000000 0.000000000000000 1.000000000000000 0.000000000000000 
1
1.000000000000000 0.000000000000000 0.000000000000000 0.000000000000000 
0.000000000000000 1.000000000000000 0.000000000000000 0.000000000000000 
0.000000000000000 0.000000000000000 1.000000000000000 0.000000000000000 
1
1.000000000000000 0.000000000000000 0.000000000000000 0.000000000000000 
0.000000000000000 1.000000000000000 0.000000000000000 0.000000000000000 
0.000000000000000 0.000000000000000 1.000000000000000 0.000000000000000 
1
1.000000000000000 0.000000000000000 0.000000000000000 0.000000000000000 
0.000000000000000 1.000000000000000 0.000000000000000 0.000000000000000 
0.000000000000000 0.000000000000000 1.000000000000000 0.000000000000000 
1
1.000000000000000 0.000000000000000 0.000000000000000 0.000000000000000 
0.000000000000000 1.000000000000000 0.000000000000000 0.000000000000000 
0.000000000000000 0.000000000000000 1.000000000000000 0.000000000000000 
2  2 1 3 -1 4 1 5 -1 0
1
1.000000000000000 0.000000000000000 0.000000000000000 0.000000000000000 
0.000000000000000 1.000000000000000 0.000000000000000 0.000000000000000 
0.000000000000000 0.000000000000000 1.000000000000000 0.000000000000000 
1
1.000000000000000 0.000000000000000 0.000000000000000 0.000000000000000 
0.000000000000000 0.000000000000000 -1.000000000000000 0.000000000000000 
0.000000000000000 1.000000000000000 0.000000000000000 0.000000000000000 
1
1.000000000000000 0.000000000000000 0.000000000000000 0.000000000000000 
0.000000000000000 1.000000000000000 0.000000000000000 0.000000000000000 
0.000000000000000 0.000000000000000 1.000000000000000 0.000000000000000 
2  7 1 8 1 9 -1 2 1 3 -1 4 1 5 -1 0
2  5 1 4 -1 3 1 2 -1 9 1 8 -1 7 -1 0
1
1.000000000000000 0.000000000000000 0.000000000000000 0.000000000000000 
0.000000000000000 1.000000000000000 0.000000000000000 -28.000000000000000 
0.000000000000000 0.000000000000000 1.000000000000000 0.000000000000006 
2  7 1 8 1 9 -1 12 1 2 1 3 -1 4 1 5 -1 0
2  5 1 4 -1 3 1 2 -1 12 -1 9 1 8 -1 7 -1 0
2  9 -1 2 1 3 -1 4 1 5 -1 0
1
1.000000000000000 0.000000000000000 0.000000000000000 0.000000000000000 
0.000000000000000 1.000000000000000 0.000000000000000 0.000000000000000 
0.000000000000000 0.000000000000000 1.000000000000000 0.000000000000000 
1
-1.000000000000000 0.000000000000000 0.000000000000000 0.000000000000000 
0.000000000000000 0.000000000000000 1.000000000000000 -0.000000000000001 
0.000000000000000 1.000000000000000 -0.000000000000000 0.000000000000000 
2  16 1 17 1 5 -1 0
2  5 1 17 -1 16 -1 0
1
1.000000000000000 0.000000000000000 0.000000000000000 0.000000000000000 
0.000000000000000 1.000000000000000 0.000000000000000 0.000000000000000 
0.000000000000000 0.000000000000000 1.000000000000000 0.000000000000000 
1
-1.000000000000000 0.000000000000000 0.000000000000000 0.000000000000000 
0.000000000000000 0.000000000000000 1.000000000000000 -0.000000000000001 
0.000000000000000 1.000000000000000 -0.000000000000000 0.000000000000000 
2  20 1 21 1 3 -1 4 1 5 -1 0
2  3 1 21 -1 20 -1 0
2  9 -1 12 1 2 1 3 -1 4 1 5 -1 0
2  4 1 5 -1 0
1
1.000000000000000 0.000000000000000 0.000000000000000 0.000000000000000 
0.000000000000000 1.000000000000000 0.000000000000000 -25.000000000000000 
0.000000000000000 0.000000000000000 1.000000000000000 0.000000000000006 
2  20 1 21 1 3 -1 26 1 0
2  20 1 21 1 3 -1 0
2  3 -1 26 1 4 1 5 -1 0
2  20 1 21 1 0
Curve2ds 20
8 18.75000000000000000 28.75000000000000000
1 -10.25000000000000000 -18.75000000000000000 0.00000000000000000 -1.00000000000000000 
8 18.75000000000000000 28.75000000000000000
1 -18.75000000000000000 -27.99999999999999645 1.00000000000000000 0.00000000000000000 
8 -11.62499999999999645 1.37500000000000178
1 -11.62500000000000355 -37.50000000000000000 1.00000000000000000 0.00000000000000000 
8 -11.62499999999999645 1.37500000000000178
1 11.62499999999999822 -27.99999999999999645 1.00000000000000000 -0.00000000000000022 
8 -11.62499999999999645 -0.62499999999999822
1 -11.62500000000000355 -2.50000000000000000 1.00000000000000000 0.00000000000000000 
8 -11.62499999999999645 -0.62499999999999822
1 11.62499999999999822 -27.99999999999999645 1.00000000000000000 -0.00000000000000022 
8 -1.25000000000000000 21.75000000000000000
1 -12.25000000000000000 -1.25000000000000000 0.00000000000000000 1.00000000000000000 
8 -1.25000000000000000 21.75000000000000000
1 1.25000000000000000 -27.99999999999999645 1.00000000000000000 0.00000000000000000 
8 -6.12499999999999734 3.87500000000000266
1 -6.12500000000000266 20.50000000000000000 1.00000000000000000 0.00000000000000000 
8 -6.12499999999999734 3.87500000000000266
1 6.12499999999999734 -27.99999999999999645 1.00000000000000000 -0.00000000000000022 
8 10.25000000000000000 37.25000000000000000
1 -2.25000000000000000 10.25000000000000000 0.00000000000000000 1.00000000000000000 
8 10.25000000000000000 37.25000000000000000
1 -10.25000000000000000 -27.99999999999999645 1.00000000000000000 0.00000000000000000 
8 -36.37499999998566125 14.12500000001433520
1 19.74999999997773870 11.12500000001433520 0.00000000000145178 -1.00000000000000000 
8 -36.37499999998566125 14.12500000001433520
1 11.12499999998566125 82.50733968836640031 1.00000000000000000 0.00000000000000000 
8 -11.62500000000000355 -8.12500000000000355
1 11.62499999999999645 -3.00000000000000000 -1.00000000000000000 0.00000000000000000 
8 -11.62500000000000355 -8.12500000000000355
1 11.62500000000000355 -28.00000000000000000 1.00000000000000000 0.00000000000000022 
8 -11.62500000000000355 4.87499999999999645
1 11.62499999999999645 -37.50000000000000000 -1.00000000000000000 0.00000000000000000 
8 -11.62500000000000355 4.87499999999999645
1 11.62500000000000355 -28.00000000000000000 1.00000000000000000 0.00000000000000022 
8 18.75000000000000000 28.75000000000000000
1 6.75000000000000000 -18.75000000000000000 0.00000000000000000 -1.00000000000000000 
8 18.75000000000000000 28.75000000000000000
1 -18.75000000000000000 -28.00000000000000000 1.00000000000000000 0.00000000000000000 
Curves 66
1 -56.00000000000000000 19.50000000000000000 0.00000000000000000 0.00000000000000000 -1.00000000000000000 0.00000000000000000 
1 -56.00000000000000000 -0.00000000000000394 -14.00000000000000000 0.00000000000000000 -1.00000000000000000 0.00000000000000022 
1 -56.00000000000000000 -0.00000000000000017 3.00000000000000000 0.00000000000000000 -1.00000000000000000 0.00000000000000022 
1 46.00000000000000000 -14.00000000000000000 0.00000000000000000 1.00000000000000000 0.00000000000000000 0.00000000000000000 
1 46.00000000000000000 -27.00000000000000000 0.00000000000000000 0.00000000000000000 1.00000000000000000 0.00000000000000000 
1 -56.00000000000000000 -27.00000000000000000 0.00000000000000000 1.00000000000000000 0.00000000000000000 0.00000000000000000 
1 11.00000000000000000 -27.00000000000000000 0.00000000000000000 0.00000000000000000 1.00000000000000000 0.00000000000000000 
1 11.00000000000000000 -16.00000000000000000 0.00000000000000000 -1.00000000000000000 0.00000000000000000 0.00000000000000000 
1 -12.00000000000000000 -16.00000000000000000 0.00000000000000000 0.00000000000000000 1.00000000000000000 0.00000000000000000 
1 -12.00000000000000000 -6.00000000000000000 0.00000000000000000 -1.00000000000000000 0.00000000000000000 0.00000000000000000 
1 39.00000000000000000 -27.00000000000000000 0.00000000000000000 0.00000000000000000 1.00000000000000000 0.00000000000000000 
1 8.50000000000000000 0.00000000000000272 15.99999999992603250 1.00000000000000000 0.00000000000000000 0.00000000000000000 
1 11.50000000000000000 19.50000000000000000 0.00000000000000000 0.00000000000000000 -1.00000000000000000 0.00000000000000000 
1 39.00000000000000000 19.50000000000000000 0.00000000000000000 -1.00000000000000000 0.00000000000000000 0.00000000000000000 
1 46.00000000000000000 19.50000000000000000 0.00000000000000000 0.00000000000000000 -1.00000000000000000 0.00000000000000000 
1 46.00000000000000000 3.00000000000000000 0.00000000000000000 1.00000000000000000 0.00000000000000000 0.00000000000000000 
1 -9.00000000000000000 -1.00000000000000000 0.00000000000000000 -1.00000000000000000 0.00000000000000000 0.00000000000000000 
1 -9.00000000000000000 -11.00000000000000000 0.00000000000000000 0.00000000000000000 1.00000000000000000 0.00000000000000000 
1 -37.00000000000000000 -1.00000000000000000 0.00000000000000000 0.00000000000000000 1.00000000000000000 0.00000000000000000 
1 19.00000000000000000 -11.00000000000000000 0.00000000000000000 -1.00000000000000000 0.00000000000000000 0.00000000000000000 
1 -37.00000000000000000 11.00000000000000000 0.00000000000000000 1.00000000000000000 0.00000000000000000 0.00000000000000000 
1 19.00000000000000000 -19.00000000000000000 0.00000000000000000 0.00000000000000000 1.00000000000000000 0.00000000000000000 
1 14.50000000000000000 11.00000000000000000 0.00000000000000000 0.00000000000000000 1.00000000000000000 0.00000000000000000 
1 38.00000000000000000 -19.00000000000000000 0.00000000000000000 -1.00000000000000000 0.00000000000000000 0.00000000000000000 
1 14.50000000000000000 11.50000000000000000 0.00000000000000000 1.00000000000000000 0.00000000000000000 0.00000000000000000 
1 38.00000000000000000 -11.00000000000000000 0.00000000000000000 0.00000000000000000 -1.00000000000000000 0.00000000000000000 
1 38.00000000000000000 11.50000000000000000 0.00000000000000000 0.00000000000000000 -1.00000000000000000 0.00000000000000000 
1 53.00000000000000000 -11.00000000000000000 0.00000000000000000 -1.00000000000000000 0.00000000000000000 0.00000000000000000 
1 38.00000000000000000 0.00000000000000000 0.00000000000000000 1.00000000000000000 0.00000000000000000 0.00000000000000000 
1 53.00000000000000000 0.00000000000000000 0.00000000000000000 0.00000000000000000 -1.00000000000000000 0.00000000000000000 
1 -27.25000000000000000 -28.00000000000000000 -13.99999999999999289 -1.00000000000000000 0.00000000000000000 0.00000000000000000 
1 -46.00000000000000000 -0.00000000000000394 -14.00000000000000000 0.00000000000000000 -1.00000000000000000 0.00000000000000022 
1 -46.00000000000000000 -28.00000000000000000 -15.37499999999999645 0.00000000000000000 -0.00000000000000000 1.00000000000000000 
1 -11.00000000000000000 -28.00000000000000000 -15.37499999999999645 0.00000000000000000 -0.00000000000000000 1.00000000000000000 
1 -9.75000000000000000 -28.00000000000000000 -15.99999999999999289 1.00000000000000000 -0.00000000000000000 0.00000000000000000 
1 12.00000000000000000 -28.00000000000000000 -9.87499999999999645 0.00000000000000000 -0.00000000000000000 1.00000000000000000 
1 1.75000000000000000 -28.00000000000000000 -5.99999999999999378 1.00000000000000000 -0.00000000000000000 0.00000000000000000 
1 2.62500000001433431 -28.00000000000000000 15.99999999997774403 -1.00000000000000000 0.00000000000000000 0.00000000000145178 
1 -11.50000000000000000 -28.00000000000000000 7.87500000000000355 0.00000000000000000 0.00000000000000000 -1.00000000000000000 
1 -46.00000000000000000 -28.00000000000000000 7.87500000000000355 0.00000000000000000 0.00000000000000000 -1.00000000000000000 
1 -27.25000000000000000 -28.00000000000000000 3.00000000000000622 -1.00000000000000000 0.00000000000000000 0.00000000000000000 
1 -46.00000000000000000 -0.00000000000000017 3.00000000000000000 0.00000000000000000 -1.00000000000000000 0.00000000000000022 
1 -46.00000000000000000 -0.00000000000000683 -27.00000000000000000 0.00000000000000000 -1.00000000000000000 0.00000000000000022 
1 -11.00000000000000000 -0.00000000000000683 -27.00000000000000000 0.00000000000000000 -1.00000000000000000 0.00000000000000022 
1 -11.00000000000000000 -0.00000000000000439 -16.00000000000000000 0.00000000000000000 -1.00000000000000000 0.00000000000000022 
1 12.00000000000000000 -0.00000000000000439 -16.00000000000000000 0.00000000000000000 -1.00000000000000000 0.00000000000000022 
1 12.00000000000000000 -0.00000000000000216 -6.00000000000000000 0.00000000000000000 -1.00000000000000000 0.00000000000000022 
1 39.00000000000000000 -0.00000000000000216 -6.00000000000000000 0.00000000000000000 -1.00000000000000000 0.00000000000000022 
1 39.00000000000000000 0.00000000000000272 15.99999999992603250 0.00000000000000000 -1.00000000000000000 0.00000000000000022 
1 -11.50000000000000000 0.00000000000000272 16.00000000000000000 0.00000000000000000 -1.00000000000000000 0.00000000000000022 
1 -11.50000000000000000 0.00000000000000350 19.50000000000000000 0.00000000000000000 -1.00000000000000000 0.00000000000000022 
1 -46.00000000000000000 0.00000000000000350 19.50000000000000000 0.00000000000000000 -1.00000000000000000 0.00000000000000022 
1 9.00000000000000000 -0.00000000000000105 -1.00000000000000000 0.00000000000000000 -1.00000000000000000 0.00000000000000022 
1 37.00000000000000000 -0.00000000000000105 -1.00000000000000000 0.00000000000000000 -1.00000000000000000 0.00000000000000022 
1 9.00000000000000000 -0.00000000000000328 -11.00000000000000000 0.00000000000000000 -1.00000000000000000 0.00000000000000022 
1 37.00000000000000000 0.00000000000000161 11.00000000000000000 0.00000000000000000 -1.00000000000000000 0.00000000000000022 
1 -19.00000000000000000 -0.00000000000000328 -11.00000000000000000 0.00000000000000000 -1.00000000000000000 0.00000000000000022 
1 -14.50000000000000000 0.00000000000000161 11.00000000000000000 0.00000000000000000 -1.00000000000000000 0.00000000000000022 
1 -19.00000000000000000 -0.00000000000000505 -19.00000000000000000 0.00000000000000000 -1.00000000000000000 0.00000000000000022 
1 -14.50000000000000000 0.00000000000000172 11.50000000000000000 0.00000000000000000 -1.00000000000000000 0.00000000000000022 
1 -38.00000000000000000 -0.00000000000000505 -19.00000000000000000 0.00000000000000000 -1.00000000000000000 0.00000000000000022 
1 -38.00000000000000000 0.00000000000000172 11.50000000000000000 0.00000000000000000 -1.00000000000000000 0.00000000000000022 
1 -38.00000000000000000 -0.00000000000000328 -11.00000000000000000 0.00000000000000000 -1.00000000000000000 0.00000000000000022 
1 -38.00000000000000000 -0.00000000000000083 0.00000000000000000 0.00000000000000000 -1.00000000000000000 0.00000000000000022 
1 -53.00000000000000000 -0.00000000000000328 -11.00000000000000000 0.00000000000000000 -1.00000000000000000 0.00000000000000022 
1 -53.00000000000000000 -0.00000000000000083 0.00000000000000000 0.00000000000000000 -1.00000000000000000 0.00000000000000022 
Polygon3D 0
PolygonOnTriangulations 0
Surfaces 30
1 -56.00000000000000000 0.00000000000000433 19.50000000000000000 1.00000000000000000 0.00000000000000000 0.00000000000000000 0.00000000000000000 -0.00000000000000022 -1.00000000000000000 0.00000000000000000 1.00000000000000000 -0.00000000000000022 
1 -8.50000000000000000 -0.00000000000000083 -3.75000000000000000 0.00000000000000000 1.00000000000000000 0.00000000000000000 0.00000000000000000 -0.00000000000000000 1.00000000000000000 1.00000000000000000 0.00000000000000000 -0.00000000000000000 
1 -46.00000000000000000 -0.00000000000000394 -14.00000000000000000 -0.00000000000000000 -0.00000000000000022 -1.00000000000000000 -1.00000000000000000 0.00000000000000000 0.00000000000000000 0.00000000000000000 1.00000000000000000 -0.00000000000000022 
1 -46.00000000000000000 -0.00000000000000683 -27.00000000000000000 -1.00000000000000000 0.00000000000000000 0.00000000000000000 0.00000000000000000 0.00000000000000022 1.00000000000000000 0.00000000000000000 1.00000000000000000 -0.00000000000000022 
1 -11.00000000000000000 -0.00000000000000683 -27.00000000000000000 -1.00000000000000000 0.00000000000000000 0.00000000000000000 0.00000000000000000 0.00000000000000022 1.00000000000000000 0.00000000000000000 1.00000000000000000 -0.00000000000000022 
1 -11.00000000000000000 -0.00000000000000439 -16.00000000000000000 -0.00000000000000000 0.00000000000000022 1.00000000000000000 1.00000000000000000 0.00000000000000000 0.00000000000000000 0.00000000000000000 1.00000000000000000 -0.00000000000000022 
1 12.00000000000000000 -0.00000000000000439 -16.00000000000000000 -1.00000000000000000 0.00000000000000000 0.00000000000000000 0.00000000000000000 0.00000000000000022 1.00000000000000000 0.00000000000000000 1.00000000000000000 -0.00000000000000022 
1 12.00000000000000000 -0.00000000000000216 -6.00000000000000000 -0.00000000000000000 0.00000000000000022 1.00000000000000000 1.00000000000000000 0.00000000000000000 0.00000000000000000 0.00000000000000000 1.00000000000000000 -0.00000000000000022 
1 13.74999999999999645 -110.50733968836640031 15.99999999996160938 -0.00000000000145178 -0.00000000000000023 -1.00000000000000000 -1.00000000000000000 0.00000000000000000 0.00000000000145178 -0.00000000000000000 1.00000000000000000 -0.00000000000000023 
1 -11.50000000000000000 0.00000000000000350 19.50000000000000000 1.00000000000000000 0.00000000000000000 0.00000000000000000 0.00000000000000000 -0.00000000000000022 -1.00000000000000000 0.00000000000000000 1.00000000000000000 -0.00000000000000022 
1 -46.00000000000000000 0.00000000000000350 19.50000000000000000 1.00000000000000000 0.00000000000000000 0.00000000000000000 0.00000000000000000 -0.00000000000000022 -1.00000000000000000 0.00000000000000000 1.00000000000000000 -0.00000000000000022 
1 -46.00000000000000000 -0.00000000000000017 3.00000000000000000 -0.00000000000000000 -0.00000000000000022 -1.00000000000000000 -1.00000000000000000 0.00000000000000000 0.00000000000000000 0.00000000000000000 1.00000000000000000 -0.00000000000000022 
1 -56.00000000000000000 -0.00000000000000600 -27.00000000000000000 -0.00000000000000000 0.00000000000000022 1.00000000000000000 1.00000000000000000 0.00000000000000000 0.00000000000000000 0.00000000000000000 1.00000000000000000 -0.00000000000000022 
1 39.00000000000000000 -0.00000000000000600 -27.00000000000000000 -1.00000000000000000 0.00000000000000000 0.00000000000000000 0.00000000000000000 0.00000000000000022 1.00000000000000000 0.00000000000000000 1.00000000000000000 -0.00000000000000022 
1 39.00000000000000000 0.00000000000000433 19.50000000000000000 -0.00000000000000000 -0.00000000000000022 -1.00000000000000000 -1.00000000000000000 0.00000000000000000 0.00000000000000000 0.00000000000000000 1.00000000000000000 -0.00000000000000022 
1 9.00000000000000000 -0.00000000000000105 -1.00000000000000000 -0.00000000000000000 0.00000000000000022 1.00000000000000000 1.00000000000000000 0.00000000000000000 0.00000000000000000 0.00000000000000000 1.00000000000000000 -0.00000000000000022 
1 9.00000000000000000 -0.00000000000000328 -11.00000000000000000 -1.00000000000000000 0.00000000000000000 0.00000000000000000 0.00000000000000000 0.00000000000000022 1.00000000000000000 0.00000000000000000 1.00000000000000000 -0.00000000000000022 
1 37.00000000000000000 -0.00000000000000105 -1.00000000000000000 -1.00000000000000000 0.00000000000000000 0.00000000000000000 0.00000000000000000 0.00000000000000022 1.00000000000000000 0.00000000000000000 1.00000000000000000 -0.00000000000000022 
1 -19.00000000000000000 -0.00000000000000328 -11.00000000000000000 -0.00000000000000000 0.00000000000000022 1.00000000000000000 1.00000000000000000 0.00000000000000000 0.00000000000000000 0.00000000000000000 1.00000000000000000 -0.00000000000000022 
1 37.00000000000000000 0.00000000000000161 11.00000000000000000 -0.00000000000000000 -0.00000000000000022 -1.00000000000000000 -1.00000000000000000 0.00000000000000000 0.00000000000000000 0.00000000000000000 1.00000000000000000 -0.00000000000000022 
1 -19.00000000000000000 -0.00000000000000505 -19.00000000000000000 -1.00000000000000000 0.00000000000000000 0.00000000000000000 0.00000000000000000 0.00000000000000022 1.00000000000000000 0.00000000000000000 1.00000000000000000 -0.00000000000000022 
1 -14.50000000000000000 0.00000000000000161 11.00000000000000000 -1.00000000000000000 0.00000000000000000 0.00000000000000000 0.00000000000000000 0.00000000000000022 1.00000000000000000 0.00000000000000000 1.00000000000000000 -0.00000000000000022 
1 -38.00000000000000000 -0.00000000000000505 -19.00000000000000000 -0.00000000000000000 0.00000000000000022 1.00000000000000000 1.00000000000000000 0.00000000000000000 0.00000000000000000 0.00000000000000000 1.00000000000000000 -0.00000000000000022 
1 -14.50000000000000000 0.00000000000000172 11.50000000000000000 -0.00000000000000000 -0.00000000000000022 -1.00000000000000000 -1.00000000000000000 0.00000000000000000 0.00000000000000000 0.00000000000000000 1.00000000000000000 -0.00000000000000022 
1 -38.00000000000000000 -0.00000000000000328 -11.00000000000000000 1.00000000000000000 0.00000000000000000 0.00000000000000000 0.00000000000000000 -0.00000000000000022 -1.00000000000000000 0.00000000000000000 1.00000000000000000 -0.00000000000000022 
1 -38.00000000000000000 0.00000000000000172 11.50000000000000000 1.00000000000000000 0.00000000000000000 0.00000000000000000 0.00000000000000000 -0.00000000000000022 -1.00000000000000000 0.00000000000000000 1.00000000000000000 -0.00000000000000022 
1 -53.00000000000000000 -0.00000000000000328 -11.00000000000000000 -0.00000000000000000 0.00000000000000022 1.00000000000000000 1.00000000000000000 0.00000000000000000 0.00000000000000000 0.00000000000000000 1.00000000000000000 -0.00000000000000022 
1 -38.00000000000000000 -0.00000000000000083 0.00000000000000000 -0.00000000000000000 -0.00000000000000022 -1.00000000000000000 -1.00000000000000000 0.00000000000000000 0.00000000000000000 0.00000000000000000 1.00000000000000000 -0.00000000000000022 
1 -53.00000000000000000 -0.00000000000000083 0.00000000000000000 1.00000000000000000 0.00000000000000000 0.00000000000000000 0.00000000000000000 -0.00000000000000022 -1.00000000000000000 0.00000000000000000 1.00000000000000000 -0.00000000000000022 
1 -9.91390041493775875 -0.00000000000000107 -1.05394190871369298 0.00000000000000000 1.00000000000000000 0.00000000000000000 0.00000000000000000 -0.00000000000000000 1.00000000000000000 1.00000000000000000 0.00000000000000000 -0.00000000000000000 
Triangulations 0

TShapes 205
Ve
0.000000100000001
-56.000000000000000 -0.000000000000000 3.000000000000000
0 0

0101101
*
Ve
0.000000100000003
-56.000000000000000 -0.000000000000004 -14.000000000000000
0 0

0101101
*
Ed
 0.000000100000000 1 1 0
1  1 0 16.500000000000000 33.500000000000000
0

0101000
+205 11 -204 11 *
Ve
0.000122609936993
-56.000000000000000 -28.000000000000004 -13.999999999999993
0 0

0101101
*
Ed
 0.000000100000000 1 1 0
1  2 0 0.000000000000000 28.000000000000000
0

0101000
+204 0 -202 0 *
Ve
0.000122609936990
-56.000000000000000 -28.000000000000000 3.000000000000007
0 0

0101101
*
Ed
 0.000000100000000 1 1 0
1  1 0 16.500000000000000 33.500000000000000
0

0101000
+200 14 -202 14 *
Ed
 0.000000100000000 1 1 0
1  3 0 0.000000000000000 28.000000000000000
0

0101000
+205 0 -200 0 *
Wi

0101100
-203 10 -201 0 +199 13 +198 0 *
Fa
0  0.000000100000000 1 6

0101000
+197 0 *
Ve
0.000000100000006
-46.000000000000000 -0.000000000000004 -14.000000000000000
0 0

0101101
*
Ed
 0.000000100000003 1 1 0
1  4 0 0.000000000000000 10.000000000000000
0

0101000
+195 19 -204 19 *
Ve
0.000000100000006
-46.000000000000000 -0.000000000000007 -27.000000000000000
0 0

0101101
*
Ed
 0.000000100000006 1 1 0
1  5 0 0.000000000000000 13.000000000000000
0

0101000
+193 19 -195 19 *
Ve
0.000000100000006
-11.000000000000000 -0.000000000000007 -27.000000000000000
0 0

0101101
*
Ed
 0.000000100000000 1 1 0
1  6 0 10.000000000000000 45.000000000000000
0

0101000
+193 11 -191 11 *
Ve
0.000000100000006
-11.000000000000000 -0.000000000000004 -16.000000000000000
0 0

0101101
*
Ed
 0.000000100000006 1 1 0
1  7 0 0.000000000000000 11.000000000000000
0

0101000
+191 19 -189 19 *
Ve
0.000000100000004
12.000000000000000 -0.000000000000004 -16.000000000000000
0 0

0101101
*
Ed
 0.000000100000004 1 1 0
1  8 0 0.000000000000000 23.000000000000000
0

0101000
+189 19 -187 19 *
Ve
0.000000100000003
12.000000000000000 -0.000000000000002 -6.000000000000000
0 0

0101101
*
Ed
 0.000000100000003 1 1 0
1  9 0 0.000000000000000 10.000000000000000
0

0101000
+187 19 -185 19 *
Ve
0.000000100000001
39.000000000000000 -0.000000000000002 -6.000000000000000
0 0

0101101
*
Ed
 0.000000100000001 1 1 0
1  10 0 0.000000000000000 27.000000000000000
0

0101000
+185 19 -183 19 *
Ve
0.000000100000004
39.000000000000000 0.000000000000003 15.999999999926033
0 0

0101101
*
Ed
 0.000000100000000 1 1 0
1  11 0 21.000000000000000 42.999999999926033
0

0101000
+183 11 -181 11 *
Ve
0.000000100000004
-11.500000000000000 0.000000000000003 16.000000000000000
0 0

0101101
*
Ed
 0.000000100000004 1 1 0
1  12 0 -20.000000000000000 30.500000000000000
0

0101000
+179 0 -181 0 *
Ve
0.000000100000004
-11.500000000000000 0.000000000000003 19.500000000000000
0 0

0101101
*
Ed
 0.000000100000004 1 1 0
1  13 0 0.000000000000000 3.500000000000000
0

0101000
+177 19 -179 19 *
Ve
0.000000100000004
-46.000000000000000 0.000000000000003 19.500000000000000
0 0

0101101
*
Ed
 0.000000100000000 1 1 0
1  14 0 50.500000000000000 85.000000000000000
0

0101000
+177 11 -175 11 *
Ve
0.000000100000004
-46.000000000000000 -0.000000000000000 3.000000000000000
0 0

0101101
*
Ed
 0.000000100000004 1 1 0
1  15 0 0.000000000000000 16.500000000000000
0

0101000
+175 19 -173 19 *
Ed
 0.000000100000001 1 1 0
1  16 0 0.000000000000000 10.000000000000000
0

0101000
+173 19 -205 19 *
Wi

0101100
-203 10 +194 18 +192 18 -190 10 -188 18 -186 18 -184 18 -182 18 -180 10 +178 0 
+176 18 -174 10 -172 18 -171 18 *
Ve
0.000000100000002
9.000000000000000 -0.000000000000001 -1.000000000000000
0 0

0101101
*
Ve
0.000000100000002
37.000000000000000 -0.000000000000001 -1.000000000000000
0 0

0101101
*
Ed
 0.000000100000000 1 1 0
1  17 0 0.000000000000000 28.000000000000000
0

0101000
+169 23 -168 23 *
Ve
0.000000100000002
9.000000000000000 -0.000000000000003 -11.000000000000000
0 0

0101101
*
Ed
 0.000000100000002 1 1 0
1  18 0 0.000000000000000 10.000000000000000
0

0101000
+166 23 -169 23 *
Ve
0.000000100000002
37.000000000000000 0.000000000000002 11.000000000000000
0 0

0101101
*
Ed
 0.000000100000002 1 1 0
1  19 0 0.000000000000000 12.000000000000000
0

0101000
+168 23 -164 23 *
Ve
0.000000100000004
-19.000000000000000 -0.000000000000003 -11.000000000000000
0 0

0101101
*
Ed
 0.000000100000002 1 1 0
1  20 0 0.000000000000000 28.000000000000000
0

0101000
+162 23 -166 23 *
Ve
0.000000100000003
-14.500000000000000 0.000000000000002 11.000000000000000
0 0

0101101
*
Ed
 0.000000100000002 1 1 0
1  21 0 0.000000000000000 51.500000000000000
0

0101000
+164 23 -160 23 *
Ve
0.000000100000004
-19.000000000000000 -0.000000000000005 -19.000000000000000
0 0

0101101
*
Ed
 0.000000100000004 1 1 0
1  22 0 0.000000000000000 8.000000000000000
0

0101000
+158 23 -162 23 *
Ve
0.000000100000003
-14.500000000000000 0.000000000000002 11.500000000000000
0 0

0101101
*
Ed
 0.000000100000003 1 1 0
1  23 0 0.000000000000000 0.500000000000000
0

0101000
+160 23 -156 23 *
Ve
0.000000100000004
-38.000000000000000 -0.000000000000005 -19.000000000000000
0 0

0101101
*
Ed
 0.000000100000004 1 1 0
1  24 0 0.000000000000000 19.000000000000000
0

0101000
+154 23 -158 23 *
Ve
0.000000100000003
-38.000000000000000 0.000000000000002 11.500000000000000
0 0

0101101
*
Ed
 0.000000100000003 1 1 0
1  25 0 0.000000000000000 23.500000000000000
0

0101000
+156 23 -152 23 *
Ve
0.000000100000004
-38.000000000000000 -0.000000000000003 -11.000000000000000
0 0

0101101
*
Ed
 0.000000100000004 1 1 0
1  26 0 0.000000000000000 8.000000000000000
0

0101000
+150 23 -154 23 *
Ve
0.000000100000002
-38.000000000000000 -0.000000000000001 0.000000000000000
0 0

0101101
*
Ed
 0.000000100000002 1 1 0
1  27 0 0.000000000000000 11.500000000000000
0

0101000
+152 23 -148 23 *
Ve
0.000000100000002
-53.000000000000000 -0.000000000000003 -11.000000000000000
0 0

0101101
*
Ed
 0.000000100000002 1 1 0
1  28 0 0.000000000000000 15.000000000000000
0

0101000
+146 23 -150 23 *
Ve
0.000000100000002
-53.000000000000000 -0.000000000000001 0.000000000000000
0 0

0101101
*
Ed
 0.000000100000000 1 1 0
1  29 0 0.000000000000000 15.000000000000000
0

0101000
+148 23 -144 23 *
Ed
 0.000000100000002 1 1 0
1  30 0 0.000000000000000 11.000000000000000
0

0101000
+144 23 -146 23 *
Wi

0101100
+167 22 +165 22 +163 22 +161 22 +159 22 +157 22 +155 22 +153 22 +151 22 +149 22 
+147 22 +145 22 +143 22 +142 22 *
Fa
0  0.000000100000000 2 15

0101000
+170 0 +141 0 *
Ve
0.000122609936992
-46.000000000000000 -28.000000000000000 -13.999999999999995
0 0

0101101
*
Ed
 0.000122609936990 1 1 0
1  31 0 18.750000000000000 28.750000000000000
2  1 2 24 18.750000000000000 28.750000000000000
2  2 3 0 18.750000000000000 28.750000000000000
0

0101000
+139 0 -202 0 *
Ed
 0.000000100000000 1 1 0
1  32 0 0.000000000000000 27.999999999999996
0

0101000
+195 0 -139 0 *
Wi

0101100
-194 18 -201 0 +138 0 +137 0 *
Fa
0  0.000000100000000 3 0

0101000
+136 0 *
Ve
0.000122609936997
-46.000000000000000 -28.000000000000007 -26.999999999999993
0 0

0101101
*
Ed
 0.000122609936990 1 1 0
1  33 0 -11.624999999999996 1.375000000000002
2  3 2 24 -11.624999999999996 1.375000000000002
2  4 4 0 -11.624999999999996 1.375000000000002
0

0101000
+134 0 -139 0 *
Ve
0.000122609936997
-11.000000000000000 -28.000000000000007 -26.999999999999993
0 0

0101101
*
Ed
 0.000000100000000 1 1 0
1  6 0 10.000000000000000 45.000000000000000
0

0101000
+134 14 -132 14 *
Ve
0.000122609936992
-11.000000000000000 -28.000000000000000 -15.999999999999995
0 0

0101101
*
Ed
 0.000122609936990 1 1 0
1  34 0 -11.624999999999996 -0.624999999999998
2  5 2 24 -11.624999999999996 -0.624999999999998
2  6 5 0 -11.624999999999996 -0.624999999999998
0

0101000
+132 0 -130 0 *
Ve
0.000122609936992
12.000000000000000 -28.000000000000000 -15.999999999999995
0 0

0101101
*
Ed
 0.000122609936990 1 1 0
1  35 0 -1.250000000000000 21.750000000000000
2  7 2 24 -1.250000000000000 21.750000000000000
2  8 6 0 -1.250000000000000 21.750000000000000
0

0101000
+130 0 -128 0 *
Ve
0.000122609936990
12.000000000000000 -28.000000000000000 -5.999999999999994
0 0

0101101
*
Ed
 0.000122609936990 1 1 0
1  36 0 -6.124999999999997 3.875000000000003
2  9 2 24 -6.124999999999997 3.875000000000003
2  10 7 0 -6.124999999999997 3.875000000000003
0

0101000
+128 0 -126 0 *
Ve
0.000122609936993
39.000000000000000 -28.000000000000004 -5.999999999999993
0 0

0101101
*
Ed
 0.000122609936990 1 1 0
1  37 0 10.250000000000000 37.250000000000000
2  11 2 24 10.250000000000000 37.250000000000000
2  12 8 0 10.250000000000000 37.250000000000000
0

0101000
+126 0 -124 0 *
Ve
0.000122609938093
39.000000000000000 -27.999999999999996 15.999999999926040
0 0

0101101
*
Ed
 0.000000100000000 1 1 0
1  11 0 21.000000000000000 42.999999999926033
0

0101000
+124 14 -122 14 *
Ve
0.000122609938747
-11.500000000000000 -28.000000000000000 16.000000000000007
0 0

0101101
*
Ed
 0.000122609936990 1 1 0
1  38 0 -36.374999999985661 14.125000000014335
2  13 2 24 -36.374999999985661 14.125000000014335
2  14 9 0 -36.374999999985661 14.125000000014335
0

0101000
+122 0 -120 0 *
Ve
0.000122609936993
-11.500000000000000 -27.999999999999996 19.500000000000007
0 0

0101101
*
Ed
 0.000122609936990 1 1 0
1  39 0 -11.625000000000004 -8.125000000000004
2  15 2 24 -11.625000000000004 -8.125000000000004
2  16 10 0 -11.625000000000004 -8.125000000000004
0

0101000
+118 0 -120 0 *
Ve
0.000122609936993
-46.000000000000000 -27.999999999999996 19.500000000000007
0 0

0101101
*
Ed
 0.000000100000000 1 1 0
1  14 0 50.500000000000000 85.000000000000000
0

0101000
+118 14 -116 14 *
Ve
0.000122609936991
-46.000000000000000 -28.000000000000000 3.000000000000006
0 0

0101101
*
Ed
 0.000122609936990 1 1 0
1  40 0 -11.625000000000004 4.874999999999996
2  17 2 24 -11.625000000000004 4.874999999999996
2  18 11 0 -11.625000000000004 4.874999999999996
0

0101000
+116 0 -114 0 *
Ed
 0.000122609936990 1 1 0
1  41 0 18.750000000000000 28.750000000000000
2  19 2 24 18.750000000000000 28.750000000000000
2  20 12 0 18.750000000000000 28.750000000000000
0

0101000
+114 0 -200 0 *
Wi

0101100
-199 13 +138 0 +133 0 -131 13 -129 0 -127 0 -125 0 -123 0 -121 13 -119 0 
+117 0 -115 13 -113 0 -112 0 *
Fa
0  0.000000100000000 2 24

0101000
+111 0 *
Ed
 0.000000100000000 1 1 0
1  42 0 0.000000000000000 28.000000000000000
0

0101000
+173 0 -114 0 *
Wi

0101100
-171 18 -198 0 +112 0 +109 0 *
Fa
0  0.000000100000000 12 0

0101000
+108 0 *
Ed
 0.000000100000000 1 1 0
1  43 0 0.000000000000000 28.000000000000000
0

0101000
+193 0 -134 0 *
Wi

0101100
-192 18 -137 0 +133 0 +106 0 *
Fa
0  0.000000100000000 4 0

0101000
+105 0 *
Ed
 0.000000100000000 1 1 0
1  44 0 0.000000000000000 28.000000000000000
0

0101000
+191 0 -132 0 *
Wi

0101100
-190 10 -103 0 +131 13 +106 0 *
Fa
0  0.000000100000000 13 6

0101000
+102 0 *
Ed
 0.000000100000000 1 1 0
1  45 0 0.000000000000000 27.999999999999996
0

0101000
+189 0 -130 0 *
Wi

0101100
-188 18 -100 0 +129 0 +103 0 *
Fa
0  0.000000100000000 5 0

0101000
+99 0 *
Ed
 0.000000100000000 1 1 0
1  46 0 0.000000000000000 27.999999999999996
0

0101000
+187 0 -128 0 *
Wi

0101100
-186 18 -97 0 +127 0 +100 0 *
Fa
0  0.000000100000000 6 0

0101000
+96 0 *
Ed
 0.000000100000000 1 1 0
1  47 0 0.000000000000000 27.999999999999996
0

0101000
+185 0 -126 0 *
Wi

0101100
-184 18 -94 0 +125 0 +97 0 *
Fa
0  0.000000100000000 7 0

0101000
+93 0 *
Ed
 0.000000100000000 1 1 0
1  48 0 0.000000000000000 28.000000000000000
0

0101000
+183 0 -124 0 *
Wi

0101100
-182 18 -91 0 +123 0 +94 0 *
Fa
0  0.000000100000000 8 0

0101000
+90 0 *
Ed
 0.000000100000000 1 1 0
1  49 0 0.000000000000000 28.000000000000000
0

0101000
+181 0 -122 0 *
Wi

0101100
-180 10 -88 0 +121 13 +91 0 *
Fa
0  0.000000100000000 14 6

0101000
+87 0 *
Ed
 0.000000100000000 1 1 0
1  50 0 0.000000000000000 28.000000000000004
0

0101000
+179 0 -120 0 *
Wi

0101100
-85 0 +119 0 +88 0 +178 0 *
Fa
0  0.000000100000000 9 0

0101000
+84 0 *
Ed
 0.000000100000000 1 1 0
1  51 0 0.000000000000000 28.000000000000000
0

0101000
+177 0 -118 0 *
Wi

0101100
-176 18 -85 0 +117 0 +82 0 *
Fa
0  0.000000100000000 10 0

0101000
+81 0 *
Ed
 0.000000100000000 1 1 0
1  52 0 0.000000000000000 28.000000000000000
0

0101000
+175 0 -116 0 *
Wi

0101100
-174 10 -79 0 +115 13 +82 0 *
Fa
0  0.000000100000000 15 6

0101000
+78 0 *
Wi

0101100
-172 18 -109 0 +113 0 +79 0 *
Fa
0  0.000000100000000 11 0

0101000
+76 0 *
Ve
0.000000100000000
-9.000000000000000 -1.000000000000000 0.000000000000000
0 0

0101101
*
Ed
 0.000000100000000 1 1 0
1  53 0 0.000000000000000 25.000000000000000
0

0101000
+169 0 -74 27 *
Ve
0.000000100000000
-37.000000000000000 -1.000000000000000 0.000000000000000
0 0

0101101
*
Ed
 0.000000100000000 1 1 0
1  54 0 0.000000000000000 25.000000000000000
0

0101000
+168 0 -72 27 *
Ed
 0.000000100000000 1 1 0
1  17 0 0.000000000000000 28.000000000000000
0

0101000
+74 0 -72 0 *
Wi

0101100
+73 0 -71 0 -167 28 +70 27 *
Fa
0  0.000000100000000 16 0

0101000
+69 0 *
Ve
0.000000100000000
-9.000000000000000 -11.000000000000000 0.000000000000000
0 0

0101101
*
Ed
 0.000000100000000 1 1 0
1  55 0 0.000000000000000 25.000000000000000
0

0101000
+166 0 -67 27 *
Ed
 0.000000100000000 1 1 0
1  18 0 0.000000000000000 10.000000000000000
0

0101000
+67 0 -74 0 *
Wi

0101100
+66 0 -73 0 -165 28 +65 27 *
Fa
0  0.000000100000000 17 0

0101000
+64 0 *
Ve
0.000000100000000
-37.000000000000000 11.000000000000000 0.000000000000000
0 0

0101101
*
Ed
 0.000000100000000 1 1 0
1  56 0 0.000000000000000 25.000000000000000
0

0101000
+164 0 -62 27 *
Ed
 0.000000100000000 1 1 0
1  19 0 0.000000000000000 12.000000000000000
0

0101000
+72 0 -62 0 *
Wi

0101100
+71 0 -61 0 -163 28 +60 27 *
Fa
0  0.000000100000000 18 0

0101000
+59 0 *
Ve
0.000000100000000
19.000000000000000 -11.000000000000000 0.000000000000000
0 0

0101101
*
Ed
 0.000000100000000 1 1 0
1  57 0 0.000000000000000 25.000000000000000
0

0101000
+162 0 -57 27 *
Ed
 0.000000100000000 1 1 0
1  20 0 0.000000000000000 28.000000000000000
0

0101000
+57 0 -67 0 *
Wi

0101100
+56 0 -66 0 -161 28 +55 27 *
Fa
0  0.000000100000000 19 0

0101000
+54 0 *
Ve
0.000000100000000
14.500000000000000 11.000000000000000 0.000000000000000
0 0

0101101
*
Ed
 0.000000100000000 1 1 0
1  58 0 0.000000000000000 25.000000000000000
0

0101000
+160 0 -52 27 *
Ed
 0.000000100000000 1 1 0
1  21 0 0.000000000000000 51.500000000000000
0

0101000
+62 0 -52 0 *
Wi

0101100
+61 0 -51 0 -159 28 +50 27 *
Fa
0  0.000000100000000 20 0

0101000
+49 0 *
Ve
0.000000100000000
19.000000000000000 -19.000000000000000 0.000000000000000
0 0

0101101
*
Ed
 0.000000100000000 1 1 0
1  59 0 0.000000000000000 25.000000000000000
0

0101000
+158 0 -47 27 *
Ed
 0.000000100000000 1 1 0
1  22 0 0.000000000000000 8.000000000000000
0

0101000
+47 0 -57 0 *
Wi

0101100
+46 0 -56 0 -157 28 +45 27 *
Fa
0  0.000000100000000 21 0

0101000
+44 0 *
Ve
0.000000100000000
14.500000000000000 11.500000000000000 0.000000000000000
0 0

0101101
*
Ed
 0.000000100000000 1 1 0
1  60 0 0.000000000000000 25.000000000000000
0

0101000
+156 0 -42 27 *
Ed
 0.000000100000000 1 1 0
1  23 0 0.000000000000000 0.500000000000000
0

0101000
+52 0 -42 0 *
Wi

0101100
+51 0 -41 0 -155 28 +40 27 *
Fa
0  0.000000100000000 22 0

0101000
+39 0 *
Ve
0.000000100000000
38.000000000000000 -19.000000000000000 0.000000000000000
0 0

0101101
*
Ed
 0.000000100000000 1 1 0
1  61 0 0.000000000000000 25.000000000000000
0

0101000
+154 0 -37 27 *
Ed
 0.000000100000000 1 1 0
1  24 0 0.000000000000000 19.000000000000000
0

0101000
+37 0 -47 0 *
Wi

0101100
+36 0 -46 0 -153 28 +35 27 *
Fa
0  0.000000100000000 23 0

0101000
+34 0 *
Ve
0.000000100000000
38.000000000000000 11.500000000000000 0.000000000000000
0 0

0101101
*
Ed
 0.000000100000000 1 1 0
1  62 0 0.000000000000000 25.000000000000000
0

0101000
+152 0 -32 27 *
Ed
 0.000000100000000 1 1 0
1  25 0 0.000000000000000 23.500000000000000
0

0101000
+42 0 -32 0 *
Wi

0101100
+41 0 -31 0 -151 28 +30 27 *
Fa
0  0.000000100000000 24 0

0101000
+29 0 *
Ve
0.000000100000000
38.000000000000000 -11.000000000000000 0.000000000000000
0 0

0101101
*
Ed
 0.000000100000000 1 1 0
1  63 0 0.000000000000000 25.000000000000000
0

0101000
+150 0 -27 27 *
Ed
 0.000000100000000 1 1 0
1  26 0 0.000000000000000 8.000000000000000
0

0101000
+27 0 -37 0 *
Wi

0101100
+26 0 -36 0 -149 28 +25 27 *
Fa
0  0.000000100000000 25 0

0101000
+24 0 *
Ve
0.000000100000000
38.000000000000000 0.000000000000000 0.000000000000000
0 0

0101101
*
Ed
 0.000000100000000 1 1 0
1  64 0 0.000000000000000 25.000000000000000
0

0101000
+148 0 -22 27 *
Ed
 0.000000100000000 1 1 0
1  27 0 0.000000000000000 11.500000000000000
0

0101000
+32 0 -22 0 *
Wi

0101100
+31 0 -21 0 -147 28 +20 27 *
Fa
0  0.000000100000000 26 0

0101000
+19 0 *
Ve
0.000000100000000
53.000000000000000 -11.000000000000000 0.000000000000000
0 0

0101101
*
Ed
 0.000000100000000 1 1 0
1  65 0 0.000000000000000 25.000000000000000
0

0101000
+146 0 -17 27 *
Ed
 0.000000100000000 1 1 0
1  28 0 0.000000000000000 15.000000000000000
0

0101000
+17 0 -27 0 *
Wi

0101100
+16 0 -26 0 -145 28 +15 27 *
Fa
0  0.000000100000000 27 0

0101000
+14 0 *
Ve
0.000000100000000
53.000000000000000 0.000000000000000 0.000000000000000
0 0

0101101
*
Ed
 0.000000100000000 1 1 0
1  66 0 0.000000000000000 25.000000000000000
0

0101000
+144 0 -12 27 *
Ed
 0.000000100000000 1 1 0
1  29 0 0.000000000000000 15.000000000000000
0

0101000
+22 0 -12 0 *
Wi

0101100
+21 0 -11 0 -143 28 +10 27 *
Fa
0  0.000000100000000 28 0

0101000
+9 0 *
Ed
 0.000000100000000 1 1 0
1  30 0 0.000000000000000 11.000000000000000
0

0101000
+12 0 -17 0 *
Wi

0101100
+11 0 -16 0 -142 28 +7 27 *
Fa
0  0.000000100000000 29 0

0101000
+6 0 *
Wi

0101100
+60 0 +50 0 +40 0 +30 0 +20 0 +10 0 +7 0 +15 0 +25 0 +35 0 
+45 0 +55 0 +65 0 +70 0 *
Fa
0  0.000000100000000 30 0

0101000
-4 30 *
Sh

0101100
-196 0 +140 0 +135 0 -110 0 -107 0 +104 0 -101 0 -98 0 -95 0 -92 0 
-89 0 -86 0 -83 0 +80 0 -77 0 -75 0 +68 25 +63 25 +58 25 +53 25 
+48 25 +43 25 +38 25 +33 25 +28 25 +23 25 +18 25 +13 25 +8 25 +5 25 
+3 29 *
So

0100000
+2 0 *

+1 1 