
CASCADE Topology V1, (c) Matra-Datavision
Locations 22
1
1.000000000000000 0.000000000000000 0.000000000000000 0.000000000000000 
0.000000000000000 1.000000000000000 0.000000000000000 0.000000000000000 
0.000000000000000 0.000000000000000 1.000000000000000 0.000000000000000 
1
1.000000000000000 0.000000000000000 0.000000000000000 0.000000000000000 
0.000000000000000 1.000000000000000 0.000000000000000 0.000000000000000 
0.000000000000000 0.000000000000000 1.000000000000000 0.000000000000000 
1
1.000000000000000 0.000000000000000 0.000000000000000 0.000000000000000 
0.000000000000000 1.000000000000000 0.000000000000000 0.000000000000000 
0.000000000000000 0.000000000000000 1.000000000000000 0.000000000000000 
2  2 1 3 -1 0
1
1.000000000000000 0.000000000000000 0.000000000000000 0.000000000000000 
0.000000000000000 1.000000000000000 0.000000000000000 0.000000000000000 
0.000000000000000 0.000000000000000 1.000000000000000 0.000000000000000 
1
1.000000000000000 0.000000000000000 0.000000000000000 0.000000000000000 
0.000000000000000 0.000000000000000 -1.000000000000000 0.000000000000000 
0.000000000000000 1.000000000000000 0.000000000000000 0.000000000000000 
1
1.000000000000000 0.000000000000000 0.000000000000000 0.000000000000000 
0.000000000000000 1.000000000000000 0.000000000000000 0.000000000000000 
0.000000000000000 0.000000000000000 1.000000000000000 0.000000000000000 
2  5 1 6 1 7 -1 0
1
1.000000000000000 0.000000000000000 0.000000000000000 0.000000000000000 
0.000000000000000 1.000000000000000 0.000000000000000 -28.000000000000000 
0.000000000000000 0.000000000000000 1.000000000000000 0.000000000000006 
2  5 1 6 1 7 -1 9 1 0
2  7 -1 2 1 3 -1 0
2  5 1 6 1 7 -1 2 1 3 -1 0
1
1.000000000000000 0.000000000000000 0.000000000000000 0.000000000000000 
0.000000000000000 1.000000000000000 0.000000000000000 0.000000000000000 
0.000000000000000 0.000000000000000 1.000000000000000 0.000000000000000 
1
-1.000000000000000 0.000000000000000 0.000000000000000 0.000000000000000 
0.000000000000000 0.000000000000000 1.000000000000000 -0.000000000000001 
0.000000000000000 1.000000000000000 -0.000000000000000 0.000000000000000 
2  13 1 14 1 3 -1 0
2  3 1 14 -1 13 -1 0
2  7 -1 9 1 2 1 3 -1 0
2  5 1 6 1 0
1
1.000000000000000 0.000000000000000 0.000000000000000 0.000000000000000 
0.000000000000000 1.000000000000000 0.000000000000000 -25.000000000000000 
0.000000000000000 0.000000000000000 1.000000000000000 0.000000000000006 
2  13 1 14 1 3 -1 19 1 0
2  3 -1 19 1 0
2  13 1 14 1 0
Curve2ds 0
Curves 36
1 -56.00000000000000000 0.00000000000000433 19.50000000000000000 0.00000000000000000 -1.00000000000000000 0.00000000000000022 
1 -56.00000000000000000 -0.00000000000000600 -27.00000000000000000 0.00000000000000000 -1.00000000000000000 0.00000000000000022 
1 -56.00000000000000000 19.50000000000000000 0.00000000000000000 0.00000000000000000 -1.00000000000000000 0.00000000000000000 
1 39.00000000000000000 0.00000000000000433 19.50000000000000000 0.00000000000000000 -1.00000000000000000 0.00000000000000022 
1 39.00000000000000000 19.50000000000000000 0.00000000000000000 -1.00000000000000000 0.00000000000000000 0.00000000000000000 
1 39.00000000000000000 -0.00000000000000600 -27.00000000000000000 0.00000000000000000 -1.00000000000000000 0.00000000000000022 
1 -56.00000000000000000 -27.00000000000000000 0.00000000000000000 1.00000000000000000 0.00000000000000000 0.00000000000000000 
1 39.00000000000000000 -27.00000000000000000 0.00000000000000000 0.00000000000000000 1.00000000000000000 0.00000000000000000 
1 -9.00000000000000000 -1.00000000000000000 0.00000000000000000 -1.00000000000000000 0.00000000000000000 0.00000000000000000 
1 -9.00000000000000000 -11.00000000000000000 0.00000000000000000 0.00000000000000000 1.00000000000000000 0.00000000000000000 
1 19.00000000000000000 -11.00000000000000000 0.00000000000000000 -1.00000000000000000 0.00000000000000000 0.00000000000000000 
1 19.00000000000000000 -19.00000000000000000 0.00000000000000000 0.00000000000000000 1.00000000000000000 0.00000000000000000 
1 38.00000000000000000 -19.00000000000000000 0.00000000000000000 -1.00000000000000000 0.00000000000000000 0.00000000000000000 
1 38.00000000000000000 -11.00000000000000000 0.00000000000000000 0.00000000000000000 -1.00000000000000000 0.00000000000000000 
1 53.00000000000000000 -11.00000000000000000 0.00000000000000000 -1.00000000000000000 0.00000000000000000 0.00000000000000000 
1 53.00000000000000000 0.00000000000000000 0.00000000000000000 0.00000000000000000 -1.00000000000000000 0.00000000000000000 
1 38.00000000000000000 0.00000000000000000 0.00000000000000000 1.00000000000000000 0.00000000000000000 0.00000000000000000 
1 38.00000000000000000 11.50000000000000000 0.00000000000000000 0.00000000000000000 -1.00000000000000000 0.00000000000000000 
1 14.50000000000000000 11.50000000000000000 0.00000000000000000 1.00000000000000000 0.00000000000000000 0.00000000000000000 
1 14.50000000000000000 11.00000000000000000 0.00000000000000000 0.00000000000000000 1.00000000000000000 0.00000000000000000 
1 -37.00000000000000000 11.00000000000000000 0.00000000000000000 1.00000000000000000 0.00000000000000000 0.00000000000000000 
1 -37.00000000000000000 -1.00000000000000000 0.00000000000000000 0.00000000000000000 1.00000000000000000 0.00000000000000000 
1 9.00000000000000000 -0.00000000000000105 -1.00000000000000000 0.00000000000000000 -1.00000000000000000 0.00000000000000022 
1 37.00000000000000000 -0.00000000000000105 -1.00000000000000000 0.00000000000000000 -1.00000000000000000 0.00000000000000022 
1 9.00000000000000000 -0.00000000000000328 -11.00000000000000000 0.00000000000000000 -1.00000000000000000 0.00000000000000022 
1 -19.00000000000000000 -0.00000000000000328 -11.00000000000000000 0.00000000000000000 -1.00000000000000000 0.00000000000000022 
1 -19.00000000000000000 -0.00000000000000505 -19.00000000000000000 0.00000000000000000 -1.00000000000000000 0.00000000000000022 
1 -38.00000000000000000 -0.00000000000000505 -19.00000000000000000 0.00000000000000000 -1.00000000000000000 0.00000000000000022 
1 -38.00000000000000000 -0.00000000000000328 -11.00000000000000000 0.00000000000000000 -1.00000000000000000 0.00000000000000022 
1 -53.00000000000000000 -0.00000000000000328 -11.00000000000000000 0.00000000000000000 -1.00000000000000000 0.00000000000000022 
1 -53.00000000000000000 -0.00000000000000083 0.00000000000000000 0.00000000000000000 -1.00000000000000000 0.00000000000000022 
1 -38.00000000000000000 -0.00000000000000083 0.00000000000000000 0.00000000000000000 -1.00000000000000000 0.00000000000000022 
1 -38.00000000000000000 0.00000000000000172 11.50000000000000000 0.00000000000000000 -1.00000000000000000 0.00000000000000022 
1 -14.50000000000000000 0.00000000000000172 11.50000000000000000 0.00000000000000000 -1.00000000000000000 0.00000000000000022 
1 -14.50000000000000000 0.00000000000000161 11.00000000000000000 0.00000000000000000 -1.00000000000000000 0.00000000000000022 
1 37.00000000000000000 0.00000000000000161 11.00000000000000000 0.00000000000000000 -1.00000000000000000 0.00000000000000022 
Polygon3D 0
PolygonOnTriangulations 0
Surfaces 20
1 -56.00000000000000000 0.00000000000000433 19.50000000000000000 1.00000000000000000 0.00000000000000000 0.00000000000000000 0.00000000000000000 -0.00000000000000022 -1.00000000000000000 0.00000000000000000 1.00000000000000000 -0.00000000000000022 
1 39.00000000000000000 0.00000000000000433 19.50000000000000000 -0.00000000000000000 -0.00000000000000022 -1.00000000000000000 -1.00000000000000000 0.00000000000000000 0.00000000000000000 0.00000000000000000 1.00000000000000000 -0.00000000000000022 
1 -56.00000000000000000 -0.00000000000000600 -27.00000000000000000 -0.00000000000000000 0.00000000000000022 1.00000000000000000 1.00000000000000000 0.00000000000000000 0.00000000000000000 0.00000000000000000 1.00000000000000000 -0.00000000000000022 
1 -8.50000000000000000 -0.00000000000000083 -3.75000000000000000 0.00000000000000000 1.00000000000000000 0.00000000000000000 0.00000000000000000 -0.00000000000000000 1.00000000000000000 1.00000000000000000 0.00000000000000000 -0.00000000000000000 
1 39.00000000000000000 -0.00000000000000600 -27.00000000000000000 -1.00000000000000000 0.00000000000000000 0.00000000000000000 0.00000000000000000 0.00000000000000022 1.00000000000000000 0.00000000000000000 1.00000000000000000 -0.00000000000000022 
1 9.00000000000000000 -0.00000000000000105 -1.00000000000000000 -0.00000000000000000 0.00000000000000022 1.00000000000000000 1.00000000000000000 0.00000000000000000 0.00000000000000000 0.00000000000000000 1.00000000000000000 -0.00000000000000022 
1 9.00000000000000000 -0.00000000000000328 -11.00000000000000000 -1.00000000000000000 0.00000000000000000 0.00000000000000000 0.00000000000000000 0.00000000000000022 1.00000000000000000 0.00000000000000000 1.00000000000000000 -0.00000000000000022 
1 -19.00000000000000000 -0.00000000000000328 -11.00000000000000000 -0.00000000000000000 0.00000000000000022 1.00000000000000000 1.00000000000000000 0.00000000000000000 0.00000000000000000 0.00000000000000000 1.00000000000000000 -0.00000000000000022 
1 -19.00000000000000000 -0.00000000000000505 -19.00000000000000000 -1.00000000000000000 0.00000000000000000 0.00000000000000000 0.00000000000000000 0.00000000000000022 1.00000000000000000 0.00000000000000000 1.00000000000000000 -0.00000000000000022 
1 -38.00000000000000000 -0.00000000000000505 -19.00000000000000000 -0.00000000000000000 0.00000000000000022 1.00000000000000000 1.00000000000000000 0.00000000000000000 0.00000000000000000 0.00000000000000000 1.00000000000000000 -0.00000000000000022 
1 -38.00000000000000000 -0.00000000000000328 -11.00000000000000000 1.00000000000000000 0.00000000000000000 0.00000000000000000 0.00000000000000000 -0.00000000000000022 -1.00000000000000000 0.00000000000000000 1.00000000000000000 -0.00000000000000022 
1 -53.00000000000000000 -0.00000000000000328 -11.00000000000000000 -0.00000000000000000 0.00000000000000022 1.00000000000000000 1.00000000000000000 0.00000000000000000 0.00000000000000000 0.00000000000000000 1.00000000000000000 -0.00000000000000022 
1 -53.00000000000000000 -0.00000000000000083 0.00000000000000000 1.00000000000000000 0.00000000000000000 0.00000000000000000 0.00000000000000000 -0.00000000000000022 -1.00000000000000000 0.00000000000000000 1.00000000000000000 -0.00000000000000022 
1 -38.00000000000000000 -0.00000000000000083 0.00000000000000000 -0.00000000000000000 -0.00000000000000022 -1.00000000000000000 -1.00000000000000000 0.00000000000000000 0.00000000000000000 0.00000000000000000 1.00000000000000000 -0.00000000000000022 
1 -38.00000000000000000 0.00000000000000172 11.50000000000000000 1.00000000000000000 0.00000000000000000 0.00000000000000000 0.00000000000000000 -0.00000000000000022 -1.00000000000000000 0.00000000000000000 1.00000000000000000 -0.00000000000000022 
1 -14.50000000000000000 0.00000000000000172 11.50000000000000000 -0.00000000000000000 -0.00000000000000022 -1.00000000000000000 -1.00000000000000000 0.00000000000000000 0.00000000000000000 0.00000000000000000 1.00000000000000000 -0.00000000000000022 
1 -14.50000000000000000 0.00000000000000161 11.00000000000000000 -1.00000000000000000 0.00000000000000000 0.00000000000000000 0.00000000000000000 0.00000000000000022 1.00000000000000000 0.00000000000000000 1.00000000000000000 -0.00000000000000022 
1 37.00000000000000000 0.00000000000000161 11.00000000000000000 -0.00000000000000000 -0.00000000000000022 -1.00000000000000000 -1.00000000000000000 0.00000000000000000 0.00000000000000000 0.00000000000000000 1.00000000000000000 -0.00000000000000022 
1 37.00000000000000000 -0.00000000000000105 -1.00000000000000000 -1.00000000000000000 0.00000000000000000 0.00000000000000000 0.00000000000000000 0.00000000000000022 1.00000000000000000 0.00000000000000000 1.00000000000000000 -0.00000000000000022 
1 -9.91390041493775875 -0.00000000000000107 -1.05394190871369298 0.00000000000000000 1.00000000000000000 0.00000000000000000 0.00000000000000000 -0.00000000000000000 1.00000000000000000 1.00000000000000000 0.00000000000000000 -0.00000000000000000 
Triangulations 0

TShapes 127
Ve
0.000000100000000
-56.000000000000000 19.500000000000000 0.000000000000000
0 0

0101101
*
Ed
 0.000000100000000 1 1 0
1  1 0 0.000000000000000 28.000000000000000
0

0101000
+127 8 -127 10 *
Ve
0.000000100000000
-56.000000000000000 -27.000000000000000 0.000000000000000
0 0

0101101
*
Ed
 0.000000100000000 1 1 0
1  2 0 0.000000000000000 28.000000000000000
0

0101000
+125 8 -125 10 *
Ed
 0.000000100000000 1 1 0
1  3 0 0.000000000000000 46.500000000000000
0

0101000
+127 0 -125 0 *
Wi

0101100
+126 0 -124 0 -123 8 +123 10 *
Fa
0  0.000000100000000 1 0

0101000
+122 0 *
Ve
0.000000100000000
39.000000000000000 19.500000000000000 0.000000000000000
0 0

0101101
*
Ed
 0.000000100000000 1 1 0
1  4 0 0.000000000000000 28.000000000000000
0

0101000
+120 8 -120 10 *
Ed
 0.000000100000000 1 1 0
1  5 0 0.000000000000000 95.000000000000000
0

0101000
+120 0 -127 0 *
Wi

0101100
+119 0 -126 0 -118 8 +118 10 *
Fa
0  0.000000100000000 2 0

0101000
+117 0 *
Ve
0.000000100000000
39.000000000000000 -27.000000000000000 0.000000000000000
0 0

0101101
*
Ed
 0.000000100000000 1 1 0
1  6 0 0.000000000000000 28.000000000000000
0

0101000
+115 8 -115 10 *
Ed
 0.000000100000000 1 1 0
1  7 0 0.000000000000000 95.000000000000000
0

0101000
+125 0 -115 0 *
Wi

0101100
+124 0 -114 0 -113 8 +113 10 *
Fa
0  0.000000100000000 3 0

0101000
+112 0 *
Ed
 0.000000100000000 1 1 0
1  8 0 0.000000000000000 46.500000000000000
0

0101000
+115 0 -120 0 *
Wi

0101100
-123 12 -118 12 -113 12 -110 12 *
Ve
0.000000100000002
9.000000000000000 -0.000000000000001 -1.000000000000000
0 0

0101101
*
Ve
0.000000100000002
37.000000000000000 -0.000000000000001 -1.000000000000000
0 0

0101101
*
Ed
 0.000000100000000 1 1 0
1  9 0 0.000000000000000 28.000000000000000
0

0101000
+108 16 -107 16 *
Ve
0.000000100000002
9.000000000000000 -0.000000000000003 -11.000000000000000
0 0

0101101
*
Ed
 0.000000100000002 1 1 0
1  10 0 0.000000000000000 10.000000000000000
0

0101000
+105 16 -108 16 *
Ve
0.000000100000004
-19.000000000000000 -0.000000000000003 -11.000000000000000
0 0

0101101
*
Ed
 0.000000100000002 1 1 0
1  11 0 0.000000000000000 28.000000000000000
0

0101000
+103 16 -105 16 *
Ve
0.000000100000004
-19.000000000000000 -0.000000000000005 -19.000000000000000
0 0

0101101
*
Ed
 0.000000100000004 1 1 0
1  12 0 0.000000000000000 8.000000000000000
0

0101000
+101 16 -103 16 *
Ve
0.000000100000004
-38.000000000000000 -0.000000000000005 -19.000000000000000
0 0

0101101
*
Ed
 0.000000100000004 1 1 0
1  13 0 0.000000000000000 19.000000000000000
0

0101000
+99 16 -101 16 *
Ve
0.000000100000004
-38.000000000000000 -0.000000000000003 -11.000000000000000
0 0

0101101
*
Ed
 0.000000100000004 1 1 0
1  14 0 0.000000000000000 8.000000000000000
0

0101000
+97 16 -99 16 *
Ve
0.000000100000002
-53.000000000000000 -0.000000000000003 -11.000000000000000
0 0

0101101
*
Ed
 0.000000100000002 1 1 0
1  15 0 0.000000000000000 15.000000000000000
0

0101000
+95 16 -97 16 *
Ve
0.000000100000002
-53.000000000000000 -0.000000000000001 0.000000000000000
0 0

0101101
*
Ed
 0.000000100000002 1 1 0
1  16 0 0.000000000000000 11.000000000000000
0

0101000
+93 16 -95 16 *
Ve
0.000000100000002
-38.000000000000000 -0.000000000000001 0.000000000000000
0 0

0101101
*
Ed
 0.000000100000000 1 1 0
1  17 0 0.000000000000000 15.000000000000000
0

0101000
+91 16 -93 16 *
Ve
0.000000100000003
-38.000000000000000 0.000000000000002 11.500000000000000
0 0

0101101
*
Ed
 0.000000100000002 1 1 0
1  18 0 0.000000000000000 11.500000000000000
0

0101000
+89 16 -91 16 *
Ve
0.000000100000003
-14.500000000000000 0.000000000000002 11.500000000000000
0 0

0101101
*
Ed
 0.000000100000003 1 1 0
1  19 0 0.000000000000000 23.500000000000000
0

0101000
+87 16 -89 16 *
Ve
0.000000100000003
-14.500000000000000 0.000000000000002 11.000000000000000
0 0

0101101
*
Ed
 0.000000100000003 1 1 0
1  20 0 0.000000000000000 0.500000000000000
0

0101000
+85 16 -87 16 *
Ve
0.000000100000002
37.000000000000000 0.000000000000002 11.000000000000000
0 0

0101101
*
Ed
 0.000000100000002 1 1 0
1  21 0 0.000000000000000 51.500000000000000
0

0101000
+83 16 -85 16 *
Ed
 0.000000100000002 1 1 0
1  22 0 0.000000000000000 12.000000000000000
0

0101000
+107 16 -83 16 *
Wi

0101100
+106 15 +104 15 +102 15 +100 15 +98 15 +96 15 +94 15 +92 15 +90 15 +88 15 
+86 15 +84 15 +82 15 +81 15 *
Fa
0  0.000000100000000 4 11

0101000
+109 0 +80 0 *
Wi

0101100
+123 0 +113 0 +110 0 +118 0 *
Fa
0  0.000000100000000 4 0

0101000
-78 18 *
Wi

0101100
+114 0 -119 0 -110 8 +110 10 *
Fa
0  0.000000100000000 5 0

0101000
+76 0 *
Ve
0.000000100000000
-9.000000000000000 -1.000000000000000 0.000000000000000
0 0

0101101
*
Ed
 0.000000100000000 1 1 0
1  23 0 0.000000000000000 25.000000000000000
0

0101000
+108 0 -74 20 *
Ve
0.000000100000000
-37.000000000000000 -1.000000000000000 0.000000000000000
0 0

0101101
*
Ed
 0.000000100000000 1 1 0
1  24 0 0.000000000000000 25.000000000000000
0

0101000
+107 0 -72 20 *
Ed
 0.000000100000000 1 1 0
1  9 0 0.000000000000000 28.000000000000000
0

0101000
+74 0 -72 0 *
Wi

0101100
+73 0 -71 0 -106 15 +70 20 *
Fa
0  0.000000100000000 6 0

0101000
+69 0 *
Ve
0.000000100000000
-9.000000000000000 -11.000000000000000 0.000000000000000
0 0

0101101
*
Ed
 0.000000100000000 1 1 0
1  25 0 0.000000000000000 25.000000000000000
0

0101000
+105 0 -67 20 *
Ed
 0.000000100000000 1 1 0
1  10 0 0.000000000000000 10.000000000000000
0

0101000
+67 0 -74 0 *
Wi

0101100
+66 0 -73 0 -104 15 +65 20 *
Fa
0  0.000000100000000 7 0

0101000
+64 0 *
Ve
0.000000100000000
19.000000000000000 -11.000000000000000 0.000000000000000
0 0

0101101
*
Ed
 0.000000100000000 1 1 0
1  26 0 0.000000000000000 25.000000000000000
0

0101000
+103 0 -62 20 *
Ed
 0.000000100000000 1 1 0
1  11 0 0.000000000000000 28.000000000000000
0

0101000
+62 0 -67 0 *
Wi

0101100
+61 0 -66 0 -102 15 +60 20 *
Fa
0  0.000000100000000 8 0

0101000
+59 0 *
Ve
0.000000100000000
19.000000000000000 -19.000000000000000 0.000000000000000
0 0

0101101
*
Ed
 0.000000100000000 1 1 0
1  27 0 0.000000000000000 25.000000000000000
0

0101000
+101 0 -57 20 *
Ed
 0.000000100000000 1 1 0
1  12 0 0.000000000000000 8.000000000000000
0

0101000
+57 0 -62 0 *
Wi

0101100
+56 0 -61 0 -100 15 +55 20 *
Fa
0  0.000000100000000 9 0

0101000
+54 0 *
Ve
0.000000100000000
38.000000000000000 -19.000000000000000 0.000000000000000
0 0

0101101
*
Ed
 0.000000100000000 1 1 0
1  28 0 0.000000000000000 25.000000000000000
0

0101000
+99 0 -52 20 *
Ed
 0.000000100000000 1 1 0
1  13 0 0.000000000000000 19.000000000000000
0

0101000
+52 0 -57 0 *
Wi

0101100
+51 0 -56 0 -98 15 +50 20 *
Fa
0  0.000000100000000 10 0

0101000
+49 0 *
Ve
0.000000100000000
38.000000000000000 -11.000000000000000 0.000000000000000
0 0

0101101
*
Ed
 0.000000100000000 1 1 0
1  29 0 0.000000000000000 25.000000000000000
0

0101000
+97 0 -47 20 *
Ed
 0.000000100000000 1 1 0
1  14 0 0.000000000000000 8.000000000000000
0

0101000
+47 0 -52 0 *
Wi

0101100
+46 0 -51 0 -96 15 +45 20 *
Fa
0  0.000000100000000 11 0

0101000
+44 0 *
Ve
0.000000100000000
53.000000000000000 -11.000000000000000 0.000000000000000
0 0

0101101
*
Ed
 0.000000100000000 1 1 0
1  30 0 0.000000000000000 25.000000000000000
0

0101000
+95 0 -42 20 *
Ed
 0.000000100000000 1 1 0
1  15 0 0.000000000000000 15.000000000000000
0

0101000
+42 0 -47 0 *
Wi

0101100
+41 0 -46 0 -94 15 +40 20 *
Fa
0  0.000000100000000 12 0

0101000
+39 0 *
Ve
0.000000100000000
53.000000000000000 0.000000000000000 0.000000000000000
0 0

0101101
*
Ed
 0.000000100000000 1 1 0
1  31 0 0.000000000000000 25.000000000000000
0

0101000
+93 0 -37 20 *
Ed
 0.000000100000000 1 1 0
1  16 0 0.000000000000000 11.000000000000000
0

0101000
+37 0 -42 0 *
Wi

0101100
+36 0 -41 0 -92 15 +35 20 *
Fa
0  0.000000100000000 13 0

0101000
+34 0 *
Ve
0.000000100000000
38.000000000000000 0.000000000000000 0.000000000000000
0 0

0101101
*
Ed
 0.000000100000000 1 1 0
1  32 0 0.000000000000000 25.000000000000000
0

0101000
+91 0 -32 20 *
Ed
 0.000000100000000 1 1 0
1  17 0 0.000000000000000 15.000000000000000
0

0101000
+32 0 -37 0 *
Wi

0101100
+31 0 -36 0 -90 15 +30 20 *
Fa
0  0.000000100000000 14 0

0101000
+29 0 *
Ve
0.000000100000000
38.000000000000000 11.500000000000000 0.000000000000000
0 0

0101101
*
Ed
 0.000000100000000 1 1 0
1  33 0 0.000000000000000 25.000000000000000
0

0101000
+89 0 -27 20 *
Ed
 0.000000100000000 1 1 0
1  18 0 0.000000000000000 11.500000000000000
0

0101000
+27 0 -32 0 *
Wi

0101100
+26 0 -31 0 -88 15 +25 20 *
Fa
0  0.000000100000000 15 0

0101000
+24 0 *
Ve
0.000000100000000
14.500000000000000 11.500000000000000 0.000000000000000
0 0

0101101
*
Ed
 0.000000100000000 1 1 0
1  34 0 0.000000000000000 25.000000000000000
0

0101000
+87 0 -22 20 *
Ed
 0.000000100000000 1 1 0
1  19 0 0.000000000000000 23.500000000000000
0

0101000
+22 0 -27 0 *
Wi

0101100
+21 0 -26 0 -86 15 +20 20 *
Fa
0  0.000000100000000 16 0

0101000
+19 0 *
Ve
0.000000100000000
14.500000000000000 11.000000000000000 0.000000000000000
0 0

0101101
*
Ed
 0.000000100000000 1 1 0
1  35 0 0.000000000000000 25.000000000000000
0

0101000
+85 0 -17 20 *
Ed
 0.000000100000000 1 1 0
1  20 0 0.000000000000000 0.500000000000000
0

0101000
+17 0 -22 0 *
Wi

0101100
+16 0 -21 0 -84 15 +15 20 *
Fa
0  0.000000100000000 17 0

0101000
+14 0 *
Ve
0.000000100000000
-37.000000000000000 11.000000000000000 0.000000000000000
0 0

0101101
*
Ed
 0.000000100000000 1 1 0
1  36 0 0.000000000000000 25.000000000000000
0

0101000
+83 0 -12 20 *
Ed
 0.000000100000000 1 1 0
1  21 0 0.000000000000000 51.500000000000000
0

0101000
+12 0 -17 0 *
Wi

0101100
+11 0 -16 0 -82 15 +10 20 *
Fa
0  0.000000100000000 18 0

0101000
+9 0 *
Ed
 0.000000100000000 1 1 0
1  22 0 0.000000000000000 12.000000000000000
0

0101000
+72 0 -12 0 *
Wi

0101100
+71 0 -11 0 -81 15 +7 20 *
Fa
0  0.000000100000000 19 0

0101000
+6 0 *
Wi

0101100
+7 0 +10 0 +15 0 +20 0 +25 0 +30 0 +35 0 +40 0 +45 0 +50 0 
+55 0 +60 0 +65 0 +70 0 *
Fa
0  0.000000100000000 20 0

0101000
-4 22 *
Sh

0101100
-121 4 -116 4 -111 4 +79 0 -77 17 -75 4 +68 0 +63 0 +58 0 +53 0 
+48 0 +43 0 +38 0 +33 0 +28 0 +23 0 +18 0 +13 0 +8 0 +5 0 
+3 21 *
So

0100000
+2 0 *

+1 1 