
CASCADE Topology V1, (c) Matra-Datavision
Locations 11
1
1.000000000000000 0.000000000000000 0.000000000000000 0.000000000000000 
0.000000000000000 1.000000000000000 0.000000000000000 0.000000000000000 
0.000000000000000 0.000000000000000 1.000000000000000 0.000000000000000 
1
0.984807752909581 0.173648177666501 0.000014222715703 25.500000002133469 
0.173648177615317 -0.984807753009770 0.000004767282920 0.000000000715111 
0.000014834470685 -0.000002225108518 -0.999999999887494 -0.000150004209371 
1
0.984807753012208 -0.173648177666930 0.000000000000000 25.500000000000000 
0.173648177666930 0.984807753012208 0.000000000000000 0.000000000000000 
0.000000000000000 0.000000000000000 1.000000000000000 0.000000000000000 
2  1 1 2 1 3 -1 0
1
1.000000000000000 0.000000000000000 0.000000000000000 0.000089006824108 
0.000000000000000 1.000000000000000 0.000000000000000 0.000013350651104 
0.000000000000000 0.000000000000000 1.000000000000000 -5.999999999324962 
2  1 1 2 1 3 -1 5 1 0
2  3 1 2 -1 1 -1 0
2  5 -1 3 1 2 -1 1 -1 0
2  3 -1 0
2  1 1 2 1 0
2  3 -1 5 1 0
Curve2ds 4
1 0.00000000000000000 0.00000000000000000 0.00000000000000000 -1.00000000000000000 
1 6.28318530717958623 0.00000000000000000 0.00000000000000000 -1.00000000000000000 
1 0.00000000000000000 0.00000000000000000 1.00000000000000000 0.00000000000000000 
1 0.00000000000000000 -6.00000000000000089 1.00000000000000000 0.00000000000000000 
Curves 2
1 2.47500000195290992 0.00000000025207858 -0.00011328889442666 0.00001483447068469 0.00000222510851733 -0.99999999988749355 
2 0.00000000000000000 0.00000000000000000 0.00000000000000000 0.00000000000000000 0.00000000000000000 1.00000000000000000 1.00000000000000000 0.00000000000000000 0.00000000000000000 0.00000000000000000 1.00000000000000000 0.00000000000000000 2.47500000000000009
Polygon3D 0
PolygonOnTriangulations 0
Surfaces 2
2 0.00000000222523511 0.00000000033377390 -0.00015000420937117 -0.00001483447068469 -0.00000222510851733 0.99999999988749366 0.99999999988996935 -0.00000000003300821 0.00001483447068465 0.00000000000000006 -0.99999999999752454 -0.00000222510851758 2.47500000000000053
1 25.50000000213346496 0.00000000071511130 -0.00015000420937117 -0.00001422271570296 -0.00000476728292021 0.99999999988749366 0.99999999989885724 -0.00000000000000000 0.00001422271570313 -0.00000000006780371 0.99999999998863653 0.00000476728291973 
Triangulations 0

TShapes 9
Ve
0.000000100000000
2.475000000000000 0.000000000000000 0.000000000000000
0 0

0101101
*
Ed
 0.000000100000000 1 1 0
1  1 0 0.000000000000000 6.000000000000001
3  1 2CN 1 0 0.000000000000000 6.000000000000001
0

0101000
+9 4 -9 6 *
Ed
 0.000000100000000 1 1 0
1  2 0 0.000000000000000 6.283185307179586
2  3 1 7 0.000000000000000 6.283185307179586
2  4 1 8 0.000000000000000 6.283185307179586
0

0101100
+9 0 -9 0 *
Wi

0101100
+8 0 -8 0 -7 4 +7 6 *
Fa
0  0.000000100000000 1 0

0101000
+6 0 *
Wi

0101100
+7 0 *
Fa
0  0.000000100000000 2 0

0101000
-4 10 *
Sh

0101100
-5 0 +3 9 -3 11 *
So

1100000
+2 0 *

+1 0 