
CASCADE Topology V1, (c) Matra-Datavision
Locations 11
1
1.000000000000000 0.000000000000000 0.000000000000000 0.000000000000000 
0.000000000000000 1.000000000000000 0.000000000000000 0.000000000000000 
0.000000000000000 0.000000000000000 1.000000000000000 0.000000000000000 
1
-0.669130606357828 0.743144825477391 0.000001176415793 -28.500000000019433 
0.743144825476493 0.669130606358855 -0.000001159648516 0.000000000019165 
-0.000001648962607 0.000000098290995 -0.999999999998636 -9.999983481105479 
1
-0.669130606358858 -0.743144825477395 0.000000000000000 -28.500000000000000 
0.743144825477395 -0.669130606358858 0.000000000000000 0.000000000000003 
0.000000000000000 0.000000000000000 1.000000000000000 -10.000000000000000 
2  1 1 2 1 3 -1 0
1
1.000000000000000 0.000000000000000 0.000000000000000 -0.000014016182159 
0.000000000000000 1.000000000000000 0.000000000000000 -0.000000835473454 
0.000000000000000 0.000000000000000 1.000000000000000 -8.499999999988402 
2  1 1 2 1 3 -1 5 1 0
2  3 1 2 -1 1 -1 0
2  5 -1 3 1 2 -1 1 -1 0
2  3 -1 0
2  1 1 2 1 0
2  3 -1 5 1 0
Curve2ds 4
1 0.00000000000000000 0.00000000000000000 0.00000000000000000 -1.00000000000000000 
1 6.28318530717958623 0.00000000000000000 0.00000000000000000 -1.00000000000000000 
1 0.00000000000000000 0.00000000000000000 1.00000000000000000 0.00000000000000000 
1 0.00000000000000000 -8.50000000000000000 1.00000000000000000 0.00000000000000000 
Curves 2
1 8.00000000001636735 0.00000000000032374 0.00000332719366545 -0.00000164896260691 -0.00000009829099463 -0.99999999999863554 
2 0.00000000000000000 0.00000000000000000 0.00000000000000000 0.00000000000000000 0.00000000000000000 1.00000000000000000 1.00000000000000000 0.00000000000000000 0.00000000000000000 0.00000000000000000 1.00000000000000000 0.00000000000000000 8.00000000000000000
Polygon3D 0
PolygonOnTriangulations 0
Surfaces 2
2 0.00000000002724221 0.00000000000162004 0.00001651889452070 0.00000164896260691 0.00000009829099463 0.99999999999863576 0.99999999999864053 -0.00000000000016204 -0.00000164896260691 0.00000000000000000 -0.99999999999999523 0.00000009829099464 8.00000000000000000
1 -28.50000000001944045 0.00000000001916450 -9.99998348110548108 -0.00000117641579313 0.00000115964851584 0.99999999999863565 0.99999999999930811 0.00000000000000000 0.00000117641579313 0.00000000000136423 0.99999999999932776 -0.00000115964851583 
Triangulations 0

TShapes 9
Ve
0.000000100000000
8.000000000000000 0.000000000000000 0.000000000000000
0 0

0101101
*
Ed
 0.000000100000000 1 1 0
1  1 0 0.000000000000000 8.500000000000000
3  1 2CN 1 0 0.000000000000000 8.500000000000000
0

0101000
+9 4 -9 6 *
Ed
 0.000000100000000 1 1 0
1  2 0 0.000000000000000 6.283185307179586
2  3 1 7 0.000000000000000 6.283185307179586
2  4 1 8 0.000000000000000 6.283185307179586
0

0101100
+9 0 -9 0 *
Wi

0101100
+8 0 -8 0 -7 4 +7 6 *
Fa
0  0.000000100000000 1 0

0101000
+6 0 *
Wi

0101100
+7 0 *
Fa
0  0.000000100000000 2 0

0101000
-4 10 *
Sh

0101100
-5 0 +3 9 -3 11 *
So

1100000
+2 0 *

+1 0 