
CASCADE Topology V1, (c) Matra-Datavision
Locations 10
1
1.000000000000000 0.000000000000000 0.000000000000000 0.000000000000000 
0.000000000000000 1.000000000000000 0.000000000000000 0.000000000000000 
0.000000000000000 0.000000000000000 1.000000000000000 0.000000000000000 
1
1.000000000000000 0.000000000000000 0.000000000000000 0.000000000000000 
0.000000000000000 1.000000000000000 0.000000000000000 0.000000000000000 
0.000000000000000 0.000000000000000 1.000000000000000 0.000000000000000 
1
1.000000000000000 0.000000000000000 0.000000000000000 0.000000000000000 
0.000000000000000 1.000000000000000 0.000000000000000 0.000000000000000 
0.000000000000000 0.000000000000000 1.000000000000000 0.000000000000000 
1
1.000000000000000 0.000000000000000 0.000000000000000 0.000000000000000 
0.000000000000000 1.000000000000000 0.000000000000000 0.000000000000000 
0.000000000000000 0.000000000000000 1.000000000000000 0.000000000000000 
2  2 1 3 1 4 -1 0
1
1.000000000000000 0.000000000000000 0.000000000000000 0.000000000000000 
0.000000000000000 1.000000000000000 0.000000000000000 0.000000000000000 
0.000000000000000 0.000000000000000 1.000000000000000 6.000000000000000 
2  2 1 3 1 4 -1 6 1 0
2  4 -1 0
2  2 1 3 1 0
2  4 -1 6 1 0
Curve2ds 0
Curves 12
1 6.87046820335654651 0.00000000000000000 0.00000000000000000 0.00000000000000000 0.00000000000000000 1.00000000000000000 
1 3.43523410167827326 5.95000000000000018 0.00000000000000000 0.00000000000000000 0.00000000000000000 1.00000000000000000 
1 6.87046820335654651 0.00000000000000000 0.00000000000000000 -0.50000000000000000 0.86602540378443871 0.00000000000000000 
1 -3.43523410167827326 5.95000000000000018 0.00000000000000000 0.00000000000000000 0.00000000000000000 1.00000000000000000 
1 3.43523410167827326 5.95000000000000018 0.00000000000000000 -1.00000000000000000 0.00000000000000000 0.00000000000000000 
1 -6.87046820335654651 0.00000000000000000 0.00000000000000000 0.00000000000000000 0.00000000000000000 1.00000000000000000 
1 -3.43523410167827326 5.95000000000000018 0.00000000000000000 -0.50000000000000000 -0.86602540378443871 0.00000000000000000 
1 -3.43523410167827326 -5.95000000000000018 0.00000000000000000 0.00000000000000000 0.00000000000000000 1.00000000000000000 
1 -6.87046820335654651 0.00000000000000000 0.00000000000000000 0.50000000000000000 -0.86602540378443871 0.00000000000000000 
1 3.43523410167827326 -5.95000000000000018 0.00000000000000000 0.00000000000000000 0.00000000000000000 1.00000000000000000 
1 -3.43523410167827326 -5.95000000000000018 0.00000000000000000 1.00000000000000000 0.00000000000000000 0.00000000000000000 
1 3.43523410167827326 -5.95000000000000018 0.00000000000000000 0.50000000000000000 0.86602540378443871 0.00000000000000000 
Polygon3D 0
PolygonOnTriangulations 0
Surfaces 7
1 6.87046820335654651 0.00000000000000000 0.00000000000000000 -0.86602540378443871 -0.50000000000000000 0.00000000000000000 -0.50000000000000000 0.86602540378443871 0.00000000000000000 -0.00000000000000000 0.00000000000000000 -1.00000000000000000 
1 3.43523410167827326 5.95000000000000018 0.00000000000000000 0.00000000000000000 -1.00000000000000000 0.00000000000000000 -1.00000000000000000 0.00000000000000000 0.00000000000000000 -0.00000000000000000 -0.00000000000000000 -1.00000000000000000 
1 -3.43523410167827326 5.95000000000000018 0.00000000000000000 0.86602540378443871 -0.50000000000000000 0.00000000000000000 -0.50000000000000000 -0.86602540378443871 0.00000000000000000 0.00000000000000000 -0.00000000000000000 -1.00000000000000000 
1 -6.87046820335654651 0.00000000000000000 0.00000000000000000 0.86602540378443871 0.50000000000000000 -0.00000000000000000 0.50000000000000000 -0.86602540378443871 0.00000000000000000 0.00000000000000000 -0.00000000000000000 -1.00000000000000000 
1 -3.43523410167827326 -5.95000000000000018 0.00000000000000000 0.00000000000000000 1.00000000000000000 0.00000000000000000 1.00000000000000000 0.00000000000000000 0.00000000000000000 0.00000000000000000 0.00000000000000000 -1.00000000000000000 
1 3.43523410167827326 -5.95000000000000018 0.00000000000000000 -0.86602540378443871 0.50000000000000000 0.00000000000000000 0.50000000000000000 0.86602540378443871 0.00000000000000000 0.00000000000000000 0.00000000000000000 -1.00000000000000000 
1 -0.00000000000000009 -0.00000000000000017 0.00000000000000000 0.00000000000000000 0.00000000000000000 1.00000000000000000 1.00000000000000000 0.00000000000000000 -0.00000000000000000 -0.00000000000000000 1.00000000000000000 0.00000000000000000 
Triangulations 0

TShapes 34
Ve
0.000000100000000
6.870468203356547 0.000000000000000 0.000000000000000
0 0

0101101
*
Ed
 0.000000100000000 1 1 0
1  1 0 0.000000000000000 6.000000000000000
0

0101000
+34 5 -34 7 *
Ve
0.000000100000000
3.435234101678273 5.950000000000000 0.000000000000000
0 0

0101101
*
Ed
 0.000000100000000 1 1 0
1  2 0 0.000000000000000 6.000000000000000
0

0101000
+32 5 -32 7 *
Ed
 0.000000100000000 1 1 0
1  3 0 0.000000000000000 6.870468203356547
0

0101000
+34 0 -32 0 *
Wi

0101100
+33 0 -31 0 -30 5 +30 7 *
Fa
0  0.000000100000000 1 0

0101000
+29 0 *
Ve
0.000000100000000
-3.435234101678273 5.950000000000000 0.000000000000000
0 0

0101101
*
Ed
 0.000000100000000 1 1 0
1  4 0 0.000000000000000 6.000000000000000
0

0101000
+27 5 -27 7 *
Ed
 0.000000100000000 1 1 0
1  5 0 0.000000000000000 6.870468203356547
0

0101000
+32 0 -27 0 *
Wi

0101100
+31 0 -26 0 -25 5 +25 7 *
Fa
0  0.000000100000000 2 0

0101000
+24 0 *
Ve
0.000000100000000
-6.870468203356547 0.000000000000000 0.000000000000000
0 0

0101101
*
Ed
 0.000000100000000 1 1 0
1  6 0 0.000000000000000 6.000000000000000
0

0101000
+22 5 -22 7 *
Ed
 0.000000100000000 1 1 0
1  7 0 0.000000000000000 6.870468203356547
0

0101000
+27 0 -22 0 *
Wi

0101100
+26 0 -21 0 -20 5 +20 7 *
Fa
0  0.000000100000000 3 0

0101000
+19 0 *
Ve
0.000000100000000
-3.435234101678273 -5.950000000000000 0.000000000000000
0 0

0101101
*
Ed
 0.000000100000000 1 1 0
1  8 0 0.000000000000000 6.000000000000000
0

0101000
+17 5 -17 7 *
Ed
 0.000000100000000 1 1 0
1  9 0 0.000000000000000 6.870468203356547
0

0101000
+22 0 -17 0 *
Wi

0101100
+21 0 -16 0 -15 5 +15 7 *
Fa
0  0.000000100000000 4 0

0101000
+14 0 *
Ve
0.000000100000000
3.435234101678273 -5.950000000000000 0.000000000000000
0 0

0101101
*
Ed
 0.000000100000000 1 1 0
1  10 0 0.000000000000000 6.000000000000000
0

0101000
+12 5 -12 7 *
Ed
 0.000000100000000 1 1 0
1  11 0 0.000000000000000 6.870468203356547
0

0101000
+17 0 -12 0 *
Wi

0101100
+16 0 -11 0 -10 5 +10 7 *
Fa
0  0.000000100000000 5 0

0101000
+9 0 *
Ed
 0.000000100000000 1 1 0
1  12 0 0.000000000000000 6.870468203356547
0

0101000
+12 0 -34 0 *
Wi

0101100
+11 0 -33 0 -7 5 +7 7 *
Fa
0  0.000000100000000 6 0

0101000
+6 0 *
Wi

0101100
+30 0 +25 0 +20 0 +15 0 +10 0 +7 0 *
Fa
0  0.000000100000000 7 0

0101000
+4 9 *
Sh

0101100
+28 0 +23 0 +18 0 +13 0 +8 0 +5 0 +3 8 -3 10 *
So

1100000
-2 0 *

+1 1 