
CASCADE Topology V1, (c) Matra-Datavision
Locations 1
1
1.000000000000000 0.000000000000000 0.000000000000000 0.000000000000000 
0.000000000000000 1.000000000000000 0.000000000000000 0.000000000000000 
0.000000000000000 0.000000000000000 1.000000000000000 0.000000000000000 
Curve2ds 8
1 0.00000000000000000 -0.24899999999999967 1.00000000000000000 0.00000000000000000 
1 0.00000000000000000 -0.24899999999999967 1.00000000000000000 0.00000000000000000 
1 0.00000000000000000 0.00000000000000000 1.00000000000000000 0.00000000000000000 
1 6.28318530717958623 0.00000000000000000 0.00000000000000000 1.00000000000000000 
1 0.00000000000000000 0.00000000000000000 0.00000000000000000 1.00000000000000000 
1 0.00000000000000000 0.00000000000000000 1.00000000000000000 0.00000000000000000 
1 6.28318530717958623 0.00000000000000000 0.00000000000000000 1.00000000000000000 
1 0.00000000000000000 0.00000000000000000 0.00000000000000000 1.00000000000000000 
Curves 6
2 4.66800000000000015 0.00000000000000000 0.00000000000000000 1.00000000000000000 0.00000000000000000 0.00000000000000000 0.00000000000000000 0.00000000000000000 -1.00000000000000000 -0.00000000000000000 1.00000000000000000 0.00000000000000000 3.10000000000000009
2 4.66800000000000015 0.00000000000000000 0.00000000000000000 1.00000000000000000 0.00000000000000000 0.00000000000000000 0.00000000000000000 0.00000000000000000 -1.00000000000000000 -0.00000000000000000 1.00000000000000000 0.00000000000000000 4.95000000000000018
2 4.91699999999999982 0.00000000000000000 0.00000000000000000 1.00000000000000000 0.00000000000000000 0.00000000000000000 0.00000000000000000 0.00000000000000000 -1.00000000000000000 -0.00000000000000000 1.00000000000000000 0.00000000000000000 3.10000000000000009
7 0 0  1 2 2  4.66800000000000015 -0.00000000000000076 -3.10000000000000009  4.91699999999999982 -0.00000000000000076 -3.10000000000000009 
 -0.24899999999999967 2 0.00000000000000000 2
2 4.91699999999999982 0.00000000000000000 0.00000000000000000 1.00000000000000000 0.00000000000000000 0.00000000000000000 0.00000000000000000 0.00000000000000000 -1.00000000000000000 -0.00000000000000000 1.00000000000000000 0.00000000000000000 4.95000000000000018
7 0 0  1 2 2  4.66800000000000015 0.00000000000000000 -4.95000000000000018  4.91699999999999982 0.00000000000000000 -4.95000000000000018 
 -0.24899999999999967 2 0.00000000000000000 2
Polygon3D 0
PolygonOnTriangulations 0
Surfaces 4
1 4.66800000000000015 4.95000000000000018 0.00000000000000000 -1.00000000000000000 0.00000000000000000 0.00000000000000000 0.00000000000000000 0.00000000000000000 1.00000000000000000 0.00000000000000000 1.00000000000000000 -0.00000000000000000 
10 0.00000000000000000 6.28318530717958623 -0.24899999999999967 0.00000000000000000
2 4.91699999999999982 0.00000000000000000 0.00000000000000000 1.00000000000000000 0.00000000000000000 0.00000000000000000 0.00000000000000000 0.00000000000000000 -1.00000000000000000 -0.00000000000000000 1.00000000000000000 0.00000000000000000 3.10000000000000009
10 0.00000000000000000 6.28318530717958623 -0.24899999999999967 0.00000000000000000
2 4.91699999999999982 0.00000000000000000 0.00000000000000000 1.00000000000000000 0.00000000000000000 0.00000000000000000 0.00000000000000000 0.00000000000000000 -1.00000000000000000 -0.00000000000000000 1.00000000000000000 0.00000000000000000 4.95000000000000018
1 4.91699999999999982 3.10000000000000009 0.00000000000000000 1.00000000000000000 0.00000000000000000 0.00000000000000000 0.00000000000000000 0.00000000000000000 -1.00000000000000000 -0.00000000000000000 1.00000000000000000 0.00000000000000000 
Triangulations 0

TShapes 22
Ve
0.000010000000000
4.668000000000000 0.000000000000000 -3.100000000000000
0 0

0101101
*
Ed
 0.000000100000000 1 1 0
1  1 0 0.000000000000000 6.283185307179586
2  1 2 0 0.000000000000000 6.283185307179586
4 C0 1 0 2 0
0

0101000
+22 0 -22 0 *
Wi

0101100
+21 0 *
Ve
0.000010000000000
4.668000000000000 0.000000000000000 -4.950000000000000
0 0

0101101
*
Ed
 0.000000100000000 1 1 0
1  2 0 0.000000000000000 6.283185307179586
2  2 3 0 0.000000000000000 6.283185307179586
4 C0 1 0 3 0
0

0101000
+19 0 -19 0 *
Wi

0101100
-18 0 *
Fa
0  0.000000100000000 1 0

0101000
+20 0 +17 0 *
Ve
0.000010000000000
4.917000000000000 0.000000000000000 -3.100000000000000
0 0

0101101
*
Ed
 0.000000100000000 1 1 0
1  3 0 0.000000000000000 6.283185307179586
2  3 2 0 0.000000000000000 6.283185307179586
4 C0 2 0 4 0
0

0101000
-15 0 +15 0 *
Ed
 0.000010000000000 1 1 0
1  4 0 -0.249000000000000 0.000000000000000
3  4 5CN 2 0 -0.249000000000000 0.000000000000000
0

0101000
-15 0 +22 0 *
Wi

0101100
-14 0 -13 0 +21 0 +13 0 *
Fa
0  0.000000100000000 2 0

0101000
+12 0 *
Ve
0.000010000000000
4.917000000000000 0.000000000000000 -4.950000000000000
0 0

0101101
*
Ed
 0.000000100000000 1 1 0
1  5 0 0.000000000000000 6.283185307179586
2  6 3 0 0.000000000000000 6.283185307179586
4 C0 4 0 3 0
0

0101000
-10 0 +10 0 *
Wi

0101100
+9 0 *
Wi

0101100
-14 0 *
Fa
0  0.000000100000000 4 0

0101000
+8 0 +7 0 *
Ed
 0.000010000000000 1 1 0
1  6 0 -0.249000000000000 0.000000000000000
3  7 8CN 3 0 -0.249000000000000 0.000000000000000
0

0101000
+19 0 -10 0 *
Wi

0101100
+18 0 +5 0 -9 0 -5 0 *
Fa
0  0.000000100000000 3 0

0101000
+4 0 *
Sh

0101100
+16 0 -11 0 +6 0 +3 0 *
So

0100000
+2 0 *

+1 1 