
CASCADE Topology V1, (c) Matra-Datavision
Locations 9
1
1.000000000000000 0.000000000000000 0.000000000000000 0.000000000000000 
0.000000000000000 1.000000000000000 0.000000000000000 0.000000000000000 
0.000000000000000 0.000000000000000 1.000000000000000 0.000000000000000 
1
-1.000000000000000 0.000000000000000 0.000000000000000 0.000000000000000 
0.000000000000000 0.000000000000000 1.000000000000000 -0.000000000000001 
0.000000000000000 1.000000000000000 -0.000000000000000 0.000000000000000 
1
1.000000000000000 0.000000000000000 0.000000000000000 0.000000000000000 
0.000000000000000 1.000000000000000 0.000000000000000 0.000000000000000 
0.000000000000000 0.000000000000000 1.000000000000000 0.000000000000000 
2  1 1 2 1 3 -1 0
1
1.000000000000000 0.000000000000000 0.000000000000000 0.000000000000000 
0.000000000000000 1.000000000000000 0.000000000000000 -25.000000000000000 
0.000000000000000 0.000000000000000 1.000000000000000 0.000000000000006 
2  1 1 2 1 3 -1 5 1 0
2  3 -1 0
2  1 1 2 1 0
2  3 -1 5 1 0
Curve2ds 0
Curves 28
1 37.00000000000000000 -0.00000000000000105 -1.00000000000000000 0.00000000000000000 -1.00000000000000000 0.00000000000000022 
1 37.00000000000000000 0.00000000000000161 11.00000000000000000 0.00000000000000000 -1.00000000000000000 0.00000000000000022 
1 -37.00000000000000000 -1.00000000000000000 0.00000000000000000 0.00000000000000000 1.00000000000000000 0.00000000000000000 
1 -14.50000000000000000 0.00000000000000161 11.00000000000000000 0.00000000000000000 -1.00000000000000000 0.00000000000000022 
1 -37.00000000000000000 11.00000000000000000 0.00000000000000000 1.00000000000000000 0.00000000000000000 0.00000000000000000 
1 -14.50000000000000000 0.00000000000000172 11.50000000000000000 0.00000000000000000 -1.00000000000000000 0.00000000000000022 
1 14.50000000000000000 11.00000000000000000 0.00000000000000000 0.00000000000000000 1.00000000000000000 0.00000000000000000 
1 -38.00000000000000000 0.00000000000000172 11.50000000000000000 0.00000000000000000 -1.00000000000000000 0.00000000000000022 
1 14.50000000000000000 11.50000000000000000 0.00000000000000000 1.00000000000000000 0.00000000000000000 0.00000000000000000 
1 -38.00000000000000000 -0.00000000000000083 0.00000000000000000 0.00000000000000000 -1.00000000000000000 0.00000000000000022 
1 38.00000000000000000 11.50000000000000000 0.00000000000000000 0.00000000000000000 -1.00000000000000000 0.00000000000000000 
1 -53.00000000000000000 -0.00000000000000083 0.00000000000000000 0.00000000000000000 -1.00000000000000000 0.00000000000000022 
1 38.00000000000000000 0.00000000000000000 0.00000000000000000 1.00000000000000000 0.00000000000000000 0.00000000000000000 
1 -53.00000000000000000 -0.00000000000000328 -11.00000000000000000 0.00000000000000000 -1.00000000000000000 0.00000000000000022 
1 53.00000000000000000 0.00000000000000000 0.00000000000000000 0.00000000000000000 -1.00000000000000000 0.00000000000000000 
1 -38.00000000000000000 -0.00000000000000328 -11.00000000000000000 0.00000000000000000 -1.00000000000000000 0.00000000000000022 
1 53.00000000000000000 -11.00000000000000000 0.00000000000000000 -1.00000000000000000 0.00000000000000000 0.00000000000000000 
1 -38.00000000000000000 -0.00000000000000505 -19.00000000000000000 0.00000000000000000 -1.00000000000000000 0.00000000000000022 
1 38.00000000000000000 -11.00000000000000000 0.00000000000000000 0.00000000000000000 -1.00000000000000000 0.00000000000000000 
1 -19.00000000000000000 -0.00000000000000505 -19.00000000000000000 0.00000000000000000 -1.00000000000000000 0.00000000000000022 
1 38.00000000000000000 -19.00000000000000000 0.00000000000000000 -1.00000000000000000 0.00000000000000000 0.00000000000000000 
1 -19.00000000000000000 -0.00000000000000328 -11.00000000000000000 0.00000000000000000 -1.00000000000000000 0.00000000000000022 
1 19.00000000000000000 -19.00000000000000000 0.00000000000000000 0.00000000000000000 1.00000000000000000 0.00000000000000000 
1 9.00000000000000000 -0.00000000000000328 -11.00000000000000000 0.00000000000000000 -1.00000000000000000 0.00000000000000022 
1 19.00000000000000000 -11.00000000000000000 0.00000000000000000 -1.00000000000000000 0.00000000000000000 0.00000000000000000 
1 9.00000000000000000 -0.00000000000000105 -1.00000000000000000 0.00000000000000000 -1.00000000000000000 0.00000000000000022 
1 -9.00000000000000000 -11.00000000000000000 0.00000000000000000 0.00000000000000000 1.00000000000000000 0.00000000000000000 
1 -9.00000000000000000 -1.00000000000000000 0.00000000000000000 -1.00000000000000000 0.00000000000000000 0.00000000000000000 
Polygon3D 0
PolygonOnTriangulations 0
Surfaces 15
1 37.00000000000000000 -0.00000000000000105 -1.00000000000000000 -1.00000000000000000 0.00000000000000000 0.00000000000000000 0.00000000000000000 0.00000000000000022 1.00000000000000000 0.00000000000000000 1.00000000000000000 -0.00000000000000022 
1 37.00000000000000000 0.00000000000000161 11.00000000000000000 -0.00000000000000000 -0.00000000000000022 -1.00000000000000000 -1.00000000000000000 0.00000000000000000 0.00000000000000000 0.00000000000000000 1.00000000000000000 -0.00000000000000022 
1 -14.50000000000000000 0.00000000000000161 11.00000000000000000 -1.00000000000000000 0.00000000000000000 0.00000000000000000 0.00000000000000000 0.00000000000000022 1.00000000000000000 0.00000000000000000 1.00000000000000000 -0.00000000000000022 
1 -14.50000000000000000 0.00000000000000172 11.50000000000000000 -0.00000000000000000 -0.00000000000000022 -1.00000000000000000 -1.00000000000000000 0.00000000000000000 0.00000000000000000 0.00000000000000000 1.00000000000000000 -0.00000000000000022 
1 -38.00000000000000000 0.00000000000000172 11.50000000000000000 1.00000000000000000 0.00000000000000000 0.00000000000000000 0.00000000000000000 -0.00000000000000022 -1.00000000000000000 0.00000000000000000 1.00000000000000000 -0.00000000000000022 
1 -38.00000000000000000 -0.00000000000000083 0.00000000000000000 -0.00000000000000000 -0.00000000000000022 -1.00000000000000000 -1.00000000000000000 0.00000000000000000 0.00000000000000000 0.00000000000000000 1.00000000000000000 -0.00000000000000022 
1 -53.00000000000000000 -0.00000000000000083 0.00000000000000000 1.00000000000000000 0.00000000000000000 0.00000000000000000 0.00000000000000000 -0.00000000000000022 -1.00000000000000000 0.00000000000000000 1.00000000000000000 -0.00000000000000022 
1 -53.00000000000000000 -0.00000000000000328 -11.00000000000000000 -0.00000000000000000 0.00000000000000022 1.00000000000000000 1.00000000000000000 0.00000000000000000 0.00000000000000000 0.00000000000000000 1.00000000000000000 -0.00000000000000022 
1 -38.00000000000000000 -0.00000000000000328 -11.00000000000000000 1.00000000000000000 0.00000000000000000 0.00000000000000000 0.00000000000000000 -0.00000000000000022 -1.00000000000000000 0.00000000000000000 1.00000000000000000 -0.00000000000000022 
1 -38.00000000000000000 -0.00000000000000505 -19.00000000000000000 -0.00000000000000000 0.00000000000000022 1.00000000000000000 1.00000000000000000 0.00000000000000000 0.00000000000000000 0.00000000000000000 1.00000000000000000 -0.00000000000000022 
1 -19.00000000000000000 -0.00000000000000505 -19.00000000000000000 -1.00000000000000000 0.00000000000000000 0.00000000000000000 0.00000000000000000 0.00000000000000022 1.00000000000000000 0.00000000000000000 1.00000000000000000 -0.00000000000000022 
1 -19.00000000000000000 -0.00000000000000328 -11.00000000000000000 -0.00000000000000000 0.00000000000000022 1.00000000000000000 1.00000000000000000 0.00000000000000000 0.00000000000000000 0.00000000000000000 1.00000000000000000 -0.00000000000000022 
1 9.00000000000000000 -0.00000000000000328 -11.00000000000000000 -1.00000000000000000 0.00000000000000000 0.00000000000000000 0.00000000000000000 0.00000000000000022 1.00000000000000000 0.00000000000000000 1.00000000000000000 -0.00000000000000022 
1 9.00000000000000000 -0.00000000000000105 -1.00000000000000000 -0.00000000000000000 0.00000000000000022 1.00000000000000000 1.00000000000000000 0.00000000000000000 0.00000000000000000 0.00000000000000000 1.00000000000000000 -0.00000000000000022 
1 -9.91390041493775875 -0.00000000000000107 -1.05394190871369298 0.00000000000000000 1.00000000000000000 0.00000000000000000 0.00000000000000000 -0.00000000000000000 1.00000000000000000 1.00000000000000000 0.00000000000000000 -0.00000000000000000 
Triangulations 0

TShapes 74
Ve
0.000000100000000
-37.000000000000000 -1.000000000000000 0.000000000000000
0 0

0101101
*
Ed
 0.000000100000000 1 1 0
1  1 0 0.000000000000000 25.000000000000000
0

0101000
+74 4 -74 6 *
Ve
0.000000100000000
-37.000000000000000 11.000000000000000 0.000000000000000
0 0

0101101
*
Ed
 0.000000100000000 1 1 0
1  2 0 0.000000000000000 25.000000000000000
0

0101000
+72 4 -72 6 *
Ed
 0.000000100000000 1 1 0
1  3 0 0.000000000000000 12.000000000000000
0

0101000
+74 0 -72 0 *
Wi

0101100
+73 0 -71 0 -70 4 +70 6 *
Fa
0  0.000000100000000 1 0

0101000
+69 0 *
Ve
0.000000100000000
14.500000000000000 11.000000000000000 0.000000000000000
0 0

0101101
*
Ed
 0.000000100000000 1 1 0
1  4 0 0.000000000000000 25.000000000000000
0

0101000
+67 4 -67 6 *
Ed
 0.000000100000000 1 1 0
1  5 0 0.000000000000000 51.500000000000000
0

0101000
+72 0 -67 0 *
Wi

0101100
+71 0 -66 0 -65 4 +65 6 *
Fa
0  0.000000100000000 2 0

0101000
+64 0 *
Ve
0.000000100000000
14.500000000000000 11.500000000000000 0.000000000000000
0 0

0101101
*
Ed
 0.000000100000000 1 1 0
1  6 0 0.000000000000000 25.000000000000000
0

0101000
+62 4 -62 6 *
Ed
 0.000000100000000 1 1 0
1  7 0 0.000000000000000 0.500000000000000
0

0101000
+67 0 -62 0 *
Wi

0101100
+66 0 -61 0 -60 4 +60 6 *
Fa
0  0.000000100000000 3 0

0101000
+59 0 *
Ve
0.000000100000000
38.000000000000000 11.500000000000000 0.000000000000000
0 0

0101101
*
Ed
 0.000000100000000 1 1 0
1  8 0 0.000000000000000 25.000000000000000
0

0101000
+57 4 -57 6 *
Ed
 0.000000100000000 1 1 0
1  9 0 0.000000000000000 23.500000000000000
0

0101000
+62 0 -57 0 *
Wi

0101100
+61 0 -56 0 -55 4 +55 6 *
Fa
0  0.000000100000000 4 0

0101000
+54 0 *
Ve
0.000000100000000
38.000000000000000 0.000000000000000 0.000000000000000
0 0

0101101
*
Ed
 0.000000100000000 1 1 0
1  10 0 0.000000000000000 25.000000000000000
0

0101000
+52 4 -52 6 *
Ed
 0.000000100000000 1 1 0
1  11 0 0.000000000000000 11.500000000000000
0

0101000
+57 0 -52 0 *
Wi

0101100
+56 0 -51 0 -50 4 +50 6 *
Fa
0  0.000000100000000 5 0

0101000
+49 0 *
Ve
0.000000100000000
53.000000000000000 0.000000000000000 0.000000000000000
0 0

0101101
*
Ed
 0.000000100000000 1 1 0
1  12 0 0.000000000000000 25.000000000000000
0

0101000
+47 4 -47 6 *
Ed
 0.000000100000000 1 1 0
1  13 0 0.000000000000000 15.000000000000000
0

0101000
+52 0 -47 0 *
Wi

0101100
+51 0 -46 0 -45 4 +45 6 *
Fa
0  0.000000100000000 6 0

0101000
+44 0 *
Ve
0.000000100000000
53.000000000000000 -11.000000000000000 0.000000000000000
0 0

0101101
*
Ed
 0.000000100000000 1 1 0
1  14 0 0.000000000000000 25.000000000000000
0

0101000
+42 4 -42 6 *
Ed
 0.000000100000000 1 1 0
1  15 0 0.000000000000000 11.000000000000000
0

0101000
+47 0 -42 0 *
Wi

0101100
+46 0 -41 0 -40 4 +40 6 *
Fa
0  0.000000100000000 7 0

0101000
+39 0 *
Ve
0.000000100000000
38.000000000000000 -11.000000000000000 0.000000000000000
0 0

0101101
*
Ed
 0.000000100000000 1 1 0
1  16 0 0.000000000000000 25.000000000000000
0

0101000
+37 4 -37 6 *
Ed
 0.000000100000000 1 1 0
1  17 0 0.000000000000000 15.000000000000000
0

0101000
+42 0 -37 0 *
Wi

0101100
+41 0 -36 0 -35 4 +35 6 *
Fa
0  0.000000100000000 8 0

0101000
+34 0 *
Ve
0.000000100000000
38.000000000000000 -19.000000000000000 0.000000000000000
0 0

0101101
*
Ed
 0.000000100000000 1 1 0
1  18 0 0.000000000000000 25.000000000000000
0

0101000
+32 4 -32 6 *
Ed
 0.000000100000000 1 1 0
1  19 0 0.000000000000000 8.000000000000000
0

0101000
+37 0 -32 0 *
Wi

0101100
+36 0 -31 0 -30 4 +30 6 *
Fa
0  0.000000100000000 9 0

0101000
+29 0 *
Ve
0.000000100000000
19.000000000000000 -19.000000000000000 0.000000000000000
0 0

0101101
*
Ed
 0.000000100000000 1 1 0
1  20 0 0.000000000000000 25.000000000000000
0

0101000
+27 4 -27 6 *
Ed
 0.000000100000000 1 1 0
1  21 0 0.000000000000000 19.000000000000000
0

0101000
+32 0 -27 0 *
Wi

0101100
+31 0 -26 0 -25 4 +25 6 *
Fa
0  0.000000100000000 10 0

0101000
+24 0 *
Ve
0.000000100000000
19.000000000000000 -11.000000000000000 0.000000000000000
0 0

0101101
*
Ed
 0.000000100000000 1 1 0
1  22 0 0.000000000000000 25.000000000000000
0

0101000
+22 4 -22 6 *
Ed
 0.000000100000000 1 1 0
1  23 0 0.000000000000000 8.000000000000000
0

0101000
+27 0 -22 0 *
Wi

0101100
+26 0 -21 0 -20 4 +20 6 *
Fa
0  0.000000100000000 11 0

0101000
+19 0 *
Ve
0.000000100000000
-9.000000000000000 -11.000000000000000 0.000000000000000
0 0

0101101
*
Ed
 0.000000100000000 1 1 0
1  24 0 0.000000000000000 25.000000000000000
0

0101000
+17 4 -17 6 *
Ed
 0.000000100000000 1 1 0
1  25 0 0.000000000000000 28.000000000000000
0

0101000
+22 0 -17 0 *
Wi

0101100
+21 0 -16 0 -15 4 +15 6 *
Fa
0  0.000000100000000 12 0

0101000
+14 0 *
Ve
0.000000100000000
-9.000000000000000 -1.000000000000000 0.000000000000000
0 0

0101101
*
Ed
 0.000000100000000 1 1 0
1  26 0 0.000000000000000 25.000000000000000
0

0101000
+12 4 -12 6 *
Ed
 0.000000100000000 1 1 0
1  27 0 0.000000000000000 10.000000000000000
0

0101000
+17 0 -12 0 *
Wi

0101100
+16 0 -11 0 -10 4 +10 6 *
Fa
0  0.000000100000000 13 0

0101000
+9 0 *
Ed
 0.000000100000000 1 1 0
1  28 0 0.000000000000000 28.000000000000000
0

0101000
+12 0 -74 0 *
Wi

0101100
+11 0 -73 0 -7 4 +7 6 *
Fa
0  0.000000100000000 14 0

0101000
+6 0 *
Wi

0101100
+70 0 +65 0 +60 0 +55 0 +50 0 +45 0 +40 0 +35 0 +30 0 +25 0 
+20 0 +15 0 +10 0 +7 0 *
Fa
0  0.000000100000000 15 0

0101000
-4 8 *
Sh

0101100
-68 0 -63 0 -58 0 -53 0 -48 0 -43 0 -38 0 -33 0 -28 0 -23 0 
-18 0 -13 0 -8 0 -5 0 +3 7 -3 9 *
So

1100000
+2 0 *

+1 0 