
CASCADE Topology V1, (c) Matra-Datavision
Locations 45
1
0.984807753012208 -0.173648177666930 0.000000000000000 25.560000000000002 
0.173648177666930 0.984807753012208 0.000000000000000 0.000000000000000 
0.000000000000000 0.000000000000000 1.000000000000000 4.020000000000000 
1
1.000000000000000 0.000000000000000 0.000000000000000 0.000000000000000 
0.000000000000000 1.000000000000000 0.000000000000000 0.000000000000000 
0.000000000000000 0.000000000000000 1.000000000000000 0.000000000000000 
1
1.000000000000000 0.000000000000000 0.000000000000000 0.000000000000000 
0.000000000000000 1.000000000000000 0.000000000000000 0.000000000000000 
0.000000000000000 0.000000000000000 1.000000000000000 0.000000000000000 
1
1.000000000000000 0.000000000000000 0.000000000000000 0.000000000000000 
0.000000000000000 1.000000000000000 0.000000000000000 0.000000000000000 
0.000000000000000 0.000000000000000 1.000000000000000 0.000000000000000 
1
1.000000000000000 0.000000000000000 0.000000000000000 0.000000000000000 
0.000000000000000 1.000000000000000 0.000000000000000 0.000000000000000 
0.000000000000000 0.000000000000000 1.000000000000000 0.000000000000000 
2  2 1 3 -1 4 1 5 -1 0
1
1.000000000000000 0.000000000000000 0.000000000000000 0.000000000000000 
0.000000000000000 1.000000000000000 0.000000000000000 0.000000000000000 
0.000000000000000 0.000000000000000 1.000000000000000 0.000000000000000 
2  7 -1 5 1 4 -1 3 1 2 -1 0
1
1.000000000000000 0.000000000000000 0.000000000000000 0.000000000000000 
0.000000000000000 1.000000000000000 0.000000000000000 0.000000000000000 
0.000000000000000 0.000000000000000 1.000000000000000 0.000000000000000 
1
1.000000000000000 0.000000000000000 0.000000000000000 0.000000000000000 
0.000000000000000 1.000000000000000 0.000000000000000 0.000000000000000 
0.000000000000000 0.000000000000000 1.000000000000000 0.000000000000000 
1
1.000000000000000 0.000000000000000 0.000000000000000 0.000000000000000 
0.000000000000000 1.000000000000000 0.000000000000000 0.000000000000000 
0.000000000000000 0.000000000000000 1.000000000000000 0.000000000000000 
2  9 1 10 1 11 -1 0
2  7 -1 5 1 4 -1 3 1 2 -1 11 1 10 -1 9 -1 0
1
1.000000000000000 0.000000000000000 0.000000000000000 0.000000000000000 
0.000000000000000 1.000000000000000 0.000000000000000 0.000000000000000 
0.000000000000000 0.000000000000000 1.000000000000000 6.000000000000000 
2  9 1 10 1 11 -1 14 1 0
2  7 -1 5 1 4 -1 3 1 2 -1 14 -1 11 1 10 -1 9 -1 0
2  11 -1 2 1 3 -1 4 1 5 -1 0
2  9 1 10 1 0
2  4 1 5 -1 0
2  11 -1 14 1 2 1 3 -1 0
2  9 1 10 1 11 -1 14 1 2 1 3 -1 0
1
1.000000000000000 0.000000000000000 0.000000000000000 0.000000000000000 
0.000000000000000 1.000000000000000 0.000000000000000 0.000000000000000 
0.000000000000000 0.000000000000000 1.000000000000000 0.000000000000000 
1
1.000000000000000 0.000000000000000 0.000000000000000 0.000000000000000 
0.000000000000000 1.000000000000000 0.000000000000000 0.000000000000000 
0.000000000000000 0.000000000000000 1.000000000000000 6.000000000000000 
2  22 1 23 1 3 -1 0
2  3 1 23 -1 22 -1 0
2  7 -1 5 1 4 -1 3 1 23 -1 22 -1 0
2  7 -1 5 1 4 -1 0
1
1.000000000000000 0.000000000000000 0.000000000000000 0.000000000000000 
0.000000000000000 1.000000000000000 0.000000000000000 0.000000000000000 
0.000000000000000 0.000000000000000 1.000000000000000 12.000000000000000 
2  22 1 23 1 3 -1 28 1 0
2  28 -1 3 1 23 -1 22 -1 0
2  7 -1 5 1 4 -1 28 -1 3 1 23 -1 22 -1 0
2  3 -1 28 1 4 1 5 -1 0
2  22 1 23 1 3 -1 28 1 4 1 5 -1 0
1
1.000000000000000 0.000000000000000 0.000000000000000 0.000000000000000 
0.000000000000000 1.000000000000000 0.000000000000000 0.000000000000000 
0.000000000000000 0.000000000000000 1.000000000000000 0.000000000000000 
1
1.000000000000000 0.000000000000000 0.000000000000000 0.000000000000000 
0.000000000000000 1.000000000000000 0.000000000000000 0.000000000000000 
0.000000000000000 0.000000000000000 1.000000000000000 18.000000000000000 
2  34 1 35 1 5 -1 0
2  5 1 35 -1 34 -1 0
2  7 -1 5 1 35 -1 34 -1 0
2  7 -1 0
1
1.000000000000000 0.000000000000000 0.000000000000000 -0.000000000000000 
0.000000000000000 1.000000000000000 0.000000000000000 -0.000000000000000 
0.000000000000000 0.000000000000000 1.000000000000000 -12.000000000000000 
2  34 1 35 1 5 -1 40 1 0
2  40 -1 5 1 35 -1 34 -1 0
2  7 -1 40 -1 5 1 35 -1 34 -1 0
2  5 -1 40 1 0
2  34 1 35 1 0
Curve2ds 8
1 0.00000000000000000 0.00000000000000000 1.00000000000000000 0.00000000000000000 
1 0.00000000000000000 0.00000000000000000 0.00000000000000000 -1.00000000000000000 
1 6.28318530717958623 0.00000000000000000 0.00000000000000000 -1.00000000000000000 
1 0.00000000000000000 -12.00000000000000000 1.00000000000000000 0.00000000000000000 
1 0.00000000000000000 0.00000000000000000 1.00000000000000000 0.00000000000000000 
1 0.00000000000000000 0.00000000000000000 0.00000000000000000 -1.00000000000000000 
1 6.28318530717958623 0.00000000000000000 0.00000000000000000 -1.00000000000000000 
1 0.00000000000000000 -12.00000000000000000 1.00000000000000000 0.00000000000000000 
Curves 24
1 6.87046820335654651 0.00000000000000000 0.00000000000000000 0.00000000000000000 0.00000000000000000 1.00000000000000000 
1 3.43523410167827326 5.95000000000000018 0.00000000000000000 0.00000000000000000 0.00000000000000000 1.00000000000000000 
1 6.87046820335654651 0.00000000000000000 0.00000000000000000 -0.50000000000000000 0.86602540378443871 0.00000000000000000 
1 6.87046820335654651 0.00000000000000000 0.00000000000000000 -0.50000000000000000 0.86602540378443871 0.00000000000000000 
1 3.43523410167827326 -5.95000000000000018 0.00000000000000000 0.00000000000000000 0.00000000000000000 1.00000000000000000 
1 3.43523410167827326 -5.95000000000000018 0.00000000000000000 0.50000000000000000 0.86602540378443871 0.00000000000000000 
1 3.43523410167827326 -5.95000000000000018 0.00000000000000000 0.50000000000000000 0.86602540378443871 0.00000000000000000 
1 -3.43523410167827326 5.95000000000000018 0.00000000000000000 0.00000000000000000 0.00000000000000000 1.00000000000000000 
1 3.43523410167827326 5.95000000000000018 0.00000000000000000 -1.00000000000000000 0.00000000000000000 0.00000000000000000 
1 3.43523410167827326 5.95000000000000018 0.00000000000000000 -1.00000000000000000 0.00000000000000000 0.00000000000000000 
1 -3.43523410167827326 5.95000000000000018 0.00000000000000000 -0.50000000000000000 -0.86602540378443871 0.00000000000000000 
1 -6.87046820335654651 0.00000000000000000 0.00000000000000000 0.50000000000000000 -0.86602540378443871 0.00000000000000000 
1 -3.43523410167827326 -5.95000000000000018 0.00000000000000000 1.00000000000000000 0.00000000000000000 0.00000000000000000 
1 -3.43523410167827326 -5.95000000000000018 0.00000000000000000 1.00000000000000000 0.00000000000000000 0.00000000000000000 
1 -3.43523410167827326 5.95000000000000018 0.00000000000000000 -0.50000000000000000 -0.86602540378443871 0.00000000000000000 
1 -6.87046820335654651 0.00000000000000000 0.00000000000000000 0.50000000000000000 -0.86602540378443871 0.00000000000000000 
2 0.00000000000000000 0.00000000000000000 0.00000000000000000 0.00000000000000000 0.00000000000000000 1.00000000000000000 1.00000000000000000 0.00000000000000000 0.00000000000000000 0.00000000000000000 1.00000000000000000 0.00000000000000000 5.70000000000000018
1 -3.43523410167827326 -5.95000000000000018 0.00000000000000000 0.00000000000000000 0.00000000000000000 1.00000000000000000 
1 -6.87046820335654651 0.00000000000000000 0.00000000000000000 0.00000000000000000 0.00000000000000000 1.00000000000000000 
1 5.70000000000000018 0.00000000000000000 6.00000000000000000 0.00000000000000000 0.00000000000000000 1.00000000000000000 
2 0.00000000000000000 0.00000000000000000 0.00000000000000000 0.00000000000000000 0.00000000000000000 1.00000000000000000 1.00000000000000000 0.00000000000000000 0.00000000000000000 0.00000000000000000 1.00000000000000000 0.00000000000000000 5.70000000000000018
2 0.00000000000000000 0.00000000000000000 0.00000000000000000 0.00000000000000000 0.00000000000000000 1.00000000000000000 1.00000000000000000 0.00000000000000000 0.00000000000000000 0.00000000000000000 1.00000000000000000 0.00000000000000000 1.60000000000000009
1 1.60000000000000009 0.00000000000000000 18.00000000000000000 -0.00000000000000000 -0.00000000000000000 -1.00000000000000000 
2 0.00000000000000000 0.00000000000000000 0.00000000000000000 0.00000000000000000 0.00000000000000000 1.00000000000000000 1.00000000000000000 0.00000000000000000 0.00000000000000000 0.00000000000000000 1.00000000000000000 0.00000000000000000 1.60000000000000009
Polygon3D 0
PolygonOnTriangulations 0
Surfaces 12
1 6.87046820335654651 0.00000000000000000 0.00000000000000000 -0.86602540378443871 -0.50000000000000000 0.00000000000000000 -0.50000000000000000 0.86602540378443871 0.00000000000000000 0.00000000000000000 0.00000000000000000 -1.00000000000000000 
1 3.43523410167827326 -5.95000000000000018 0.00000000000000000 -0.86602540378443871 0.50000000000000000 0.00000000000000000 0.50000000000000000 0.86602540378443871 0.00000000000000000 0.00000000000000000 0.00000000000000000 -1.00000000000000000 
1 3.43523410167827326 5.95000000000000018 0.00000000000000000 0.00000000000000000 -1.00000000000000000 0.00000000000000000 -1.00000000000000000 0.00000000000000000 0.00000000000000000 -0.00000000000000000 -0.00000000000000000 -1.00000000000000000 
1 -0.00000000000000009 -0.00000000000000017 0.00000000000000000 0.00000000000000000 0.00000000000000000 1.00000000000000000 1.00000000000000000 0.00000000000000000 0.00000000000000000 0.00000000000000000 1.00000000000000000 0.00000000000000000 
1 -0.00000000000000009 -0.00000000000000017 0.00000000000000000 0.00000000000000000 0.00000000000000000 1.00000000000000000 1.00000000000000000 0.00000000000000000 0.00000000000000000 0.00000000000000000 1.00000000000000000 0.00000000000000000 
2 0.00000000000000000 0.00000000000000000 6.00000000000000000 -0.00000000000000000 -0.00000000000000000 -1.00000000000000000 1.00000000000000000 0.00000000000000000 0.00000000000000000 0.00000000000000000 1.00000000000000000 0.00000000000000000 5.70000000000000018
1 -3.43523410167827326 -5.95000000000000018 0.00000000000000000 0.00000000000000000 1.00000000000000000 0.00000000000000000 1.00000000000000000 0.00000000000000000 0.00000000000000000 0.00000000000000000 0.00000000000000000 -1.00000000000000000 
1 -3.43523410167827326 5.95000000000000018 0.00000000000000000 0.86602540378443871 -0.50000000000000000 0.00000000000000000 -0.50000000000000000 -0.86602540378443871 0.00000000000000000 0.00000000000000000 0.00000000000000000 -1.00000000000000000 
1 -6.87046820335654651 0.00000000000000000 0.00000000000000000 0.86602540378443871 0.50000000000000000 0.00000000000000000 0.50000000000000000 -0.86602540378443871 0.00000000000000000 0.00000000000000000 0.00000000000000000 -1.00000000000000000 
1 -0.00000000000000036 0.00000000000000049 5.99999999999999911 0.00000000000000000 0.00000000000000000 1.00000000000000000 1.00000000000000000 0.00000000000000000 0.00000000000000000 0.00000000000000000 1.00000000000000000 0.00000000000000000 
2 0.00000000000000000 0.00000000000000000 18.00000000000000000 0.00000000000000000 0.00000000000000000 1.00000000000000000 1.00000000000000000 0.00000000000000000 0.00000000000000000 0.00000000000000000 1.00000000000000000 0.00000000000000000 1.60000000000000009
1 -0.00000000000000005 0.00000000000000015 17.99999999999999645 0.00000000000000000 0.00000000000000000 1.00000000000000000 1.00000000000000000 0.00000000000000000 0.00000000000000000 0.00000000000000000 1.00000000000000000 0.00000000000000000 
Triangulations 0

TShapes 68
Ve
0.000000100000000
6.870468203356547 0.000000000000000 0.000000000000000
0 0

0101101
*
Ve
0.000000100000000
6.870468203356547 0.000000000000000 6.000000000000000
0 0

0101101
*
Ed
 0.000000100000000 1 1 0
1  1 0 0.000000000000000 6.000000000000000
0

0101000
+68 8 -67 8 *
Ve
0.000000100000000
3.435234101678273 5.950000000000000 0.000000000000000
0 0

0101101
*
Ve
0.000000100000000
3.435234101678273 5.950000000000000 6.000000000000000
0 0

0101101
*
Ed
 0.000000100000000 1 1 0
1  2 0 0.000000000000000 6.000000000000000
0

0101000
+65 8 -64 8 *
Ed
 0.000000100000000 1 1 0
1  3 0 0.000000000000000 6.870468203356547
0

0101000
+68 13 -65 13 *
Ed
 0.000000100000000 1 1 0
1  4 0 0.000000000000000 6.870468203356547
0

0101000
+67 16 -64 16 *
Wi

0101100
+66 0 -63 0 -62 12 +61 15 *
Fa
0  0.000000100000000 1 0

0101000
+60 0 *
Ve
0.000000100000000
3.435234101678273 -5.950000000000000 0.000000000000000
0 0

0101101
*
Ve
0.000000100000000
3.435234101678273 -5.950000000000000 6.000000000000000
0 0

0101101
*
Ed
 0.000000100000000 1 1 0
1  5 0 0.000000000000000 6.000000000000000
0

0101000
+58 8 -57 8 *
Ed
 0.000000100000000 1 1 0
1  6 0 0.000000000000000 6.870468203356547
0

0101000
+58 13 -68 13 *
Ed
 0.000000100000000 1 1 0
1  7 0 0.000000000000000 6.870468203356547
0

0101000
+57 16 -67 16 *
Wi

0101100
+56 0 -66 0 -55 12 +54 15 *
Fa
0  0.000000100000000 2 0

0101000
+53 0 *
Ve
0.000000100000000
-3.435234101678273 5.950000000000000 0.000000000000000
0 0

0101101
*
Ve
0.000000100000000
-3.435234101678273 5.950000000000000 6.000000000000000
0 0

0101101
*
Ed
 0.000000100000000 1 1 0
1  8 0 0.000000000000000 6.000000000000000
0

0101000
+51 8 -50 8 *
Ed
 0.000000100000000 1 1 0
1  9 0 0.000000000000000 6.870468203356547
0

0101000
+65 13 -51 13 *
Ed
 0.000000100000000 1 1 0
1  10 0 0.000000000000000 6.870468203356547
0

0101000
+64 16 -50 16 *
Wi

0101100
+63 0 -49 0 -48 12 +47 15 *
Fa
0  0.000000100000000 3 0

0101000
+46 0 *
Ve
0.000000100000000
-6.870468203356547 0.000000000000000 0.000000000000000
0 0

0101101
*
Ed
 0.000000100000000 1 1 0
1  11 0 0.000000000000000 6.870468203356547
0

0101000
+51 13 -44 13 *
Ve
0.000000100000000
-3.435234101678273 -5.950000000000000 0.000000000000000
0 0

0101101
*
Ed
 0.000000100000000 1 1 0
1  12 0 0.000000000000000 6.870468203356547
0

0101000
+44 13 -42 13 *
Ed
 0.000000100000000 1 1 0
1  13 0 0.000000000000000 6.870468203356547
0

0101000
+42 13 -58 13 *
Wi

0101100
+62 0 +48 0 +43 0 +41 0 +40 0 +55 0 *
Fa
0  0.000000100000000 4 0

0101000
+39 18 *
Ve
0.000000100000000
-3.435234101678273 -5.950000000000000 6.000000000000000
0 0

0101101
*
Ed
 0.000000100000000 1 1 0
1  14 0 0.000000000000000 6.870468203356547
0

0101000
+37 16 -57 16 *
Ve
0.000000100000000
-6.870468203356547 0.000000000000000 6.000000000000000
0 0

0101101
*
Ed
 0.000000100000000 1 1 0
1  15 0 0.000000000000000 6.870468203356547
0

0101000
+50 16 -35 16 *
Ed
 0.000000100000000 1 1 0
1  16 0 0.000000000000000 6.870468203356547
0

0101000
+35 16 -37 16 *
Wi

0101100
+61 21 +54 21 +47 21 +36 21 +34 21 +33 21 *
Ve
0.000000100000000
5.700000000000000 0.000000000000000 6.000000000000000
0 0

0101101
*
Ed
 0.000000100000000 1 1 0
1  17 0 0.000000000000000 6.283185307179586
2  1 6 25 0.000000000000000 6.283185307179586
0

0101000
+31 26 -31 26 *
Wi

0101100
-30 24 *
Fa
0  0.000000100000000 5 20

0101000
+32 0 +29 0 *
Ed
 0.000000100000000 1 1 0
1  18 0 0.000000000000000 6.000000000000000
0

0101000
+42 8 -37 8 *
Wi

0101100
+27 0 -56 0 -40 12 +36 15 *
Fa
0  0.000000100000000 7 0

0101000
+26 0 *
Ed
 0.000000100000000 1 1 0
1  19 0 0.000000000000000 6.000000000000000
0

0101000
+44 8 -35 8 *
Wi

0101100
+49 0 -24 0 -43 12 +34 15 *
Fa
0  0.000000100000000 8 0

0101000
+23 0 *
Wi

0101100
+24 0 -27 0 -41 12 +33 15 *
Fa
0  0.000000100000000 9 0

0101000
+21 0 *
Ve
0.000000100000000
5.700000000000000 0.000000000000000 18.000000000000000
0 0

0101101
*
Ed
 0.000000100000000 1 1 0
1  20 0 0.000000000000000 12.000000000000000
3  2 3CN 6 0 0.000000000000000 12.000000000000000
0

0101000
+31 27 -19 27 *
Ed
 0.000000100000000 1 1 0
1  21 0 0.000000000000000 6.283185307179586
2  4 6 30 0.000000000000000 6.283185307179586
0

0101100
+19 31 -19 31 *
Wi

0101100
+18 0 -18 0 -30 24 +17 29 *
Fa
0  0.000000100000000 6 0

0101000
+16 0 *
Wi

0101100
+17 33 *
Ve
0.000000100000000
1.600000000000000 0.000000000000000 18.000000000000000
0 0

0101101
*
Ed
 0.000000100000000 1 1 0
1  22 0 0.000000000000000 6.283185307179586
2  5 11 37 0.000000000000000 6.283185307179586
0

0101000
+13 38 -13 38 *
Wi

0101100
-12 36 *
Fa
0  0.000000100000000 10 32

0101000
+14 0 +11 0 *
Ve
0.000000100000000
1.600000000000000 0.000000000000000 6.000000000000000
0 0

0101101
*
Ed
 0.000000100000000 1 1 0
1  23 0 0.000000000000000 12.000000000000000
3  6 7CN 11 0 0.000000000000000 12.000000000000000
0

0101000
+13 39 -9 39 *
Ed
 0.000000100000000 1 1 0
1  24 0 0.000000000000000 6.283185307179586
2  8 11 42 0.000000000000000 6.283185307179586
0

0101100
+9 43 -9 43 *
Wi

0101100
+8 0 -8 0 -12 36 +7 41 *
Fa
0  0.000000100000000 11 0

0101000
+6 0 *
Wi

0101100
+7 0 *
Fa
0  0.000000100000000 12 0

0101000
+4 45 *
Sh

0101100
-59 6 -52 6 -45 6 -38 17 +28 19 -25 6 -22 6 -20 6 -15 19 +10 0 
-5 0 +3 44 *
So

1100000
+2 0 *

+1 1 