
CASCADE Topology V1, (c) Matra-Datavision
Locations 23
1
1.000000000000000 0.000000000000000 0.000000000000000 0.000000000000000 
0.000000000000000 1.000000000000000 0.000000000000000 0.000000000000000 
0.000000000000000 0.000000000000000 1.000000000000000 0.000000000000000 
1
1.000000000000000 0.000000000000000 0.000000000000000 0.000000000000000 
0.000000000000000 1.000000000000000 0.000000000000000 0.000000000000000 
0.000000000000000 0.000000000000000 1.000000000000000 0.000000000000000 
1
1.000000000000000 0.000000000000000 0.000000000000000 0.000000000000000 
0.000000000000000 1.000000000000000 0.000000000000000 0.000000000000000 
0.000000000000000 0.000000000000000 1.000000000000000 0.000000000000000 
2  2 1 3 -1 0
1
1.000000000000000 0.000000000000000 0.000000000000000 0.000000000000000 
0.000000000000000 1.000000000000000 0.000000000000000 0.000000000000000 
0.000000000000000 0.000000000000000 1.000000000000000 0.000000000000000 
1
1.000000000000000 0.000000000000000 0.000000000000000 0.000000000000000 
0.000000000000000 1.000000000000000 0.000000000000000 0.000000000000000 
0.000000000000000 0.000000000000000 1.000000000000000 0.000000000000000 
1
1.000000000000000 0.000000000000000 0.000000000000000 0.000000000000000 
0.000000000000000 1.000000000000000 0.000000000000000 0.000000000000000 
0.000000000000000 0.000000000000000 1.000000000000000 0.000000000000000 
2  5 1 6 1 7 -1 0
1
1.000000000000000 0.000000000000000 0.000000000000000 0.000000000000000 
0.000000000000000 1.000000000000000 0.000000000000000 0.000000000000000 
0.000000000000000 0.000000000000000 1.000000000000000 6.000000000000000 
2  5 1 6 1 7 -1 9 1 0
2  7 -1 2 1 3 -1 0
2  5 1 6 1 0
2  7 -1 9 1 2 1 3 -1 0
2  5 1 6 1 7 -1 9 1 2 1 3 -1 0
1
1.000000000000000 0.000000000000000 0.000000000000000 0.000000000000000 
0.000000000000000 1.000000000000000 0.000000000000000 0.000000000000000 
0.000000000000000 0.000000000000000 1.000000000000000 0.000000000000000 
1
1.000000000000000 0.000000000000000 0.000000000000000 0.000000000000000 
0.000000000000000 1.000000000000000 0.000000000000000 0.000000000000000 
0.000000000000000 0.000000000000000 1.000000000000000 6.000000000000000 
2  15 1 16 1 3 -1 0
2  3 1 16 -1 15 -1 0
1
1.000000000000000 0.000000000000000 0.000000000000000 0.000000000000000 
0.000000000000000 1.000000000000000 0.000000000000000 0.000000000000000 
0.000000000000000 0.000000000000000 1.000000000000000 12.000000000000000 
2  19 -1 3 1 16 -1 15 -1 0
2  15 1 16 1 3 -1 19 1 0
2  3 -1 19 1 0
2  15 1 16 1 0
Curve2ds 4
1 0.00000000000000000 0.00000000000000000 1.00000000000000000 0.00000000000000000 
1 0.00000000000000000 -12.00000000000000000 1.00000000000000000 0.00000000000000000 
1 0.00000000000000000 0.00000000000000000 0.00000000000000000 -1.00000000000000000 
1 6.28318530717958623 0.00000000000000000 0.00000000000000000 -1.00000000000000000 
Curves 14
1 6.87046820335654651 0.00000000000000000 0.00000000000000000 0.00000000000000000 0.00000000000000000 1.00000000000000000 
1 3.43523410167827326 5.95000000000000018 0.00000000000000000 0.00000000000000000 0.00000000000000000 1.00000000000000000 
1 6.87046820335654651 0.00000000000000000 0.00000000000000000 -0.50000000000000000 0.86602540378443871 0.00000000000000000 
1 3.43523410167827326 -5.95000000000000018 0.00000000000000000 0.00000000000000000 0.00000000000000000 1.00000000000000000 
1 3.43523410167827326 -5.95000000000000018 0.00000000000000000 0.50000000000000000 0.86602540378443871 0.00000000000000000 
1 -3.43523410167827326 5.95000000000000018 0.00000000000000000 0.00000000000000000 0.00000000000000000 1.00000000000000000 
1 3.43523410167827326 5.95000000000000018 0.00000000000000000 -1.00000000000000000 0.00000000000000000 0.00000000000000000 
1 -3.43523410167827326 5.95000000000000018 0.00000000000000000 -0.50000000000000000 -0.86602540378443871 0.00000000000000000 
1 -6.87046820335654651 0.00000000000000000 0.00000000000000000 0.50000000000000000 -0.86602540378443871 0.00000000000000000 
1 -3.43523410167827326 -5.95000000000000018 0.00000000000000000 1.00000000000000000 0.00000000000000000 0.00000000000000000 
2 0.00000000000000000 0.00000000000000000 0.00000000000000000 0.00000000000000000 0.00000000000000000 1.00000000000000000 1.00000000000000000 0.00000000000000000 0.00000000000000000 0.00000000000000000 1.00000000000000000 0.00000000000000000 5.70000000000000018
1 -3.43523410167827326 -5.95000000000000018 0.00000000000000000 0.00000000000000000 0.00000000000000000 1.00000000000000000 
1 -6.87046820335654651 0.00000000000000000 0.00000000000000000 0.00000000000000000 0.00000000000000000 1.00000000000000000 
1 5.70000000000000018 0.00000000000000000 6.00000000000000000 0.00000000000000000 0.00000000000000000 1.00000000000000000 
Polygon3D 0
PolygonOnTriangulations 0
Surfaces 9
1 6.87046820335654651 0.00000000000000000 0.00000000000000000 -0.86602540378443871 -0.50000000000000000 0.00000000000000000 -0.50000000000000000 0.86602540378443871 0.00000000000000000 -0.00000000000000000 0.00000000000000000 -1.00000000000000000 
1 3.43523410167827326 -5.95000000000000018 0.00000000000000000 -0.86602540378443871 0.50000000000000000 0.00000000000000000 0.50000000000000000 0.86602540378443871 0.00000000000000000 0.00000000000000000 0.00000000000000000 -1.00000000000000000 
1 3.43523410167827326 5.95000000000000018 0.00000000000000000 0.00000000000000000 -1.00000000000000000 0.00000000000000000 -1.00000000000000000 0.00000000000000000 0.00000000000000000 -0.00000000000000000 -0.00000000000000000 -1.00000000000000000 
1 -0.00000000000000009 -0.00000000000000017 0.00000000000000000 0.00000000000000000 0.00000000000000000 1.00000000000000000 1.00000000000000000 0.00000000000000000 -0.00000000000000000 -0.00000000000000000 1.00000000000000000 0.00000000000000000 
2 0.00000000000000000 0.00000000000000000 6.00000000000000000 -0.00000000000000000 -0.00000000000000000 -1.00000000000000000 1.00000000000000000 0.00000000000000000 0.00000000000000000 0.00000000000000000 1.00000000000000000 0.00000000000000000 5.70000000000000018
1 -3.43523410167827326 -5.95000000000000018 0.00000000000000000 0.00000000000000000 1.00000000000000000 0.00000000000000000 1.00000000000000000 0.00000000000000000 0.00000000000000000 0.00000000000000000 0.00000000000000000 -1.00000000000000000 
1 -3.43523410167827326 5.95000000000000018 0.00000000000000000 0.86602540378443871 -0.50000000000000000 0.00000000000000000 -0.50000000000000000 -0.86602540378443871 0.00000000000000000 0.00000000000000000 -0.00000000000000000 -1.00000000000000000 
1 -6.87046820335654651 0.00000000000000000 0.00000000000000000 0.86602540378443871 0.50000000000000000 -0.00000000000000000 0.50000000000000000 -0.86602540378443871 0.00000000000000000 0.00000000000000000 -0.00000000000000000 -1.00000000000000000 
1 -0.00000000000000036 0.00000000000000049 5.99999999999999911 0.00000000000000000 0.00000000000000000 1.00000000000000000 1.00000000000000000 0.00000000000000000 -0.00000000000000000 -0.00000000000000000 1.00000000000000000 0.00000000000000000 
Triangulations 0

TShapes 46
Ve
0.000000100000000
6.870468203356547 0.000000000000000 0.000000000000000
0 0

0101101
*
Ed
 0.000000100000000 1 1 0
1  1 0 0.000000000000000 6.000000000000000
0

0101000
+46 8 -46 10 *
Ve
0.000000100000000
3.435234101678273 5.950000000000000 0.000000000000000
0 0

0101101
*
Ed
 0.000000100000000 1 1 0
1  2 0 0.000000000000000 6.000000000000000
0

0101000
+44 8 -44 10 *
Ed
 0.000000100000000 1 1 0
1  3 0 0.000000000000000 6.870468203356547
0

0101000
+46 0 -44 0 *
Wi

0101100
+45 0 -43 0 -42 8 +42 10 *
Fa
0  0.000000100000000 1 0

0101000
+41 0 *
Ve
0.000000100000000
3.435234101678273 -5.950000000000000 0.000000000000000
0 0

0101101
*
Ed
 0.000000100000000 1 1 0
1  4 0 0.000000000000000 6.000000000000000
0

0101000
+39 8 -39 10 *
Ed
 0.000000100000000 1 1 0
1  5 0 0.000000000000000 6.870468203356547
0

0101000
+39 0 -46 0 *
Wi

0101100
+38 0 -45 0 -37 8 +37 10 *
Fa
0  0.000000100000000 2 0

0101000
+36 0 *
Ve
0.000000100000000
-3.435234101678273 5.950000000000000 0.000000000000000
0 0

0101101
*
Ed
 0.000000100000000 1 1 0
1  6 0 0.000000000000000 6.000000000000000
0

0101000
+34 8 -34 10 *
Ed
 0.000000100000000 1 1 0
1  7 0 0.000000000000000 6.870468203356547
0

0101000
+44 0 -34 0 *
Wi

0101100
+43 0 -33 0 -32 8 +32 10 *
Fa
0  0.000000100000000 3 0

0101000
+31 0 *
Ve
0.000000100000000
-6.870468203356547 0.000000000000000 0.000000000000000
0 0

0101101
*
Ed
 0.000000100000000 1 1 0
1  8 0 0.000000000000000 6.870468203356547
0

0101000
+34 0 -29 0 *
Ve
0.000000100000000
-3.435234101678273 -5.950000000000000 0.000000000000000
0 0

0101101
*
Ed
 0.000000100000000 1 1 0
1  9 0 0.000000000000000 6.870468203356547
0

0101000
+29 0 -27 0 *
Ed
 0.000000100000000 1 1 0
1  10 0 0.000000000000000 6.870468203356547
0

0101000
+27 0 -39 0 *
Wi

0101100
+42 0 +32 0 +28 0 +26 0 +25 0 +37 0 *
Fa
0  0.000000100000000 4 0

0101000
+24 12 *
Wi

0101100
+42 14 +37 14 +32 14 +25 14 +28 14 +26 14 *
Ve
0.000000100000000
5.700000000000000 0.000000000000000 6.000000000000000
0 0

0101101
*
Ed
 0.000000100000000 1 1 0
1  11 0 0.000000000000000 6.283185307179586
2  1 5 18 0.000000000000000 6.283185307179586
2  2 5 20 0.000000000000000 6.283185307179586
0

0101000
+21 18 -21 18 *
Wi

0101100
-20 17 *
Fa
0  0.000000100000000 4 13

0101000
+22 0 +19 0 *
Ed
 0.000000100000000 1 1 0
1  12 0 0.000000000000000 6.000000000000000
0

0101000
+27 8 -27 10 *
Wi

0101100
+17 0 -38 0 -25 8 +25 10 *
Fa
0  0.000000100000000 6 0

0101000
+16 0 *
Ed
 0.000000100000000 1 1 0
1  13 0 0.000000000000000 6.000000000000000
0

0101000
+29 8 -29 10 *
Wi

0101100
+33 0 -14 0 -28 8 +28 10 *
Fa
0  0.000000100000000 7 0

0101000
+13 0 *
Wi

0101100
+14 0 -17 0 -26 8 +26 10 *
Fa
0  0.000000100000000 8 0

0101000
+11 0 *
Ve
0.000000100000000
5.700000000000000 0.000000000000000 0.000000000000000
0 0

0101101
*
Ed
 0.000000100000000 1 1 0
1  14 0 0.000000000000000 12.000000000000000
3  3 4CN 5 0 0.000000000000000 12.000000000000000
0

0101000
+21 0 -9 21 *
Ed
 0.000000100000000 1 1 0
1  11 0 0.000000000000000 6.283185307179586
2  1 5 18 0.000000000000000 6.283185307179586
2  2 5 20 0.000000000000000 6.283185307179586
0

0101100
+9 0 -9 0 *
Wi

0101100
+8 0 -8 0 -20 17 +7 21 *
Fa
0  0.000000100000000 5 0

0101000
+6 0 *
Wi

0101100
+7 0 *
Fa
0  0.000000100000000 9 0

0101000
+4 23 *
Sh

0101100
-40 4 -35 4 -30 4 -23 11 +18 0 -15 4 -12 4 -10 4 -5 0 +3 22 
*
So

0100000
+2 0 *

+1 1 