
CASCADE Topology V1, (c) Matra-Datavision
Locations 11
1
1.000000000000000 0.000000000000000 0.000000000000000 0.000000000000000 
0.000000000000000 1.000000000000000 0.000000000000000 0.000000000000000 
0.000000000000000 0.000000000000000 1.000000000000000 0.000000000000000 
1
-0.669130606357828 -0.743144825477391 0.000001176415793 -28.499988824069398 
0.743144825476493 -0.669130606358855 -0.000001159648516 -0.000011016641742 
0.000001648962607 0.000000098290995 0.999999999998636 -0.500016518921127 
1
-0.669130606358858 -0.743144825477395 0.000000000000000 -28.500000000000000 
0.743144825477395 -0.669130606358858 0.000000000000000 0.000000000000003 
0.000000000000000 0.000000000000000 1.000000000000000 -10.000000000000000 
2  1 1 2 1 3 -1 0
1
1.000000000000000 0.000000000000000 0.000000000000000 -0.000018963069979 
0.000000000000000 1.000000000000000 0.000000000000000 -0.000001130346438 
0.000000000000000 0.000000000000000 1.000000000000000 11.499999999984309 
2  1 1 2 1 3 -1 5 1 0
2  3 1 2 -1 1 -1 0
2  5 -1 3 1 2 -1 1 -1 0
2  3 -1 0
2  1 1 2 1 0
2  3 -1 5 1 0
Curve2ds 4
1 0.00000000000000000 0.00000000000000000 0.00000000000000000 -1.00000000000000000 
1 6.28318530717958623 0.00000000000000000 0.00000000000000000 -1.00000000000000000 
1 0.00000000000000000 0.00000000000000000 1.00000000000000000 0.00000000000000000 
1 0.00000000000000000 -11.50000000000000000 1.00000000000000000 0.00000000000000000 
Curves 2
1 7.99998433487159488 -0.00000093376411803 9.49999667277972826 -0.00000164896260691 -0.00000009829099463 0.99999999999863565 
2 0.00000000000000000 0.00000000000000000 0.00000000000000000 0.00000000000000000 0.00000000000000000 1.00000000000000000 1.00000000000000000 0.00000000000000000 0.00000000000000000 0.00000000000000000 1.00000000000000000 0.00000000000000000 8.00000000000000000
Polygon3D 0
PolygonOnTriangulations 0
Surfaces 2
2 -0.00001566511753026 -0.00000093376282351 9.49998348107887303 0.00000164896260691 0.00000009829099463 -0.99999999999863576 0.99999999999864053 -0.00000000000016182 0.00000164896260691 -0.00000000000000022 0.99999999999999523 0.00000009829099464 8.00000000000000178
1 -28.49998882406939771 -0.00001101664174226 -0.50001651892112686 0.00000117641579307 -0.00000115964851589 0.99999999999863565 0.99999999999930811 0.00000000000000000 -0.00000117641579307 0.00000000000136423 0.99999999999932776 0.00000115964851589 
Triangulations 0

TShapes 9
Ve
0.000000100000000
8.000000000000000 0.000000000000000 0.000000000000000
0 0

0101101
*
Ed
 0.000000100000000 1 1 0
1  1 0 0.000000000000000 11.500000000000000
3  1 2CN 1 0 0.000000000000000 11.500000000000000
0

0101000
+9 4 -9 6 *
Ed
 0.000000100000000 1 1 0
1  2 0 0.000000000000000 6.283185307179586
2  3 1 7 0.000000000000000 6.283185307179586
2  4 1 8 0.000000000000000 6.283185307179586
0

0101100
+9 0 -9 0 *
Wi

0101100
+8 0 -8 0 -7 4 +7 6 *
Fa
0  0.000000100000000 1 0

0101000
+6 0 *
Wi

0101100
+7 0 *
Fa
0  0.000000100000000 2 0

0101000
+4 10 *
Sh

0101100
+5 0 +3 9 -3 11 *
So

1100000
-2 0 *

+1 0 