
CASCADE Topology V1, (c) Matra-Datavision
Locations 1
1
1.000000000000000 0.000000000000000 0.000000000000000 0.000000000000000 
0.000000000000000 1.000000000000000 0.000000000000000 0.000000000000000 
0.000000000000000 0.000000000000000 1.000000000000000 0.000000000000000 
Curve2ds 32
1 0.00000000000000000 -5.00000000000000000 1.00000000000000000 0.00000000000000000 
1 0.00000000000000000 4.71238898038468967 1.00000000000000000 0.00000000000000000 
1 0.00000000000000000 -4.66800000000000015 1.00000000000000000 0.00000000000000000 
1 6.28318530717958623 0.00000000000000000 0.00000000000000000 1.00000000000000000 
1 0.00000000000000000 0.00000000000000000 0.00000000000000000 1.00000000000000000 
1 0.00000000000000000 -4.66800000000000015 1.00000000000000000 0.00000000000000000 
1 0.00000000000000000 -3.17525920948922025 1.00000000000000000 0.00000000000000000 
1 0.00000000000000000 5.43468768962473980 1.00000000000000000 0.00000000000000000 
1 6.28318530717958623 0.00000000000000000 0.00000000000000000 1.00000000000000000 
1 0.00000000000000000 0.00000000000000000 0.00000000000000000 1.00000000000000000 
1 6.28318530717958623 0.00000000000000000 0.00000000000000000 1.00000000000000000 
1 0.00000000000000000 0.00000000000000000 0.00000000000000000 1.00000000000000000 
1 0.00000000000000000 7.13168292473443266 1.00000000000000000 0.00000000000000000 
1 0.00000000000000000 -1.82474079051078020 1.00000000000000000 0.00000000000000000 
1 0.00000000000000000 -0.33199999999999985 1.00000000000000000 0.00000000000000000 
1 6.28318530717958623 0.00000000000000000 0.00000000000000000 1.00000000000000000 
1 0.00000000000000000 0.00000000000000000 0.00000000000000000 1.00000000000000000 
1 0.00000000000000000 -0.33199999999999985 1.00000000000000000 0.00000000000000000 
1 0.00000000000000000 0.00000000000000000 1.00000000000000000 0.00000000000000000 
1 6.28318530717958623 0.00000000000000000 0.00000000000000000 1.00000000000000000 
1 0.00000000000000000 0.00000000000000000 0.00000000000000000 1.00000000000000000 
1 0.00000000000000000 7.85398163397448368 1.00000000000000000 0.00000000000000000 
1 0.00000000000000000 6.28318530717958712 1.00000000000000000 0.00000000000000000 
1 0.00000000000000000 -0.15000000000000036 1.00000000000000000 0.00000000000000000 
1 6.28318530717958623 6.28318530717958712 0.00000000000000000 1.00000000000000000 
1 0.00000000000000000 6.28318530717958712 0.00000000000000000 1.00000000000000000 
1 0.00000000000000000 -4.84999999999999964 1.00000000000000000 0.00000000000000000 
1 0.00000000000000000 6.28318530717958623 1.00000000000000000 0.00000000000000000 
1 6.28318530717958623 0.00000000000000000 0.00000000000000000 1.00000000000000000 
1 0.00000000000000000 0.00000000000000000 0.00000000000000000 1.00000000000000000 
1 6.28318530717958623 0.00000000000000000 0.00000000000000000 1.00000000000000000 
1 0.00000000000000000 0.00000000000000000 0.00000000000000000 1.00000000000000000 
Curves 20
2 0.00000000000000000 0.00000000000000000 0.00000000000000000 1.00000000000000000 0.00000000000000000 0.00000000000000000 0.00000000000000000 0.00000000000000000 -1.00000000000000000 -0.00000000000000000 1.00000000000000000 0.00000000000000000 4.95000000000000018
2 0.00000000000000000 0.00000000000000000 0.00000000000000000 1.00000000000000000 0.00000000000000000 0.00000000000000000 0.00000000000000000 0.00000000000000000 -1.00000000000000000 -0.00000000000000000 1.00000000000000000 0.00000000000000000 5.34999999999999964
2 0.33200000000000002 0.00000000000000000 0.00000000000000000 1.00000000000000000 0.00000000000000000 0.00000000000000000 0.00000000000000000 0.00000000000000000 -1.00000000000000000 -0.00000000000000000 1.00000000000000000 0.00000000000000000 4.95000000000000018
7 0 0  1 2 2  0.00000000000000000 -0.00000000000000121 -4.95000000000000018  0.33199999999999985 -0.00000000000000121 -4.95000000000000018 
 -5.00000000000000000 2 -4.66800000000000015 2
2 0.33200000000000002 0.00000000000000000 0.00000000000000000 1.00000000000000000 0.00000000000000000 0.00000000000000000 0.00000000000000000 0.00000000000000000 -1.00000000000000000 -0.00000000000000000 1.00000000000000000 0.00000000000000000 4.59499999999999975
2 1.82474079051077998 0.00000000000000000 0.00000000000000000 1.00000000000000000 0.00000000000000000 0.00000000000000000 0.00000000000000000 0.00000000000000000 -1.00000000000000000 -0.00000000000000000 1.00000000000000000 0.00000000000000000 4.59499999999999975
7 0 0  1 2 2  0.33199999999999985 -0.00000000000000113 -4.59499999999999975  1.82474079051077975 -0.00000000000000113 -4.59499999999999975 
 -4.66800000000000015 2 -3.17525920948922025 2
7 0 0  6 7 2  1.82474079051078375 0.00000000000000000 -4.59499999999999975  1.99302615132582450 0.00000000000000000 -4.78598527682784081  2.22608680457677410 0.00000000000000000 -4.91985083049247685  2.49999999999999911 0.00000000000000000 -4.96913229898740116  2.77391319542323034 0.00000000000000000 -4.91985083049246086  3.00697384867417306 0.00000000000000000 -4.78598527682785591  3.17525920948921669 0.00000000000000000 -4.59499999999999709 
 5.43468768962473980 7 7.13168292473443266 7
2 3.17525920948921980 0.00000000000000000 0.00000000000000000 1.00000000000000000 0.00000000000000000 0.00000000000000000 0.00000000000000000 0.00000000000000000 -1.00000000000000000 -0.00000000000000000 1.00000000000000000 0.00000000000000000 4.59499999999999975
2 4.66800000000000015 0.00000000000000000 0.00000000000000000 1.00000000000000000 0.00000000000000000 0.00000000000000000 0.00000000000000000 0.00000000000000000 -1.00000000000000000 -0.00000000000000000 1.00000000000000000 0.00000000000000000 4.59499999999999975
7 0 0  1 2 2  3.17525920948921980 -0.00000000000000113 -4.59499999999999975  4.66800000000000015 -0.00000000000000113 -4.59499999999999975 
 -1.82474079051078020 2 -0.33199999999999985 2
2 4.66800000000000015 0.00000000000000000 0.00000000000000000 1.00000000000000000 0.00000000000000000 0.00000000000000000 0.00000000000000000 0.00000000000000000 -1.00000000000000000 -0.00000000000000000 1.00000000000000000 0.00000000000000000 4.95000000000000018
2 5.00000000000000000 0.00000000000000000 0.00000000000000000 1.00000000000000000 0.00000000000000000 0.00000000000000000 0.00000000000000000 0.00000000000000000 -1.00000000000000000 -0.00000000000000000 1.00000000000000000 0.00000000000000000 4.95000000000000018
7 0 0  1 2 2  4.66800000000000015 -0.00000000000000121 -4.95000000000000018  5.00000000000000000 -0.00000000000000121 -4.95000000000000018 
 -0.33199999999999985 2 0.00000000000000000 2
2 5.00000000000000000 0.00000000000000000 0.00000000000000000 1.00000000000000000 0.00000000000000000 0.00000000000000000 0.00000000000000000 0.00000000000000000 -1.00000000000000000 -0.00000000000000000 1.00000000000000000 0.00000000000000000 5.34999999999999964
2 4.84999999999999964 0.00000000000000000 0.00000000000000000 1.00000000000000000 0.00000000000000000 0.00000000000000000 0.00000000000000000 0.00000000000000000 -1.00000000000000000 -0.00000000000000000 1.00000000000000000 0.00000000000000000 5.50000000000000000
7 1 0  6 7 2  4.84999999999999964 0.00000000000000000 -5.50000000000000089  1.03139347178751262 4.89010051747293772 0.00000000000000000 -5.50000000000000000  1.01002540766143900 4.92915628588732968 0.00000000000000000 -5.48724934740494685  0.99792464272497372 4.96278792698034277 0.00000000000000000 -5.46278792698034277  0.99395844413692447 4.98724934740494685 0.00000000000000000 -5.42915628588732968  0.99792464272497539 5.00000000000000089 0.00000000000000000 -5.39010051747293772  1.01002540766143678 5.00000000000000089 0.00000000000000000 -5.34999999999999964  1.03139347178751262
 0.00000000000000000 7 1.57079632679489656 7
2 0.14999999999999999 0.00000000000000000 0.00000000000000000 1.00000000000000000 0.00000000000000000 0.00000000000000000 0.00000000000000000 0.00000000000000000 -1.00000000000000000 -0.00000000000000000 1.00000000000000000 0.00000000000000000 5.50000000000000000
7 0 0  1 2 2  0.15000000000000036 0.00000000000000000 -5.50000000000000000  4.84999999999999964 0.00000000000000000 -5.50000000000000000 
 -4.84999999999999964 2 -0.15000000000000036 2
7 1 0  6 7 2  0.00000000000000000 0.00000000000000000 -5.34999999999999964  1.03139347178751262 0.00000000000000019 0.00000000000000000 -5.39010051747293684  1.01002540766143900 0.01275065259505340 0.00000000000000000 -5.42915628588732968  0.99792464272497372 0.03721207301965766 0.00000000000000000 -5.46278792698034188  0.99395844413692447 0.07084371411267004 0.00000000000000000 -5.48724934740494596  0.99792464272497539 0.10989948252706241 0.00000000000000000 -5.50000000000000000  1.01002540766143678 0.14999999999999997 0.00000000000000000 -5.50000000000000000  1.03139347178751262
 4.71238898038468967 7 6.28318530717958623 7
Polygon3D 0
PolygonOnTriangulations 0
Surfaces 12
1 0.00000000000000000 5.34999999999999964 0.00000000000000000 -1.00000000000000000 0.00000000000000000 0.00000000000000000 0.00000000000000000 0.00000000000000000 1.00000000000000000 0.00000000000000000 1.00000000000000000 -0.00000000000000000 
10 0.00000000000000000 6.28318530717958623 -5.00000000000000000 -4.66800000000000015
2 5.00000000000000000 0.00000000000000000 0.00000000000000000 1.00000000000000000 0.00000000000000000 0.00000000000000000 0.00000000000000000 0.00000000000000000 -1.00000000000000000 -0.00000000000000000 1.00000000000000000 0.00000000000000000 4.95000000000000018
10 0.00000000000000000 6.28318530717958623 2.35619449019234484 8.63937979737193018
5 0.14999999999999999 0.00000000000000000 0.00000000000000000 1.00000000000000000 0.00000000000000000 0.00000000000000000 0.00000000000000000 0.00000000000000000 -1.00000000000000000 -0.00000000000000000 1.00000000000000000 0.00000000000000000 5.34999999999999964 0.14999999999999999
1 0.33200000000000002 4.95000000000000018 0.00000000000000000 -1.00000000000000000 0.00000000000000000 0.00000000000000000 0.00000000000000000 0.00000000000000000 1.00000000000000000 0.00000000000000000 1.00000000000000000 -0.00000000000000000 
10 0.00000000000000000 6.28318530717958623 -4.66800000000000015 -3.17525920948922025
2 5.00000000000000000 0.00000000000000000 0.00000000000000000 1.00000000000000000 0.00000000000000000 0.00000000000000000 0.00000000000000000 0.00000000000000000 -1.00000000000000000 -0.00000000000000000 1.00000000000000000 0.00000000000000000 4.59499999999999975
10 0.00000000000000000 6.28318530717958623 3.14159265358979312 9.42477796076937935
5 2.50000000000000000 0.00000000000000000 0.00000000000000000 1.00000000000000000 0.00000000000000000 0.00000000000000000 0.00000000000000000 0.00000000000000000 -1.00000000000000000 -0.00000000000000000 1.00000000000000000 0.00000000000000000 4.00000000000000000 0.89999999999999902
10 0.00000000000000000 6.28318530717958623 -1.82474079051078020 -0.33199999999999985
2 5.00000000000000000 0.00000000000000000 0.00000000000000000 1.00000000000000000 0.00000000000000000 0.00000000000000000 0.00000000000000000 0.00000000000000000 -1.00000000000000000 -0.00000000000000000 1.00000000000000000 0.00000000000000000 4.59499999999999975
1 4.66800000000000015 4.59499999999999975 0.00000000000000000 1.00000000000000000 0.00000000000000000 0.00000000000000000 0.00000000000000000 0.00000000000000000 -1.00000000000000000 -0.00000000000000000 1.00000000000000000 0.00000000000000000 
10 0.00000000000000000 6.28318530717958623 -0.33199999999999985 0.00000000000000000
2 5.00000000000000000 0.00000000000000000 0.00000000000000000 1.00000000000000000 0.00000000000000000 0.00000000000000000 0.00000000000000000 0.00000000000000000 -1.00000000000000000 -0.00000000000000000 1.00000000000000000 0.00000000000000000 4.95000000000000018
1 5.00000000000000000 4.95000000000000018 0.00000000000000000 1.00000000000000000 0.00000000000000000 0.00000000000000000 0.00000000000000000 0.00000000000000000 -1.00000000000000000 -0.00000000000000000 1.00000000000000000 0.00000000000000000 
10 0.00000000000000000 6.28318530717958623 3.92699081698724139 10.21017612416682852
5 4.84999999999999964 0.00000000000000000 0.00000000000000000 1.00000000000000000 0.00000000000000000 0.00000000000000000 0.00000000000000000 0.00000000000000000 -1.00000000000000000 -0.00000000000000000 1.00000000000000000 0.00000000000000000 5.34999999999999964 0.15000000000000099
10 0.00000000000000000 6.28318530717958623 -4.84999999999999964 -0.15000000000000036
2 5.00000000000000000 0.00000000000000000 0.00000000000000000 1.00000000000000000 0.00000000000000000 0.00000000000000000 0.00000000000000000 0.00000000000000000 -1.00000000000000000 -0.00000000000000000 1.00000000000000000 0.00000000000000000 5.50000000000000000
Triangulations 0

TShapes 62
Ve
0.000010000000000
0.000000000000000 0.000000000000000 -4.950000000000000
0 0

0101101
*
Ed
 0.000000100000000 1 1 0
1  1 0 0.000000000000000 6.283185307179586
2  1 2 0 0.000000000000000 6.283185307179586
4 C0 1 0 2 0
0

0101000
+62 0 -62 0 *
Wi

0101100
+61 0 *
Ve
0.000010000000000
0.000000000000000 0.000000000000000 -5.350000000000000
0 0

0101101
*
Ed
 0.000000100000000 1 1 0
1  2 0 0.000000000000000 6.283185307179586
2  2 3 0 0.000000000000000 6.283185307179586
4 G1 1 0 3 0
0

0101000
+59 0 -59 0 *
Wi

0101100
-58 0 *
Fa
0  0.000000100000000 1 0

0101000
+60 0 +57 0 *
Ve
0.000010000000000
0.332000000000000 0.000000000000000 -4.950000000000000
0 0

0101101
*
Ed
 0.000000100000000 1 1 0
1  3 0 0.000000000000000 6.283185307179586
2  3 2 0 0.000000000000000 6.283185307179586
4 C0 2 0 4 0
0

0101000
-55 0 +55 0 *
Ed
 0.000010000000000 1 1 0
1  4 0 -5.000000000000000 -4.668000000000000
3  4 5CN 2 0 -5.000000000000000 -4.668000000000000
0

0101000
-55 0 +62 0 *
Wi

0101100
-54 0 -53 0 +61 0 +53 0 *
Fa
0  0.000000100000000 2 0

0101000
+52 0 *
Ve
0.000010000000000
0.332000000000000 0.000000000000000 -4.595000000000000
0 0

0101101
*
Ed
 0.000000100000000 1 1 0
1  5 0 0.000000000000000 6.283185307179586
2  6 5 0 0.000000000000000 6.283185307179586
4 C0 4 0 5 0
0

0101000
+50 0 -50 0 *
Wi

0101100
+49 0 *
Wi

0101100
-54 0 *
Fa
0  0.000000100000000 4 0

0101000
+48 0 +47 0 *
Ve
0.000010000000000
1.824740790510780 0.000000000000000 -4.595000000000000
0 0

0101101
*
Ed
 0.000000100000000 1 1 0
1  6 0 0.000000000000000 6.283185307179586
2  7 5 0 0.000000000000000 6.283185307179586
2  8 6 0 0.000000000000000 6.283185307179586
4 C0 5 0 6 0
0

0101000
+45 0 -45 0 *
Ed
 0.000010000000000 1 1 0
1  7 0 -4.668000000000000 -3.175259209489220
3  9 10CN 5 0 -4.668000000000000 -3.175259209489220
0

0101000
-45 0 +50 0 *
Wi

0101100
-44 0 -43 0 +49 0 +43 0 *
Fa
0  0.000000100000000 5 0

0101000
+42 0 *
Ve
0.000010000000000
3.175259209489220 0.000000000000000 -4.595000000000000
0 0

0101101
*
Ed
 0.000010000000000 1 1 0
1  8 0 5.434687689624740 7.131682924734433
3  11 12CN 6 0 5.434687689624740 7.131682924734433
0

0101000
+45 0 -40 0 *
Ed
 0.000000100000000 1 1 0
1  9 0 0.000000000000000 6.283185307179586
2  13 6 0 0.000000000000000 6.283185307179586
2  14 7 0 0.000000000000000 6.283185307179586
4 C0 6 0 7 0
0

0101000
+40 0 -40 0 *
Wi

0101100
+44 0 +39 0 -38 0 -39 0 *
Fa
0  0.000000100000000 6 0

0101000
+37 0 *
Ve
0.000010000000000
4.668000000000000 0.000000000000000 -4.595000000000000
0 0

0101101
*
Ed
 0.000000100000000 1 1 0
1  10 0 0.000000000000000 6.283185307179586
2  15 7 0 0.000000000000000 6.283185307179586
4 C0 7 0 8 0
0

0101000
-35 0 +35 0 *
Ed
 0.000010000000000 1 1 0
1  11 0 -1.824740790510780 -0.332000000000000
3  16 17CN 7 0 -1.824740790510780 -0.332000000000000
0

0101000
-35 0 +40 0 *
Wi

0101100
-34 0 -33 0 +38 0 +33 0 *
Fa
0  0.000000100000000 7 0

0101000
+32 0 *
Ve
0.000010000000000
4.668000000000000 0.000000000000000 -4.950000000000000
0 0

0101101
*
Ed
 0.000000100000000 1 1 0
1  12 0 0.000000000000000 6.283185307179586
2  18 9 0 0.000000000000000 6.283185307179586
4 C0 8 0 9 0
0

0101000
+30 0 -30 0 *
Wi

0101100
+29 0 *
Wi

0101100
-34 0 *
Fa
0  0.000000100000000 8 0

0101000
+28 0 +27 0 *
Ve
0.000010000000000
5.000000000000000 0.000000000000000 -4.950000000000000
0 0

0101101
*
Ed
 0.000000100000000 1 1 0
1  13 0 0.000000000000000 6.283185307179586
2  19 9 0 0.000000000000000 6.283185307179586
4 C0 9 0 10 0
0

0101000
-25 0 +25 0 *
Ed
 0.000010000000000 1 1 0
1  14 0 -0.332000000000000 0.000000000000000
3  20 21CN 9 0 -0.332000000000000 0.000000000000000
0

0101000
-25 0 +30 0 *
Wi

0101100
-24 0 -23 0 +29 0 +23 0 *
Fa
0  0.000000100000000 9 0

0101000
+22 0 *
Ve
0.000010000000000
5.000000000000000 0.000000000000000 -5.350000000000000
0 0

0101101
*
Ed
 0.000000100000000 1 1 0
1  15 0 0.000000000000000 6.283185307179586
2  22 11 0 0.000000000000000 6.283185307179586
4 G1 10 0 11 0
0

0101000
-20 0 +20 0 *
Wi

0101100
+19 0 *
Wi

0101100
-24 0 *
Fa
0  0.000000100000000 10 0

0101000
+18 0 +17 0 *
Ve
0.000010000000000
4.850000000000000 0.000000000000000 -5.500000000000000
0 0

0101101
*
Ed
 0.000000100000000 1 1 0
1  16 0 0.000000000000000 6.283185307179586
2  23 11 0 0.000000000000000 6.283185307179586
2  24 12 0 0.000000000000000 6.283185307179586
4 G1 11 0 12 0
0

0101000
-15 0 +15 0 *
Ed
 0.000010000000000 1 1 0
1  17 0 0.000000000000000 1.570796326794897
3  25 26CN 11 0 0.000000000000000 1.570796326794897
0

0101000
+15 0 -20 0 *
Wi

0101100
+14 0 +13 0 -19 0 -13 0 *
Fa
0  0.000000100000000 11 0

0101000
+12 0 *
Ve
0.000010000000000
0.150000000000000 0.000000000000000 -5.500000000000000
0 0

0101101
*
Ed
 0.000000100000000 1 1 0
1  18 0 0.000000000000000 6.283185307179586
2  27 12 0 0.000000000000000 6.283185307179586
2  28 3 0 0.000000000000000 6.283185307179586
4 G1 12 0 3 0
0

0101000
-10 0 +10 0 *
Ed
 0.000010000000000 1 1 0
1  19 0 -4.850000000000000 -0.150000000000000
3  29 30CN 12 0 -4.850000000000000 -0.150000000000000
0

0101000
+10 0 -15 0 *
Wi

0101100
+9 0 +8 0 -14 0 -8 0 *
Fa
0  0.000000100000000 12 0

0101000
+7 0 *
Ed
 0.000010000000000 1 1 0
1  20 0 4.712388980384690 6.283185307179586
3  31 32CN 3 0 4.712388980384690 6.283185307179586
0

0101000
+59 0 -10 0 *
Wi

0101100
+58 0 +5 0 -9 0 -5 0 *
Fa
0  0.000000100000000 3 0

0101000
+4 0 *
Sh

0101100
+56 0 -51 0 +46 0 -41 0 -36 0 -31 0 +26 0 -21 0 +16 0 +11 0 
+6 0 +3 0 *
So

0100000
+2 0 *

+1 1 