
CASCADE Topology V1, (c) Matra-Datavision
Locations 1
1
1.000000000000000 0.000000000000000 0.000000000000000 0.000000000000000 
0.000000000000000 0.000000000000000 -1.000000000000000 0.000000000000000 
0.000000000000000 1.000000000000000 0.000000000000000 0.000000000000000 
Curve2ds 32
1 0.00000000000000000 4.71238898038468967 1.00000000000000000 0.00000000000000000 
1 0.00000000000000000 -5.00000000000000000 1.00000000000000000 0.00000000000000000 
1 0.00000000000000000 3.14159265358979978 1.00000000000000000 0.00000000000000000 
1 0.00000000000000000 -4.84999999999999964 1.00000000000000000 0.00000000000000000 
1 6.28318530717958623 0.00000000000000000 0.00000000000000000 1.00000000000000000 
1 0.00000000000000000 0.00000000000000000 0.00000000000000000 1.00000000000000000 
1 0.00000000000000000 -0.15000000000000036 1.00000000000000000 0.00000000000000000 
1 0.00000000000000000 9.42477796076937935 1.00000000000000000 0.00000000000000000 
1 6.28318530717958623 0.00000000000000000 0.00000000000000000 1.00000000000000000 
1 0.00000000000000000 0.00000000000000000 0.00000000000000000 1.00000000000000000 
1 0.00000000000000000 7.85398163397448190 1.00000000000000000 0.00000000000000000 
1 6.28318530717958623 6.28318530717958534 0.00000000000000000 1.00000000000000000 
1 0.00000000000000000 6.28318530717958534 0.00000000000000000 1.00000000000000000 
1 0.00000000000000000 0.00000000000000000 1.00000000000000000 0.00000000000000000 
1 0.00000000000000000 -0.33199999999999985 1.00000000000000000 0.00000000000000000 
1 6.28318530717958623 0.00000000000000000 0.00000000000000000 1.00000000000000000 
1 0.00000000000000000 0.00000000000000000 0.00000000000000000 1.00000000000000000 
1 0.00000000000000000 -0.33199999999999985 1.00000000000000000 0.00000000000000000 
1 0.00000000000000000 -1.82474079051078020 1.00000000000000000 0.00000000000000000 
1 0.00000000000000000 2.29309503603494758 1.00000000000000000 0.00000000000000000 
1 6.28318530717958623 0.00000000000000000 0.00000000000000000 1.00000000000000000 
1 0.00000000000000000 0.00000000000000000 0.00000000000000000 1.00000000000000000 
1 6.28318530717958623 0.00000000000000000 0.00000000000000000 1.00000000000000000 
1 0.00000000000000000 0.00000000000000000 0.00000000000000000 1.00000000000000000 
1 0.00000000000000000 3.99009027114463910 1.00000000000000000 0.00000000000000000 
1 0.00000000000000000 -3.17525920948922025 1.00000000000000000 0.00000000000000000 
1 0.00000000000000000 -4.66800000000000015 1.00000000000000000 0.00000000000000000 
1 6.28318530717958623 0.00000000000000000 0.00000000000000000 1.00000000000000000 
1 0.00000000000000000 0.00000000000000000 0.00000000000000000 1.00000000000000000 
1 0.00000000000000000 -4.66800000000000015 1.00000000000000000 0.00000000000000000 
1 6.28318530717958623 0.00000000000000000 0.00000000000000000 1.00000000000000000 
1 0.00000000000000000 0.00000000000000000 0.00000000000000000 1.00000000000000000 
Curves 20
2 0.00000000000000000 0.00000000000000000 0.00000000000000000 1.00000000000000000 0.00000000000000000 0.00000000000000000 0.00000000000000000 0.00000000000000000 -1.00000000000000000 -0.00000000000000000 1.00000000000000000 0.00000000000000000 2.64999999999999991
2 0.00000000000000000 0.00000000000000000 0.00000000000000000 1.00000000000000000 0.00000000000000000 0.00000000000000000 0.00000000000000000 0.00000000000000000 -1.00000000000000000 -0.00000000000000000 1.00000000000000000 0.00000000000000000 3.10000000000000009
2 0.14999999999999999 0.00000000000000000 0.00000000000000000 1.00000000000000000 0.00000000000000000 0.00000000000000000 0.00000000000000000 0.00000000000000000 -1.00000000000000000 -0.00000000000000000 1.00000000000000000 0.00000000000000000 2.50000000000000000
7 1 0  6 7 2  0.14999999999999999 0.00000000000000000 -2.49999999999999911  1.03139347178751151 0.10989948252706225 0.00000000000000000 -2.49999999999999956  1.01002540766144122 0.07084371411266993 0.00000000000000000 -2.51275065259505270  0.99792464272496695 0.03721207301965793 0.00000000000000000 -2.53721207301965679  0.99395844413693113 0.01275065259505301 0.00000000000000000 -2.57084371411267032  0.99792464272497172 0.00000000000000022 0.00000000000000000 -2.60989948252706228  1.01002540766143767 0.00000000000000000 0.00000000000000000 -2.64999999999999991  1.03139347178751128
 3.14159265358979978 7 4.71238898038468967 7
2 4.84999999999999964 0.00000000000000000 0.00000000000000000 1.00000000000000000 0.00000000000000000 0.00000000000000000 0.00000000000000000 0.00000000000000000 -1.00000000000000000 -0.00000000000000000 1.00000000000000000 0.00000000000000000 2.50000000000000000
7 0 0  1 2 2  0.15000000000000036 -0.00000000000000061 -2.50000000000000000  4.84999999999999964 -0.00000000000000061 -2.50000000000000000 
 -4.84999999999999964 2 -0.15000000000000036 2
2 5.00000000000000000 0.00000000000000000 0.00000000000000000 1.00000000000000000 0.00000000000000000 0.00000000000000000 0.00000000000000000 0.00000000000000000 -1.00000000000000000 -0.00000000000000000 1.00000000000000000 0.00000000000000000 2.64999999999999991
7 1 0  6 7 2  5.00000000000000178 0.00000000000000000 -2.64999999999999991  1.03139347178751262 5.00000000000000178 0.00000000000000000 -2.60989948252706183  1.01002540766143900 4.98724934740494774 0.00000000000000000 -2.57084371411266899  0.99792464272497372 4.96278792698034366 0.00000000000000000 -2.53721207301965590  0.99395844413692447 4.92915628588733057 0.00000000000000000 -2.51275065259505181  0.99792464272497539 4.89010051747293772 0.00000000000000000 -2.49999999999999778  1.01002540766143678 4.84999999999999964 0.00000000000000000 -2.49999999999999778  1.03139347178751262
 1.57079632679489656 7 3.14159265358979312 7
2 5.00000000000000000 0.00000000000000000 0.00000000000000000 1.00000000000000000 0.00000000000000000 0.00000000000000000 0.00000000000000000 0.00000000000000000 -1.00000000000000000 -0.00000000000000000 1.00000000000000000 0.00000000000000000 3.10000000000000009
2 4.66800000000000015 0.00000000000000000 0.00000000000000000 1.00000000000000000 0.00000000000000000 0.00000000000000000 0.00000000000000000 0.00000000000000000 -1.00000000000000000 -0.00000000000000000 1.00000000000000000 0.00000000000000000 3.10000000000000009
7 0 0  1 2 2  4.66800000000000015 0.00000000000000000 -3.10000000000000009  5.00000000000000000 0.00000000000000000 -3.10000000000000009 
 -0.33199999999999985 2 0.00000000000000000 2
2 4.66800000000000015 0.00000000000000000 0.00000000000000000 1.00000000000000000 0.00000000000000000 0.00000000000000000 0.00000000000000000 0.00000000000000000 -1.00000000000000000 -0.00000000000000000 1.00000000000000000 0.00000000000000000 3.40499999999999980
2 3.17525920948921980 0.00000000000000000 0.00000000000000000 1.00000000000000000 0.00000000000000000 0.00000000000000000 0.00000000000000000 0.00000000000000000 -1.00000000000000000 -0.00000000000000000 1.00000000000000000 0.00000000000000000 3.40499999999999980
7 0 0  1 2 2  3.17525920948921980 0.00000000000000000 -3.40499999999999980  4.66800000000000015 0.00000000000000000 -3.40499999999999980 
 -1.82474079051078020 2 -0.33199999999999985 2
7 1 0  6 7 2  3.17525920948921714 0.00000000000000000 -3.40500000000000203  1.03674963210793236 3.00279950090614900 0.00000000000000000 -3.20927730002261802  1.01164800257919274 2.76826763339463655 0.00000000000000000 -3.07891863697703272  0.99757795389451775 2.50000000000000222 0.00000000000000000 -3.03312431071385280  0.99296930439991304 2.23173236660536123 0.00000000000000000 -3.07891863697703316  0.99757795389452064 1.99720049909385100 0.00000000000000000 -3.20927730002261802  1.01164800257919119 1.82474079051078308 0.00000000000000000 -3.40500000000000203  1.03674963210793214
 2.29309503603494758 7 3.99009027114463910 7
2 1.82474079051077998 0.00000000000000000 0.00000000000000000 1.00000000000000000 0.00000000000000000 0.00000000000000000 0.00000000000000000 0.00000000000000000 -1.00000000000000000 -0.00000000000000000 1.00000000000000000 0.00000000000000000 3.40499999999999980
2 0.33200000000000002 0.00000000000000000 0.00000000000000000 1.00000000000000000 0.00000000000000000 0.00000000000000000 0.00000000000000000 0.00000000000000000 -1.00000000000000000 -0.00000000000000000 1.00000000000000000 0.00000000000000000 3.40499999999999980
7 0 0  1 2 2  0.33199999999999985 0.00000000000000000 -3.40499999999999980  1.82474079051077975 0.00000000000000000 -3.40499999999999980 
 -4.66800000000000015 2 -3.17525920948922025 2
2 0.33200000000000002 0.00000000000000000 0.00000000000000000 1.00000000000000000 0.00000000000000000 0.00000000000000000 0.00000000000000000 0.00000000000000000 -1.00000000000000000 -0.00000000000000000 1.00000000000000000 0.00000000000000000 3.10000000000000009
7 0 0  1 2 2  0.00000000000000000 0.00000000000000000 -3.10000000000000009  0.33199999999999985 0.00000000000000000 -3.10000000000000009 
 -5.00000000000000000 2 -4.66800000000000015 2
Polygon3D 0
PolygonOnTriangulations 0
Surfaces 12
1 0.00000000000000000 3.10000000000000009 0.00000000000000000 -1.00000000000000000 0.00000000000000000 0.00000000000000000 0.00000000000000000 0.00000000000000000 1.00000000000000000 0.00000000000000000 1.00000000000000000 -0.00000000000000000 
10 0.00000000000000000 6.28318530717958623 0.78539816339745183 7.06858347057703806
5 0.15000000000000099 0.00000000000000000 0.00000000000000000 1.00000000000000000 0.00000000000000000 0.00000000000000000 0.00000000000000000 0.00000000000000000 -1.00000000000000000 -0.00000000000000000 1.00000000000000000 0.00000000000000000 2.64999999999999991 0.15000000000000099
10 0.00000000000000000 6.28318530717958623 -5.00000000000000000 -4.66800000000000015
2 5.00000000000000000 0.00000000000000000 0.00000000000000000 1.00000000000000000 0.00000000000000000 0.00000000000000000 0.00000000000000000 0.00000000000000000 -1.00000000000000000 -0.00000000000000000 1.00000000000000000 0.00000000000000000 3.10000000000000009
10 0.00000000000000000 6.28318530717958623 -4.84999999999999964 -0.15000000000000036
2 5.00000000000000000 0.00000000000000000 0.00000000000000000 1.00000000000000000 0.00000000000000000 0.00000000000000000 0.00000000000000000 0.00000000000000000 -1.00000000000000000 -0.00000000000000000 1.00000000000000000 0.00000000000000000 2.50000000000000000
10 0.00000000000000000 6.28318530717958623 5.49778714378213795 11.78097245096172330
5 4.84999999999999964 0.00000000000000000 0.00000000000000000 1.00000000000000000 0.00000000000000000 0.00000000000000000 0.00000000000000000 0.00000000000000000 -1.00000000000000000 -0.00000000000000000 1.00000000000000000 0.00000000000000000 2.64999999999999991 0.15000000000000199
1 5.00000000000000000 2.64999999999999991 0.00000000000000000 1.00000000000000000 0.00000000000000000 0.00000000000000000 0.00000000000000000 0.00000000000000000 -1.00000000000000000 -0.00000000000000000 1.00000000000000000 0.00000000000000000 
10 0.00000000000000000 6.28318530717958623 -0.33199999999999985 0.00000000000000000
2 5.00000000000000000 0.00000000000000000 0.00000000000000000 1.00000000000000000 0.00000000000000000 0.00000000000000000 0.00000000000000000 0.00000000000000000 -1.00000000000000000 -0.00000000000000000 1.00000000000000000 0.00000000000000000 3.10000000000000009
1 4.66800000000000015 3.10000000000000009 0.00000000000000000 1.00000000000000000 0.00000000000000000 0.00000000000000000 0.00000000000000000 0.00000000000000000 -1.00000000000000000 -0.00000000000000000 1.00000000000000000 0.00000000000000000 
10 0.00000000000000000 6.28318530717958623 -1.82474079051078020 -0.33199999999999985
2 5.00000000000000000 0.00000000000000000 0.00000000000000000 1.00000000000000000 0.00000000000000000 0.00000000000000000 0.00000000000000000 0.00000000000000000 -1.00000000000000000 -0.00000000000000000 1.00000000000000000 0.00000000000000000 3.40499999999999980
10 0.00000000000000000 6.28318530717958623 0.00000000000000000 6.28318530717958623
5 2.50000000000000000 0.00000000000000000 0.00000000000000000 1.00000000000000000 0.00000000000000000 0.00000000000000000 0.00000000000000000 0.00000000000000000 -1.00000000000000000 -0.00000000000000000 1.00000000000000000 0.00000000000000000 4.00000000000000000 0.90000000000000002
10 0.00000000000000000 6.28318530717958623 -4.66800000000000015 -3.17525920948922025
2 5.00000000000000000 0.00000000000000000 0.00000000000000000 1.00000000000000000 0.00000000000000000 0.00000000000000000 0.00000000000000000 0.00000000000000000 -1.00000000000000000 -0.00000000000000000 1.00000000000000000 0.00000000000000000 3.40499999999999980
1 0.33200000000000002 3.40499999999999980 0.00000000000000000 -1.00000000000000000 0.00000000000000000 0.00000000000000000 0.00000000000000000 0.00000000000000000 1.00000000000000000 0.00000000000000000 1.00000000000000000 -0.00000000000000000 
Triangulations 0

TShapes 62
Ve
0.000010000000000
0.000000000000000 0.000000000000000 -2.650000000000000
0 0

0101101
*
Ed
 0.000000100000000 1 1 0
1  1 0 0.000000000000000 6.283185307179586
2  1 2 0 0.000000000000000 6.283185307179586
4 G1 1 0 2 0
0

0101000
-62 0 +62 0 *
Wi

0101100
+61 0 *
Ve
0.000010000000000
0.000000000000000 0.000000000000000 -3.100000000000000
0 0

0101101
*
Ed
 0.000000100000000 1 1 0
1  2 0 0.000000000000000 6.283185307179586
2  2 3 0 0.000000000000000 6.283185307179586
4 C0 1 0 3 0
0

0101000
+59 0 -59 0 *
Wi

0101100
-58 0 *
Fa
0  0.000000100000000 1 0

0101000
+60 0 +57 0 *
Ve
0.000010000000000
0.150000000000000 0.000000000000000 -2.500000000000000
0 0

0101101
*
Ed
 0.000000100000000 1 1 0
1  3 0 0.000000000000000 6.283185307179586
2  3 2 0 0.000000000000000 6.283185307179586
2  4 4 0 0.000000000000000 6.283185307179586
4 G1 2 0 4 0
0

0101000
+55 0 -55 0 *
Ed
 0.000010000000000 1 1 0
1  4 0 3.141592653589800 4.712388980384690
3  5 6CN 2 0 3.141592653589800 4.712388980384690
0

0101000
+55 0 -62 0 *
Wi

0101100
+54 0 +53 0 -61 0 -53 0 *
Fa
0  0.000000100000000 2 0

0101000
+52 0 *
Ve
0.000010000000000
4.850000000000000 0.000000000000000 -2.500000000000000
0 0

0101101
*
Ed
 0.000000100000000 1 1 0
1  5 0 0.000000000000000 6.283185307179586
2  7 4 0 0.000000000000000 6.283185307179586
2  8 5 0 0.000000000000000 6.283185307179586
4 G1 4 0 5 0
0

0101000
-50 0 +50 0 *
Ed
 0.000010000000000 1 1 0
1  6 0 -4.850000000000000 -0.150000000000000
3  9 10CN 4 0 -4.850000000000000 -0.150000000000000
0

0101000
-50 0 +55 0 *
Wi

0101100
-49 0 -48 0 +54 0 +48 0 *
Fa
0  0.000000100000000 4 0

0101000
+47 0 *
Ve
0.000010000000000
5.000000000000000 0.000000000000000 -2.650000000000000
0 0

0101101
*
Ed
 0.000000100000000 1 1 0
1  7 0 0.000000000000000 6.283185307179586
2  11 5 0 0.000000000000000 6.283185307179586
4 G1 5 0 6 0
0

0101000
+45 0 -45 0 *
Ed
 0.000010000000000 1 1 0
1  8 0 1.570796326794897 3.141592653589793
3  12 13CN 5 0 1.570796326794897 3.141592653589793
0

0101000
+45 0 -50 0 *
Wi

0101100
+44 0 +43 0 -49 0 -43 0 *
Fa
0  0.000000100000000 5 0

0101000
+42 0 *
Ve
0.000010000000000
5.000000000000000 0.000000000000000 -3.100000000000000
0 0

0101101
*
Ed
 0.000000100000000 1 1 0
1  9 0 0.000000000000000 6.283185307179586
2  14 7 0 0.000000000000000 6.283185307179586
4 C0 6 0 7 0
0

0101000
-40 0 +40 0 *
Wi

0101100
+39 0 *
Wi

0101100
-44 0 *
Fa
0  0.000000100000000 6 0

0101000
+38 0 +37 0 *
Ve
0.000010000000000
4.668000000000000 0.000000000000000 -3.100000000000000
0 0

0101101
*
Ed
 0.000000100000000 1 1 0
1  10 0 0.000000000000000 6.283185307179586
2  15 7 0 0.000000000000000 6.283185307179586
4 C0 7 0 8 0
0

0101000
+35 0 -35 0 *
Ed
 0.000010000000000 1 1 0
1  11 0 -0.332000000000000 0.000000000000000
3  16 17CN 7 0 -0.332000000000000 0.000000000000000
0

0101000
+35 0 -40 0 *
Wi

0101100
+34 0 +33 0 -39 0 -33 0 *
Fa
0  0.000000100000000 7 0

0101000
+32 0 *
Ve
0.000010000000000
4.668000000000000 0.000000000000000 -3.405000000000000
0 0

0101101
*
Ed
 0.000000100000000 1 1 0
1  12 0 0.000000000000000 6.283185307179586
2  18 9 0 0.000000000000000 6.283185307179586
4 C0 8 0 9 0
0

0101000
-30 0 +30 0 *
Wi

0101100
+29 0 *
Wi

0101100
-34 0 *
Fa
0  0.000000100000000 8 0

0101000
+28 0 +27 0 *
Ve
0.000010000000000
3.175259209489220 0.000000000000000 -3.405000000000000
0 0

0101101
*
Ed
 0.000000100000000 1 1 0
1  13 0 0.000000000000000 6.283185307179586
2  19 9 0 0.000000000000000 6.283185307179586
2  20 10 0 0.000000000000000 6.283185307179586
4 C0 9 0 10 0
0

0101000
+25 0 -25 0 *
Ed
 0.000010000000000 1 1 0
1  14 0 -1.824740790510780 -0.332000000000000
3  21 22CN 9 0 -1.824740790510780 -0.332000000000000
0

0101000
+25 0 -30 0 *
Wi

0101100
+24 0 +23 0 -29 0 -23 0 *
Fa
0  0.000000100000000 9 0

0101000
+22 0 *
Ve
0.000010000000000
1.824740790510780 0.000000000000000 -3.405000000000000
0 0

0101101
*
Ed
 0.000010000000000 1 1 0
1  15 0 2.293095036034948 3.990090271144639
3  23 24CN 10 0 2.293095036034948 3.990090271144639
0

0101000
+25 0 -20 0 *
Ed
 0.000000100000000 1 1 0
1  16 0 0.000000000000000 6.283185307179586
2  25 10 0 0.000000000000000 6.283185307179586
2  26 11 0 0.000000000000000 6.283185307179586
4 C0 10 0 11 0
0

0101000
-20 0 +20 0 *
Wi

0101100
+24 0 +19 0 -18 0 -19 0 *
Fa
0  0.000000100000000 10 0

0101000
+17 0 *
Ve
0.000010000000000
0.332000000000000 0.000000000000000 -3.405000000000000
0 0

0101101
*
Ed
 0.000000100000000 1 1 0
1  17 0 0.000000000000000 6.283185307179586
2  27 11 0 0.000000000000000 6.283185307179586
4 C0 11 0 12 0
0

0101000
+15 0 -15 0 *
Ed
 0.000010000000000 1 1 0
1  18 0 -4.668000000000000 -3.175259209489220
3  28 29CN 11 0 -4.668000000000000 -3.175259209489220
0

0101000
+15 0 -20 0 *
Wi

0101100
+14 0 +13 0 -18 0 -13 0 *
Fa
0  0.000000100000000 11 0

0101000
+12 0 *
Ve
0.000010000000000
0.332000000000000 0.000000000000000 -3.100000000000000
0 0

0101101
*
Ed
 0.000000100000000 1 1 0
1  19 0 0.000000000000000 6.283185307179586
2  30 3 0 0.000000000000000 6.283185307179586
4 C0 12 0 3 0
0

0101000
-10 0 +10 0 *
Wi

0101100
+9 0 *
Wi

0101100
-14 0 *
Fa
0  0.000000100000000 12 0

0101000
+8 0 +7 0 *
Ed
 0.000010000000000 1 1 0
1  20 0 -5.000000000000000 -4.668000000000000
3  31 32CN 3 0 -5.000000000000000 -4.668000000000000
0

0101000
+59 0 -10 0 *
Wi

0101100
+58 0 +5 0 -9 0 -5 0 *
Fa
0  0.000000100000000 3 0

0101000
+4 0 *
Sh

0101100
+56 0 +51 0 -46 0 +41 0 +36 0 +31 0 +26 0 +21 0 -16 0 +11 0 
+6 0 +3 0 *
So

0100000
+2 0 *

+1 1 