
CASCADE Topology V1, (c) Matra-Datavision
Locations 9
1
1.000000000000000 0.000000000000000 0.000000000000000 0.000000000000000 
0.000000000000000 1.000000000000000 0.000000000000000 0.000000000000000 
0.000000000000000 0.000000000000000 1.000000000000000 0.000000000000000 
1
0.984807752909581 -0.173648177666501 0.000014222715703 25.500142229290482 
0.173648177615317 0.984807753009770 0.000004767282920 0.000047673544307 
-0.000014834470685 -0.000002225108518 0.999999999887494 10.000150001959243 
1
0.984807753012208 -0.173648177666930 0.000000000000000 25.500000000000000 
0.173648177666930 0.984807753012208 0.000000000000000 0.000000000000000 
0.000000000000000 0.000000000000000 1.000000000000000 0.000000000000000 
2  1 1 2 1 3 -1 0
1
1.000000000000000 0.000000000000000 0.000000000000000 -0.000089006824108 
0.000000000000000 1.000000000000000 0.000000000000000 -0.000013350651104 
0.000000000000000 0.000000000000000 1.000000000000000 -5.999999999324962 
2  1 1 2 1 3 -1 5 1 0
2  3 -1 0
2  1 1 2 1 0
2  3 -1 5 1 0
Curve2ds 0
Curves 12
1 6.87061654953264878 0.00002225119216201 10.00004808220008989 -0.00001483447068469 -0.00000222510851733 -0.99999999988749355 
1 3.43538244823235628 5.95002225129082429 10.00008580268398717 -0.00001483447068469 -0.00000222510851733 -0.99999999988749355 
1 6.87046820335654651 0.00000000000000000 0.00000000000000000 -0.50000000000000000 0.86602540378443871 0.00000000000000000 
1 -3.43508575436822783 5.95002225151760644 10.00018772244314036 -0.00001483447068469 -0.00000222510851733 -0.99999999988749355 
1 3.43523410167827326 5.95000000000000018 0.00000000000000000 -1.00000000000000000 0.00000000000000000 0.00000000000000000 
1 -6.87031985566851944 0.00002225164572569 10.00025192171839628 -0.00001483447068469 -0.00000222510851733 -0.99999999988749355 
1 -3.43523410167827326 5.95000000000000018 0.00000000000000000 -0.50000000000000000 -0.86602540378443871 0.00000000000000000 
1 -3.43508575436822694 -5.94997774845293659 10.00021420123449900 -0.00001483447068469 -0.00000222510851733 -0.99999999988749355 
1 -6.87046820335654651 0.00000000000000000 0.00000000000000000 0.50000000000000000 -0.86602540378443871 0.00000000000000000 
1 3.43538244823235717 -5.94997774867971874 10.00011228147534581 -0.00001483447068469 -0.00000222510851733 -0.99999999988749355 
1 -3.43523410167827326 -5.95000000000000018 0.00000000000000000 1.00000000000000000 0.00000000000000000 0.00000000000000000 
1 3.43523410167827326 -5.95000000000000018 0.00000000000000000 0.50000000000000000 0.86602540378443871 0.00000000000000000 
Polygon3D 0
PolygonOnTriangulations 0
Surfaces 7
1 6.87061654953264878 0.00002225119216201 10.00004808220008989 0.86602540368914926 0.49999999997017625 -0.00001395958272339 -0.49999999994498467 0.86602540379879889 0.00000549023483992 0.00001483447068469 0.00000222510851733 0.99999999988749377 
1 3.43538244823235628 5.95002225129082429 10.00008580268398717 -0.00000000000000010 0.99999999999752442 -0.00000222510851758 -0.99999999988996935 0.00000000003300821 0.00001483447068465 0.00001483447068469 0.00000222510851733 0.99999999988749377 
1 -3.43508575436822783 5.95002225151760644 10.00018772244314036 -0.86602540368914926 0.50000000002734823 0.00001173447420581 -0.49999999994498462 -0.86602540376579074 0.00000934423584472 0.00001483447068469 0.00000222510851733 0.99999999988749377 
1 -6.87031985566851944 0.00002225164572569 10.00025192171839628 -0.86602540368914926 -0.49999999997017625 0.00001395958272339 0.49999999994498467 -0.86602540379879889 -0.00000549023483992 0.00001483447068469 0.00000222510851733 0.99999999988749377 
1 -3.43508575436822694 -5.94997774845293659 10.00021420123449900 0.00000000000000010 -0.99999999999752442 0.00000222510851758 0.99999999988996935 -0.00000000003300821 -0.00001483447068465 0.00001483447068469 0.00000222510851733 0.99999999988749377 
1 3.43538244823235717 -5.94997774867971874 10.00011228147534581 0.86602540368914926 -0.50000000002734823 -0.00001173447420581 0.49999999994498462 0.86602540376579074 -0.00000934423584472 0.00001483447068469 0.00000222510851733 0.99999999988749377 
1 25.50014222929047492 0.00004767354430781 10.00015000195924131 0.00001422271570307 0.00000476728292019 0.99999999988749366 0.99999999989885724 0.00000000000000000 -0.00001422271570323 -0.00000000006780371 0.99999999998863653 -0.00000476728291970 
Triangulations 0

TShapes 34
Ve
0.000000100000000
6.870468203356547 0.000000000000000 0.000000000000000
0 0

0101101
*
Ed
 0.000000100000000 1 1 0
1  1 0 0.000000000000000 6.000000000000001
0

0101000
+34 4 -34 6 *
Ve
0.000000100000000
3.435234101678273 5.950000000000000 0.000000000000000
0 0

0101101
*
Ed
 0.000000100000000 1 1 0
1  2 0 0.000000000000000 6.000000000000001
0

0101000
+32 4 -32 6 *
Ed
 0.000000100000000 1 1 0
1  3 0 0.000000000000000 6.870468203356547
0

0101000
+34 0 -32 0 *
Wi

0101100
+33 0 -31 0 -30 4 +30 6 *
Fa
0  0.000000100000000 1 0

0101000
+29 0 *
Ve
0.000000100000000
-3.435234101678273 5.950000000000000 0.000000000000000
0 0

0101101
*
Ed
 0.000000100000000 1 1 0
1  4 0 0.000000000000000 6.000000000000001
0

0101000
+27 4 -27 6 *
Ed
 0.000000100000000 1 1 0
1  5 0 0.000000000000000 6.870468203356547
0

0101000
+32 0 -27 0 *
Wi

0101100
+31 0 -26 0 -25 4 +25 6 *
Fa
0  0.000000100000000 2 0

0101000
+24 0 *
Ve
0.000000100000000
-6.870468203356547 0.000000000000000 0.000000000000000
0 0

0101101
*
Ed
 0.000000100000000 1 1 0
1  6 0 0.000000000000000 6.000000000000001
0

0101000
+22 4 -22 6 *
Ed
 0.000000100000000 1 1 0
1  7 0 0.000000000000000 6.870468203356547
0

0101000
+27 0 -22 0 *
Wi

0101100
+26 0 -21 0 -20 4 +20 6 *
Fa
0  0.000000100000000 3 0

0101000
+19 0 *
Ve
0.000000100000000
-3.435234101678273 -5.950000000000000 0.000000000000000
0 0

0101101
*
Ed
 0.000000100000000 1 1 0
1  8 0 0.000000000000000 6.000000000000001
0

0101000
+17 4 -17 6 *
Ed
 0.000000100000000 1 1 0
1  9 0 0.000000000000000 6.870468203356547
0

0101000
+22 0 -17 0 *
Wi

0101100
+21 0 -16 0 -15 4 +15 6 *
Fa
0  0.000000100000000 4 0

0101000
+14 0 *
Ve
0.000000100000000
3.435234101678273 -5.950000000000000 0.000000000000000
0 0

0101101
*
Ed
 0.000000100000000 1 1 0
1  10 0 0.000000000000000 6.000000000000001
0

0101000
+12 4 -12 6 *
Ed
 0.000000100000000 1 1 0
1  11 0 0.000000000000000 6.870468203356547
0

0101000
+17 0 -12 0 *
Wi

0101100
+16 0 -11 0 -10 4 +10 6 *
Fa
0  0.000000100000000 5 0

0101000
+9 0 *
Ed
 0.000000100000000 1 1 0
1  12 0 0.000000000000000 6.870468203356547
0

0101000
+12 0 -34 0 *
Wi

0101100
+11 0 -33 0 -7 4 +7 6 *
Fa
0  0.000000100000000 6 0

0101000
+6 0 *
Wi

0101100
+30 0 +25 0 +20 0 +15 0 +10 0 +7 0 *
Fa
0  0.000000100000000 7 0

0101000
+4 8 *
Sh

0101100
+28 0 +23 0 +18 0 +13 0 +8 0 +5 0 +3 7 -3 9 *
So

1100000
+2 0 *

+1 0 