
CASCADE Topology V1, (c) Matra-Datavision
Locations 9
1
1.000000000000000 0.000000000000000 0.000000000000000 0.000000000000000 
0.000000000000000 1.000000000000000 0.000000000000000 0.000000000000000 
0.000000000000000 0.000000000000000 1.000000000000000 0.000000000000000 
1
1.000000000000000 0.000000000000000 0.000000000000000 0.000000000000000 
0.000000000000000 0.000000000000000 -1.000000000000000 0.000000000000002 
0.000000000000000 1.000000000000000 0.000000000000000 0.000000000000000 
1
1.000000000000000 0.000000000000000 0.000000000000000 0.000000000000000 
0.000000000000000 1.000000000000000 0.000000000000000 0.000000000000000 
0.000000000000000 0.000000000000000 1.000000000000000 0.000000000000000 
2  1 1 2 1 3 -1 0
1
1.000000000000000 0.000000000000000 0.000000000000000 0.000000000000000 
0.000000000000000 1.000000000000000 0.000000000000000 247.175867671910083 
0.000000000000000 0.000000000000000 1.000000000000000 -0.000000000000055 
2  1 1 2 1 3 -1 5 1 0
2  3 -1 0
2  1 1 2 1 0
2  3 -1 5 1 0
Curve2ds 0
Curves 36
1 -61.00000000000000000 0.00000000000000722 24.50000000000000000 0.00000000000000000 1.00000000000000000 -0.00000000000000022 
1 -61.00000000000000000 -0.00000000000000532 -32.00000000000000000 0.00000000000000000 1.00000000000000000 -0.00000000000000022 
1 -61.00000000000000000 24.50000000000000000 0.00000000000000000 0.00000000000000000 -1.00000000000000000 0.00000000000000000 
1 44.00000000000000000 -0.00000000000000532 -32.00000000000000000 0.00000000000000000 1.00000000000000000 -0.00000000000000022 
1 -61.00000000000000000 -32.00000000000000000 0.00000000000000000 1.00000000000000000 0.00000000000000000 0.00000000000000000 
1 44.00000000000000000 0.00000000000000722 24.50000000000000000 0.00000000000000000 1.00000000000000000 -0.00000000000000022 
1 44.00000000000000000 -32.00000000000000000 0.00000000000000000 0.00000000000000000 1.00000000000000000 0.00000000000000000 
1 44.00000000000000000 24.50000000000000000 0.00000000000000000 -1.00000000000000000 0.00000000000000000 0.00000000000000000 
1 -46.00000000000000000 0.00000000000000245 3.00000000000000000 0.00000000000000000 1.00000000000000000 -0.00000000000000022 
1 -46.00000000000000000 0.00000000000000611 19.50000000000000000 0.00000000000000000 1.00000000000000000 -0.00000000000000022 
1 -46.00000000000000000 3.00000000000000000 0.00000000000000000 0.00000000000000000 1.00000000000000000 0.00000000000000000 
1 -11.50000000000000000 0.00000000000000611 19.50000000000000000 0.00000000000000000 1.00000000000000000 -0.00000000000000022 
1 -46.00000000000000000 19.50000000000000000 0.00000000000000000 1.00000000000000000 0.00000000000000000 0.00000000000000000 
1 -11.50000000000000000 0.00000000000000533 16.00000000000000000 0.00000000000000000 1.00000000000000000 -0.00000000000000022 
1 -11.50000000000000000 19.50000000000000000 0.00000000000000000 0.00000000000000000 -1.00000000000000000 0.00000000000000000 
1 39.00000000000000000 0.00000000000000533 16.00000000000000000 0.00000000000000000 1.00000000000000000 -0.00000000000000022 
1 -11.50000000000000000 16.00000000000000000 0.00000000000000000 1.00000000000000000 0.00000000000000000 0.00000000000000000 
1 39.00000000000000000 0.00000000000000045 -6.00000000000000000 0.00000000000000000 1.00000000000000000 -0.00000000000000022 
1 39.00000000000000000 16.00000000000000000 0.00000000000000000 0.00000000000000000 -1.00000000000000000 0.00000000000000000 
1 12.00000000000000000 0.00000000000000045 -6.00000000000000000 0.00000000000000000 1.00000000000000000 -0.00000000000000022 
1 39.00000000000000000 -6.00000000000000000 0.00000000000000000 -1.00000000000000000 0.00000000000000000 0.00000000000000000 
1 12.00000000000000000 -0.00000000000000177 -16.00000000000000000 0.00000000000000000 1.00000000000000000 -0.00000000000000022 
1 12.00000000000000000 -6.00000000000000000 0.00000000000000000 0.00000000000000000 -1.00000000000000000 0.00000000000000000 
1 -11.00000000000000000 -0.00000000000000177 -16.00000000000000000 0.00000000000000000 1.00000000000000000 -0.00000000000000022 
1 12.00000000000000000 -16.00000000000000000 0.00000000000000000 -1.00000000000000000 0.00000000000000000 0.00000000000000000 
1 -11.00000000000000000 -0.00000000000000421 -27.00000000000000000 0.00000000000000000 1.00000000000000000 -0.00000000000000022 
1 -11.00000000000000000 -16.00000000000000000 0.00000000000000000 0.00000000000000000 -1.00000000000000000 0.00000000000000000 
1 -46.00000000000000000 -0.00000000000000421 -27.00000000000000000 0.00000000000000000 1.00000000000000000 -0.00000000000000022 
1 -11.00000000000000000 -27.00000000000000000 0.00000000000000000 -1.00000000000000000 0.00000000000000000 0.00000000000000000 
1 -46.00000000000000000 -0.00000000000000133 -14.00000000000000000 0.00000000000000000 1.00000000000000000 -0.00000000000000022 
1 -46.00000000000000000 -27.00000000000000000 0.00000000000000000 0.00000000000000000 1.00000000000000000 0.00000000000000000 
1 -56.00000000000000000 -0.00000000000000133 -14.00000000000000000 0.00000000000000000 1.00000000000000000 -0.00000000000000022 
1 -46.00000000000000000 -14.00000000000000000 0.00000000000000000 -1.00000000000000000 0.00000000000000000 0.00000000000000000 
1 -56.00000000000000000 0.00000000000000245 3.00000000000000000 0.00000000000000000 1.00000000000000000 -0.00000000000000022 
1 -56.00000000000000000 -14.00000000000000000 0.00000000000000000 0.00000000000000000 1.00000000000000000 0.00000000000000000 
1 -56.00000000000000000 3.00000000000000000 0.00000000000000000 1.00000000000000000 0.00000000000000000 0.00000000000000000 
Polygon3D 0
PolygonOnTriangulations 0
Surfaces 19
1 -61.00000000000000000 0.00000000000000722 24.50000000000000000 -1.00000000000000000 0.00000000000000000 -0.00000000000000000 0.00000000000000000 -0.00000000000000022 -1.00000000000000000 -0.00000000000000000 -1.00000000000000000 0.00000000000000022 
1 -61.00000000000000000 -0.00000000000000532 -32.00000000000000000 0.00000000000000000 -0.00000000000000022 -1.00000000000000000 1.00000000000000000 0.00000000000000000 0.00000000000000000 0.00000000000000000 -1.00000000000000000 0.00000000000000022 
1 44.00000000000000000 -0.00000000000000532 -32.00000000000000000 1.00000000000000000 -0.00000000000000000 0.00000000000000000 0.00000000000000000 0.00000000000000022 1.00000000000000000 -0.00000000000000000 -1.00000000000000000 0.00000000000000022 
1 44.00000000000000000 0.00000000000000722 24.50000000000000000 0.00000000000000000 0.00000000000000022 1.00000000000000000 -1.00000000000000000 0.00000000000000000 0.00000000000000000 0.00000000000000000 -1.00000000000000000 0.00000000000000022 
1 -46.00000000000000000 0.00000000000000245 3.00000000000000000 1.00000000000000000 -0.00000000000000000 0.00000000000000000 0.00000000000000000 0.00000000000000022 1.00000000000000000 -0.00000000000000000 -1.00000000000000000 0.00000000000000022 
1 -46.00000000000000000 0.00000000000000611 19.50000000000000000 0.00000000000000000 -0.00000000000000022 -1.00000000000000000 1.00000000000000000 0.00000000000000000 0.00000000000000000 0.00000000000000000 -1.00000000000000000 0.00000000000000022 
1 -11.50000000000000000 0.00000000000000611 19.50000000000000000 -1.00000000000000000 0.00000000000000000 -0.00000000000000000 0.00000000000000000 -0.00000000000000022 -1.00000000000000000 -0.00000000000000000 -1.00000000000000000 0.00000000000000022 
1 -11.50000000000000000 0.00000000000000533 16.00000000000000000 0.00000000000000000 -0.00000000000000022 -1.00000000000000000 1.00000000000000000 0.00000000000000000 0.00000000000000000 0.00000000000000000 -1.00000000000000000 0.00000000000000022 
1 39.00000000000000000 0.00000000000000533 16.00000000000000000 -1.00000000000000000 0.00000000000000000 -0.00000000000000000 0.00000000000000000 -0.00000000000000022 -1.00000000000000000 -0.00000000000000000 -1.00000000000000000 0.00000000000000022 
1 39.00000000000000000 0.00000000000000045 -6.00000000000000000 0.00000000000000000 0.00000000000000022 1.00000000000000000 -1.00000000000000000 0.00000000000000000 0.00000000000000000 0.00000000000000000 -1.00000000000000000 0.00000000000000022 
1 12.00000000000000000 0.00000000000000045 -6.00000000000000000 -1.00000000000000000 0.00000000000000000 -0.00000000000000000 0.00000000000000000 -0.00000000000000022 -1.00000000000000000 -0.00000000000000000 -1.00000000000000000 0.00000000000000022 
1 12.00000000000000000 -0.00000000000000177 -16.00000000000000000 0.00000000000000000 0.00000000000000022 1.00000000000000000 -1.00000000000000000 0.00000000000000000 0.00000000000000000 0.00000000000000000 -1.00000000000000000 0.00000000000000022 
1 -11.00000000000000000 -0.00000000000000177 -16.00000000000000000 -1.00000000000000000 0.00000000000000000 -0.00000000000000000 0.00000000000000000 -0.00000000000000022 -1.00000000000000000 -0.00000000000000000 -1.00000000000000000 0.00000000000000022 
1 -11.00000000000000000 -0.00000000000000421 -27.00000000000000000 0.00000000000000000 0.00000000000000022 1.00000000000000000 -1.00000000000000000 0.00000000000000000 0.00000000000000000 0.00000000000000000 -1.00000000000000000 0.00000000000000022 
1 -46.00000000000000000 -0.00000000000000421 -27.00000000000000000 1.00000000000000000 -0.00000000000000000 0.00000000000000000 0.00000000000000000 0.00000000000000022 1.00000000000000000 -0.00000000000000000 -1.00000000000000000 0.00000000000000022 
1 -46.00000000000000000 -0.00000000000000133 -14.00000000000000000 0.00000000000000000 0.00000000000000022 1.00000000000000000 -1.00000000000000000 0.00000000000000000 0.00000000000000000 0.00000000000000000 -1.00000000000000000 0.00000000000000022 
1 -56.00000000000000000 -0.00000000000000133 -14.00000000000000000 1.00000000000000000 -0.00000000000000000 0.00000000000000000 0.00000000000000000 0.00000000000000022 1.00000000000000000 -0.00000000000000000 -1.00000000000000000 0.00000000000000022 
1 -56.00000000000000000 0.00000000000000245 3.00000000000000000 0.00000000000000000 -0.00000000000000022 -1.00000000000000000 1.00000000000000000 0.00000000000000000 0.00000000000000000 0.00000000000000000 -1.00000000000000000 0.00000000000000022 
1 -9.65800330033003362 0.00000000000000117 -2.74628712871287117 0.00000000000000000 1.00000000000000000 0.00000000000000000 0.00000000000000000 -0.00000000000000000 1.00000000000000000 1.00000000000000000 0.00000000000000000 -0.00000000000000000 
Triangulations 0

TShapes 95
Ve
0.000000100000000
-61.000000000000000 24.500000000000000 0.000000000000000
0 0

0101101
*
Ed
 0.000000100000000 1 1 0
1  1 0 0.000000000000000 247.175867671910083
0

0101000
+95 4 -95 6 *
Ve
0.000000100000000
-61.000000000000000 -32.000000000000000 0.000000000000000
0 0

0101101
*
Ed
 0.000000100000000 1 1 0
1  2 0 0.000000000000000 247.175867671910083
0

0101000
+93 4 -93 6 *
Ed
 0.000000100000000 1 1 0
1  3 0 0.000000000000000 56.500000000000000
0

0101000
+95 0 -93 0 *
Wi

0101100
+94 0 -92 0 -91 4 +91 6 *
Fa
0  0.000000100000000 1 0

0101000
+90 0 *
Ve
0.000000100000000
44.000000000000000 -32.000000000000000 0.000000000000000
0 0

0101101
*
Ed
 0.000000100000000 1 1 0
1  4 0 0.000000000000000 247.175867671910083
0

0101000
+88 4 -88 6 *
Ed
 0.000000100000000 1 1 0
1  5 0 0.000000000000000 105.000000000000000
0

0101000
+93 0 -88 0 *
Wi

0101100
+92 0 -87 0 -86 4 +86 6 *
Fa
0  0.000000100000000 2 0

0101000
+85 0 *
Ve
0.000000100000000
44.000000000000000 24.500000000000000 0.000000000000000
0 0

0101101
*
Ed
 0.000000100000000 1 1 0
1  6 0 0.000000000000000 247.175867671910083
0

0101000
+83 4 -83 6 *
Ed
 0.000000100000000 1 1 0
1  7 0 0.000000000000000 56.500000000000000
0

0101000
+88 0 -83 0 *
Wi

0101100
+87 0 -82 0 -81 4 +81 6 *
Fa
0  0.000000100000000 3 0

0101000
+80 0 *
Ed
 0.000000100000000 1 1 0
1  8 0 0.000000000000000 105.000000000000000
0

0101000
+83 0 -95 0 *
Wi

0101100
+82 0 -94 0 -78 4 +78 6 *
Fa
0  0.000000100000000 4 0

0101000
+77 0 *
Ve
0.000000100000000
-46.000000000000000 3.000000000000000 0.000000000000000
0 0

0101101
*
Ed
 0.000000100000000 1 1 0
1  9 0 0.000000000000000 247.175867671910083
0

0101000
+75 4 -75 6 *
Ve
0.000000100000000
-46.000000000000000 19.500000000000000 0.000000000000000
0 0

0101101
*
Ed
 0.000000100000000 1 1 0
1  10 0 0.000000000000000 247.175867671910083
0

0101000
+73 4 -73 6 *
Ed
 0.000000100000000 1 1 0
1  11 0 0.000000000000000 16.500000000000000
0

0101000
+75 0 -73 0 *
Wi

0101100
+74 0 -72 0 -71 4 +71 6 *
Fa
0  0.000000100000000 5 0

0101000
+70 0 *
Ve
0.000000100000000
-11.500000000000000 19.500000000000000 0.000000000000000
0 0

0101101
*
Ed
 0.000000100000000 1 1 0
1  12 0 0.000000000000000 247.175867671910083
0

0101000
+68 4 -68 6 *
Ed
 0.000000100000000 1 1 0
1  13 0 0.000000000000000 34.500000000000000
0

0101000
+73 0 -68 0 *
Wi

0101100
+72 0 -67 0 -66 4 +66 6 *
Fa
0  0.000000100000000 6 0

0101000
+65 0 *
Ve
0.000000100000000
-11.500000000000000 16.000000000000000 0.000000000000000
0 0

0101101
*
Ed
 0.000000100000000 1 1 0
1  14 0 0.000000000000000 247.175867671910083
0

0101000
+63 4 -63 6 *
Ed
 0.000000100000000 1 1 0
1  15 0 0.000000000000000 3.500000000000000
0

0101000
+68 0 -63 0 *
Wi

0101100
+67 0 -62 0 -61 4 +61 6 *
Fa
0  0.000000100000000 7 0

0101000
+60 0 *
Ve
0.000000100000000
39.000000000000000 16.000000000000000 0.000000000000000
0 0

0101101
*
Ed
 0.000000100000000 1 1 0
1  16 0 0.000000000000000 247.175867671910083
0

0101000
+58 4 -58 6 *
Ed
 0.000000100000000 1 1 0
1  17 0 0.000000000000000 50.500000000000000
0

0101000
+63 0 -58 0 *
Wi

0101100
+62 0 -57 0 -56 4 +56 6 *
Fa
0  0.000000100000000 8 0

0101000
+55 0 *
Ve
0.000000100000000
39.000000000000000 -6.000000000000000 0.000000000000000
0 0

0101101
*
Ed
 0.000000100000000 1 1 0
1  18 0 0.000000000000000 247.175867671910083
0

0101000
+53 4 -53 6 *
Ed
 0.000000100000000 1 1 0
1  19 0 0.000000000000000 22.000000000000000
0

0101000
+58 0 -53 0 *
Wi

0101100
+57 0 -52 0 -51 4 +51 6 *
Fa
0  0.000000100000000 9 0

0101000
+50 0 *
Ve
0.000000100000000
12.000000000000000 -6.000000000000000 0.000000000000000
0 0

0101101
*
Ed
 0.000000100000000 1 1 0
1  20 0 0.000000000000000 247.175867671910083
0

0101000
+48 4 -48 6 *
Ed
 0.000000100000000 1 1 0
1  21 0 0.000000000000000 27.000000000000000
0

0101000
+53 0 -48 0 *
Wi

0101100
+52 0 -47 0 -46 4 +46 6 *
Fa
0  0.000000100000000 10 0

0101000
+45 0 *
Ve
0.000000100000000
12.000000000000000 -16.000000000000000 0.000000000000000
0 0

0101101
*
Ed
 0.000000100000000 1 1 0
1  22 0 0.000000000000000 247.175867671910083
0

0101000
+43 4 -43 6 *
Ed
 0.000000100000000 1 1 0
1  23 0 0.000000000000000 10.000000000000000
0

0101000
+48 0 -43 0 *
Wi

0101100
+47 0 -42 0 -41 4 +41 6 *
Fa
0  0.000000100000000 11 0

0101000
+40 0 *
Ve
0.000000100000000
-11.000000000000000 -16.000000000000000 0.000000000000000
0 0

0101101
*
Ed
 0.000000100000000 1 1 0
1  24 0 0.000000000000000 247.175867671910083
0

0101000
+38 4 -38 6 *
Ed
 0.000000100000000 1 1 0
1  25 0 0.000000000000000 23.000000000000000
0

0101000
+43 0 -38 0 *
Wi

0101100
+42 0 -37 0 -36 4 +36 6 *
Fa
0  0.000000100000000 12 0

0101000
+35 0 *
Ve
0.000000100000000
-11.000000000000000 -27.000000000000000 0.000000000000000
0 0

0101101
*
Ed
 0.000000100000000 1 1 0
1  26 0 0.000000000000000 247.175867671910083
0

0101000
+33 4 -33 6 *
Ed
 0.000000100000000 1 1 0
1  27 0 0.000000000000000 11.000000000000000
0

0101000
+38 0 -33 0 *
Wi

0101100
+37 0 -32 0 -31 4 +31 6 *
Fa
0  0.000000100000000 13 0

0101000
+30 0 *
Ve
0.000000100000000
-46.000000000000000 -27.000000000000000 0.000000000000000
0 0

0101101
*
Ed
 0.000000100000000 1 1 0
1  28 0 0.000000000000000 247.175867671910083
0

0101000
+28 4 -28 6 *
Ed
 0.000000100000000 1 1 0
1  29 0 0.000000000000000 35.000000000000000
0

0101000
+33 0 -28 0 *
Wi

0101100
+32 0 -27 0 -26 4 +26 6 *
Fa
0  0.000000100000000 14 0

0101000
+25 0 *
Ve
0.000000100000000
-46.000000000000000 -14.000000000000000 0.000000000000000
0 0

0101101
*
Ed
 0.000000100000000 1 1 0
1  30 0 0.000000000000000 247.175867671910083
0

0101000
+23 4 -23 6 *
Ed
 0.000000100000000 1 1 0
1  31 0 0.000000000000000 13.000000000000000
0

0101000
+28 0 -23 0 *
Wi

0101100
+27 0 -22 0 -21 4 +21 6 *
Fa
0  0.000000100000000 15 0

0101000
+20 0 *
Ve
0.000000100000000
-56.000000000000000 -14.000000000000000 0.000000000000000
0 0

0101101
*
Ed
 0.000000100000000 1 1 0
1  32 0 0.000000000000000 247.175867671910083
0

0101000
+18 4 -18 6 *
Ed
 0.000000100000000 1 1 0
1  33 0 0.000000000000000 10.000000000000000
0

0101000
+23 0 -18 0 *
Wi

0101100
+22 0 -17 0 -16 4 +16 6 *
Fa
0  0.000000100000000 16 0

0101000
+15 0 *
Ve
0.000000100000000
-56.000000000000000 3.000000000000000 0.000000000000000
0 0

0101101
*
Ed
 0.000000100000000 1 1 0
1  34 0 0.000000000000000 247.175867671910083
0

0101000
+13 4 -13 6 *
Ed
 0.000000100000000 1 1 0
1  35 0 0.000000000000000 17.000000000000000
0

0101000
+18 0 -13 0 *
Wi

0101100
+17 0 -12 0 -11 4 +11 6 *
Fa
0  0.000000100000000 17 0

0101000
+10 0 *
Ed
 0.000000100000000 1 1 0
1  36 0 0.000000000000000 10.000000000000000
0

0101000
+13 0 -75 0 *
Wi

0101100
+12 0 -74 0 -8 4 +8 6 *
Fa
0  0.000000100000000 18 0

0101000
+7 0 *
Wi

0101100
+91 0 +86 0 +81 0 +78 0 *
Wi

0101100
+71 0 +66 0 +61 0 +56 0 +51 0 +46 0 +41 0 +36 0 +31 0 +26 0 
+21 0 +16 0 +11 0 +8 0 *
Fa
0  0.000000100000000 19 0

0101000
-5 8 -4 8 *
Sh

0101100
-89 0 -84 0 -79 0 -76 0 -69 0 -64 0 -59 0 -54 0 -49 0 -44 0 
-39 0 -34 0 -29 0 -24 0 -19 0 -14 0 -9 0 -6 0 +3 7 -3 9 
*
So

1100000
-2 0 *

+1 0 