
CASCADE Topology V1, (c) Matra-Datavision
Locations 35
1
1.000000000000000 0.000000000000000 0.000000000000000 0.000000000000000 
0.000000000000000 1.000000000000000 0.000000000000000 0.000000000000000 
0.000000000000000 0.000000000000000 1.000000000000000 0.000000000000000 
1
1.000000000000000 0.000000000000000 0.000000000000000 0.000000000000000 
0.000000000000000 1.000000000000000 0.000000000000000 0.000000000000000 
0.000000000000000 0.000000000000000 1.000000000000000 0.000000000000000 
1
1.000000000000000 0.000000000000000 0.000000000000000 0.000000000000000 
0.000000000000000 1.000000000000000 0.000000000000000 0.000000000000000 
0.000000000000000 0.000000000000000 1.000000000000000 0.000000000000000 
1
1.000000000000000 0.000000000000000 0.000000000000000 0.000000000000000 
0.000000000000000 1.000000000000000 0.000000000000000 0.000000000000000 
0.000000000000000 0.000000000000000 1.000000000000000 0.000000000000000 
1
1.000000000000000 0.000000000000000 0.000000000000000 0.000000000000000 
0.000000000000000 1.000000000000000 0.000000000000000 0.000000000000000 
0.000000000000000 0.000000000000000 1.000000000000000 0.000000000000000 
2  2 1 3 -1 4 1 5 -1 0
1
1.000000000000000 0.000000000000000 0.000000000000000 0.000000000000000 
0.000000000000000 1.000000000000000 0.000000000000000 0.000000000000000 
0.000000000000000 0.000000000000000 1.000000000000000 0.000000000000000 
1
1.000000000000000 0.000000000000000 0.000000000000000 0.000000000000000 
0.000000000000000 1.000000000000000 0.000000000000000 0.000000000000000 
0.000000000000000 0.000000000000000 1.000000000000000 0.000000000000000 
1
1.000000000000000 0.000000000000000 0.000000000000000 0.000000000000000 
0.000000000000000 1.000000000000000 0.000000000000000 0.000000000000000 
0.000000000000000 0.000000000000000 1.000000000000000 0.000000000000000 
2  7 1 8 1 9 -1 0
1
1.000000000000000 0.000000000000000 0.000000000000000 0.000000000000000 
0.000000000000000 1.000000000000000 0.000000000000000 0.000000000000000 
0.000000000000000 0.000000000000000 1.000000000000000 6.000000000000000 
2  7 1 8 1 9 -1 11 1 0
2  9 -1 2 1 3 -1 4 1 5 -1 0
2  7 1 8 1 0
2  4 1 5 -1 0
2  9 -1 11 1 2 1 3 -1 0
2  7 1 8 1 9 -1 11 1 2 1 3 -1 0
1
1.000000000000000 0.000000000000000 0.000000000000000 0.000000000000000 
0.000000000000000 1.000000000000000 0.000000000000000 0.000000000000000 
0.000000000000000 0.000000000000000 1.000000000000000 0.000000000000000 
1
1.000000000000000 0.000000000000000 0.000000000000000 0.000000000000000 
0.000000000000000 1.000000000000000 0.000000000000000 0.000000000000000 
0.000000000000000 0.000000000000000 1.000000000000000 6.000000000000000 
2  18 1 19 1 3 -1 0
2  3 1 19 -1 18 -1 0
1
1.000000000000000 0.000000000000000 0.000000000000000 0.000000000000000 
0.000000000000000 1.000000000000000 0.000000000000000 0.000000000000000 
0.000000000000000 0.000000000000000 1.000000000000000 12.000000000000000 
2  22 -1 3 1 19 -1 18 -1 0
2  18 1 19 1 3 -1 22 1 0
2  3 -1 22 1 4 1 5 -1 0
2  18 1 19 1 3 -1 22 1 4 1 5 -1 0
1
1.000000000000000 0.000000000000000 0.000000000000000 0.000000000000000 
0.000000000000000 1.000000000000000 0.000000000000000 0.000000000000000 
0.000000000000000 0.000000000000000 1.000000000000000 0.000000000000000 
1
1.000000000000000 0.000000000000000 0.000000000000000 0.000000000000000 
0.000000000000000 1.000000000000000 0.000000000000000 0.000000000000000 
0.000000000000000 0.000000000000000 1.000000000000000 18.000000000000000 
2  27 1 28 1 5 -1 0
2  5 1 28 -1 27 -1 0
1
1.000000000000000 0.000000000000000 0.000000000000000 -0.000000000000000 
0.000000000000000 1.000000000000000 0.000000000000000 -0.000000000000000 
0.000000000000000 0.000000000000000 1.000000000000000 -12.000000000000000 
2  31 -1 5 1 28 -1 27 -1 0
2  27 1 28 1 5 -1 31 1 0
2  5 -1 31 1 0
2  27 1 28 1 0
Curve2ds 8
1 0.00000000000000000 0.00000000000000000 1.00000000000000000 0.00000000000000000 
1 0.00000000000000000 -12.00000000000000000 1.00000000000000000 0.00000000000000000 
1 0.00000000000000000 0.00000000000000000 0.00000000000000000 -1.00000000000000000 
1 6.28318530717958623 0.00000000000000000 0.00000000000000000 -1.00000000000000000 
1 0.00000000000000000 0.00000000000000000 1.00000000000000000 0.00000000000000000 
1 0.00000000000000000 -12.00000000000000000 1.00000000000000000 0.00000000000000000 
1 0.00000000000000000 0.00000000000000000 0.00000000000000000 -1.00000000000000000 
1 6.28318530717958623 0.00000000000000000 0.00000000000000000 -1.00000000000000000 
Curves 16
1 6.87046820335654651 0.00000000000000000 0.00000000000000000 0.00000000000000000 0.00000000000000000 1.00000000000000000 
1 3.43523410167827326 5.95000000000000018 0.00000000000000000 0.00000000000000000 0.00000000000000000 1.00000000000000000 
1 6.87046820335654651 0.00000000000000000 0.00000000000000000 -0.50000000000000000 0.86602540378443871 0.00000000000000000 
1 3.43523410167827326 -5.95000000000000018 0.00000000000000000 0.00000000000000000 0.00000000000000000 1.00000000000000000 
1 3.43523410167827326 -5.95000000000000018 0.00000000000000000 0.50000000000000000 0.86602540378443871 0.00000000000000000 
1 -3.43523410167827326 5.95000000000000018 0.00000000000000000 0.00000000000000000 0.00000000000000000 1.00000000000000000 
1 3.43523410167827326 5.95000000000000018 0.00000000000000000 -1.00000000000000000 0.00000000000000000 0.00000000000000000 
1 -3.43523410167827326 5.95000000000000018 0.00000000000000000 -0.50000000000000000 -0.86602540378443871 0.00000000000000000 
1 -6.87046820335654651 0.00000000000000000 0.00000000000000000 0.50000000000000000 -0.86602540378443871 0.00000000000000000 
1 -3.43523410167827326 -5.95000000000000018 0.00000000000000000 1.00000000000000000 0.00000000000000000 0.00000000000000000 
2 0.00000000000000000 0.00000000000000000 0.00000000000000000 0.00000000000000000 0.00000000000000000 1.00000000000000000 1.00000000000000000 0.00000000000000000 0.00000000000000000 0.00000000000000000 1.00000000000000000 0.00000000000000000 5.70000000000000018
1 -3.43523410167827326 -5.95000000000000018 0.00000000000000000 0.00000000000000000 0.00000000000000000 1.00000000000000000 
1 -6.87046820335654651 0.00000000000000000 0.00000000000000000 0.00000000000000000 0.00000000000000000 1.00000000000000000 
1 5.70000000000000018 0.00000000000000000 6.00000000000000000 0.00000000000000000 0.00000000000000000 1.00000000000000000 
2 0.00000000000000000 0.00000000000000000 0.00000000000000000 0.00000000000000000 0.00000000000000000 1.00000000000000000 1.00000000000000000 0.00000000000000000 0.00000000000000000 0.00000000000000000 1.00000000000000000 0.00000000000000000 1.60000000000000009
1 1.60000000000000009 0.00000000000000000 18.00000000000000000 -0.00000000000000000 -0.00000000000000000 -1.00000000000000000 
Polygon3D 0
PolygonOnTriangulations 0
Surfaces 11
1 6.87046820335654651 0.00000000000000000 0.00000000000000000 -0.86602540378443871 -0.50000000000000000 0.00000000000000000 -0.50000000000000000 0.86602540378443871 0.00000000000000000 -0.00000000000000000 0.00000000000000000 -1.00000000000000000 
1 3.43523410167827326 -5.95000000000000018 0.00000000000000000 -0.86602540378443871 0.50000000000000000 0.00000000000000000 0.50000000000000000 0.86602540378443871 0.00000000000000000 0.00000000000000000 0.00000000000000000 -1.00000000000000000 
1 3.43523410167827326 5.95000000000000018 0.00000000000000000 0.00000000000000000 -1.00000000000000000 0.00000000000000000 -1.00000000000000000 0.00000000000000000 0.00000000000000000 -0.00000000000000000 -0.00000000000000000 -1.00000000000000000 
1 -0.00000000000000009 -0.00000000000000017 0.00000000000000000 0.00000000000000000 0.00000000000000000 1.00000000000000000 1.00000000000000000 0.00000000000000000 -0.00000000000000000 -0.00000000000000000 1.00000000000000000 0.00000000000000000 
2 0.00000000000000000 0.00000000000000000 6.00000000000000000 -0.00000000000000000 -0.00000000000000000 -1.00000000000000000 1.00000000000000000 0.00000000000000000 0.00000000000000000 0.00000000000000000 1.00000000000000000 0.00000000000000000 5.70000000000000018
1 -3.43523410167827326 -5.95000000000000018 0.00000000000000000 0.00000000000000000 1.00000000000000000 0.00000000000000000 1.00000000000000000 0.00000000000000000 0.00000000000000000 0.00000000000000000 0.00000000000000000 -1.00000000000000000 
1 -3.43523410167827326 5.95000000000000018 0.00000000000000000 0.86602540378443871 -0.50000000000000000 0.00000000000000000 -0.50000000000000000 -0.86602540378443871 0.00000000000000000 0.00000000000000000 -0.00000000000000000 -1.00000000000000000 
1 -6.87046820335654651 0.00000000000000000 0.00000000000000000 0.86602540378443871 0.50000000000000000 -0.00000000000000000 0.50000000000000000 -0.86602540378443871 0.00000000000000000 0.00000000000000000 -0.00000000000000000 -1.00000000000000000 
1 -0.00000000000000036 0.00000000000000049 5.99999999999999911 0.00000000000000000 0.00000000000000000 1.00000000000000000 1.00000000000000000 0.00000000000000000 -0.00000000000000000 -0.00000000000000000 1.00000000000000000 0.00000000000000000 
2 0.00000000000000000 0.00000000000000000 18.00000000000000000 0.00000000000000000 0.00000000000000000 1.00000000000000000 1.00000000000000000 0.00000000000000000 0.00000000000000000 0.00000000000000000 1.00000000000000000 0.00000000000000000 1.60000000000000009
1 -0.00000000000000005 0.00000000000000015 17.99999999999999645 0.00000000000000000 0.00000000000000000 1.00000000000000000 1.00000000000000000 0.00000000000000000 -0.00000000000000000 -0.00000000000000000 1.00000000000000000 0.00000000000000000 
Triangulations 0

TShapes 56
Ve
0.000000100000000
6.870468203356547 0.000000000000000 0.000000000000000
0 0

0101101
*
Ed
 0.000000100000000 1 1 0
1  1 0 0.000000000000000 6.000000000000000
0

0101000
+56 10 -56 12 *
Ve
0.000000100000000
3.435234101678273 5.950000000000000 0.000000000000000
0 0

0101101
*
Ed
 0.000000100000000 1 1 0
1  2 0 0.000000000000000 6.000000000000000
0

0101000
+54 10 -54 12 *
Ed
 0.000000100000000 1 1 0
1  3 0 0.000000000000000 6.870468203356547
0

0101000
+56 0 -54 0 *
Wi

0101100
+55 0 -53 0 -52 10 +52 12 *
Fa
0  0.000000100000000 1 0

0101000
+51 0 *
Ve
0.000000100000000
3.435234101678273 -5.950000000000000 0.000000000000000
0 0

0101101
*
Ed
 0.000000100000000 1 1 0
1  4 0 0.000000000000000 6.000000000000000
0

0101000
+49 10 -49 12 *
Ed
 0.000000100000000 1 1 0
1  5 0 0.000000000000000 6.870468203356547
0

0101000
+49 0 -56 0 *
Wi

0101100
+48 0 -55 0 -47 10 +47 12 *
Fa
0  0.000000100000000 2 0

0101000
+46 0 *
Ve
0.000000100000000
-3.435234101678273 5.950000000000000 0.000000000000000
0 0

0101101
*
Ed
 0.000000100000000 1 1 0
1  6 0 0.000000000000000 6.000000000000000
0

0101000
+44 10 -44 12 *
Ed
 0.000000100000000 1 1 0
1  7 0 0.000000000000000 6.870468203356547
0

0101000
+54 0 -44 0 *
Wi

0101100
+53 0 -43 0 -42 10 +42 12 *
Fa
0  0.000000100000000 3 0

0101000
+41 0 *
Ve
0.000000100000000
-6.870468203356547 0.000000000000000 0.000000000000000
0 0

0101101
*
Ed
 0.000000100000000 1 1 0
1  8 0 0.000000000000000 6.870468203356547
0

0101000
+44 0 -39 0 *
Ve
0.000000100000000
-3.435234101678273 -5.950000000000000 0.000000000000000
0 0

0101101
*
Ed
 0.000000100000000 1 1 0
1  9 0 0.000000000000000 6.870468203356547
0

0101000
+39 0 -37 0 *
Ed
 0.000000100000000 1 1 0
1  10 0 0.000000000000000 6.870468203356547
0

0101000
+37 0 -49 0 *
Wi

0101100
+52 0 +42 0 +38 0 +36 0 +35 0 +47 0 *
Fa
0  0.000000100000000 4 0

0101000
+34 14 *
Wi

0101100
+52 17 +47 17 +42 17 +35 17 +38 17 +36 17 *
Ve
0.000000100000000
5.700000000000000 0.000000000000000 6.000000000000000
0 0

0101101
*
Ed
 0.000000100000000 1 1 0
1  11 0 0.000000000000000 6.283185307179586
2  1 5 21 0.000000000000000 6.283185307179586
2  2 5 23 0.000000000000000 6.283185307179586
0

0101000
+31 21 -31 21 *
Wi

0101100
-30 20 *
Fa
0  0.000000100000000 4 16

0101000
+32 0 +29 0 *
Ed
 0.000000100000000 1 1 0
1  12 0 0.000000000000000 6.000000000000000
0

0101000
+37 10 -37 12 *
Wi

0101100
+27 0 -48 0 -35 10 +35 12 *
Fa
0  0.000000100000000 6 0

0101000
+26 0 *
Ed
 0.000000100000000 1 1 0
1  13 0 0.000000000000000 6.000000000000000
0

0101000
+39 10 -39 12 *
Wi

0101100
+43 0 -24 0 -38 10 +38 12 *
Fa
0  0.000000100000000 7 0

0101000
+23 0 *
Wi

0101100
+24 0 -27 0 -36 10 +36 12 *
Fa
0  0.000000100000000 8 0

0101000
+21 0 *
Ve
0.000000100000000
5.700000000000000 0.000000000000000 0.000000000000000
0 0

0101101
*
Ed
 0.000000100000000 1 1 0
1  14 0 0.000000000000000 12.000000000000000
3  3 4CN 5 0 0.000000000000000 12.000000000000000
0

0101000
+31 0 -19 24 *
Ed
 0.000000100000000 1 1 0
1  11 0 0.000000000000000 6.283185307179586
2  1 5 21 0.000000000000000 6.283185307179586
2  2 5 23 0.000000000000000 6.283185307179586
0

0101100
+19 0 -19 0 *
Wi

0101100
+18 0 -18 0 -30 20 +17 24 *
Fa
0  0.000000100000000 5 0

0101000
+16 0 *
Wi

0101100
+17 26 *
Ve
0.000000100000000
1.600000000000000 0.000000000000000 18.000000000000000
0 0

0101101
*
Ed
 0.000000100000000 1 1 0
1  15 0 0.000000000000000 6.283185307179586
2  5 10 30 0.000000000000000 6.283185307179586
2  6 10 32 0.000000000000000 6.283185307179586
0

0101000
+13 30 -13 30 *
Wi

0101100
-12 29 *
Fa
0  0.000000100000000 9 25

0101000
+14 0 +11 0 *
Ve
0.000000100000000
1.600000000000000 0.000000000000000 0.000000000000000
0 0

0101101
*
Ed
 0.000000100000000 1 1 0
1  16 0 0.000000000000000 12.000000000000000
3  7 8CN 10 0 0.000000000000000 12.000000000000000
0

0101000
+13 0 -9 33 *
Ed
 0.000000100000000 1 1 0
1  15 0 0.000000000000000 6.283185307179586
2  5 10 30 0.000000000000000 6.283185307179586
2  6 10 32 0.000000000000000 6.283185307179586
0

0101100
+9 0 -9 0 *
Wi

0101100
+8 0 -8 0 -12 29 +7 33 *
Fa
0  0.000000100000000 10 0

0101000
+6 0 *
Wi

0101100
+7 0 *
Fa
0  0.000000100000000 11 0

0101000
+4 35 *
Sh

0101100
-50 6 -45 6 -40 6 -33 13 +28 15 -25 6 -22 6 -20 6 -15 15 +10 0 
-5 0 +3 34 *
So

0100000
+2 0 *

+1 1 