
CASCADE Topology V1, (c) Matra-Datavision
Locations 11
1
1.000000000000000 0.000000000000000 0.000000000000000 0.000000000000000 
0.000000000000000 1.000000000000000 0.000000000000000 0.000000000000000 
0.000000000000000 0.000000000000000 1.000000000000000 0.000000000000000 
1
-1.000000000000000 0.000000000000000 0.000000000000000 0.000000000000000 
0.000000000000000 0.000000000000000 1.000000000000000 -0.000000000000001 
0.000000000000000 1.000000000000000 -0.000000000000000 0.000000000000000 
1
1.000000000000000 0.000000000000000 0.000000000000000 0.000000000000000 
0.000000000000000 1.000000000000000 0.000000000000000 0.000000000000000 
0.000000000000000 0.000000000000000 1.000000000000000 0.000000000000000 
2  1 1 2 1 3 -1 0
1
1.000000000000000 0.000000000000000 0.000000000000000 0.000000000000000 
0.000000000000000 1.000000000000000 0.000000000000000 -221.014679376732801 
0.000000000000000 0.000000000000000 1.000000000000000 0.000000000000049 
2  1 1 2 1 3 -1 5 1 0
2  3 -1 0
2  1 1 2 1 0
2  3 -1 5 1 0
2  3 1 2 -1 1 -1 0
2  5 -1 3 1 2 -1 1 -1 0
Curve2ds 0
Curves 37
1 39.00000000000000000 -0.00000000000000683 -27.00000000000000000 0.00000000000000000 -1.00000000000000000 0.00000000000000022 
1 -11.00000000000000000 -0.00000000000000683 -27.00000000000000000 0.00000000000000000 -1.00000000000000000 0.00000000000000022 
1 -39.00000000000000000 -27.00000000000000000 0.00000000000000000 1.00000000000000000 0.00000000000000000 0.00000000000000000 
1 -11.00000000000000000 -0.00000000000000439 -16.00000000000000000 0.00000000000000000 -1.00000000000000000 0.00000000000000022 
1 11.00000000000000000 -27.00000000000000000 0.00000000000000000 0.00000000000000000 1.00000000000000000 0.00000000000000000 
1 12.00000000000000000 -0.00000000000000439 -16.00000000000000000 0.00000000000000000 -1.00000000000000000 0.00000000000000022 
1 11.00000000000000000 -16.00000000000000000 0.00000000000000000 -1.00000000000000000 0.00000000000000000 0.00000000000000000 
1 12.00000000000000000 -0.00000000000000216 -6.00000000000000000 0.00000000000000000 -1.00000000000000000 0.00000000000000022 
1 -12.00000000000000000 -16.00000000000000000 0.00000000000000000 0.00000000000000000 1.00000000000000000 0.00000000000000000 
1 39.00000000000000000 -0.00000000000000216 -6.00000000000000000 0.00000000000000000 -1.00000000000000000 0.00000000000000022 
1 -12.00000000000000000 -6.00000000000000000 0.00000000000000000 -1.00000000000000000 0.00000000000000000 0.00000000000000000 
1 -39.00000000000000000 -6.00000000000000000 0.00000000000000000 0.00000000000000000 -1.00000000000000000 0.00000000000000000 
1 39.00000000000000000 0.00000000000000350 19.50000000000000000 0.00000000000000000 -1.00000000000000000 0.00000000000000022 
1 -11.50000000000000000 0.00000000000000350 19.50000000000000000 0.00000000000000000 -1.00000000000000000 0.00000000000000022 
1 -39.00000000000000000 19.50000000000000000 0.00000000000000000 1.00000000000000000 0.00000000000000000 0.00000000000000000 
1 -11.50000000000000000 0.00000000000000272 16.00000000000000000 0.00000000000000000 -1.00000000000000000 0.00000000000000022 
1 11.50000000000000000 19.50000000000000000 0.00000000000000000 0.00000000000000000 -1.00000000000000000 0.00000000000000000 
1 39.00000000000000000 0.00000000000000272 15.99999999992603250 0.00000000000000000 -1.00000000000000000 0.00000000000000022 
1 -39.00000000000000000 15.99999999992603250 0.00000000000000000 0.00000000000000000 1.00000000000000000 0.00000000000000000 
1 8.50000000000000000 0.00000000000000272 15.99999999992603250 1.00000000000000000 0.00000000000000000 0.00000000000000000 
1 -11.50000000000000000 -221.01467937673280062 16.00000000000004974 1.00000000000000000 0.00000000000000000 0.00000000000000000 
1 -56.00000000000000000 0.00000000000000350 19.50000000000000000 0.00000000000000000 -1.00000000000000000 0.00000000000000022 
1 -46.00000000000000000 0.00000000000000350 19.50000000000000000 0.00000000000000000 -1.00000000000000000 0.00000000000000022 
1 56.00000000000000000 19.50000000000000000 0.00000000000000000 -1.00000000000000000 0.00000000000000000 0.00000000000000000 
1 -46.00000000000000000 -0.00000000000000017 3.00000000000000000 0.00000000000000000 -1.00000000000000000 0.00000000000000022 
1 46.00000000000000000 19.50000000000000000 0.00000000000000000 0.00000000000000000 -1.00000000000000000 0.00000000000000000 
1 -56.00000000000000000 -0.00000000000000017 3.00000000000000000 0.00000000000000000 -1.00000000000000000 0.00000000000000022 
1 46.00000000000000000 3.00000000000000000 0.00000000000000000 1.00000000000000000 0.00000000000000000 0.00000000000000000 
1 56.00000000000000000 3.00000000000000000 0.00000000000000000 0.00000000000000000 1.00000000000000000 0.00000000000000000 
1 -56.00000000000000000 -0.00000000000000683 -27.00000000000000000 0.00000000000000000 -1.00000000000000000 0.00000000000000022 
1 -46.00000000000000000 -0.00000000000000683 -27.00000000000000000 0.00000000000000000 -1.00000000000000000 0.00000000000000022 
1 56.00000000000000000 -27.00000000000000000 0.00000000000000000 -1.00000000000000000 0.00000000000000000 0.00000000000000000 
1 -46.00000000000000000 -0.00000000000000394 -14.00000000000000000 0.00000000000000000 -1.00000000000000000 0.00000000000000022 
1 46.00000000000000000 -27.00000000000000000 0.00000000000000000 0.00000000000000000 1.00000000000000000 0.00000000000000000 
1 -56.00000000000000000 -0.00000000000000394 -14.00000000000000000 0.00000000000000000 -1.00000000000000000 0.00000000000000022 
1 46.00000000000000000 -14.00000000000000000 0.00000000000000000 1.00000000000000000 0.00000000000000000 0.00000000000000000 
1 56.00000000000000000 -14.00000000000000000 0.00000000000000000 0.00000000000000000 -1.00000000000000000 0.00000000000000000 
Polygon3D 0
PolygonOnTriangulations 0
Surfaces 22
1 39.00000000000000000 -0.00000000000000683 -27.00000000000000000 -0.00000000000000000 -0.00000000000000022 -1.00000000000000000 -1.00000000000000000 0.00000000000000000 0.00000000000000000 0.00000000000000000 1.00000000000000000 -0.00000000000000022 
1 -11.00000000000000000 -0.00000000000000683 -27.00000000000000000 -1.00000000000000000 0.00000000000000000 0.00000000000000000 0.00000000000000000 0.00000000000000022 1.00000000000000000 0.00000000000000000 1.00000000000000000 -0.00000000000000022 
1 -11.00000000000000000 -0.00000000000000439 -16.00000000000000000 -0.00000000000000000 0.00000000000000022 1.00000000000000000 1.00000000000000000 0.00000000000000000 0.00000000000000000 0.00000000000000000 1.00000000000000000 -0.00000000000000022 
1 12.00000000000000000 -0.00000000000000439 -16.00000000000000000 -1.00000000000000000 0.00000000000000000 0.00000000000000000 0.00000000000000000 0.00000000000000022 1.00000000000000000 0.00000000000000000 1.00000000000000000 -0.00000000000000022 
1 12.00000000000000000 -0.00000000000000216 -6.00000000000000000 -0.00000000000000000 0.00000000000000022 1.00000000000000000 1.00000000000000000 0.00000000000000000 0.00000000000000000 0.00000000000000000 1.00000000000000000 -0.00000000000000022 
1 39.00000000000000000 -0.00000000000000216 -6.00000000000000000 1.00000000000000000 0.00000000000000000 0.00000000000000000 0.00000000000000000 -0.00000000000000022 -1.00000000000000000 0.00000000000000000 1.00000000000000000 -0.00000000000000022 
1 -3.85673352434621686 -0.00000000000000147 -2.87320916905690504 0.00000000000000000 1.00000000000000000 0.00000000000000000 0.00000000000000000 -0.00000000000000000 1.00000000000000000 1.00000000000000000 0.00000000000000000 -0.00000000000000000 
1 39.00000000000000000 0.00000000000000350 19.50000000000000000 -0.00000000000000000 -0.00000000000000022 -1.00000000000000000 -1.00000000000000000 0.00000000000000000 0.00000000000000000 0.00000000000000000 1.00000000000000000 -0.00000000000000022 
1 -11.50000000000000000 0.00000000000000350 19.50000000000000000 1.00000000000000000 0.00000000000000000 0.00000000000000000 0.00000000000000000 -0.00000000000000022 -1.00000000000000000 0.00000000000000000 1.00000000000000000 -0.00000000000000022 
1 39.00000000000000000 0.00000000000000272 15.99999999992603250 -1.00000000000000000 0.00000000000000000 0.00000000000000000 0.00000000000000000 0.00000000000000022 1.00000000000000000 0.00000000000000000 1.00000000000000000 -0.00000000000000022 
1 -3.85673352434621686 -0.00000000000000147 -2.87320916905690504 0.00000000000000000 1.00000000000000000 0.00000000000000000 0.00000000000000000 -0.00000000000000000 1.00000000000000000 1.00000000000000000 0.00000000000000000 -0.00000000000000000 
1 13.74999999999999645 -110.50733968836640031 15.99999999996160938 -0.00000000000145178 -0.00000000000000023 -1.00000000000000000 -1.00000000000000000 0.00000000000000000 0.00000000000145178 -0.00000000000000000 1.00000000000000000 -0.00000000000000023 
1 -56.00000000000000000 0.00000000000000350 19.50000000000000000 -0.00000000000000000 0.00000000000000022 1.00000000000000000 1.00000000000000000 0.00000000000000000 0.00000000000000000 0.00000000000000000 1.00000000000000000 -0.00000000000000022 
1 -46.00000000000000000 0.00000000000000350 19.50000000000000000 1.00000000000000000 0.00000000000000000 0.00000000000000000 0.00000000000000000 -0.00000000000000022 -1.00000000000000000 0.00000000000000000 1.00000000000000000 -0.00000000000000022 
1 -46.00000000000000000 -0.00000000000000017 3.00000000000000000 -0.00000000000000000 -0.00000000000000022 -1.00000000000000000 -1.00000000000000000 0.00000000000000000 0.00000000000000000 0.00000000000000000 1.00000000000000000 -0.00000000000000022 
1 -56.00000000000000000 -0.00000000000000017 3.00000000000000000 -1.00000000000000000 0.00000000000000000 0.00000000000000000 0.00000000000000000 0.00000000000000022 1.00000000000000000 0.00000000000000000 1.00000000000000000 -0.00000000000000022 
1 -3.85673352434621686 -0.00000000000000147 -2.87320916905690504 0.00000000000000000 1.00000000000000000 0.00000000000000000 0.00000000000000000 -0.00000000000000000 1.00000000000000000 1.00000000000000000 0.00000000000000000 -0.00000000000000000 
1 -56.00000000000000000 -0.00000000000000683 -27.00000000000000000 -0.00000000000000000 0.00000000000000022 1.00000000000000000 1.00000000000000000 0.00000000000000000 0.00000000000000000 0.00000000000000000 1.00000000000000000 -0.00000000000000022 
1 -46.00000000000000000 -0.00000000000000683 -27.00000000000000000 -1.00000000000000000 0.00000000000000000 0.00000000000000000 0.00000000000000000 0.00000000000000022 1.00000000000000000 0.00000000000000000 1.00000000000000000 -0.00000000000000022 
1 -46.00000000000000000 -0.00000000000000394 -14.00000000000000000 -0.00000000000000000 -0.00000000000000022 -1.00000000000000000 -1.00000000000000000 0.00000000000000000 0.00000000000000000 0.00000000000000000 1.00000000000000000 -0.00000000000000022 
1 -56.00000000000000000 -0.00000000000000394 -14.00000000000000000 1.00000000000000000 0.00000000000000000 0.00000000000000000 0.00000000000000000 -0.00000000000000022 -1.00000000000000000 0.00000000000000000 1.00000000000000000 -0.00000000000000022 
1 -3.85673352434621686 -0.00000000000000147 -2.87320916905690504 0.00000000000000000 1.00000000000000000 0.00000000000000000 0.00000000000000000 -0.00000000000000000 1.00000000000000000 1.00000000000000000 0.00000000000000000 -0.00000000000000000 
Triangulations 0

TShapes 110
Ve
0.000000100000000
-39.000000000000000 -27.000000000000000 0.000000000000000
0 0

0101101
*
Ed
 0.000000100000000 1 1 0
1  1 0 0.000000000000000 221.014679376732801
0

0101000
+110 4 -110 6 *
Ve
0.000000100000000
11.000000000000000 -27.000000000000000 0.000000000000000
0 0

0101101
*
Ed
 0.000000100000000 1 1 0
1  2 0 0.000000000000000 221.014679376732801
0

0101000
+108 4 -108 6 *
Ed
 0.000000100000000 1 1 0
1  3 0 0.000000000000000 50.000000000000000
0

0101000
+110 0 -108 0 *
Wi

0101100
+109 0 -107 0 -106 4 +106 6 *
Fa
0  0.000000100000000 1 0

0101000
+105 0 *
Ve
0.000000100000000
11.000000000000000 -16.000000000000000 0.000000000000000
0 0

0101101
*
Ed
 0.000000100000000 1 1 0
1  4 0 0.000000000000000 221.014679376732801
0

0101000
+103 4 -103 6 *
Ed
 0.000000100000000 1 1 0
1  5 0 0.000000000000000 11.000000000000000
0

0101000
+108 0 -103 0 *
Wi

0101100
+107 0 -102 0 -101 4 +101 6 *
Fa
0  0.000000100000000 2 0

0101000
+100 0 *
Ve
0.000000100000000
-12.000000000000000 -16.000000000000000 0.000000000000000
0 0

0101101
*
Ed
 0.000000100000000 1 1 0
1  6 0 0.000000000000000 221.014679376732801
0

0101000
+98 4 -98 6 *
Ed
 0.000000100000000 1 1 0
1  7 0 0.000000000000000 23.000000000000000
0

0101000
+103 0 -98 0 *
Wi

0101100
+102 0 -97 0 -96 4 +96 6 *
Fa
0  0.000000100000000 3 0

0101000
+95 0 *
Ve
0.000000100000000
-12.000000000000000 -6.000000000000000 0.000000000000000
0 0

0101101
*
Ed
 0.000000100000000 1 1 0
1  8 0 0.000000000000000 221.014679376732801
0

0101000
+93 4 -93 6 *
Ed
 0.000000100000000 1 1 0
1  9 0 0.000000000000000 10.000000000000000
0

0101000
+98 0 -93 0 *
Wi

0101100
+97 0 -92 0 -91 4 +91 6 *
Fa
0  0.000000100000000 4 0

0101000
+90 0 *
Ve
0.000000100000000
-39.000000000000000 -6.000000000000000 0.000000000000000
0 0

0101101
*
Ed
 0.000000100000000 1 1 0
1  10 0 0.000000000000000 221.014679376732801
0

0101000
+88 4 -88 6 *
Ed
 0.000000100000000 1 1 0
1  11 0 0.000000000000000 27.000000000000000
0

0101000
+93 0 -88 0 *
Wi

0101100
+92 0 -87 0 -86 4 +86 6 *
Fa
0  0.000000100000000 5 0

0101000
+85 0 *
Ed
 0.000000100000000 1 1 0
1  12 0 0.000000000000000 21.000000000000000
0

0101000
+88 0 -110 0 *
Wi

0101100
+87 0 -109 0 -83 4 +83 6 *
Fa
0  0.000000100000000 6 0

0101000
+82 0 *
Wi

0101100
+106 0 +101 0 +96 0 +91 0 +86 0 +83 0 *
Fa
0  0.000000100000000 7 0

0101000
+80 8 *
Sh

0101100
+104 0 +99 0 +94 0 +89 0 +84 0 +81 0 +79 7 -79 9 *
So

0100000
+78 0 *
Ve
0.000000100000000
-39.000000000000000 19.500000000000000 0.000000000000000
0 0

0101101
*
Ed
 0.000000100000000 1 1 0
1  13 0 0.000000000000000 221.014679376732801
0

0101000
+76 4 -76 6 *
Ve
0.000000100000000
11.500000000000000 19.500000000000000 0.000000000000000
0 0

0101101
*
Ed
 0.000000100000000 1 1 0
1  14 0 0.000000000000000 221.014679376732801
0

0101000
+74 4 -74 6 *
Ed
 0.000000100000000 1 1 0
1  15 0 0.000000000000000 50.500000000000000
0

0101000
+76 0 -74 0 *
Wi

0101100
+75 0 -73 0 -72 4 +72 6 *
Fa
0  0.000000100000000 8 0

0101000
+71 0 *
Ve
0.000000100000000
11.500000000000000 16.000000000000000 0.000000000000000
0 0

0101101
*
Ed
 0.000000100000000 1 1 0
1  16 0 0.000000000000000 221.014679376732801
0

0101000
+69 4 -69 6 *
Ed
 0.000000100000000 1 1 0
1  17 0 0.000000000000000 3.500000000000000
0

0101000
+74 0 -69 0 *
Wi

0101100
+73 0 -68 0 -67 4 +67 6 *
Fa
0  0.000000100000000 9 0

0101000
+66 0 *
Ve
0.000000100000000
-39.000000000000000 15.999999999926033 0.000000000000000
0 0

0101101
*
Ed
 0.000000100000000 1 1 0
1  18 0 0.000000000000000 221.014679376732801
0

0101000
+64 4 -64 6 *
Ed
 0.000000100000000 1 1 0
1  19 0 0.000000000000000 3.500000000073967
0

0101000
+64 0 -76 0 *
Wi

0101100
+63 0 -75 0 -62 4 +62 6 *
Fa
0  0.000000100000000 10 0

0101000
+61 0 *
Ed
 0.000000100000000 1 1 0
1  20 0 -20.000000000000000 30.500000000000000
0

0101000
+69 4 -64 4 *
Wi

0101000
+72 0 +67 0 +59 10 +62 0 *
Fa
0  0.000000100000000 11 0

0111000
-58 8 *
Ed
 0.000000100000000 1 1 0
1  21 0 0.000000000000000 50.500000000000000
0

0101000
+69 6 -64 6 *
Wi

0101000
+72 0 +67 0 +56 11 +62 0 *
Fa
0  0.000000100000000 11 0

0111000
-55 8 *
Wi

0101000
-68 0 +59 0 +63 0 -56 0 *
Fa
0  0.000000100000000 12 0

0111000
+53 0 *
Sh

0101000
-70 0 -65 0 -60 0 +57 7 -54 9 +52 0 *
So

0100000
+51 0 *
Ve
0.000000100000000
56.000000000000000 19.500000000000000 0.000000000000000
0 0

0101101
*
Ed
 0.000000100000000 1 1 0
1  22 0 0.000000000000000 221.014679376732801
0

0101000
+49 4 -49 6 *
Ve
0.000000100000000
46.000000000000000 19.500000000000000 0.000000000000000
0 0

0101101
*
Ed
 0.000000100000000 1 1 0
1  23 0 0.000000000000000 221.014679376732801
0

0101000
+47 4 -47 6 *
Ed
 0.000000100000000 1 1 0
1  24 0 0.000000000000000 10.000000000000000
0

0101000
+49 0 -47 0 *
Wi

0101100
+48 0 -46 0 -45 4 +45 6 *
Fa
0  0.000000100000000 13 0

0101000
+44 0 *
Ve
0.000000100000000
46.000000000000000 3.000000000000000 0.000000000000000
0 0

0101101
*
Ed
 0.000000100000000 1 1 0
1  25 0 0.000000000000000 221.014679376732801
0

0101000
+42 4 -42 6 *
Ed
 0.000000100000000 1 1 0
1  26 0 0.000000000000000 16.500000000000000
0

0101000
+47 0 -42 0 *
Wi

0101100
+46 0 -41 0 -40 4 +40 6 *
Fa
0  0.000000100000000 14 0

0101000
+39 0 *
Ve
0.000000100000000
56.000000000000000 3.000000000000000 0.000000000000000
0 0

0101101
*
Ed
 0.000000100000000 1 1 0
1  27 0 0.000000000000000 221.014679376732801
0

0101000
+37 4 -37 6 *
Ed
 0.000000100000000 1 1 0
1  28 0 0.000000000000000 10.000000000000000
0

0101000
+42 0 -37 0 *
Wi

0101100
+41 0 -36 0 -35 4 +35 6 *
Fa
0  0.000000100000000 15 0

0101000
+34 0 *
Ed
 0.000000100000000 1 1 0
1  29 0 0.000000000000000 16.500000000000000
0

0101000
+37 0 -49 0 *
Wi

0101100
+36 0 -48 0 -32 4 +32 6 *
Fa
0  0.000000100000000 16 0

0101000
+31 0 *
Wi

0101100
+45 0 +40 0 +35 0 +32 0 *
Fa
0  0.000000100000000 17 0

0101000
+29 8 *
Sh

0101100
+43 0 +38 0 +33 0 +30 0 +28 7 -28 9 *
So

0100000
+27 0 *
Ve
0.000000100000000
56.000000000000000 -27.000000000000000 0.000000000000000
0 0

0101101
*
Ed
 0.000000100000000 1 1 0
1  30 0 0.000000000000000 221.014679376732801
0

0101000
+25 4 -25 6 *
Ve
0.000000100000000
46.000000000000000 -27.000000000000000 0.000000000000000
0 0

0101101
*
Ed
 0.000000100000000 1 1 0
1  31 0 0.000000000000000 221.014679376732801
0

0101000
+23 4 -23 6 *
Ed
 0.000000100000000 1 1 0
1  32 0 0.000000000000000 10.000000000000000
0

0101000
+25 0 -23 0 *
Wi

0101100
+24 0 -22 0 -21 4 +21 6 *
Fa
0  0.000000100000000 18 0

0101000
+20 0 *
Ve
0.000000100000000
46.000000000000000 -14.000000000000000 0.000000000000000
0 0

0101101
*
Ed
 0.000000100000000 1 1 0
1  33 0 0.000000000000000 221.014679376732801
0

0101000
+18 4 -18 6 *
Ed
 0.000000100000000 1 1 0
1  34 0 0.000000000000000 13.000000000000000
0

0101000
+23 0 -18 0 *
Wi

0101100
+22 0 -17 0 -16 4 +16 6 *
Fa
0  0.000000100000000 19 0

0101000
+15 0 *
Ve
0.000000100000000
56.000000000000000 -14.000000000000000 0.000000000000000
0 0

0101101
*
Ed
 0.000000100000000 1 1 0
1  35 0 0.000000000000000 221.014679376732801
0

0101000
+13 4 -13 6 *
Ed
 0.000000100000000 1 1 0
1  36 0 0.000000000000000 10.000000000000000
0

0101000
+18 0 -13 0 *
Wi

0101100
+17 0 -12 0 -11 4 +11 6 *
Fa
0  0.000000100000000 20 0

0101000
+10 0 *
Ed
 0.000000100000000 1 1 0
1  37 0 0.000000000000000 13.000000000000000
0

0101000
+13 0 -25 0 *
Wi

0101100
+12 0 -24 0 -8 4 +8 6 *
Fa
0  0.000000100000000 21 0

0101000
+7 0 *
Wi

0101100
+21 0 +16 0 +11 0 +8 0 *
Fa
0  0.000000100000000 22 0

0101000
-5 8 *
Sh

0101100
-19 0 -14 0 -9 0 -6 0 +4 7 -4 9 *
So

0100000
+3 0 *
Co

1100000
+77 0 +50 0 +26 0 +2 0 *

+1 0 