
CASCADE Topology V1, (c) Matra-Datavision
Locations 49
1
1.000000000000000 0.000000000000000 0.000000000000000 0.000000000000000 
0.000000000000000 1.000000000000000 0.000000000000000 0.000000000000000 
0.000000000000000 0.000000000000000 1.000000000000000 0.000000000000000 
1
1.000000000000000 0.000000000000000 0.000000000000000 0.000000000000000 
0.000000000000000 1.000000000000000 0.000000000000000 0.000000000000000 
0.000000000000000 0.000000000000000 1.000000000000000 0.000000000000000 
1
1.000000000000000 0.000000000000000 0.000000000000000 0.000000000000000 
0.000000000000000 1.000000000000000 0.000000000000000 0.000000000000000 
0.000000000000000 0.000000000000000 1.000000000000000 0.000000000000000 
2  2 1 3 -1 0
1
1.000000000000000 0.000000000000000 0.000000000000000 0.000000000000000 
0.000000000000000 1.000000000000000 0.000000000000000 0.000000000000000 
0.000000000000000 0.000000000000000 1.000000000000000 0.000000000000000 
1
1.000000000000000 0.000000000000000 0.000000000000000 0.000000000000000 
0.000000000000000 1.000000000000000 0.000000000000000 0.000000000000000 
0.000000000000000 0.000000000000000 1.000000000000000 0.000000000000000 
1
1.000000000000000 0.000000000000000 0.000000000000000 0.000000000000000 
0.000000000000000 1.000000000000000 0.000000000000000 0.000000000000000 
0.000000000000000 0.000000000000000 1.000000000000000 0.000000000000000 
1
1.000000000000000 0.000000000000000 0.000000000000000 0.000000000000000 
0.000000000000000 1.000000000000000 0.000000000000000 0.000000000000000 
0.000000000000000 0.000000000000000 1.000000000000000 0.000000000000000 
2  5 1 6 -1 7 1 8 -1 0
1
1.000000000000000 0.000000000000000 0.000000000000000 0.000000000000000 
0.000000000000000 1.000000000000000 0.000000000000000 0.000000000000000 
0.000000000000000 0.000000000000000 1.000000000000000 0.000000000000000 
1
1.000000000000000 0.000000000000000 0.000000000000000 0.000000000000000 
0.000000000000000 0.000000000000000 -1.000000000000000 0.000000000000000 
0.000000000000000 1.000000000000000 0.000000000000000 0.000000000000000 
1
1.000000000000000 0.000000000000000 0.000000000000000 0.000000000000000 
0.000000000000000 1.000000000000000 0.000000000000000 0.000000000000000 
0.000000000000000 0.000000000000000 1.000000000000000 0.000000000000000 
2  10 1 11 1 12 -1 5 1 6 -1 7 1 8 -1 0
2  8 1 7 -1 6 1 5 -1 12 1 11 -1 10 -1 0
1
1.000000000000000 0.000000000000000 0.000000000000000 0.000000000000000 
0.000000000000000 1.000000000000000 0.000000000000000 -28.000000000000000 
0.000000000000000 0.000000000000000 1.000000000000000 0.000000000000006 
2  10 1 11 1 12 -1 15 1 5 1 6 -1 7 1 8 -1 0
2  8 1 7 -1 6 1 5 -1 15 -1 12 1 11 -1 10 -1 0
2  12 -1 5 1 6 -1 7 1 8 -1 2 1 3 -1 0
2  10 1 11 1 12 -1 5 1 6 -1 7 1 8 -1 2 1 3 -1 0
1
1.000000000000000 0.000000000000000 0.000000000000000 0.000000000000000 
0.000000000000000 1.000000000000000 0.000000000000000 0.000000000000000 
0.000000000000000 0.000000000000000 1.000000000000000 0.000000000000000 
1
-1.000000000000000 0.000000000000000 0.000000000000000 0.000000000000000 
0.000000000000000 0.000000000000000 1.000000000000000 -0.000000000000001 
0.000000000000000 1.000000000000000 -0.000000000000000 0.000000000000000 
2  20 1 21 1 8 -1 2 1 3 -1 0
2  8 1 21 -1 20 -1 0
2  3 1 2 -1 8 1 7 -1 6 1 5 -1 12 1 11 -1 10 -1 0
1
1.000000000000000 0.000000000000000 0.000000000000000 -0.000000000000000 
0.000000000000000 1.000000000000000 0.000000000000000 -0.000000000000000 
0.000000000000000 0.000000000000000 1.000000000000000 -8.000000000000000 
2  3 -1 25 1 0
1
1.000000000000000 0.000000000000000 0.000000000000000 0.000000000000000 
0.000000000000000 1.000000000000000 0.000000000000000 0.000000000000000 
0.000000000000000 0.000000000000000 1.000000000000000 0.000000000000000 
1
-1.000000000000000 0.000000000000000 0.000000000000000 0.000000000000000 
0.000000000000000 0.000000000000000 1.000000000000000 -0.000000000000001 
0.000000000000000 1.000000000000000 -0.000000000000000 0.000000000000000 
2  27 1 28 1 6 -1 7 1 8 -1 2 1 3 -1 0
2  6 1 28 -1 27 -1 0
2  3 1 2 -1 8 1 7 -1 6 1 28 -1 27 -1 0
2  20 1 21 1 8 -1 0
2  12 -1 15 1 5 1 6 -1 7 1 8 -1 0
2  5 1 6 -1 7 1 8 -1 2 1 3 -1 0
1
1.000000000000000 0.000000000000000 0.000000000000000 0.000000000000000 
0.000000000000000 1.000000000000000 0.000000000000000 0.000000000000000 
0.000000000000000 0.000000000000000 1.000000000000000 0.000000000000000 
1
1.000000000000000 0.000000000000000 0.000000000000000 0.000000000000000 
0.000000000000000 1.000000000000000 0.000000000000000 0.000000000000004 
0.000000000000000 0.000000000000000 1.000000000000000 19.500000000000000 
2  35 1 36 1 3 -1 0
2  3 1 36 -1 35 -1 0
2  25 -1 3 1 36 -1 35 -1 0
2  10 1 11 1 12 -1 15 1 5 1 6 -1 7 1 8 -1 2 1 3 -1 0
2  35 1 36 1 3 -1 25 1 0
2  7 1 8 -1 2 1 3 -1 0
2  3 1 2 -1 8 1 7 -1 0
1
1.000000000000000 0.000000000000000 0.000000000000000 0.000000000000000 
0.000000000000000 1.000000000000000 0.000000000000000 -25.000000000000000 
0.000000000000000 0.000000000000000 1.000000000000000 0.000000000000006 
2  27 1 28 1 6 -1 44 1 0
2  27 1 28 1 6 -1 44 1 7 1 8 -1 2 1 3 -1 0
2  27 1 28 1 6 -1 0
2  6 -1 44 1 7 1 8 -1 2 1 3 -1 0
2  27 1 28 1 0
Curve2ds 28
1 0.00000000000000000 0.00000000000000000 0.00000000000000000 -1.00000000000000000 
1 6.28318530717958623 0.00000000000000000 0.00000000000000000 -1.00000000000000000 
8 -24.09999999999999432 4.10000000000000320
1 15.25000000000000000 -10.00000000000000355 0.00000000000000000 1.00000000000000000 
8 -24.09999999999999432 4.10000000000000320
1 10.00000000000000355 -0.00000000000000486 1.00000000000000000 0.00000000000000000 
8 -8.00022808179588907 0.00022808179588907
1 23.25000000000000000 -34.10000000000000142 1.00000000000000000 0.00000000000000000 
8 -8.00022808179588907 0.00022808179588907
1 3.14159265358979356 0.00000000000000000 0.00000000000000000 1.00000000000000000 
8 18.75000000000000000 28.75000000000000000
1 -10.25000000000000000 -18.75000000000000000 0.00000000000000000 -1.00000000000000000 
8 18.75000000000000000 28.75000000000000000
1 -18.75000000000000000 -27.99999999999999645 1.00000000000000000 0.00000000000000000 
8 -11.62499999999999645 1.37500000000000178
1 -11.62500000000000355 -37.50000000000000000 1.00000000000000000 0.00000000000000000 
8 -11.62499999999999645 1.37500000000000178
1 11.62499999999999822 -27.99999999999999645 1.00000000000000000 -0.00000000000000022 
8 -11.62499999999999645 -0.62499999999999822
1 -11.62500000000000355 -2.50000000000000000 1.00000000000000000 0.00000000000000000 
8 -11.62499999999999645 -0.62499999999999822
1 11.62499999999999822 -27.99999999999999645 1.00000000000000000 -0.00000000000000022 
8 -1.25000000000000000 21.75000000000000000
1 -12.25000000000000000 -1.25000000000000000 0.00000000000000000 1.00000000000000000 
8 -1.25000000000000000 21.75000000000000000
1 1.25000000000000000 -27.99999999999999645 1.00000000000000000 0.00000000000000000 
8 -6.12499999999999734 3.87500000000000266
1 -6.12500000000000266 20.50000000000000000 1.00000000000000000 0.00000000000000000 
8 -6.12499999999999734 3.87500000000000266
1 6.12499999999999734 -27.99999999999999645 1.00000000000000000 -0.00000000000000022 
8 10.25000000000000000 37.25000000000000000
1 -2.25000000000000000 10.25000000000000000 0.00000000000000000 1.00000000000000000 
8 10.25000000000000000 37.25000000000000000
1 -10.25000000000000000 -27.99999999999999645 1.00000000000000000 0.00000000000000000 
8 -36.37499999998566125 14.12500000001433520
1 19.74999999997773870 11.12500000001433520 0.00000000000145178 -1.00000000000000000 
8 -36.37499999998566125 14.12500000001433520
1 11.12499999998566125 82.50733968836640031 1.00000000000000000 0.00000000000000000 
8 -11.62500000000000355 -8.12500000000000355
1 11.62499999999999645 -3.00000000000000000 -1.00000000000000000 0.00000000000000000 
8 -11.62500000000000355 -8.12500000000000355
1 11.62500000000000355 -28.00000000000000000 1.00000000000000000 0.00000000000000022 
8 -11.62500000000000355 4.87499999999999645
1 11.62499999999999645 -37.50000000000000000 -1.00000000000000000 0.00000000000000000 
8 -11.62500000000000355 4.87499999999999645
1 11.62500000000000355 -28.00000000000000000 1.00000000000000000 0.00000000000000022 
8 18.75000000000000000 28.75000000000000000
1 6.75000000000000000 -18.75000000000000000 0.00000000000000000 -1.00000000000000000 
8 18.75000000000000000 28.75000000000000000
1 -18.75000000000000000 -28.00000000000000000 1.00000000000000000 0.00000000000000000 
1 0.00000000000000000 0.00000000000000000 1.00000000000000000 0.00000000000000000 
1 0.00000000000000000 -8.00000000000000000 1.00000000000000000 0.00000000000000000 
Curves 70
1 -56.00000000000000000 19.50000000000000000 0.00000000000000000 0.00000000000000000 -1.00000000000000000 0.00000000000000000 
1 -56.00000000000000000 -0.00000000000000394 -14.00000000000000000 0.00000000000000000 -1.00000000000000000 0.00000000000000022 
1 -56.00000000000000000 -0.00000000000000017 3.00000000000000000 0.00000000000000000 -1.00000000000000000 0.00000000000000022 
1 46.00000000000000000 -14.00000000000000000 0.00000000000000000 1.00000000000000000 0.00000000000000000 0.00000000000000000 
1 46.00000000000000000 -27.00000000000000000 0.00000000000000000 0.00000000000000000 1.00000000000000000 0.00000000000000000 
1 -56.00000000000000000 -27.00000000000000000 0.00000000000000000 1.00000000000000000 0.00000000000000000 0.00000000000000000 
1 11.00000000000000000 -27.00000000000000000 0.00000000000000000 0.00000000000000000 1.00000000000000000 0.00000000000000000 
1 11.00000000000000000 -16.00000000000000000 0.00000000000000000 -1.00000000000000000 0.00000000000000000 0.00000000000000000 
1 -12.00000000000000000 -16.00000000000000000 0.00000000000000000 0.00000000000000000 1.00000000000000000 0.00000000000000000 
1 -12.00000000000000000 -6.00000000000000000 0.00000000000000000 -1.00000000000000000 0.00000000000000000 0.00000000000000000 
1 39.00000000000000000 -27.00000000000000000 0.00000000000000000 0.00000000000000000 1.00000000000000000 0.00000000000000000 
1 8.50000000000000000 0.00000000000000272 15.99999999992603250 1.00000000000000000 0.00000000000000000 0.00000000000000000 
1 11.50000000000000000 19.50000000000000000 0.00000000000000000 0.00000000000000000 -1.00000000000000000 0.00000000000000000 
1 39.00000000000000000 19.50000000000000000 0.00000000000000000 -1.00000000000000000 0.00000000000000000 0.00000000000000000 
1 -14.40000000000000036 0.00000000000000433 19.50000000000000000 -0.00000000000000000 -0.00000000000000000 -1.00000000000000000 
1 -18.50000000000000355 -0.00000000000000083 11.50000000000000000 1.00000000000000000 0.00000000000000000 0.00000000000000000 
1 14.50000000000000000 11.00000000000000000 0.00000000000000000 0.00000000000000000 1.00000000000000000 0.00000000000000000 
1 -37.00000000000000000 11.00000000000000000 0.00000000000000000 1.00000000000000000 0.00000000000000000 0.00000000000000000 
1 -37.00000000000000000 -1.00000000000000000 0.00000000000000000 0.00000000000000000 1.00000000000000000 0.00000000000000000 
1 -9.00000000000000000 -1.00000000000000000 0.00000000000000000 -1.00000000000000000 0.00000000000000000 0.00000000000000000 
1 -9.00000000000000000 -11.00000000000000000 0.00000000000000000 0.00000000000000000 1.00000000000000000 0.00000000000000000 
1 19.00000000000000000 -11.00000000000000000 0.00000000000000000 -1.00000000000000000 0.00000000000000000 0.00000000000000000 
1 19.00000000000000000 -19.00000000000000000 0.00000000000000000 0.00000000000000000 1.00000000000000000 0.00000000000000000 
1 38.00000000000000000 -19.00000000000000000 0.00000000000000000 -1.00000000000000000 0.00000000000000000 0.00000000000000000 
1 38.00000000000000000 -11.00000000000000000 0.00000000000000000 0.00000000000000000 -1.00000000000000000 0.00000000000000000 
1 53.00000000000000000 -11.00000000000000000 0.00000000000000000 -1.00000000000000000 0.00000000000000000 0.00000000000000000 
1 53.00000000000000000 0.00000000000000000 0.00000000000000000 0.00000000000000000 -1.00000000000000000 0.00000000000000000 
1 38.00000000000000000 0.00000000000000000 0.00000000000000000 1.00000000000000000 0.00000000000000000 0.00000000000000000 
1 38.00000000000000000 11.50000000000000000 0.00000000000000000 0.00000000000000000 -1.00000000000000000 0.00000000000000000 
1 -42.60000000000000142 -0.00000000000000083 19.50000000000000000 0.00000000000000000 0.00000000000000000 1.00000000000000000 
1 46.00000000000000000 19.50000000000000000 0.00000000000000000 0.00000000000000000 -1.00000000000000000 0.00000000000000000 
1 46.00000000000000000 3.00000000000000000 0.00000000000000000 1.00000000000000000 0.00000000000000000 0.00000000000000000 
1 -27.25000000000000000 -28.00000000000000000 -13.99999999999999289 -1.00000000000000000 0.00000000000000000 0.00000000000000000 
1 -46.00000000000000000 -0.00000000000000394 -14.00000000000000000 0.00000000000000000 -1.00000000000000000 0.00000000000000022 
1 -46.00000000000000000 -28.00000000000000000 -15.37499999999999645 0.00000000000000000 -0.00000000000000000 1.00000000000000000 
1 -11.00000000000000000 -28.00000000000000000 -15.37499999999999645 0.00000000000000000 -0.00000000000000000 1.00000000000000000 
1 -9.75000000000000000 -28.00000000000000000 -15.99999999999999289 1.00000000000000000 -0.00000000000000000 0.00000000000000000 
1 12.00000000000000000 -28.00000000000000000 -9.87499999999999645 0.00000000000000000 -0.00000000000000000 1.00000000000000000 
1 1.75000000000000000 -28.00000000000000000 -5.99999999999999378 1.00000000000000000 -0.00000000000000000 0.00000000000000000 
1 2.62500000001433431 -28.00000000000000000 15.99999999997774403 -1.00000000000000000 0.00000000000000000 0.00000000000145178 
1 -11.50000000000000000 -28.00000000000000000 7.87500000000000355 0.00000000000000000 0.00000000000000000 -1.00000000000000000 
1 -46.00000000000000000 -28.00000000000000000 7.87500000000000355 0.00000000000000000 0.00000000000000000 -1.00000000000000000 
1 -27.25000000000000000 -28.00000000000000000 3.00000000000000622 -1.00000000000000000 0.00000000000000000 0.00000000000000000 
1 -46.00000000000000000 -0.00000000000000017 3.00000000000000000 0.00000000000000000 -1.00000000000000000 0.00000000000000022 
1 -46.00000000000000000 -0.00000000000000683 -27.00000000000000000 0.00000000000000000 -1.00000000000000000 0.00000000000000022 
1 -11.00000000000000000 -0.00000000000000683 -27.00000000000000000 0.00000000000000000 -1.00000000000000000 0.00000000000000022 
1 -11.00000000000000000 -0.00000000000000439 -16.00000000000000000 0.00000000000000000 -1.00000000000000000 0.00000000000000022 
1 12.00000000000000000 -0.00000000000000439 -16.00000000000000000 0.00000000000000000 -1.00000000000000000 0.00000000000000022 
1 12.00000000000000000 -0.00000000000000216 -6.00000000000000000 0.00000000000000000 -1.00000000000000000 0.00000000000000022 
1 39.00000000000000000 -0.00000000000000216 -6.00000000000000000 0.00000000000000000 -1.00000000000000000 0.00000000000000022 
1 39.00000000000000000 0.00000000000000272 15.99999999992603250 0.00000000000000000 -1.00000000000000000 0.00000000000000022 
1 -11.50000000000000000 0.00000000000000272 16.00000000000000000 0.00000000000000000 -1.00000000000000000 0.00000000000000022 
1 -11.50000000000000000 0.00000000000000350 19.50000000000000000 0.00000000000000000 -1.00000000000000000 0.00000000000000022 
2 -28.50000000000000000 0.00000000000000000 0.00000000000000000 0.00000000000000000 0.00000000000000000 1.00000000000000000 1.00000000000000000 0.00000000000000000 0.00000000000000000 0.00000000000000000 1.00000000000000000 0.00000000000000000 14.09999999999999964
1 -46.00000000000000000 0.00000000000000350 19.50000000000000000 0.00000000000000000 -1.00000000000000000 0.00000000000000022 
1 -14.50000000000000000 0.00000000000000172 11.50000000000000000 0.00000000000000000 -1.00000000000000000 0.00000000000000022 
1 -14.50000000000000000 0.00000000000000161 11.00000000000000000 0.00000000000000000 -1.00000000000000000 0.00000000000000022 
1 37.00000000000000000 0.00000000000000161 11.00000000000000000 0.00000000000000000 -1.00000000000000000 0.00000000000000022 
1 37.00000000000000000 -0.00000000000000105 -1.00000000000000000 0.00000000000000000 -1.00000000000000000 0.00000000000000022 
1 9.00000000000000000 -0.00000000000000105 -1.00000000000000000 0.00000000000000000 -1.00000000000000000 0.00000000000000022 
1 9.00000000000000000 -0.00000000000000328 -11.00000000000000000 0.00000000000000000 -1.00000000000000000 0.00000000000000022 
1 -19.00000000000000000 -0.00000000000000328 -11.00000000000000000 0.00000000000000000 -1.00000000000000000 0.00000000000000022 
1 -19.00000000000000000 -0.00000000000000505 -19.00000000000000000 0.00000000000000000 -1.00000000000000000 0.00000000000000022 
1 -38.00000000000000000 -0.00000000000000505 -19.00000000000000000 0.00000000000000000 -1.00000000000000000 0.00000000000000022 
1 -38.00000000000000000 -0.00000000000000328 -11.00000000000000000 0.00000000000000000 -1.00000000000000000 0.00000000000000022 
1 -53.00000000000000000 -0.00000000000000328 -11.00000000000000000 0.00000000000000000 -1.00000000000000000 0.00000000000000022 
1 -53.00000000000000000 -0.00000000000000083 0.00000000000000000 0.00000000000000000 -1.00000000000000000 0.00000000000000022 
1 -38.00000000000000000 -0.00000000000000083 0.00000000000000000 0.00000000000000000 -1.00000000000000000 0.00000000000000022 
1 -38.00000000000000000 0.00000000000000172 11.50000000000000000 0.00000000000000000 -1.00000000000000000 0.00000000000000022 
1 14.50000000000000000 11.50000000000000000 0.00000000000000000 1.00000000000000000 0.00000000000000000 0.00000000000000000 
Polygon3D 0
PolygonOnTriangulations 0
Surfaces 32
1 -56.00000000000000000 0.00000000000000433 19.50000000000000000 1.00000000000000000 0.00000000000000000 0.00000000000000000 0.00000000000000000 -0.00000000000000022 -1.00000000000000000 0.00000000000000000 1.00000000000000000 -0.00000000000000022 
1 -8.50000000000000000 -0.00000000000000083 -3.75000000000000000 0.00000000000000000 1.00000000000000000 0.00000000000000000 0.00000000000000000 -0.00000000000000000 1.00000000000000000 1.00000000000000000 0.00000000000000000 -0.00000000000000000 
2 -28.50000000000000000 0.00000000000000433 19.50000000000000000 0.00000000000000000 0.00000000000000000 1.00000000000000000 1.00000000000000000 0.00000000000000000 0.00000000000000000 0.00000000000000000 1.00000000000000000 0.00000000000000000 14.09999999999999964
1 -28.50000000000000711 0.00000000000000403 19.50000000000000000 0.00000000000000000 0.00000000000000000 1.00000000000000000 1.00000000000000000 0.00000000000000000 -0.00000000000000000 -0.00000000000000000 1.00000000000000000 0.00000000000000000 
1 -46.00000000000000000 -0.00000000000000394 -14.00000000000000000 -0.00000000000000000 -0.00000000000000022 -1.00000000000000000 -1.00000000000000000 0.00000000000000000 0.00000000000000000 0.00000000000000000 1.00000000000000000 -0.00000000000000022 
1 -46.00000000000000000 -0.00000000000000683 -27.00000000000000000 -1.00000000000000000 0.00000000000000000 0.00000000000000000 0.00000000000000000 0.00000000000000022 1.00000000000000000 0.00000000000000000 1.00000000000000000 -0.00000000000000022 
1 -11.00000000000000000 -0.00000000000000683 -27.00000000000000000 -1.00000000000000000 0.00000000000000000 0.00000000000000000 0.00000000000000000 0.00000000000000022 1.00000000000000000 0.00000000000000000 1.00000000000000000 -0.00000000000000022 
1 -11.00000000000000000 -0.00000000000000439 -16.00000000000000000 -0.00000000000000000 0.00000000000000022 1.00000000000000000 1.00000000000000000 0.00000000000000000 0.00000000000000000 0.00000000000000000 1.00000000000000000 -0.00000000000000022 
1 12.00000000000000000 -0.00000000000000439 -16.00000000000000000 -1.00000000000000000 0.00000000000000000 0.00000000000000000 0.00000000000000000 0.00000000000000022 1.00000000000000000 0.00000000000000000 1.00000000000000000 -0.00000000000000022 
1 12.00000000000000000 -0.00000000000000216 -6.00000000000000000 -0.00000000000000000 0.00000000000000022 1.00000000000000000 1.00000000000000000 0.00000000000000000 0.00000000000000000 0.00000000000000000 1.00000000000000000 -0.00000000000000022 
1 13.74999999999999645 -110.50733968836640031 15.99999999996160938 -0.00000000000145178 -0.00000000000000023 -1.00000000000000000 -1.00000000000000000 0.00000000000000000 0.00000000000145178 -0.00000000000000000 1.00000000000000000 -0.00000000000000023 
1 -11.50000000000000000 0.00000000000000350 19.50000000000000000 1.00000000000000000 0.00000000000000000 0.00000000000000000 0.00000000000000000 -0.00000000000000022 -1.00000000000000000 0.00000000000000000 1.00000000000000000 -0.00000000000000022 
1 -46.00000000000000000 0.00000000000000350 19.50000000000000000 1.00000000000000000 0.00000000000000000 0.00000000000000000 0.00000000000000000 -0.00000000000000022 -1.00000000000000000 0.00000000000000000 1.00000000000000000 -0.00000000000000022 
1 -46.00000000000000000 -0.00000000000000017 3.00000000000000000 -0.00000000000000000 -0.00000000000000022 -1.00000000000000000 -1.00000000000000000 0.00000000000000000 0.00000000000000000 0.00000000000000000 1.00000000000000000 -0.00000000000000022 
1 -56.00000000000000000 -0.00000000000000600 -27.00000000000000000 -0.00000000000000000 0.00000000000000022 1.00000000000000000 1.00000000000000000 0.00000000000000000 0.00000000000000000 0.00000000000000000 1.00000000000000000 -0.00000000000000022 
1 39.00000000000000000 -0.00000000000000600 -27.00000000000000000 -1.00000000000000000 0.00000000000000000 0.00000000000000000 0.00000000000000000 0.00000000000000022 1.00000000000000000 0.00000000000000000 1.00000000000000000 -0.00000000000000022 
1 39.00000000000000000 0.00000000000000433 19.50000000000000000 -0.00000000000000000 -0.00000000000000022 -1.00000000000000000 -1.00000000000000000 0.00000000000000000 0.00000000000000000 0.00000000000000000 1.00000000000000000 -0.00000000000000022 
1 -14.50000000000000000 0.00000000000000161 11.00000000000000000 -1.00000000000000000 0.00000000000000000 0.00000000000000000 0.00000000000000000 0.00000000000000022 1.00000000000000000 0.00000000000000000 1.00000000000000000 -0.00000000000000022 
1 37.00000000000000000 0.00000000000000161 11.00000000000000000 -0.00000000000000000 -0.00000000000000022 -1.00000000000000000 -1.00000000000000000 0.00000000000000000 0.00000000000000000 0.00000000000000000 1.00000000000000000 -0.00000000000000022 
1 37.00000000000000000 -0.00000000000000105 -1.00000000000000000 -1.00000000000000000 0.00000000000000000 0.00000000000000000 0.00000000000000000 0.00000000000000022 1.00000000000000000 0.00000000000000000 1.00000000000000000 -0.00000000000000022 
1 9.00000000000000000 -0.00000000000000105 -1.00000000000000000 -0.00000000000000000 0.00000000000000022 1.00000000000000000 1.00000000000000000 0.00000000000000000 0.00000000000000000 0.00000000000000000 1.00000000000000000 -0.00000000000000022 
1 9.00000000000000000 -0.00000000000000328 -11.00000000000000000 -1.00000000000000000 0.00000000000000000 0.00000000000000000 0.00000000000000000 0.00000000000000022 1.00000000000000000 0.00000000000000000 1.00000000000000000 -0.00000000000000022 
1 -19.00000000000000000 -0.00000000000000328 -11.00000000000000000 -0.00000000000000000 0.00000000000000022 1.00000000000000000 1.00000000000000000 0.00000000000000000 0.00000000000000000 0.00000000000000000 1.00000000000000000 -0.00000000000000022 
1 -19.00000000000000000 -0.00000000000000505 -19.00000000000000000 -1.00000000000000000 0.00000000000000000 0.00000000000000000 0.00000000000000000 0.00000000000000022 1.00000000000000000 0.00000000000000000 1.00000000000000000 -0.00000000000000022 
1 -38.00000000000000000 -0.00000000000000505 -19.00000000000000000 -0.00000000000000000 0.00000000000000022 1.00000000000000000 1.00000000000000000 0.00000000000000000 0.00000000000000000 0.00000000000000000 1.00000000000000000 -0.00000000000000022 
1 -38.00000000000000000 -0.00000000000000328 -11.00000000000000000 1.00000000000000000 0.00000000000000000 0.00000000000000000 0.00000000000000000 -0.00000000000000022 -1.00000000000000000 0.00000000000000000 1.00000000000000000 -0.00000000000000022 
1 -53.00000000000000000 -0.00000000000000328 -11.00000000000000000 -0.00000000000000000 0.00000000000000022 1.00000000000000000 1.00000000000000000 0.00000000000000000 0.00000000000000000 0.00000000000000000 1.00000000000000000 -0.00000000000000022 
1 -53.00000000000000000 -0.00000000000000083 0.00000000000000000 1.00000000000000000 0.00000000000000000 0.00000000000000000 0.00000000000000000 -0.00000000000000022 -1.00000000000000000 0.00000000000000000 1.00000000000000000 -0.00000000000000022 
1 -38.00000000000000000 -0.00000000000000083 0.00000000000000000 -0.00000000000000000 -0.00000000000000022 -1.00000000000000000 -1.00000000000000000 0.00000000000000000 0.00000000000000000 0.00000000000000000 1.00000000000000000 -0.00000000000000022 
1 -38.00000000000000000 0.00000000000000172 11.50000000000000000 1.00000000000000000 0.00000000000000000 0.00000000000000000 0.00000000000000000 -0.00000000000000022 -1.00000000000000000 0.00000000000000000 1.00000000000000000 -0.00000000000000022 
1 -14.50000000000000000 0.00000000000000172 11.50000000000000000 -0.00000000000000000 -0.00000000000000022 -1.00000000000000000 -1.00000000000000000 0.00000000000000000 0.00000000000000000 0.00000000000000000 1.00000000000000000 -0.00000000000000022 
1 -9.91390041493775875 -0.00000000000000107 -1.05394190871369298 0.00000000000000000 1.00000000000000000 0.00000000000000000 0.00000000000000000 -0.00000000000000000 1.00000000000000000 1.00000000000000000 0.00000000000000000 -0.00000000000000000 
Triangulations 0

TShapes 226
Ve
0.000000100000001
-56.000000000000000 -0.000000000000000 3.000000000000000
0 0

0101101
*
Ve
0.000000100000003
-56.000000000000000 -0.000000000000004 -14.000000000000000
0 0

0101101
*
Ed
 0.000000100000000 1 1 0
1  1 0 16.500000000000000 33.500000000000000
0

0101000
+226 14 -225 14 *
Ve
0.000122609936993
-56.000000000000000 -28.000000000000004 -13.999999999999993
0 0

0101101
*
Ed
 0.000000100000000 1 1 0
1  2 0 0.000000000000000 28.000000000000000
0

0101000
+225 0 -223 0 *
Ve
0.000122609936990
-56.000000000000000 -28.000000000000000 3.000000000000007
0 0

0101101
*
Ed
 0.000000100000000 1 1 0
1  1 0 16.500000000000000 33.500000000000000
0

0101000
+221 17 -223 17 *
Ed
 0.000000100000000 1 1 0
1  3 0 0.000000000000000 28.000000000000000
0

0101000
+226 0 -221 0 *
Wi

0101100
-224 13 -222 0 +220 16 +219 0 *
Fa
0  0.000000100000000 1 9

0101000
+218 0 *
Ve
0.000000100000006
-46.000000000000000 -0.000000000000004 -14.000000000000000
0 0

0101101
*
Ed
 0.000000100000003 1 1 0
1  4 0 0.000000000000000 10.000000000000000
0

0101000
+216 23 -225 23 *
Ve
0.000000100000006
-46.000000000000000 -0.000000000000007 -27.000000000000000
0 0

0101101
*
Ed
 0.000000100000006 1 1 0
1  5 0 0.000000000000000 13.000000000000000
0

0101000
+214 23 -216 23 *
Ve
0.000000100000006
-11.000000000000000 -0.000000000000007 -27.000000000000000
0 0

0101101
*
Ed
 0.000000100000000 1 1 0
1  6 0 10.000000000000000 45.000000000000000
0

0101000
+214 14 -212 14 *
Ve
0.000000100000006
-11.000000000000000 -0.000000000000004 -16.000000000000000
0 0

0101101
*
Ed
 0.000000100000006 1 1 0
1  7 0 0.000000000000000 11.000000000000000
0

0101000
+212 23 -210 23 *
Ve
0.000000100000004
12.000000000000000 -0.000000000000004 -16.000000000000000
0 0

0101101
*
Ed
 0.000000100000004 1 1 0
1  8 0 0.000000000000000 23.000000000000000
0

0101000
+210 23 -208 23 *
Ve
0.000000100000003
12.000000000000000 -0.000000000000002 -6.000000000000000
0 0

0101101
*
Ed
 0.000000100000003 1 1 0
1  9 0 0.000000000000000 10.000000000000000
0

0101000
+208 23 -206 23 *
Ve
0.000000100000001
39.000000000000000 -0.000000000000002 -6.000000000000000
0 0

0101101
*
Ed
 0.000000100000001 1 1 0
1  10 0 0.000000000000000 27.000000000000000
0

0101000
+206 23 -204 23 *
Ve
0.000000100000004
39.000000000000000 0.000000000000003 15.999999999926033
0 0

0101101
*
Ed
 0.000000100000000 1 1 0
1  11 0 21.000000000000000 42.999999999926033
0

0101000
+204 14 -202 14 *
Ve
0.000000100000004
-11.500000000000000 0.000000000000003 16.000000000000000
0 0

0101101
*
Ed
 0.000000100000004 1 1 0
1  12 0 -20.000000000000000 30.500000000000000
0

0101000
+200 0 -202 0 *
Ve
0.000000100000004
-11.500000000000000 0.000000000000003 19.500000000000000
0 0

0101101
*
Ed
 0.000000100000004 1 1 0
1  13 0 0.000000000000000 3.500000000000000
0

0101000
+198 23 -200 23 *
Ve
0.000000100000005
-14.400000000000000 0.000000000000004 19.500000000000000
0 0

0101101
*
Ed
 0.000000100000000 1 1 0
1  14 0 50.500000000000000 53.399999999999999
0

0101000
+198 14 -196 24 *
Ve
0.000057020448978
-14.400000000000000 0.000000000000004 11.500000000000000
0 0

0101101
*
Ed
 0.000000100000005 1 1 0
1  15 0 0.000000000000000 8.000000000000000
3  1 2CN 3 0 0.000000000000000 8.000000000000000
0

0101000
+196 0 -194 0 *
Ve
0.000057020448975
-14.500000000000000 0.000000000000002 11.500000000000000
0 0

0101101
*
Ed
 0.000057020448972 1 1 0
1  16 0 4.000000000000004 4.100000000000003
2  3 2 18 4.000000000000004 4.100000000000003
2  4 4 26 4.000000000000004 4.100000000000003
0

0101000
+192 0 -194 0 *
Ve
0.000000100000003
-14.500000000000000 0.000000000000002 11.000000000000000
0 0

0101101
*
Ed
 0.000000100000003 1 1 0
1  17 0 0.000000000000000 0.500000000000000
0

0101000
+190 30 -192 31 *
Ve
0.000000100000002
37.000000000000000 0.000000000000002 11.000000000000000
0 0

0101101
*
Ed
 0.000000100000002 1 1 0
1  18 0 0.000000000000000 51.500000000000000
0

0101000
+188 30 -190 30 *
Ve
0.000000100000002
37.000000000000000 -0.000000000000001 -1.000000000000000
0 0

0101101
*
Ed
 0.000000100000002 1 1 0
1  19 0 0.000000000000000 12.000000000000000
0

0101000
+186 30 -188 30 *
Ve
0.000000100000002
9.000000000000000 -0.000000000000001 -1.000000000000000
0 0

0101101
*
Ed
 0.000000100000000 1 1 0
1  20 0 0.000000000000000 28.000000000000000
0

0101000
+184 30 -186 30 *
Ve
0.000000100000002
9.000000000000000 -0.000000000000003 -11.000000000000000
0 0

0101101
*
Ed
 0.000000100000002 1 1 0
1  21 0 0.000000000000000 10.000000000000000
0

0101000
+182 30 -184 30 *
Ve
0.000000100000004
-19.000000000000000 -0.000000000000003 -11.000000000000000
0 0

0101101
*
Ed
 0.000000100000002 1 1 0
1  22 0 0.000000000000000 28.000000000000000
0

0101000
+180 30 -182 30 *
Ve
0.000000100000004
-19.000000000000000 -0.000000000000005 -19.000000000000000
0 0

0101101
*
Ed
 0.000000100000004 1 1 0
1  23 0 0.000000000000000 8.000000000000000
0

0101000
+178 30 -180 30 *
Ve
0.000000100000004
-38.000000000000000 -0.000000000000005 -19.000000000000000
0 0

0101101
*
Ed
 0.000000100000004 1 1 0
1  24 0 0.000000000000000 19.000000000000000
0

0101000
+176 30 -178 30 *
Ve
0.000000100000004
-38.000000000000000 -0.000000000000003 -11.000000000000000
0 0

0101101
*
Ed
 0.000000100000004 1 1 0
1  25 0 0.000000000000000 8.000000000000000
0

0101000
+174 30 -176 30 *
Ve
0.000000100000002
-53.000000000000000 -0.000000000000003 -11.000000000000000
0 0

0101101
*
Ed
 0.000000100000002 1 1 0
1  26 0 0.000000000000000 15.000000000000000
0

0101000
+172 30 -174 30 *
Ve
0.000000100000002
-53.000000000000000 -0.000000000000001 0.000000000000000
0 0

0101101
*
Ed
 0.000000100000002 1 1 0
1  27 0 0.000000000000000 11.000000000000000
0

0101000
+170 30 -172 30 *
Ve
0.000000100000002
-38.000000000000000 -0.000000000000001 0.000000000000000
0 0

0101101
*
Ed
 0.000000100000000 1 1 0
1  28 0 0.000000000000000 15.000000000000000
0

0101000
+168 30 -170 30 *
Ve
0.000057020448975
-38.000000000000000 0.000000000000002 11.500000000000000
0 0

0101101
*
Ed
 0.000000100000002 1 1 0
1  29 0 0.000000000000000 11.500000000000000
0

0101000
+166 31 -168 30 *
Ve
0.000057020448980
-42.600000000000001 -0.000000000000000 11.500000000000000
0 0

0101101
*
Ed
 0.000057020448972 1 1 0
1  16 0 -24.099999999999994 -19.499999999999996
2  3 2 18 -24.099999999999994 -19.499999999999996
2  4 4 26 -24.099999999999994 -19.499999999999996
0

0101000
+164 0 -166 0 *
Ve
0.000000100000407
-42.599999999999994 0.000000000000406 19.500000000000000
0 0

0101101
*
Ed
 0.000000100000000 1 1 0
1  30 0 -8.000000000000000 0.000000000000000
2  5 2 18 -8.000000000000000 0.000000000000000
2  6 3 0 -8.000000000000000 0.000000000000000
0

0101000
+164 0 -162 0 *
Ve
0.000000100000004
-46.000000000000000 0.000000000000003 19.500000000000000
0 0

0101101
*
Ed
 0.000000100000000 1 1 0
1  14 0 81.599999999999994 85.000000000000000
0

0101000
+162 24 -160 14 *
Ve
0.000000100000004
-46.000000000000000 -0.000000000000000 3.000000000000000
0 0

0101101
*
Ed
 0.000000100000004 1 1 0
1  31 0 0.000000000000000 16.500000000000000
0

0101000
+160 23 -158 23 *
Ed
 0.000000100000001 1 1 0
1  32 0 0.000000000000000 10.000000000000000
0

0101000
+158 23 -226 23 *
Wi

0101100
-224 19 +215 22 +213 22 -211 19 -209 22 -207 22 -205 22 -203 22 -201 19 +199 4 
+197 22 -195 19 -193 0 +191 0 +189 29 +187 29 +185 29 +183 29 +181 29 +179 29 
+177 29 +175 29 +173 29 +171 29 +169 29 +167 29 +165 29 +163 0 -161 0 -159 19 
-157 22 -156 22 *
Fa
0  0.000000100000000 2 18

0101000
+155 0 *
Ve
0.000122609936992
-46.000000000000000 -28.000000000000000 -13.999999999999995
0 0

0101101
*
Ed
 0.000122609936990 1 1 0
1  33 0 18.750000000000000 28.750000000000000
2  7 2 33 18.750000000000000 28.750000000000000
2  8 5 0 18.750000000000000 28.750000000000000
0

0101000
+153 0 -223 0 *
Ed
 0.000000100000000 1 1 0
1  34 0 0.000000000000000 27.999999999999996
0

0101000
+216 0 -153 0 *
Wi

0101100
-215 32 -222 0 +152 0 +151 0 *
Fa
0  0.000000100000000 5 0

0101000
+150 0 *
Ve
0.000122609936997
-46.000000000000000 -28.000000000000007 -26.999999999999993
0 0

0101101
*
Ed
 0.000122609936990 1 1 0
1  35 0 -11.624999999999996 1.375000000000002
2  9 2 33 -11.624999999999996 1.375000000000002
2  10 6 0 -11.624999999999996 1.375000000000002
0

0101000
+148 0 -153 0 *
Ve
0.000122609936997
-11.000000000000000 -28.000000000000007 -26.999999999999993
0 0

0101101
*
Ed
 0.000000100000000 1 1 0
1  6 0 10.000000000000000 45.000000000000000
0

0101000
+148 17 -146 17 *
Ve
0.000122609936992
-11.000000000000000 -28.000000000000000 -15.999999999999995
0 0

0101101
*
Ed
 0.000122609936990 1 1 0
1  36 0 -11.624999999999996 -0.624999999999998
2  11 2 33 -11.624999999999996 -0.624999999999998
2  12 7 0 -11.624999999999996 -0.624999999999998
0

0101000
+146 0 -144 0 *
Ve
0.000122609936992
12.000000000000000 -28.000000000000000 -15.999999999999995
0 0

0101101
*
Ed
 0.000122609936990 1 1 0
1  37 0 -1.250000000000000 21.750000000000000
2  13 2 33 -1.250000000000000 21.750000000000000
2  14 8 0 -1.250000000000000 21.750000000000000
0

0101000
+144 0 -142 0 *
Ve
0.000122609936990
12.000000000000000 -28.000000000000000 -5.999999999999994
0 0

0101101
*
Ed
 0.000122609936990 1 1 0
1  38 0 -6.124999999999997 3.875000000000003
2  15 2 33 -6.124999999999997 3.875000000000003
2  16 9 0 -6.124999999999997 3.875000000000003
0

0101000
+142 0 -140 0 *
Ve
0.000122609936993
39.000000000000000 -28.000000000000004 -5.999999999999993
0 0

0101101
*
Ed
 0.000122609936990 1 1 0
1  39 0 10.250000000000000 37.250000000000000
2  17 2 33 10.250000000000000 37.250000000000000
2  18 10 0 10.250000000000000 37.250000000000000
0

0101000
+140 0 -138 0 *
Ve
0.000122609938093
39.000000000000000 -27.999999999999996 15.999999999926040
0 0

0101101
*
Ed
 0.000000100000000 1 1 0
1  11 0 21.000000000000000 42.999999999926033
0

0101000
+138 17 -136 17 *
Ve
0.000122609938747
-11.500000000000000 -28.000000000000000 16.000000000000007
0 0

0101101
*
Ed
 0.000122609936990 1 1 0
1  40 0 -36.374999999985661 14.125000000014335
2  19 2 33 -36.374999999985661 14.125000000014335
2  20 11 0 -36.374999999985661 14.125000000014335
0

0101000
+136 0 -134 0 *
Ve
0.000122609936993
-11.500000000000000 -27.999999999999996 19.500000000000007
0 0

0101101
*
Ed
 0.000122609936990 1 1 0
1  41 0 -11.625000000000004 -8.125000000000004
2  21 2 33 -11.625000000000004 -8.125000000000004
2  22 12 0 -11.625000000000004 -8.125000000000004
0

0101000
+132 0 -134 0 *
Ve
0.000122609936993
-46.000000000000000 -27.999999999999996 19.500000000000007
0 0

0101101
*
Ed
 0.000000100000000 1 1 0
1  14 0 50.500000000000000 85.000000000000000
0

0101000
+132 17 -130 17 *
Ve
0.000122609936991
-46.000000000000000 -28.000000000000000 3.000000000000006
0 0

0101101
*
Ed
 0.000122609936990 1 1 0
1  42 0 -11.625000000000004 4.874999999999996
2  23 2 33 -11.625000000000004 4.874999999999996
2  24 13 0 -11.625000000000004 4.874999999999996
0

0101000
+130 0 -128 0 *
Ed
 0.000122609936990 1 1 0
1  43 0 18.750000000000000 28.750000000000000
2  25 2 33 18.750000000000000 28.750000000000000
2  26 14 0 18.750000000000000 28.750000000000000
0

0101000
+128 0 -221 0 *
Wi

0101100
-220 16 +152 0 +147 0 -145 16 -143 0 -141 0 -139 0 -137 0 -135 16 -133 0 
+131 0 -129 16 -127 0 -126 0 *
Fa
0  0.000000100000000 2 33

0101000
+125 0 *
Ed
 0.000000100000000 1 1 0
1  44 0 0.000000000000000 28.000000000000000
0

0101000
+158 0 -128 0 *
Wi

0101100
-156 32 -219 0 +126 0 +123 0 *
Fa
0  0.000000100000000 14 0

0101000
+122 0 *
Ed
 0.000000100000000 1 1 0
1  45 0 0.000000000000000 28.000000000000000
0

0101000
+214 0 -148 0 *
Wi

0101100
-213 32 -151 0 +147 0 +120 0 *
Fa
0  0.000000100000000 6 0

0101000
+119 0 *
Ed
 0.000000100000000 1 1 0
1  46 0 0.000000000000000 28.000000000000000
0

0101000
+212 0 -146 0 *
Wi

0101100
-211 13 -117 0 +145 16 +120 0 *
Fa
0  0.000000100000000 15 9

0101000
+116 0 *
Ed
 0.000000100000000 1 1 0
1  47 0 0.000000000000000 27.999999999999996
0

0101000
+210 0 -144 0 *
Wi

0101100
-209 32 -114 0 +143 0 +117 0 *
Fa
0  0.000000100000000 7 0

0101000
+113 0 *
Ed
 0.000000100000000 1 1 0
1  48 0 0.000000000000000 27.999999999999996
0

0101000
+208 0 -142 0 *
Wi

0101100
-207 32 -111 0 +141 0 +114 0 *
Fa
0  0.000000100000000 8 0

0101000
+110 0 *
Ed
 0.000000100000000 1 1 0
1  49 0 0.000000000000000 27.999999999999996
0

0101000
+206 0 -140 0 *
Wi

0101100
-205 32 -108 0 +139 0 +111 0 *
Fa
0  0.000000100000000 9 0

0101000
+107 0 *
Ed
 0.000000100000000 1 1 0
1  50 0 0.000000000000000 28.000000000000000
0

0101000
+204 0 -138 0 *
Wi

0101100
-203 32 -105 0 +137 0 +108 0 *
Fa
0  0.000000100000000 10 0

0101000
+104 0 *
Ed
 0.000000100000000 1 1 0
1  51 0 0.000000000000000 28.000000000000000
0

0101000
+202 0 -136 0 *
Wi

0101100
-201 13 -102 0 +135 16 +105 0 *
Fa
0  0.000000100000000 16 9

0101000
+101 0 *
Ed
 0.000000100000000 1 1 0
1  52 0 0.000000000000000 28.000000000000004
0

0101000
+200 0 -134 0 *
Wi

0101100
-99 0 +133 0 +102 0 +199 0 *
Fa
0  0.000000100000000 11 0

0101000
+98 0 *
Ed
 0.000000100000000 1 1 0
1  53 0 0.000000000000000 28.000000000000000
0

0101000
+198 0 -132 0 *
Wi

0101100
-197 32 -99 0 +131 0 +96 0 *
Fa
0  0.000000100000000 12 0

0101000
+95 0 *
Ed
 0.000000100000004 1 1 0
1  54 0 3.141592653589793 6.283185307179586
2  27 3 38 3.141592653589793 6.283185307179586
2  28 3 39 3.141592653589793 6.283185307179586
0

0101000
+162 38 -196 38 *
Ed
 0.000000100000000 1 1 0
1  55 0 0.000000000000000 28.000000000000000
0

0101000
+160 0 -130 0 *
Wi

0101100
-195 19 +93 37 -159 19 -92 4 +129 40 +96 4 *
Fa
0  0.000000100000000 17 34

0101000
+91 0 *
Ve
0.000000100000020
-14.499999999999982 -1.676305461423709 11.500000000000000
0 0

0101101
*
Ed
 0.000000100000000 1 1 0
1  54 0 6.164016538737324 6.283185307179586
2  27 3 38 6.164016538737324 6.283185307179586
2  28 3 39 6.164016538737324 6.283185307179586
0

0101000
+89 39 -194 39 *
Ve
0.000000100000057
-38.000000000000057 -10.419213022104781 11.500000000000000
0 0

0101101
*
Ed
 0.000000100000004 1 1 0
1  54 0 3.973105156442556 6.164016538737324
2  27 3 38 3.973105156442556 6.164016538737324
2  28 3 39 3.973105156442556 6.164016538737324
0

0101000
+87 39 -89 39 *
Ed
 0.000000100000000 1 1 0
1  54 0 3.141592653589793 3.973105156442556
2  27 3 38 3.141592653589793 3.973105156442556
2  28 3 39 3.141592653589793 3.973105156442556
0

0101000
+164 39 -87 39 *
Wi

0101100
-193 0 +88 41 +86 41 +85 41 -161 0 -93 37 *
Fa
0  0.000000100000000 3 0

0101000
+84 0 *
Ed
 0.000000100000000 1 1 0
1  56 0 0.000000000000000 1.676305461423711
0

0101000
+192 43 -89 43 *
Wi

0101100
+82 42 -191 0 +88 41 *
Fa
0  0.000000100000000 4 26

0101000
+81 0 *
Ve
0.000000100000000
14.500000000000000 11.000000000000000 0.000000000000000
0 0

0101101
*
Ed
 0.000000100000000 1 1 0
1  57 0 0.000000000000000 25.000000000000000
0

0101000
+190 0 -79 45 *
Ve
0.000000100000000
14.500000000000000 11.500000000000000 0.000000000000000
0 0

0101101
*
Ed
 0.000000100000000 1 1 0
1  56 0 1.676305461423711 25.000000000000000
0

0101000
+89 43 -77 45 *
Ed
 0.000000100000000 1 1 0
1  17 0 0.000000000000000 0.500000000000000
0

0101000
+79 0 -77 0 *
Wi

0101100
+78 42 -82 42 -76 42 -189 29 +75 46 *
Fa
0  0.000000100000000 18 42

0101000
+74 0 *
Ve
0.000000100000000
-37.000000000000000 11.000000000000000 0.000000000000000
0 0

0101101
*
Ed
 0.000000100000000 1 1 0
1  58 0 0.000000000000000 25.000000000000000
0

0101000
+188 0 -72 45 *
Ed
 0.000000100000000 1 1 0
1  18 0 0.000000000000000 51.500000000000000
0

0101000
+72 0 -79 0 *
Wi

0101100
+71 0 -78 0 -187 47 +70 45 *
Fa
0  0.000000100000000 19 0

0101000
+69 0 *
Ve
0.000000100000000
-37.000000000000000 -1.000000000000000 0.000000000000000
0 0

0101101
*
Ed
 0.000000100000000 1 1 0
1  59 0 0.000000000000000 25.000000000000000
0

0101000
+186 0 -67 45 *
Ed
 0.000000100000000 1 1 0
1  19 0 0.000000000000000 12.000000000000000
0

0101000
+67 0 -72 0 *
Wi

0101100
+66 0 -71 0 -185 47 +65 45 *
Fa
0  0.000000100000000 20 0

0101000
+64 0 *
Ve
0.000000100000000
-9.000000000000000 -1.000000000000000 0.000000000000000
0 0

0101101
*
Ed
 0.000000100000000 1 1 0
1  60 0 0.000000000000000 25.000000000000000
0

0101000
+184 0 -62 45 *
Ed
 0.000000100000000 1 1 0
1  20 0 0.000000000000000 28.000000000000000
0

0101000
+62 0 -67 0 *
Wi

0101100
+61 0 -66 0 -183 47 +60 45 *
Fa
0  0.000000100000000 21 0

0101000
+59 0 *
Ve
0.000000100000000
-9.000000000000000 -11.000000000000000 0.000000000000000
0 0

0101101
*
Ed
 0.000000100000000 1 1 0
1  61 0 0.000000000000000 25.000000000000000
0

0101000
+182 0 -57 45 *
Ed
 0.000000100000000 1 1 0
1  21 0 0.000000000000000 10.000000000000000
0

0101000
+57 0 -62 0 *
Wi

0101100
+56 0 -61 0 -181 47 +55 45 *
Fa
0  0.000000100000000 22 0

0101000
+54 0 *
Ve
0.000000100000000
19.000000000000000 -11.000000000000000 0.000000000000000
0 0

0101101
*
Ed
 0.000000100000000 1 1 0
1  62 0 0.000000000000000 25.000000000000000
0

0101000
+180 0 -52 45 *
Ed
 0.000000100000000 1 1 0
1  22 0 0.000000000000000 28.000000000000000
0

0101000
+52 0 -57 0 *
Wi

0101100
+51 0 -56 0 -179 47 +50 45 *
Fa
0  0.000000100000000 23 0

0101000
+49 0 *
Ve
0.000000100000000
19.000000000000000 -19.000000000000000 0.000000000000000
0 0

0101101
*
Ed
 0.000000100000000 1 1 0
1  63 0 0.000000000000000 25.000000000000000
0

0101000
+178 0 -47 45 *
Ed
 0.000000100000000 1 1 0
1  23 0 0.000000000000000 8.000000000000000
0

0101000
+47 0 -52 0 *
Wi

0101100
+46 0 -51 0 -177 47 +45 45 *
Fa
0  0.000000100000000 24 0

0101000
+44 0 *
Ve
0.000000100000000
38.000000000000000 -19.000000000000000 0.000000000000000
0 0

0101101
*
Ed
 0.000000100000000 1 1 0
1  64 0 0.000000000000000 25.000000000000000
0

0101000
+176 0 -42 45 *
Ed
 0.000000100000000 1 1 0
1  24 0 0.000000000000000 19.000000000000000
0

0101000
+42 0 -47 0 *
Wi

0101100
+41 0 -46 0 -175 47 +40 45 *
Fa
0  0.000000100000000 25 0

0101000
+39 0 *
Ve
0.000000100000000
38.000000000000000 -11.000000000000000 0.000000000000000
0 0

0101101
*
Ed
 0.000000100000000 1 1 0
1  65 0 0.000000000000000 25.000000000000000
0

0101000
+174 0 -37 45 *
Ed
 0.000000100000000 1 1 0
1  25 0 0.000000000000000 8.000000000000000
0

0101000
+37 0 -42 0 *
Wi

0101100
+36 0 -41 0 -173 47 +35 45 *
Fa
0  0.000000100000000 26 0

0101000
+34 0 *
Ve
0.000000100000000
53.000000000000000 -11.000000000000000 0.000000000000000
0 0

0101101
*
Ed
 0.000000100000000 1 1 0
1  66 0 0.000000000000000 25.000000000000000
0

0101000
+172 0 -32 45 *
Ed
 0.000000100000000 1 1 0
1  26 0 0.000000000000000 15.000000000000000
0

0101000
+32 0 -37 0 *
Wi

0101100
+31 0 -36 0 -171 47 +30 45 *
Fa
0  0.000000100000000 27 0

0101000
+29 0 *
Ve
0.000000100000000
53.000000000000000 0.000000000000000 0.000000000000000
0 0

0101101
*
Ed
 0.000000100000000 1 1 0
1  67 0 0.000000000000000 25.000000000000000
0

0101000
+170 0 -27 45 *
Ed
 0.000000100000000 1 1 0
1  27 0 0.000000000000000 11.000000000000000
0

0101000
+27 0 -32 0 *
Wi

0101100
+26 0 -31 0 -169 47 +25 45 *
Fa
0  0.000000100000000 28 0

0101000
+24 0 *
Ve
0.000000100000000
38.000000000000000 0.000000000000000 0.000000000000000
0 0

0101101
*
Ed
 0.000000100000000 1 1 0
1  68 0 0.000000000000000 25.000000000000000
0

0101000
+168 0 -22 45 *
Ed
 0.000000100000000 1 1 0
1  28 0 0.000000000000000 15.000000000000000
0

0101000
+22 0 -27 0 *
Wi

0101100
+21 0 -26 0 -167 47 +20 45 *
Fa
0  0.000000100000000 29 0

0101000
+19 0 *
Ed
 0.000000100000002 1 1 0
1  69 0 0.000000000000000 10.419213022104783
0

0101000
+166 43 -87 43 *
Ve
0.000000100000000
38.000000000000000 11.500000000000000 0.000000000000000
0 0

0101101
*
Ed
 0.000000100000000 1 1 0
1  69 0 10.419213022104783 25.000000000000000
0

0101000
+87 43 -16 45 *
Ed
 0.000000100000000 1 1 0
1  29 0 0.000000000000000 11.500000000000000
0

0101000
+16 0 -22 0 *
Wi

0101100
+17 42 +15 42 -21 42 -165 29 +14 46 *
Fa
0  0.000000100000000 30 42

0101000
+13 0 *
Wi

0101100
+85 41 -163 0 -17 42 *
Fa
0  0.000000100000000 4 26

0101000
+11 0 *
Wi

0101100
-157 32 -123 0 +127 0 +92 0 *
Fa
0  0.000000100000000 13 0

0101000
+9 0 *
Ed
 0.000000100000000 1 1 0
1  70 0 0.000000000000000 23.500000000000000
0

0101000
+77 0 -16 0 *
Wi

0101100
+86 41 -15 42 +7 46 +76 42 *
Fa
0  0.000000100000000 31 42

0101000
+6 0 *
Wi

0101100
+65 0 +70 0 +75 0 +7 0 +14 0 +20 0 +25 0 +30 0 +35 0 +40 0 
+45 0 +50 0 +55 0 +60 0 *
Fa
0  0.000000100000000 32 0

0101000
-4 49 *
Sh

0101100
-217 4 +154 0 +149 4 -124 4 -121 4 +118 4 -115 4 -112 4 -109 4 -106 4 
-103 4 -100 4 -97 4 +94 4 -90 0 -83 0 +80 0 +73 0 +68 42 +63 42 
+58 42 +53 42 +48 42 +43 42 +38 42 +33 42 +28 42 +23 42 +18 42 +12 0 
+10 0 -8 4 +5 0 +3 48 *
So

0100000
+2 0 *

+1 1 