
CASCADE Topology V1, (c) Matra-Datavision
Locations 91
1
1.000000000000000 0.000000000000000 0.000000000000000 0.000000000000000 
0.000000000000000 1.000000000000000 0.000000000000000 0.000000000000000 
0.000000000000000 0.000000000000000 1.000000000000000 0.000000000000000 
1
1.000000000000000 0.000000000000000 0.000000000000000 0.000000000000000 
0.000000000000000 1.000000000000000 0.000000000000000 0.000000000000000 
0.000000000000000 0.000000000000000 1.000000000000000 0.000000000000000 
1
1.000000000000000 0.000000000000000 0.000000000000000 0.000000000000000 
0.000000000000000 1.000000000000000 0.000000000000000 0.000000000000000 
0.000000000000000 0.000000000000000 1.000000000000000 0.000000000000000 
1
1.000000000000000 0.000000000000000 0.000000000000000 0.000000000000000 
0.000000000000000 1.000000000000000 0.000000000000000 0.000000000000000 
0.000000000000000 0.000000000000000 1.000000000000000 0.000000000000000 
1
1.000000000000000 0.000000000000000 0.000000000000000 0.000000000000000 
0.000000000000000 1.000000000000000 0.000000000000000 0.000000000000000 
0.000000000000000 0.000000000000000 1.000000000000000 0.000000000000000 
1
1.000000000000000 0.000000000000000 0.000000000000000 0.000000000000000 
0.000000000000000 1.000000000000000 0.000000000000000 0.000000000000000 
0.000000000000000 0.000000000000000 1.000000000000000 0.000000000000000 
1
1.000000000000000 0.000000000000000 0.000000000000000 0.000000000000000 
0.000000000000000 1.000000000000000 0.000000000000000 0.000000000000000 
0.000000000000000 0.000000000000000 1.000000000000000 0.000000000000000 
2  2 1 3 -1 4 1 5 -1 6 1 7 -1 0
1
1.000000000000000 0.000000000000000 0.000000000000000 0.000000000000000 
0.000000000000000 1.000000000000000 0.000000000000000 0.000000000000000 
0.000000000000000 0.000000000000000 1.000000000000000 0.000000000000000 
1
1.000000000000000 0.000000000000000 0.000000000000000 0.000000000000000 
0.000000000000000 1.000000000000000 0.000000000000000 0.000000000000000 
0.000000000000000 0.000000000000000 1.000000000000000 0.000000000000000 
1
1.000000000000000 0.000000000000000 0.000000000000000 0.000000000000000 
0.000000000000000 1.000000000000000 0.000000000000000 0.000000000000000 
0.000000000000000 0.000000000000000 1.000000000000000 0.000000000000000 
1
1.000000000000000 0.000000000000000 0.000000000000000 0.000000000000000 
0.000000000000000 1.000000000000000 0.000000000000000 0.000000000000000 
0.000000000000000 0.000000000000000 1.000000000000000 0.000000000000000 
2  9 1 10 -1 11 1 12 -1 0
1
1.000000000000000 0.000000000000000 0.000000000000000 0.000000000000000 
0.000000000000000 1.000000000000000 0.000000000000000 0.000000000000000 
0.000000000000000 0.000000000000000 1.000000000000000 0.000000000000000 
1
1.000000000000000 0.000000000000000 0.000000000000000 0.000000000000000 
0.000000000000000 0.000000000000000 -1.000000000000000 0.000000000000000 
0.000000000000000 1.000000000000000 0.000000000000000 0.000000000000000 
1
1.000000000000000 0.000000000000000 0.000000000000000 0.000000000000000 
0.000000000000000 1.000000000000000 0.000000000000000 0.000000000000000 
0.000000000000000 0.000000000000000 1.000000000000000 0.000000000000000 
2  14 1 15 1 16 -1 9 1 10 -1 11 1 12 -1 0
2  12 1 11 -1 10 1 9 -1 16 1 15 -1 14 -1 0
1
1.000000000000000 0.000000000000000 0.000000000000000 0.000000000000000 
0.000000000000000 1.000000000000000 0.000000000000000 -28.000000000000000 
0.000000000000000 0.000000000000000 1.000000000000000 0.000000000000006 
2  14 1 15 1 16 -1 19 1 9 1 10 -1 11 1 12 -1 0
2  12 1 11 -1 10 1 9 -1 19 -1 16 1 15 -1 14 -1 0
2  16 -1 9 1 10 -1 11 1 12 -1 2 1 3 -1 4 1 5 -1 6 1 7 -1 0
2  14 1 15 1 16 -1 9 1 10 -1 11 1 12 -1 2 1 3 -1 4 1 5 -1 6 1 7 -1 0
1
1.000000000000000 0.000000000000000 0.000000000000000 0.000000000000000 
0.000000000000000 1.000000000000000 0.000000000000000 0.000000000000000 
0.000000000000000 0.000000000000000 1.000000000000000 0.000000000000000 
1
-1.000000000000000 0.000000000000000 0.000000000000000 0.000000000000000 
0.000000000000000 0.000000000000000 1.000000000000000 -0.000000000000001 
0.000000000000000 1.000000000000000 -0.000000000000000 0.000000000000000 
2  24 1 25 1 12 -1 2 1 3 -1 4 1 5 -1 6 1 7 -1 0
2  12 1 25 -1 24 -1 0
2  7 1 6 -1 5 1 4 -1 3 1 2 -1 12 1 11 -1 10 1 9 -1 16 1 15 -1 14 -1 0
1
1.000000000000000 0.000000000000000 0.000000000000000 0.000000000000000 
0.000000000000000 1.000000000000000 0.000000000000000 0.000000000000000 
0.000000000000000 0.000000000000000 1.000000000000000 8.000000000000000 
2  7 -1 29 1 0
1
1.000000000000000 0.000000000000000 0.000000000000000 0.000000000000000 
0.000000000000000 1.000000000000000 0.000000000000000 0.000000000000000 
0.000000000000000 0.000000000000000 1.000000000000000 0.000000000000000 
1
-1.000000000000000 0.000000000000000 0.000000000000000 0.000000000000000 
0.000000000000000 0.000000000000000 1.000000000000000 -0.000000000000001 
0.000000000000000 1.000000000000000 -0.000000000000000 0.000000000000000 
2  31 1 32 1 10 -1 11 1 12 -1 2 1 3 -1 4 1 5 -1 6 1 7 -1 0
2  10 1 32 -1 31 -1 0
2  7 1 6 -1 5 1 4 -1 3 1 2 -1 12 1 11 -1 10 1 32 -1 31 -1 0
2  3 1 2 -1 12 1 11 -1 10 1 32 -1 31 -1 0
2  4 1 5 -1 6 1 7 -1 0
2  16 -1 9 1 10 -1 11 1 12 -1 2 1 3 -1 0
1
1.000000000000000 0.000000000000000 0.000000000000000 -0.000000000000000 
0.000000000000000 1.000000000000000 0.000000000000000 -0.000000000000000 
0.000000000000000 0.000000000000000 1.000000000000000 -8.000000000000000 
2  3 -1 39 1 0
2  3 1 2 -1 12 1 11 -1 10 1 9 -1 16 1 15 -1 14 -1 0
2  24 1 25 1 12 -1 0
2  16 -1 19 1 9 1 10 -1 11 1 12 -1 0
2  9 1 10 -1 11 1 12 -1 2 1 3 -1 4 1 5 -1 6 1 7 -1 0
2  14 1 15 1 16 -1 19 1 9 1 10 -1 11 1 12 -1 2 1 3 -1 4 1 5 -1 6 1 7 -1 0
1
1.000000000000000 0.000000000000000 0.000000000000000 0.000000000000000 
0.000000000000000 1.000000000000000 0.000000000000000 0.000000000000000 
0.000000000000000 0.000000000000000 1.000000000000000 0.000000000000000 
1
1.000000000000000 0.000000000000000 0.000000000000000 0.000000000000000 
0.000000000000000 -1.000000000000000 0.000000000000000 -0.000000000000006 
0.000000000000000 0.000000000000000 -1.000000000000000 -27.000000000000000 
2  46 1 47 1 7 -1 0
2  7 1 47 -1 46 -1 0
2  29 -1 7 1 47 -1 46 -1 0
2  46 1 47 1 7 -1 29 1 0
2  11 1 12 -1 2 1 3 -1 4 1 5 -1 6 1 7 -1 0
2  7 1 6 -1 5 1 4 -1 3 1 2 -1 12 1 11 -1 0
1
1.000000000000000 0.000000000000000 0.000000000000000 0.000000000000000 
0.000000000000000 1.000000000000000 0.000000000000000 -25.000000000000000 
0.000000000000000 0.000000000000000 1.000000000000000 0.000000000000006 
2  31 1 32 1 10 -1 54 1 0
2  31 1 32 1 10 -1 54 1 11 1 12 -1 2 1 3 -1 4 1 5 -1 6 1 7 -1 0
2  31 1 32 1 10 -1 0
2  11 1 12 -1 2 1 3 -1 0
2  3 1 2 -1 12 1 11 -1 0
2  31 1 32 1 10 -1 11 1 12 -1 2 1 3 -1 0
2  31 1 32 1 10 -1 54 1 11 1 12 -1 2 1 3 -1 0
1
1.000000000000000 0.000000000000000 0.000000000000000 0.000000000000000 
0.000000000000000 1.000000000000000 0.000000000000000 0.000000000000000 
0.000000000000000 0.000000000000000 1.000000000000000 0.000000000000000 
1
1.000000000000000 0.000000000000000 0.000000000000000 0.000000000000000 
0.000000000000000 1.000000000000000 0.000000000000000 0.000000000000004 
0.000000000000000 0.000000000000000 1.000000000000000 19.500000000000000 
2  62 1 63 1 3 -1 39 1 0
2  3 1 63 -1 62 -1 0
2  39 -1 3 1 63 -1 62 -1 0
2  62 1 63 1 3 -1 0
2  9 1 10 -1 11 1 12 -1 2 1 3 -1 0
2  14 1 15 1 16 -1 9 1 10 -1 11 1 12 -1 2 1 3 -1 0
2  2 1 3 -1 0
2  14 1 15 1 16 -1 19 1 9 1 10 -1 11 1 12 -1 2 1 3 -1 0
2  6 1 7 -1 0
2  2 1 3 -1 4 1 5 -1 0
2  5 1 4 -1 3 1 2 -1 0
1
1.000000000000000 0.000000000000000 0.000000000000000 0.000000000000000 
0.000000000000000 1.000000000000000 0.000000000000000 0.000000000000000 
0.000000000000000 0.000000000000000 1.000000000000000 0.000000000000000 
1
1.000000000000000 0.000000000000000 0.000000000001452 0.000000000023228 
0.000000000000000 1.000000000000000 0.000000000000000 0.000000000000004 
-0.000000000001452 0.000000000000000 1.000000000000000 15.999999999981547 
2  75 1 76 1 5 -1 0
2  5 1 76 -1 75 -1 0
1
1.000000000000000 0.000000000000000 0.000000000000000 -0.000000000007259 
0.000000000000000 1.000000000000000 0.000000000000000 -0.000000000000000 
0.000000000000000 0.000000000000000 1.000000000000000 -5.000000000000000 
2  79 -1 5 1 76 -1 75 -1 0
2  5 1 4 -1 3 1 2 -1 12 1 11 -1 10 1 32 -1 31 -1 0
2  10 -1 54 1 11 1 12 -1 2 1 3 -1 4 1 5 -1 6 1 7 -1 0
2  31 1 32 1 0
2  16 -1 9 1 10 -1 11 1 12 -1 2 1 3 -1 4 1 5 -1 0
2  24 1 25 1 12 -1 2 1 3 -1 4 1 5 -1 0
2  14 1 15 1 16 -1 9 1 10 -1 11 1 12 -1 2 1 3 -1 4 1 5 -1 0
2  4 1 5 -1 0
2  31 1 32 1 10 -1 11 1 12 -1 2 1 3 -1 4 1 5 -1 0
2  75 1 76 1 5 -1 79 1 0
2  11 1 12 -1 2 1 3 -1 4 1 5 -1 0
2  31 1 32 1 10 -1 54 1 11 1 12 -1 2 1 3 -1 4 1 5 -1 0
Curve2ds 42
8 -8.00022808179588907 0.00022808179588907
1 -23.25000000000000000 -34.10000000000000142 -1.00000000000000000 0.00000000000000000 
8 -8.00022808179588907 0.00022808179588907
1 3.14159265358979356 0.00000000000000000 0.00000000000000000 1.00000000000000000 
8 -24.09999999999999432 4.10000000000000320
1 -15.25000000000000711 -10.00000000000000355 0.00000000000000000 1.00000000000000000 
8 -24.09999999999999432 4.10000000000000320
1 10.00000000000000355 0.00000000000000502 1.00000000000000000 0.00000000000000000 
8 -24.09999999999999432 4.10000000000000320
1 15.25000000000000000 -10.00000000000000355 0.00000000000000000 1.00000000000000000 
8 -24.09999999999999432 4.10000000000000320
1 10.00000000000000355 -0.00000000000000486 1.00000000000000000 0.00000000000000000 
8 -8.00022808179588907 0.00022808179588907
1 23.25000000000000000 -34.10000000000000142 1.00000000000000000 0.00000000000000000 
8 -8.00022808179588907 0.00022808179588907
1 3.14159265358979356 0.00000000000000000 0.00000000000000000 1.00000000000000000 
8 18.75000000000000000 28.75000000000000000
1 -10.25000000000000000 -18.75000000000000000 0.00000000000000000 -1.00000000000000000 
8 18.75000000000000000 28.75000000000000000
1 -18.75000000000000000 -27.99999999999999645 1.00000000000000000 0.00000000000000000 
8 -11.62499999999999645 1.37500000000000178
1 -11.62500000000000355 -37.50000000000000000 1.00000000000000000 0.00000000000000000 
8 -11.62499999999999645 1.37500000000000178
1 11.62499999999999822 -27.99999999999999645 1.00000000000000000 -0.00000000000000022 
8 -11.62499999999999645 -0.62499999999999822
1 -11.62500000000000355 -2.50000000000000000 1.00000000000000000 0.00000000000000000 
8 -11.62499999999999645 -0.62499999999999822
1 11.62499999999999822 -27.99999999999999645 1.00000000000000000 -0.00000000000000022 
8 -1.25000000000000000 21.75000000000000000
1 -12.25000000000000000 -1.25000000000000000 0.00000000000000000 1.00000000000000000 
8 -1.25000000000000000 21.75000000000000000
1 1.25000000000000000 -27.99999999999999645 1.00000000000000000 0.00000000000000000 
8 -6.12499999999999734 3.87500000000000266
1 -6.12500000000000266 20.50000000000000000 1.00000000000000000 0.00000000000000000 
8 -6.12499999999999734 3.87500000000000266
1 6.12499999999999734 -27.99999999999999645 1.00000000000000000 -0.00000000000000022 
8 10.25000000000000000 37.25000000000000000
1 -2.25000000000000000 10.25000000000000000 0.00000000000000000 1.00000000000000000 
8 10.25000000000000000 37.25000000000000000
1 -10.25000000000000000 -27.99999999999999645 1.00000000000000000 0.00000000000000000 
8 -36.37499999998566125 14.12500000001433520
1 19.74999999997773870 11.12500000001433520 0.00000000000145178 -1.00000000000000000 
8 -36.37499999998566125 14.12500000001433520
1 11.12499999998566125 82.50733968836640031 1.00000000000000000 0.00000000000000000 
8 -11.62500000000000355 -8.12500000000000355
1 11.62499999999999645 -3.00000000000000000 -1.00000000000000000 0.00000000000000000 
8 -11.62500000000000355 -8.12500000000000355
1 11.62500000000000355 -28.00000000000000000 1.00000000000000000 0.00000000000000022 
8 -11.62500000000000355 4.87499999999999645
1 11.62499999999999645 -37.50000000000000000 -1.00000000000000000 0.00000000000000000 
8 -11.62500000000000355 4.87499999999999645
1 11.62500000000000355 -28.00000000000000000 1.00000000000000000 0.00000000000000022 
8 18.75000000000000000 28.75000000000000000
1 6.75000000000000000 -18.75000000000000000 0.00000000000000000 -1.00000000000000000 
8 18.75000000000000000 28.75000000000000000
1 -18.75000000000000000 -28.00000000000000000 1.00000000000000000 0.00000000000000000 
1 0.00000000000000000 0.00000000000000000 1.00000000000000000 0.00000000000000000 
1 0.00000000000000000 -8.00000000000000000 1.00000000000000000 0.00000000000000000 
1 0.00000000000000000 0.00000000000000000 0.00000000000000000 -1.00000000000000000 
1 6.28318530717958623 0.00000000000000000 0.00000000000000000 -1.00000000000000000 
1 0.00000000000000000 0.00000000000000000 1.00000000000000000 0.00000000000000000 
1 0.00000000000000000 -8.00000000000000000 1.00000000000000000 0.00000000000000000 
1 0.00000000000000000 0.00000000000000000 0.00000000000000000 -1.00000000000000000 
1 6.28318530717958623 0.00000000000000000 0.00000000000000000 -1.00000000000000000 
1 0.00000000000000000 0.00000000000000000 1.00000000000000000 0.00000000000000000 
1 0.00000000000000000 -5.00000000000000000 1.00000000000000000 0.00000000000000000 
1 0.00000000000000000 0.00000000000000000 0.00000000000000000 -1.00000000000000000 
1 6.28318530717958623 0.00000000000000000 0.00000000000000000 -1.00000000000000000 
8 -5.00022235761645995 0.00022235761645995
1 19.74999999998967581 2.90000000002322889 1.00000000000000000 0.00000000000145178 
8 -5.00022235761645995 0.00022235761645995
1 3.14159265358979400 0.00000000000000044 0.00000000000000000 1.00000000000000000 
Curves 77
1 -56.00000000000000000 19.50000000000000000 0.00000000000000000 0.00000000000000000 -1.00000000000000000 0.00000000000000000 
1 -56.00000000000000000 -0.00000000000000394 -14.00000000000000000 0.00000000000000000 -1.00000000000000000 0.00000000000000022 
1 -56.00000000000000000 -0.00000000000000017 3.00000000000000000 0.00000000000000000 -1.00000000000000000 0.00000000000000022 
1 46.00000000000000000 -14.00000000000000000 0.00000000000000000 1.00000000000000000 0.00000000000000000 0.00000000000000000 
1 46.00000000000000000 -27.00000000000000000 0.00000000000000000 0.00000000000000000 1.00000000000000000 0.00000000000000000 
1 -56.00000000000000000 -27.00000000000000000 0.00000000000000000 1.00000000000000000 0.00000000000000000 0.00000000000000000 
1 -42.60000000000000142 -0.00000000000000083 -27.00000000000000000 0.00000000000000000 0.00000000000000000 -1.00000000000000000 
1 -18.50000000000000355 -0.00000000000000083 -19.00000000000000711 1.00000000000000000 0.00000000000000000 0.00000000000000000 
1 38.00000000000000000 -11.00000000000000000 0.00000000000000000 0.00000000000000000 -1.00000000000000000 0.00000000000000000 
1 53.00000000000000000 -11.00000000000000000 0.00000000000000000 -1.00000000000000000 0.00000000000000000 0.00000000000000000 
1 53.00000000000000000 0.00000000000000000 0.00000000000000000 0.00000000000000000 -1.00000000000000000 0.00000000000000000 
1 38.00000000000000000 0.00000000000000000 0.00000000000000000 1.00000000000000000 0.00000000000000000 0.00000000000000000 
1 38.00000000000000000 11.50000000000000000 0.00000000000000000 0.00000000000000000 -1.00000000000000000 0.00000000000000000 
1 -18.50000000000000355 -0.00000000000000083 11.50000000000000000 1.00000000000000000 0.00000000000000000 0.00000000000000000 
1 -42.60000000000000142 -0.00000000000000083 19.50000000000000000 0.00000000000000000 0.00000000000000000 1.00000000000000000 
1 39.00000000000000000 19.50000000000000000 0.00000000000000000 -1.00000000000000000 0.00000000000000000 0.00000000000000000 
1 46.00000000000000000 19.50000000000000000 0.00000000000000000 0.00000000000000000 -1.00000000000000000 0.00000000000000000 
1 46.00000000000000000 3.00000000000000000 0.00000000000000000 1.00000000000000000 0.00000000000000000 0.00000000000000000 
1 -27.25000000000000000 -28.00000000000000000 -13.99999999999999289 -1.00000000000000000 0.00000000000000000 0.00000000000000000 
1 -46.00000000000000000 -0.00000000000000394 -14.00000000000000000 0.00000000000000000 -1.00000000000000000 0.00000000000000022 
1 -46.00000000000000000 -28.00000000000000000 -15.37499999999999645 0.00000000000000000 -0.00000000000000000 1.00000000000000000 
1 -11.00000000000000000 -28.00000000000000000 -15.37499999999999645 0.00000000000000000 -0.00000000000000000 1.00000000000000000 
1 -9.75000000000000000 -28.00000000000000000 -15.99999999999999289 1.00000000000000000 -0.00000000000000000 0.00000000000000000 
1 12.00000000000000000 -28.00000000000000000 -9.87499999999999645 0.00000000000000000 -0.00000000000000000 1.00000000000000000 
1 1.75000000000000000 -28.00000000000000000 -5.99999999999999378 1.00000000000000000 -0.00000000000000000 0.00000000000000000 
1 39.00000000000000000 -27.00000000000000000 0.00000000000000000 0.00000000000000000 1.00000000000000000 0.00000000000000000 
1 2.62500000001433431 -28.00000000000000000 15.99999999997774403 -1.00000000000000000 0.00000000000000000 0.00000000000145178 
1 -11.50000000000000000 -28.00000000000000000 7.87500000000000355 0.00000000000000000 0.00000000000000000 -1.00000000000000000 
1 -46.00000000000000000 -28.00000000000000000 7.87500000000000355 0.00000000000000000 0.00000000000000000 -1.00000000000000000 
1 -27.25000000000000000 -28.00000000000000000 3.00000000000000622 -1.00000000000000000 0.00000000000000000 0.00000000000000000 
1 -46.00000000000000000 -0.00000000000000017 3.00000000000000000 0.00000000000000000 -1.00000000000000000 0.00000000000000022 
1 -46.00000000000000000 -0.00000000000000683 -27.00000000000000000 0.00000000000000000 -1.00000000000000000 0.00000000000000022 
1 -11.00000000000000000 -0.00000000000000683 -27.00000000000000000 0.00000000000000000 -1.00000000000000000 0.00000000000000022 
2 -28.50000000000000000 0.00000000000000000 0.00000000000000000 0.00000000000000000 0.00000000000000000 1.00000000000000000 1.00000000000000000 0.00000000000000000 0.00000000000000000 0.00000000000000000 1.00000000000000000 0.00000000000000000 14.09999999999999964
1 -14.40000000000000036 -0.00000000000000600 -27.00000000000000000 0.00000000000000000 0.00000000000000000 1.00000000000000000 
1 -38.00000000000000000 -0.00000000000000505 -19.00000000000000000 0.00000000000000000 -1.00000000000000000 0.00000000000000022 
1 -38.00000000000000000 -0.00000000000000328 -11.00000000000000000 0.00000000000000000 -1.00000000000000000 0.00000000000000022 
1 -53.00000000000000000 -0.00000000000000328 -11.00000000000000000 0.00000000000000000 -1.00000000000000000 0.00000000000000022 
1 -53.00000000000000000 -0.00000000000000083 0.00000000000000000 0.00000000000000000 -1.00000000000000000 0.00000000000000022 
1 -38.00000000000000000 -0.00000000000000083 0.00000000000000000 0.00000000000000000 -1.00000000000000000 0.00000000000000022 
1 -38.00000000000000000 0.00000000000000172 11.50000000000000000 0.00000000000000000 -1.00000000000000000 0.00000000000000022 
2 -28.50000000000000000 0.00000000000000000 0.00000000000000000 0.00000000000000000 0.00000000000000000 1.00000000000000000 1.00000000000000000 0.00000000000000000 0.00000000000000000 0.00000000000000000 1.00000000000000000 0.00000000000000000 14.09999999999999964
1 -14.40000000000000036 0.00000000000000433 19.50000000000000000 -0.00000000000000000 -0.00000000000000000 -1.00000000000000000 
1 -46.00000000000000000 0.00000000000000350 19.50000000000000000 0.00000000000000000 -1.00000000000000000 0.00000000000000022 
1 -11.50000000000000000 0.00000000000000350 19.50000000000000000 0.00000000000000000 -1.00000000000000000 0.00000000000000022 
1 11.00000000000000000 -27.00000000000000000 0.00000000000000000 0.00000000000000000 1.00000000000000000 0.00000000000000000 
1 -11.00000000000000000 -0.00000000000000439 -16.00000000000000000 0.00000000000000000 -1.00000000000000000 0.00000000000000022 
1 11.00000000000000000 -16.00000000000000000 0.00000000000000000 -1.00000000000000000 0.00000000000000000 0.00000000000000000 
1 12.00000000000000000 -0.00000000000000439 -16.00000000000000000 0.00000000000000000 -1.00000000000000000 0.00000000000000022 
1 -12.00000000000000000 -16.00000000000000000 0.00000000000000000 0.00000000000000000 1.00000000000000000 0.00000000000000000 
1 12.00000000000000000 -0.00000000000000216 -6.00000000000000000 0.00000000000000000 -1.00000000000000000 0.00000000000000022 
1 -12.00000000000000000 -6.00000000000000000 0.00000000000000000 -1.00000000000000000 0.00000000000000000 0.00000000000000000 
1 39.00000000000000000 -0.00000000000000216 -6.00000000000000000 0.00000000000000000 -1.00000000000000000 0.00000000000000022 
1 39.00000000000000000 0.00000000000000272 15.99999999992603250 0.00000000000000000 -1.00000000000000000 0.00000000000000022 
1 -11.50000000000000000 0.00000000000000272 16.00000000000000000 0.00000000000000000 -1.00000000000000000 0.00000000000000022 
1 8.50000000000000000 0.00000000000000272 15.99999999992603250 1.00000000000000000 0.00000000000000000 0.00000000000000000 
2 0.00000000000000000 0.00000000000000000 0.00000000000000000 0.00000000000000000 0.00000000000000000 1.00000000000000000 1.00000000000000000 0.00000000000000000 0.00000000000000000 0.00000000000000000 1.00000000000000000 0.00000000000000000 5.59999999999999964
1 11.50000000000000000 19.50000000000000000 0.00000000000000000 0.00000000000000000 -1.00000000000000000 0.00000000000000000 
1 5.60000000002322817 0.00000000000000360 15.99999999997341682 -0.00000000000145178 -0.00000000000000000 -1.00000000000000000 
1 -37.00000000000000000 11.00000000000000000 0.00000000000000000 1.00000000000000000 0.00000000000000000 0.00000000000000000 
1 -37.00000000000000000 -1.00000000000000000 0.00000000000000000 0.00000000000000000 1.00000000000000000 0.00000000000000000 
1 -9.00000000000000000 -1.00000000000000000 0.00000000000000000 -1.00000000000000000 0.00000000000000000 0.00000000000000000 
1 -9.00000000000000000 -11.00000000000000000 0.00000000000000000 0.00000000000000000 1.00000000000000000 0.00000000000000000 
1 19.00000000000000000 -11.00000000000000000 0.00000000000000000 -1.00000000000000000 0.00000000000000000 0.00000000000000000 
1 19.00000000000000000 -19.00000000000000000 0.00000000000000000 0.00000000000000000 1.00000000000000000 0.00000000000000000 
1 -19.00000000000000000 -0.00000000000000505 -19.00000000000000000 0.00000000000000000 -1.00000000000000000 0.00000000000000022 
1 38.00000000000000000 -19.00000000000000000 0.00000000000000000 -1.00000000000000000 0.00000000000000000 0.00000000000000000 
1 14.50000000000000000 11.00000000000000000 0.00000000000000000 0.00000000000000000 1.00000000000000000 0.00000000000000000 
1 14.50000000000000000 11.50000000000000000 0.00000000000000000 1.00000000000000000 0.00000000000000000 0.00000000000000000 
1 -14.50000000000000000 0.00000000000000172 11.50000000000000000 0.00000000000000000 -1.00000000000000000 0.00000000000000022 
1 -5.59999999997677111 -0.00000000000000083 15.99999999998967759 0.00000000000145178 -0.00000000000000000 1.00000000000000000 
1 -14.50000000000000000 0.00000000000000161 11.00000000000000000 0.00000000000000000 -1.00000000000000000 0.00000000000000022 
1 37.00000000000000000 0.00000000000000161 11.00000000000000000 0.00000000000000000 -1.00000000000000000 0.00000000000000022 
1 37.00000000000000000 -0.00000000000000105 -1.00000000000000000 0.00000000000000000 -1.00000000000000000 0.00000000000000022 
1 9.00000000000000000 -0.00000000000000105 -1.00000000000000000 0.00000000000000000 -1.00000000000000000 0.00000000000000022 
1 9.00000000000000000 -0.00000000000000328 -11.00000000000000000 0.00000000000000000 -1.00000000000000000 0.00000000000000022 
1 -19.00000000000000000 -0.00000000000000328 -11.00000000000000000 0.00000000000000000 -1.00000000000000000 0.00000000000000022 
Polygon3D 0
PolygonOnTriangulations 0
Surfaces 35
1 -56.00000000000000000 0.00000000000000433 19.50000000000000000 1.00000000000000000 0.00000000000000000 0.00000000000000000 0.00000000000000000 -0.00000000000000022 -1.00000000000000000 0.00000000000000000 1.00000000000000000 -0.00000000000000022 
1 -8.50000000000000000 -0.00000000000000083 -3.75000000000000000 0.00000000000000000 1.00000000000000000 0.00000000000000000 0.00000000000000000 -0.00000000000000000 1.00000000000000000 1.00000000000000000 0.00000000000000000 -0.00000000000000000 
2 -28.50000000000000000 -0.00000000000000600 -27.00000000000000000 0.00000000000000000 0.00000000000000000 -1.00000000000000000 1.00000000000000000 0.00000000000000000 0.00000000000000000 0.00000000000000000 -1.00000000000000000 0.00000000000000000 14.09999999999999964
1 -28.50000000000000711 -0.00000000000000585 -27.00000000000000711 0.00000000000000000 0.00000000000000000 1.00000000000000000 1.00000000000000000 0.00000000000000000 -0.00000000000000000 -0.00000000000000000 1.00000000000000000 0.00000000000000000 
1 -28.50000000000000711 0.00000000000000403 19.50000000000000000 0.00000000000000000 0.00000000000000000 1.00000000000000000 1.00000000000000000 0.00000000000000000 -0.00000000000000000 -0.00000000000000000 1.00000000000000000 0.00000000000000000 
2 -28.50000000000000000 0.00000000000000433 19.50000000000000000 0.00000000000000000 0.00000000000000000 1.00000000000000000 1.00000000000000000 0.00000000000000000 0.00000000000000000 0.00000000000000000 1.00000000000000000 0.00000000000000000 14.09999999999999964
1 -46.00000000000000000 -0.00000000000000394 -14.00000000000000000 -0.00000000000000000 -0.00000000000000022 -1.00000000000000000 -1.00000000000000000 0.00000000000000000 0.00000000000000000 0.00000000000000000 1.00000000000000000 -0.00000000000000022 
1 -46.00000000000000000 -0.00000000000000683 -27.00000000000000000 -1.00000000000000000 0.00000000000000000 0.00000000000000000 0.00000000000000000 0.00000000000000022 1.00000000000000000 0.00000000000000000 1.00000000000000000 -0.00000000000000022 
1 -11.00000000000000000 -0.00000000000000683 -27.00000000000000000 -1.00000000000000000 0.00000000000000000 0.00000000000000000 0.00000000000000000 0.00000000000000022 1.00000000000000000 0.00000000000000000 1.00000000000000000 -0.00000000000000022 
1 -11.00000000000000000 -0.00000000000000439 -16.00000000000000000 -0.00000000000000000 0.00000000000000022 1.00000000000000000 1.00000000000000000 0.00000000000000000 0.00000000000000000 0.00000000000000000 1.00000000000000000 -0.00000000000000022 
1 12.00000000000000000 -0.00000000000000439 -16.00000000000000000 -1.00000000000000000 0.00000000000000000 0.00000000000000000 0.00000000000000000 0.00000000000000022 1.00000000000000000 0.00000000000000000 1.00000000000000000 -0.00000000000000022 
1 12.00000000000000000 -0.00000000000000216 -6.00000000000000000 -0.00000000000000000 0.00000000000000022 1.00000000000000000 1.00000000000000000 0.00000000000000000 0.00000000000000000 0.00000000000000000 1.00000000000000000 -0.00000000000000022 
1 13.74999999999999645 -110.50733968836640031 15.99999999996160938 -0.00000000000145178 -0.00000000000000023 -1.00000000000000000 -1.00000000000000000 0.00000000000000000 0.00000000000145178 -0.00000000000000000 1.00000000000000000 -0.00000000000000023 
1 -11.50000000000000000 0.00000000000000350 19.50000000000000000 1.00000000000000000 0.00000000000000000 0.00000000000000000 0.00000000000000000 -0.00000000000000022 -1.00000000000000000 0.00000000000000000 1.00000000000000000 -0.00000000000000022 
1 -46.00000000000000000 0.00000000000000350 19.50000000000000000 1.00000000000000000 0.00000000000000000 0.00000000000000000 0.00000000000000000 -0.00000000000000022 -1.00000000000000000 0.00000000000000000 1.00000000000000000 -0.00000000000000022 
1 -46.00000000000000000 -0.00000000000000017 3.00000000000000000 -0.00000000000000000 -0.00000000000000022 -1.00000000000000000 -1.00000000000000000 0.00000000000000000 0.00000000000000000 0.00000000000000000 1.00000000000000000 -0.00000000000000022 
1 -56.00000000000000000 -0.00000000000000600 -27.00000000000000000 -0.00000000000000000 0.00000000000000022 1.00000000000000000 1.00000000000000000 0.00000000000000000 0.00000000000000000 0.00000000000000000 1.00000000000000000 -0.00000000000000022 
1 -38.00000000000000000 -0.00000000000000328 -11.00000000000000000 1.00000000000000000 0.00000000000000000 0.00000000000000000 0.00000000000000000 -0.00000000000000022 -1.00000000000000000 0.00000000000000000 1.00000000000000000 -0.00000000000000022 
1 -53.00000000000000000 -0.00000000000000328 -11.00000000000000000 -0.00000000000000000 0.00000000000000022 1.00000000000000000 1.00000000000000000 0.00000000000000000 0.00000000000000000 0.00000000000000000 1.00000000000000000 -0.00000000000000022 
1 -53.00000000000000000 -0.00000000000000083 0.00000000000000000 1.00000000000000000 0.00000000000000000 0.00000000000000000 0.00000000000000000 -0.00000000000000022 -1.00000000000000000 0.00000000000000000 1.00000000000000000 -0.00000000000000022 
1 -38.00000000000000000 -0.00000000000000083 0.00000000000000000 -0.00000000000000000 -0.00000000000000022 -1.00000000000000000 -1.00000000000000000 0.00000000000000000 0.00000000000000000 0.00000000000000000 1.00000000000000000 -0.00000000000000022 
1 -38.00000000000000000 0.00000000000000172 11.50000000000000000 1.00000000000000000 0.00000000000000000 0.00000000000000000 0.00000000000000000 -0.00000000000000022 -1.00000000000000000 0.00000000000000000 1.00000000000000000 -0.00000000000000022 
1 39.00000000000000000 0.00000000000000433 19.50000000000000000 -0.00000000000000000 -0.00000000000000022 -1.00000000000000000 -1.00000000000000000 0.00000000000000000 0.00000000000000000 0.00000000000000000 1.00000000000000000 -0.00000000000000022 
1 39.00000000000000000 -0.00000000000000600 -27.00000000000000000 -1.00000000000000000 0.00000000000000000 0.00000000000000000 0.00000000000000000 0.00000000000000022 1.00000000000000000 0.00000000000000000 1.00000000000000000 -0.00000000000000022 
2 0.00000000002322841 0.00000000000000360 15.99999999998154721 0.00000000000145178 -0.00000000000000000 1.00000000000000000 1.00000000000000000 0.00000000000000000 -0.00000000000145178 0.00000000000000000 1.00000000000000000 0.00000000000000000 5.59999999999999964
1 -38.00000000000000000 -0.00000000000000505 -19.00000000000000000 -0.00000000000000000 0.00000000000000022 1.00000000000000000 1.00000000000000000 0.00000000000000000 0.00000000000000000 0.00000000000000000 1.00000000000000000 -0.00000000000000022 
1 -9.91390041493775875 -0.00000000000000107 -1.05394190871369298 0.00000000000000000 1.00000000000000000 0.00000000000000000 0.00000000000000000 -0.00000000000000000 1.00000000000000000 1.00000000000000000 0.00000000000000000 -0.00000000000000000 
1 -14.50000000000000000 0.00000000000000172 11.50000000000000000 -0.00000000000000000 -0.00000000000000022 -1.00000000000000000 -1.00000000000000000 0.00000000000000000 0.00000000000000000 0.00000000000000000 1.00000000000000000 -0.00000000000000022 
1 37.00000000000000000 0.00000000000000161 11.00000000000000000 -0.00000000000000000 -0.00000000000000022 -1.00000000000000000 -1.00000000000000000 0.00000000000000000 0.00000000000000000 0.00000000000000000 1.00000000000000000 -0.00000000000000022 
1 37.00000000000000000 -0.00000000000000105 -1.00000000000000000 -1.00000000000000000 0.00000000000000000 0.00000000000000000 0.00000000000000000 0.00000000000000022 1.00000000000000000 0.00000000000000000 1.00000000000000000 -0.00000000000000022 
1 9.00000000000000000 -0.00000000000000105 -1.00000000000000000 -0.00000000000000000 0.00000000000000022 1.00000000000000000 1.00000000000000000 0.00000000000000000 0.00000000000000000 0.00000000000000000 1.00000000000000000 -0.00000000000000022 
1 9.00000000000000000 -0.00000000000000328 -11.00000000000000000 -1.00000000000000000 0.00000000000000000 0.00000000000000000 0.00000000000000000 0.00000000000000022 1.00000000000000000 0.00000000000000000 1.00000000000000000 -0.00000000000000022 
1 -19.00000000000000000 -0.00000000000000328 -11.00000000000000000 -0.00000000000000000 0.00000000000000022 1.00000000000000000 1.00000000000000000 0.00000000000000000 0.00000000000000000 0.00000000000000000 1.00000000000000000 -0.00000000000000022 
1 -19.00000000000000000 -0.00000000000000505 -19.00000000000000000 -1.00000000000000000 0.00000000000000000 0.00000000000000000 0.00000000000000000 0.00000000000000022 1.00000000000000000 0.00000000000000000 1.00000000000000000 -0.00000000000000022 
1 -14.50000000000000000 0.00000000000000161 11.00000000000000000 -1.00000000000000000 0.00000000000000000 0.00000000000000000 0.00000000000000000 0.00000000000000022 1.00000000000000000 0.00000000000000000 1.00000000000000000 -0.00000000000000022 
Triangulations 0

TShapes 264
Ve
0.000000100000001
-56.000000000000000 -0.000000000000000 3.000000000000000
0 0

0101101
*
Ve
0.000000100000003
-56.000000000000000 -0.000000000000004 -14.000000000000000
0 0

0101101
*
Ed
 0.000000100000000 1 1 0
1  1 0 16.500000000000000 33.500000000000000
0

0101000
+264 18 -263 18 *
Ve
0.000122609936993
-56.000000000000000 -28.000000000000004 -13.999999999999993
0 0

0101101
*
Ed
 0.000000100000000 1 1 0
1  2 0 0.000000000000000 28.000000000000000
0

0101000
+263 0 -261 0 *
Ve
0.000122609936990
-56.000000000000000 -28.000000000000000 3.000000000000007
0 0

0101101
*
Ed
 0.000000100000000 1 1 0
1  1 0 16.500000000000000 33.500000000000000
0

0101000
+259 21 -261 21 *
Ed
 0.000000100000000 1 1 0
1  3 0 0.000000000000000 28.000000000000000
0

0101000
+264 0 -259 0 *
Wi

0101100
-262 17 -260 0 +258 20 +257 0 *
Fa
0  0.000000100000000 1 13

0101000
+256 0 *
Ve
0.000000100000006
-46.000000000000000 -0.000000000000004 -14.000000000000000
0 0

0101101
*
Ed
 0.000000100000003 1 1 0
1  4 0 0.000000000000000 10.000000000000000
0

0101000
+254 27 -263 27 *
Ve
0.000000100000006
-46.000000000000000 -0.000000000000007 -27.000000000000000
0 0

0101101
*
Ed
 0.000000100000006 1 1 0
1  5 0 0.000000000000000 13.000000000000000
0

0101000
+252 27 -254 27 *
Ve
0.000000100000409
-42.600000000000001 -0.000000000000408 -27.000000000000000
0 0

0101101
*
Ed
 0.000000100000000 1 1 0
1  6 0 10.000000000000000 13.399999999999999
0

0101000
+252 18 -250 28 *
Ve
0.000057020448983
-42.600000000000001 -0.000000000000001 -19.000000000000000
0 0

0101101
*
Ed
 0.000000100000000 1 1 0
1  7 0 -8.000000000000000 0.000000000000000
2  1 2 22 -8.000000000000000 0.000000000000000
2  2 3 0 -8.000000000000000 0.000000000000000
0

0101000
+248 0 -250 0 *
Ve
0.000057020448981
-38.000000000000000 -0.000000000000005 -19.000000000000000
0 0

0101101
*
Ed
 0.000057020448972 1 1 0
1  8 0 -24.099999999999994 -19.499999999999996
2  3 2 22 -24.099999999999994 -19.499999999999996
2  4 4 30 -24.099999999999994 -19.499999999999996
0

0101000
+248 0 -246 0 *
Ve
0.000000100000004
-38.000000000000000 -0.000000000000003 -11.000000000000000
0 0

0101101
*
Ed
 0.000000100000004 1 1 0
1  9 0 0.000000000000000 8.000000000000000
0

0101000
+244 34 -246 35 *
Ve
0.000000100000002
-53.000000000000000 -0.000000000000003 -11.000000000000000
0 0

0101101
*
Ed
 0.000000100000002 1 1 0
1  10 0 0.000000000000000 15.000000000000000
0

0101000
+242 34 -244 34 *
Ve
0.000000100000002
-53.000000000000000 -0.000000000000001 0.000000000000000
0 0

0101101
*
Ed
 0.000000100000002 1 1 0
1  11 0 0.000000000000000 11.000000000000000
0

0101000
+240 34 -242 34 *
Ve
0.000000100000002
-38.000000000000000 -0.000000000000001 0.000000000000000
0 0

0101101
*
Ed
 0.000000100000000 1 1 0
1  12 0 0.000000000000000 15.000000000000000
0

0101000
+238 34 -240 34 *
Ve
0.000057020448975
-38.000000000000000 0.000000000000002 11.500000000000000
0 0

0101101
*
Ed
 0.000000100000002 1 1 0
1  13 0 0.000000000000000 11.500000000000000
0

0101000
+236 36 -238 34 *
Ve
0.000057020448980
-42.600000000000001 -0.000000000000000 11.500000000000000
0 0

0101101
*
Ed
 0.000057020448972 1 1 0
1  14 0 -24.099999999999994 -19.499999999999996
2  5 2 38 -24.099999999999994 -19.499999999999996
2  6 5 40 -24.099999999999994 -19.499999999999996
0

0101000
+234 0 -236 0 *
Ve
0.000000100000407
-42.599999999999994 0.000000000000406 19.500000000000000
0 0

0101101
*
Ed
 0.000000100000000 1 1 0
1  15 0 -8.000000000000000 0.000000000000000
2  7 2 38 -8.000000000000000 0.000000000000000
2  8 6 0 -8.000000000000000 0.000000000000000
0

0101000
+234 0 -232 0 *
Ve
0.000000100000004
-46.000000000000000 0.000000000000003 19.500000000000000
0 0

0101101
*
Ed
 0.000000100000000 1 1 0
1  16 0 81.599999999999994 85.000000000000000
0

0101000
+232 41 -230 18 *
Ve
0.000000100000004
-46.000000000000000 -0.000000000000000 3.000000000000000
0 0

0101101
*
Ed
 0.000000100000004 1 1 0
1  17 0 0.000000000000000 16.500000000000000
0

0101000
+230 27 -228 27 *
Ed
 0.000000100000001 1 1 0
1  18 0 0.000000000000000 10.000000000000000
0

0101000
+228 27 -264 27 *
Wi

0101100
-262 23 +253 26 +251 26 -249 23 +247 0 -245 0 +243 33 +241 33 +239 33 +237 33 
+235 33 +233 37 -231 37 -229 23 -227 26 -226 26 *
Fa
0  0.000000100000000 2 22

0101000
+225 0 *
Ve
0.000122609936992
-46.000000000000000 -28.000000000000000 -13.999999999999995
0 0

0101101
*
Ed
 0.000122609936990 1 1 0
1  19 0 18.750000000000000 28.750000000000000
2  9 2 43 18.750000000000000 28.750000000000000
2  10 7 0 18.750000000000000 28.750000000000000
0

0101000
+223 0 -261 0 *
Ed
 0.000000100000000 1 1 0
1  20 0 0.000000000000000 27.999999999999996
0

0101000
+254 0 -223 0 *
Wi

0101100
-253 42 -260 0 +222 0 +221 0 *
Fa
0  0.000000100000000 7 0

0101000
+220 0 *
Ve
0.000122609936997
-46.000000000000000 -28.000000000000007 -26.999999999999993
0 0

0101101
*
Ed
 0.000122609936990 1 1 0
1  21 0 -11.624999999999996 1.375000000000002
2  11 2 43 -11.624999999999996 1.375000000000002
2  12 8 0 -11.624999999999996 1.375000000000002
0

0101000
+218 0 -223 0 *
Ve
0.000122609936997
-11.000000000000000 -28.000000000000007 -26.999999999999993
0 0

0101101
*
Ed
 0.000000100000000 1 1 0
1  6 0 10.000000000000000 45.000000000000000
0

0101000
+218 21 -216 21 *
Ve
0.000122609936992
-11.000000000000000 -28.000000000000000 -15.999999999999995
0 0

0101101
*
Ed
 0.000122609936990 1 1 0
1  22 0 -11.624999999999996 -0.624999999999998
2  13 2 43 -11.624999999999996 -0.624999999999998
2  14 9 0 -11.624999999999996 -0.624999999999998
0

0101000
+216 0 -214 0 *
Ve
0.000122609936992
12.000000000000000 -28.000000000000000 -15.999999999999995
0 0

0101101
*
Ed
 0.000122609936990 1 1 0
1  23 0 -1.250000000000000 21.750000000000000
2  15 2 43 -1.250000000000000 21.750000000000000
2  16 10 0 -1.250000000000000 21.750000000000000
0

0101000
+214 0 -212 0 *
Ve
0.000122609936990
12.000000000000000 -28.000000000000000 -5.999999999999994
0 0

0101101
*
Ed
 0.000122609936990 1 1 0
1  24 0 -6.124999999999997 3.875000000000003
2  17 2 43 -6.124999999999997 3.875000000000003
2  18 11 0 -6.124999999999997 3.875000000000003
0

0101000
+212 0 -210 0 *
Ve
0.000122609936993
39.000000000000000 -28.000000000000004 -5.999999999999993
0 0

0101101
*
Ed
 0.000122609936990 1 1 0
1  25 0 10.250000000000000 37.250000000000000
2  19 2 43 10.250000000000000 37.250000000000000
2  20 12 0 10.250000000000000 37.250000000000000
0

0101000
+210 0 -208 0 *
Ve
0.000122609938093
39.000000000000000 -27.999999999999996 15.999999999926040
0 0

0101101
*
Ed
 0.000000100000000 1 1 0
1  26 0 21.000000000000000 42.999999999926033
0

0101000
+208 21 -206 21 *
Ve
0.000122609938747
-11.500000000000000 -28.000000000000000 16.000000000000007
0 0

0101101
*
Ed
 0.000122609936990 1 1 0
1  27 0 -36.374999999985661 14.125000000014335
2  21 2 43 -36.374999999985661 14.125000000014335
2  22 13 0 -36.374999999985661 14.125000000014335
0

0101000
+206 0 -204 0 *
Ve
0.000122609936993
-11.500000000000000 -27.999999999999996 19.500000000000007
0 0

0101101
*
Ed
 0.000122609936990 1 1 0
1  28 0 -11.625000000000004 -8.125000000000004
2  23 2 43 -11.625000000000004 -8.125000000000004
2  24 14 0 -11.625000000000004 -8.125000000000004
0

0101000
+202 0 -204 0 *
Ve
0.000122609936993
-46.000000000000000 -27.999999999999996 19.500000000000007
0 0

0101101
*
Ed
 0.000000100000000 1 1 0
1  16 0 50.500000000000000 85.000000000000000
0

0101000
+202 21 -200 21 *
Ve
0.000122609936991
-46.000000000000000 -28.000000000000000 3.000000000000006
0 0

0101101
*
Ed
 0.000122609936990 1 1 0
1  29 0 -11.625000000000004 4.874999999999996
2  25 2 43 -11.625000000000004 4.874999999999996
2  26 15 0 -11.625000000000004 4.874999999999996
0

0101000
+200 0 -198 0 *
Ed
 0.000122609936990 1 1 0
1  30 0 18.750000000000000 28.750000000000000
2  27 2 43 18.750000000000000 28.750000000000000
2  28 16 0 18.750000000000000 28.750000000000000
0

0101000
+198 0 -259 0 *
Wi

0101100
-258 20 +222 0 +217 0 -215 20 -213 0 -211 0 -209 0 -207 0 -205 20 -203 0 
+201 0 -199 20 -197 0 -196 0 *
Fa
0  0.000000100000000 2 43

0101000
+195 0 *
Ed
 0.000000100000000 1 1 0
1  31 0 0.000000000000000 28.000000000000000
0

0101000
+228 0 -198 0 *
Wi

0101100
-226 42 -257 0 +196 0 +193 0 *
Fa
0  0.000000100000000 16 0

0101000
+192 0 *
Ed
 0.000000100000000 1 1 0
1  32 0 0.000000000000000 28.000000000000000
0

0101000
+252 0 -218 0 *
Wi

0101100
-251 42 -221 0 +217 0 +190 0 *
Fa
0  0.000000100000000 8 0

0101000
+189 0 *
Ve
0.000000100000007
-14.400000000000000 -0.000000000000006 -27.000000000000000
0 0

0101101
*
Ve
0.000000100000006
-11.000000000000000 -0.000000000000007 -27.000000000000000
0 0

0101101
*
Ed
 0.000000100000000 1 1 0
1  6 0 41.600000000000001 45.000000000000000
0

0101000
+187 28 -186 18 *
Ed
 0.000000100000000 1 1 0
1  33 0 0.000000000000000 28.000000000000000
0

0101000
+186 0 -216 0 *
Ed
 0.000000100000004 1 1 0
1  34 0 0.000000000000000 3.141592653589793
2  29 3 49 0.000000000000000 3.141592653589793
2  30 3 50 0.000000000000000 3.141592653589793
0

0101000
+187 49 -250 49 *
Wi

0101100
-185 23 -184 8 +215 45 +190 8 -249 23 +183 48 *
Fa
0  0.000000100000000 17 44

0101000
+182 0 *
Ve
0.000000100000057
-38.000000000000057 -10.419213022104794 -19.000000000000000
0 0

0101101
*
Ed
 0.000000100000000 1 1 0
1  34 0 2.310080150737030 3.141592653589793
2  29 3 49 2.310080150737030 3.141592653589793
2  30 3 50 2.310080150737030 3.141592653589793
0

0101000
+180 50 -248 50 *
Ve
0.000000100000022
-18.999999999999979 -10.419213022104850 -19.000000000000000
0 0

0101101
*
Ed
 0.000000100000004 1 1 0
1  34 0 0.831512502852768 2.310080150737030
2  29 3 49 0.831512502852768 2.310080150737030
2  30 3 50 0.831512502852768 2.310080150737030
0

0101000
+178 50 -180 50 *
Ve
0.000057020448981
-14.400000000000000 -0.000000000000006 -19.000000000000000
0 0

0101101
*
Ed
 0.000000100000000 1 1 0
1  34 0 0.000000000000000 0.831512502852768
2  29 3 49 0.000000000000000 0.831512502852768
2  30 3 50 0.000000000000000 0.831512502852768
0

0101000
+176 50 -178 50 *
Ed
 0.000000100000005 1 1 0
1  35 0 0.000000000000000 8.000000000000000
3  31 32CN 3 0 0.000000000000000 8.000000000000000
0

0101000
+187 0 -176 0 *
Wi

0101100
-183 48 +247 0 +179 51 +177 51 +175 51 +174 0 *
Fa
0  0.000000100000000 3 0

0101000
+173 0 *
Ed
 0.000000100000011 1 1 0
1  36 0 0.000000000000000 10.419213022104788
0

0101000
+246 53 -180 53 *
Wi

0101100
-245 0 -171 52 -179 51 *
Fa
0  0.000000100000000 4 30

0101000
+170 0 *
Ve
0.000000100000000
38.000000000000000 -11.000000000000000 0.000000000000000
0 0

0101101
*
Ed
 0.000000100000000 1 1 0
1  37 0 0.000000000000000 25.000000000000000
0

0101000
+244 0 -168 55 *
Ve
0.000000100000000
38.000000000000000 -19.000000000000000 0.000000000000000
0 0

0101101
*
Ed
 0.000000100000000 1 1 0
1  36 0 10.419213022104788 25.000000000000000
0

0101000
+180 53 -166 55 *
Ed
 0.000000100000000 1 1 0
1  9 0 0.000000000000000 8.000000000000000
0

0101000
+168 0 -166 0 *
Wi

0101100
+167 52 -171 52 -165 52 -243 33 +164 56 *
Fa
0  0.000000100000000 18 52

0101000
+163 0 *
Ve
0.000000100000000
53.000000000000000 -11.000000000000000 0.000000000000000
0 0

0101101
*
Ed
 0.000000100000000 1 1 0
1  38 0 0.000000000000000 25.000000000000000
0

0101000
+242 0 -161 55 *
Ed
 0.000000100000000 1 1 0
1  10 0 0.000000000000000 15.000000000000000
0

0101000
+161 0 -168 0 *
Wi

0101100
+160 0 -167 0 -241 57 +159 55 *
Fa
0  0.000000100000000 19 0

0101000
+158 0 *
Ve
0.000000100000000
53.000000000000000 0.000000000000000 0.000000000000000
0 0

0101101
*
Ed
 0.000000100000000 1 1 0
1  39 0 0.000000000000000 25.000000000000000
0

0101000
+240 0 -156 55 *
Ed
 0.000000100000000 1 1 0
1  11 0 0.000000000000000 11.000000000000000
0

0101000
+156 0 -161 0 *
Wi

0101100
+155 0 -160 0 -239 57 +154 55 *
Fa
0  0.000000100000000 20 0

0101000
+153 0 *
Ve
0.000000100000000
38.000000000000000 0.000000000000000 0.000000000000000
0 0

0101101
*
Ed
 0.000000100000000 1 1 0
1  40 0 0.000000000000000 25.000000000000000
0

0101000
+238 0 -151 55 *
Ed
 0.000000100000000 1 1 0
1  12 0 0.000000000000000 15.000000000000000
0

0101000
+151 0 -156 0 *
Wi

0101100
+150 0 -155 0 -237 57 +149 55 *
Fa
0  0.000000100000000 21 0

0101000
+148 0 *
Ve
0.000000100000057
-38.000000000000057 -10.419213022104781 11.500000000000000
0 0

0101101
*
Ed
 0.000000100000002 1 1 0
1  41 0 0.000000000000000 10.419213022104783
0

0101000
+236 59 -146 59 *
Ve
0.000000100000000
38.000000000000000 11.500000000000000 0.000000000000000
0 0

0101101
*
Ed
 0.000000100000000 1 1 0
1  41 0 10.419213022104783 25.000000000000000
0

0101000
+146 59 -144 55 *
Ed
 0.000000100000000 1 1 0
1  13 0 0.000000000000000 11.500000000000000
0

0101000
+144 0 -151 0 *
Wi

0101100
+145 58 +143 58 -150 58 -235 60 +142 61 *
Fa
0  0.000000100000000 22 58

0101000
+141 0 *
Ed
 0.000000100000000 1 1 0
1  42 0 3.141592653589793 3.973105156442556
2  33 6 65 3.141592653589793 3.973105156442556
2  34 6 66 3.141592653589793 3.973105156442556
0

0101000
+234 66 -146 66 *
Wi

0101100
+139 64 -233 0 -145 58 *
Fa
0  0.000000100000000 5 40

0101000
+138 0 *
Ve
0.000000100000005
-14.400000000000000 0.000000000000004 19.500000000000000
0 0

0101101
*
Ve
0.000057020448978
-14.400000000000000 0.000000000000004 11.500000000000000
0 0

0101101
*
Ed
 0.000000100000005 1 1 0
1  43 0 0.000000000000000 8.000000000000000
3  35 36CN 6 0 0.000000000000000 8.000000000000000
0

0101000
+136 0 -135 0 *
Ve
0.000000100000020
-14.499999999999982 -1.676305461423709 11.500000000000000
0 0

0101101
*
Ed
 0.000000100000000 1 1 0
1  42 0 6.164016538737324 6.283185307179586
2  33 6 65 6.164016538737324 6.283185307179586
2  34 6 66 6.164016538737324 6.283185307179586
0

0101000
+133 66 -135 66 *
Ed
 0.000000100000004 1 1 0
1  42 0 3.973105156442556 6.164016538737324
2  33 6 65 3.973105156442556 6.164016538737324
2  34 6 66 3.973105156442556 6.164016538737324
0

0101000
+146 66 -133 66 *
Ed
 0.000000100000004 1 1 0
1  42 0 3.141592653589793 6.283185307179586
2  33 6 65 3.141592653589793 6.283185307179586
2  34 6 66 3.141592653589793 6.283185307179586
0

0101000
+232 65 -136 65 *
Wi

0101100
-134 0 +132 64 +131 64 +139 64 -231 0 -130 67 *
Fa
0  0.000000100000000 6 0

0101000
+129 0 *
Ve
0.000000100000004
-11.500000000000000 0.000000000000003 19.500000000000000
0 0

0101101
*
Ed
 0.000000100000000 1 1 0
1  16 0 50.500000000000000 53.399999999999999
0

0101000
+127 18 -136 41 *
Ed
 0.000000100000000 1 1 0
1  44 0 0.000000000000000 28.000000000000000
0

0101000
+230 0 -200 0 *
Ed
 0.000000100000000 1 1 0
1  45 0 0.000000000000000 28.000000000000000
0

0101000
+127 0 -202 0 *
Wi

0101100
-126 69 +130 67 -229 69 -125 70 +199 71 +124 70 *
Fa
0  0.000000100000000 23 68

0101000
+123 0 *
Wi

0101100
-227 42 -193 0 +197 0 +125 0 *
Fa
0  0.000000100000000 15 0

0101000
+121 0 *
Ve
0.000000100000006
-11.000000000000000 -0.000000000000004 -16.000000000000000
0 0

0101101
*
Ed
 0.000000100000006 1 1 0
1  46 0 0.000000000000000 11.000000000000000
0

0101000
+186 27 -119 27 *
Ed
 0.000000100000000 1 1 0
1  47 0 0.000000000000000 27.999999999999996
0

0101000
+119 0 -214 0 *
Wi

0101100
-118 42 -117 0 +213 0 +184 0 *
Fa
0  0.000000100000000 9 0

0101000
+116 0 *
Ve
0.000000100000004
12.000000000000000 -0.000000000000004 -16.000000000000000
0 0

0101101
*
Ed
 0.000000100000004 1 1 0
1  48 0 0.000000000000000 23.000000000000000
0

0101000
+119 27 -114 27 *
Ed
 0.000000100000000 1 1 0
1  49 0 0.000000000000000 27.999999999999996
0

0101000
+114 0 -212 0 *
Wi

0101100
-113 42 -112 0 +211 0 +117 0 *
Fa
0  0.000000100000000 10 0

0101000
+111 0 *
Ve
0.000000100000003
12.000000000000000 -0.000000000000002 -6.000000000000000
0 0

0101101
*
Ed
 0.000000100000003 1 1 0
1  50 0 0.000000000000000 10.000000000000000
0

0101000
+114 27 -109 27 *
Ed
 0.000000100000000 1 1 0
1  51 0 0.000000000000000 27.999999999999996
0

0101000
+109 0 -210 0 *
Wi

0101100
-108 42 -107 0 +209 0 +112 0 *
Fa
0  0.000000100000000 11 0

0101000
+106 0 *
Ve
0.000000100000001
39.000000000000000 -0.000000000000002 -6.000000000000000
0 0

0101101
*
Ed
 0.000000100000001 1 1 0
1  52 0 0.000000000000000 27.000000000000000
0

0101000
+109 27 -104 27 *
Ed
 0.000000100000000 1 1 0
1  53 0 0.000000000000000 28.000000000000000
0

0101000
+104 0 -208 0 *
Wi

0101100
-103 42 -102 0 +207 0 +107 0 *
Fa
0  0.000000100000000 12 0

0101000
+101 0 *
Ve
0.000000100000004
39.000000000000000 0.000000000000003 15.999999999926033
0 0

0101101
*
Ed
 0.000000100000000 1 1 0
1  26 0 21.000000000000000 42.999999999926033
0

0101000
+104 18 -99 18 *
Ed
 0.000000100000000 1 1 0
1  54 0 0.000000000000000 28.000000000000000
0

0101000
+99 0 -206 0 *
Wi

0101100
-98 17 -97 0 +205 20 +102 0 *
Fa
0  0.000000100000000 24 13

0101000
+96 0 *
Ve
0.000000100000004
-11.500000000000000 0.000000000000003 16.000000000000000
0 0

0101101
*
Ed
 0.000000100000000 1 1 0
1  55 0 0.000000000000000 28.000000000000004
0

0101000
+94 0 -204 0 *
Ve
0.000000100062290
5.600000000023228 0.000000000000004 15.999999999973417
0 0

0101101
*
Ed
 0.000000100000004 1 1 0
1  56 0 -2.899999999976772 30.500000000000000
0

0101000
+92 74 -99 0 *
Ve
0.000000100094112
-5.599999999976770 -0.000000000000090 15.999999999957854
0 0

0101101
*
Ed
 0.000000100000002 1 1 0
1  57 0 3.141592653589793 6.283185307179586
2  37 25 78 3.141592653589793 6.283185307179586
2  38 25 80 3.141592653589793 6.283185307179586
0

0101000
+90 78 -92 78 *
Ed
 0.000000100000004 1 1 0
1  56 0 -20.000000000000000 -14.099999999976770
0

0101000
+94 0 -90 74 *
Wi

0101100
-93 73 +203 73 +97 73 +91 73 +89 77 +88 73 *
Fa
0  0.000000100000000 13 73

0101000
+87 0 *
Ed
 0.000000100000004 1 1 0
1  58 0 0.000000000000000 3.500000000000000
0

0101000
+127 27 -94 27 *
Wi

0101100
-85 42 -93 0 +201 0 +124 0 *
Fa
0  0.000000100000000 14 0

0101000
+84 0 *
Ve
0.000000100026586
5.600000000015969 0.000000000000004 10.999999999973417
0 0

0101101
*
Ed
 0.000000100000004 1 1 0
1  59 0 0.000000000000000 5.000000000000000
3  39 40CN 25 0 0.000000000000000 5.000000000000000
0

0101000
+92 0 -82 0 *
Ve
0.000000100000002
37.000000000000000 0.000000000000002 11.000000000000000
0 0

0101101
*
Ed
 0.000000100000002 1 1 0
1  60 0 0.000000000000000 31.399999999984033
0

0101000
+80 34 -82 81 *
Ve
0.000000100000002
37.000000000000000 -0.000000000000001 -1.000000000000000
0 0

0101101
*
Ed
 0.000000100000002 1 1 0
1  61 0 0.000000000000000 12.000000000000000
0

0101000
+78 34 -80 34 *
Ve
0.000000100000002
9.000000000000000 -0.000000000000001 -1.000000000000000
0 0

0101101
*
Ed
 0.000000100000000 1 1 0
1  62 0 0.000000000000000 28.000000000000000
0

0101000
+76 34 -78 34 *
Ve
0.000000100000002
9.000000000000000 -0.000000000000003 -11.000000000000000
0 0

0101101
*
Ed
 0.000000100000002 1 1 0
1  63 0 0.000000000000000 10.000000000000000
0

0101000
+74 34 -76 34 *
Ve
0.000000100000004
-19.000000000000000 -0.000000000000003 -11.000000000000000
0 0

0101101
*
Ed
 0.000000100000002 1 1 0
1  64 0 0.000000000000000 28.000000000000000
0

0101000
+72 34 -74 34 *
Ve
0.000057020448981
-19.000000000000000 -0.000000000000005 -19.000000000000000
0 0

0101101
*
Ed
 0.000000100000004 1 1 0
1  65 0 0.000000000000000 8.000000000000000
0

0101000
+70 35 -72 34 *
Ed
 0.000057020448972 1 1 0
1  8 0 -0.499999999999996 4.100000000000003
2  3 2 22 -0.499999999999996 4.100000000000003
2  4 4 30 -0.499999999999996 4.100000000000003
0

0101000
+70 0 -176 0 *
Wi

0101100
-185 23 -118 26 -113 26 -108 26 -103 26 -98 23 +91 8 -81 72 +79 33 +77 33 
+75 33 +73 33 +71 33 +69 33 -68 0 +174 0 *
Fa
0  0.000000100000000 2 22

0101000
+67 0 *
Ve
0.000000100000000
19.000000000000000 -19.000000000000000 0.000000000000000
0 0

0101101
*
Ed
 0.000000100000000 1 1 0
1  66 0 10.419213022104845 25.000000000000000
0

0101000
+178 53 -65 55 *
Ed
 0.000000100000000 1 1 0
1  67 0 0.000000000000000 19.000000000000000
0

0101000
+166 0 -65 0 *
Wi

0101100
+177 51 -64 52 +63 56 +165 52 *
Fa
0  0.000000100000000 26 52

0101000
+62 0 *
Ed
 0.000000100000011 1 1 0
1  66 0 0.000000000000000 10.419213022104845
0

0101000
+70 53 -178 53 *
Wi

0101100
-175 51 +60 52 -68 0 *
Fa
0  0.000000100000000 4 30

0101000
+59 0 *
Ve
0.000000100000000
-37.000000000000000 -1.000000000000000 0.000000000000000
0 0

0101101
*
Ve
0.000000100000000
-37.000000000000000 11.000000000000000 0.000000000000000
0 0

0101101
*
Ed
 0.000000100000000 1 1 0
1  61 0 0.000000000000000 12.000000000000000
0

0101000
+57 0 -56 0 *
Ve
0.000000100000000
14.500000000000000 11.000000000000000 0.000000000000000
0 0

0101101
*
Ed
 0.000000100000000 1 1 0
1  60 0 0.000000000000000 51.500000000000000
0

0101000
+56 0 -54 0 *
Ve
0.000000100000000
14.500000000000000 11.500000000000000 0.000000000000000
0 0

0101101
*
Ed
 0.000000100000000 1 1 0
1  68 0 0.000000000000000 0.500000000000000
0

0101000
+54 0 -52 0 *
Ed
 0.000000100000000 1 1 0
1  69 0 0.000000000000000 23.500000000000000
0

0101000
+52 0 -144 0 *
Ve
0.000000100000000
19.000000000000000 -11.000000000000000 0.000000000000000
0 0

0101101
*
Ed
 0.000000100000000 1 1 0
1  65 0 0.000000000000000 8.000000000000000
0

0101000
+65 0 -49 0 *
Ve
0.000000100000000
-9.000000000000000 -11.000000000000000 0.000000000000000
0 0

0101101
*
Ed
 0.000000100000000 1 1 0
1  64 0 0.000000000000000 28.000000000000000
0

0101000
+49 0 -47 0 *
Ve
0.000000100000000
-9.000000000000000 -1.000000000000000 0.000000000000000
0 0

0101101
*
Ed
 0.000000100000000 1 1 0
1  63 0 0.000000000000000 10.000000000000000
0

0101000
+47 0 -45 0 *
Ed
 0.000000100000000 1 1 0
1  62 0 0.000000000000000 28.000000000000000
0

0101000
+45 0 -57 0 *
Wi

0101100
+55 0 +53 0 +51 0 +50 0 +142 0 +149 0 +154 0 +159 0 +164 0 +63 0 
+48 0 +46 0 +44 0 +43 0 *
Fa
0  0.000000100000000 27 0

0101000
-42 83 *
Ed
 0.000000100000000 1 1 0
1  70 0 1.676305461423711 25.000000000000000
0

0101000
+133 59 -52 55 *
Wi

0101100
+131 64 -143 58 +50 61 +40 58 *
Fa
0  0.000000100000000 28 58

0101000
+39 0 *
Ve
0.000057020448975
-14.500000000000000 0.000000000000002 11.500000000000000
0 0

0101101
*
Ed
 0.000057020448972 1 1 0
1  14 0 4.000000000000004 4.100000000000003
2  5 2 38 4.000000000000004 4.100000000000003
2  6 5 40 4.000000000000004 4.100000000000003
0

0101000
+37 0 -135 0 *
Ve
0.000000100000003
-14.500000000000000 0.000000000000002 11.000000000000000
0 0

0101101
*
Ed
 0.000000100000003 1 1 0
1  68 0 0.000000000000000 0.500000000000000
0

0101000
+35 34 -37 36 *
Ve
0.000000100031467
-5.599999999984029 -0.000000000000090 10.999999999994838
0 0

0101101
*
Ed
 0.000000100000002 1 1 0
1  60 0 42.599999999984028 51.500000000000000
0

0101000
+33 81 -35 34 *
Ed
 0.000000100000000 1 1 0
1  71 0 -4.999999999994840 -0.000000000031823
2  41 2 84 -4.999999999994840 -0.000000000031823
2  42 25 0 -4.999999999994840 -0.000000000031823
0

0101000
+33 0 -90 0 *
Wi

0101100
+88 73 +85 85 -126 86 -134 87 +36 87 +34 88 +32 88 -31 0 *
Fa
0  0.000000100000000 2 84

0101000
+30 0 *
Ed
 0.000000100000000 1 1 0
1  70 0 0.000000000000000 1.676305461423711
0

0101000
+37 59 -133 59 *
Wi

0101100
+28 58 -36 0 +132 64 *
Fa
0  0.000000100000000 5 40

0101000
+27 0 *
Ed
 0.000000100026306 1 1 0
1  57 0 3.141592653589793 6.283185307179586
2  37 25 78 3.141592653589793 6.283185307179586
2  38 25 80 3.141592653589793 6.283185307179586
0

0101000
+33 80 -82 80 *
Wi

0101100
-81 0 +25 89 -31 0 -89 77 *
Fa
0  0.000000100000000 25 0

0101000
+24 0 *
Ed
 0.000000100000000 1 1 0
1  72 0 0.000000000000000 25.000000000000000
0

0101000
+35 0 -54 55 *
Ed
 0.000000100000000 1 1 0
1  73 0 0.000000000000000 25.000000000000000
0

0101000
+80 0 -56 55 *
Wi

0101100
-79 88 +25 89 -32 88 -22 90 +53 91 +21 90 *
Fa
0  0.000000100000000 29 90

0101000
+20 0 *
Ed
 0.000000100000000 1 1 0
1  74 0 0.000000000000000 25.000000000000000
0

0101000
+78 0 -57 55 *
Wi

0101100
+18 0 -21 0 -77 57 +55 55 *
Fa
0  0.000000100000000 30 0

0101000
+17 0 *
Ed
 0.000000100000000 1 1 0
1  75 0 0.000000000000000 25.000000000000000
0

0101000
+76 0 -45 55 *
Wi

0101100
+15 0 -18 0 -75 57 +43 55 *
Fa
0  0.000000100000000 31 0

0101000
+14 0 *
Ed
 0.000000100000000 1 1 0
1  76 0 0.000000000000000 25.000000000000000
0

0101000
+74 0 -47 55 *
Wi

0101100
+12 0 -15 0 -73 57 +44 55 *
Fa
0  0.000000100000000 32 0

0101000
+11 0 *
Ed
 0.000000100000000 1 1 0
1  77 0 0.000000000000000 25.000000000000000
0

0101000
+72 0 -49 55 *
Wi

0101100
+9 0 -12 0 -71 57 +46 55 *
Fa
0  0.000000100000000 33 0

0101000
+8 0 *
Wi

0101100
+60 52 +64 52 -9 52 -69 33 +48 56 *
Fa
0  0.000000100000000 34 52

0101000
+6 0 *
Wi

0101100
+22 58 -28 58 -40 58 -34 60 +51 61 *
Fa
0  0.000000100000000 35 58

0101000
+4 0 *
Sh

0101100
-255 8 +224 0 +219 8 -194 8 -191 8 +188 8 -181 0 -172 0 -169 0 +162 0 
+157 52 +152 52 +147 52 +140 37 +137 37 -128 37 -122 37 -120 8 -115 8 -110 8 
-105 8 -100 8 -95 8 -86 72 +83 8 +66 0 +61 0 -58 0 +41 82 +38 37 
+29 72 +26 37 -23 72 +19 72 +16 52 +13 52 +10 52 +7 52 +5 0 +3 37 
*
So

0100000
+2 0 *

+1 1 