
CASCADE Topology V1, (c) Matra-Datavision
Locations 29
1
1.000000000000000 0.000000000000000 0.000000000000000 0.000000000000000 
0.000000000000000 1.000000000000000 0.000000000000000 0.000000000000000 
0.000000000000000 0.000000000000000 1.000000000000000 0.000000000000000 
1
-1.000000000000000 0.000000000000000 0.000000000000000 0.000000000000000 
0.000000000000000 0.000000000000000 1.000000000000000 -0.000000000000001 
0.000000000000000 1.000000000000000 -0.000000000000000 0.000000000000000 
1
1.000000000000000 0.000000000000000 0.000000000000000 0.000000000000000 
0.000000000000000 1.000000000000000 0.000000000000000 0.000000000000000 
0.000000000000000 0.000000000000000 1.000000000000000 0.000000000000000 
2  1 1 2 1 3 -1 0
1
1.000000000000000 0.000000000000000 0.000000000000000 0.000000000000000 
0.000000000000000 1.000000000000000 0.000000000000000 -10.000000000000000 
0.000000000000000 0.000000000000000 1.000000000000000 0.000000000000002 
2  1 1 2 1 3 -1 5 1 0
1
1.000000000000000 0.000000000000000 0.000000000000000 0.000000000000000 
0.000000000000000 1.000000000000000 0.000000000000000 0.000000000000000 
0.000000000000000 0.000000000000000 1.000000000000000 0.000000000000000 
1
-1.000000000000000 0.000000000000000 0.000000000000000 0.000000000000000 
0.000000000000000 0.000000000000000 1.000000000000000 -0.000000000000001 
0.000000000000000 1.000000000000000 -0.000000000000000 0.000000000000000 
1
1.000000000000000 0.000000000000000 0.000000000000000 0.000000000000000 
0.000000000000000 1.000000000000000 0.000000000000000 0.000000000000000 
0.000000000000000 0.000000000000000 1.000000000000000 0.000000000000000 
2  7 1 8 -1 9 -1 0
1
1.000000000000000 0.000000000000000 0.000000000000000 0.000000000000000 
0.000000000000000 1.000000000000000 0.000000000000000 -5.000000000000000 
0.000000000000000 0.000000000000000 1.000000000000000 0.000000000000001 
2  11 -1 7 1 8 -1 9 -1 0
1
1.000000000000000 0.000000000000000 0.000000000000000 0.000000000000000 
0.000000000000000 1.000000000000000 0.000000000000000 0.000000000000000 
0.000000000000000 0.000000000000000 1.000000000000000 0.000000000000000 
1
-1.000000000000000 0.000000000000000 0.000000000000000 0.000000000000000 
0.000000000000000 0.000000000000000 1.000000000000000 -0.000000000000001 
0.000000000000000 1.000000000000000 -0.000000000000000 0.000000000000000 
1
1.000000000000000 0.000000000000000 0.000000000000000 0.000000000000000 
0.000000000000000 1.000000000000000 0.000000000000000 0.000000000000000 
0.000000000000000 0.000000000000000 1.000000000000000 0.000000000000000 
2  13 1 14 -1 15 -1 0
1
1.000000000000000 0.000000000000000 0.000000000000000 0.000000000000000 
0.000000000000000 1.000000000000000 0.000000000000000 -5.000000000000000 
0.000000000000000 0.000000000000000 1.000000000000000 0.000000000000001 
2  17 -1 13 1 14 -1 15 -1 0
1
1.000000000000000 0.000000000000000 0.000000000000000 0.000000000000000 
0.000000000000000 1.000000000000000 0.000000000000000 0.000000000000000 
0.000000000000000 0.000000000000000 1.000000000000000 0.000000000000000 
1
-1.000000000000000 0.000000000000000 0.000000000000000 0.000000000000000 
0.000000000000000 0.000000000000000 1.000000000000000 -0.000000000000001 
0.000000000000000 1.000000000000000 -0.000000000000000 0.000000000000000 
1
1.000000000000000 0.000000000000000 0.000000000000000 0.000000000000000 
0.000000000000000 1.000000000000000 0.000000000000000 0.000000000000000 
0.000000000000000 0.000000000000000 1.000000000000000 0.000000000000000 
2  19 1 20 -1 21 -1 0
1
1.000000000000000 0.000000000000000 0.000000000000000 0.000000000000000 
0.000000000000000 1.000000000000000 0.000000000000000 -5.000000000000000 
0.000000000000000 0.000000000000000 1.000000000000000 0.000000000000001 
2  23 -1 19 1 20 -1 21 -1 0
2  3 1 2 -1 1 -1 0
2  5 -1 3 1 2 -1 1 -1 0
2  3 -1 0
2  1 1 2 1 0
2  3 -1 5 1 0
Curve2ds 80
1 0.00000000000000000 0.00000000000000000 0.00000000000000000 -1.00000000000000000 
1 6.28318530717958623 0.00000000000000000 0.00000000000000000 -1.00000000000000000 
1 0.00000000000000000 0.00000000000000000 1.00000000000000000 0.00000000000000000 
1 0.00000000000000000 -5.00000000000000000 1.00000000000000000 0.00000000000000000 
1 0.00000000000000000 0.00000000000000000 1.00000000000000000 0.00000000000000000 
1 0.00000000000000000 -5.00000000000000000 1.00000000000000000 0.00000000000000000 
1 0.00000000000000000 0.00000000000000000 1.00000000000000000 0.00000000000000000 
1 0.00000000000000000 -5.00000000000000000 1.00000000000000000 0.00000000000000000 
1 0.00000000000000000 0.00000000000000000 1.00000000000000000 0.00000000000000000 
1 0.00000000000000000 -10.00000000000000000 1.00000000000000000 0.00000000000000000 
1 0.00000000000000000 0.00000000000000000 0.00000000000000000 -1.00000000000000000 
1 6.28318530717958623 0.00000000000000000 0.00000000000000000 -1.00000000000000000 
1 0.00000000000000000 0.00000000000000000 1.00000000000000000 0.00000000000000000 
1 0.00000000000000000 -5.00000000000000000 1.00000000000000000 0.00000000000000000 
1 0.00000000000000000 0.00000000000000000 1.00000000000000000 0.00000000000000000 
1 0.00000000000000000 -5.00000000000000000 1.00000000000000000 0.00000000000000000 
1 0.00000000000000000 0.00000000000000000 1.00000000000000000 0.00000000000000000 
1 0.00000000000000000 -5.00000000000000000 1.00000000000000000 0.00000000000000000 
1 0.00000000000000000 0.00000000000000000 1.00000000000000000 0.00000000000000000 
1 0.00000000000000000 -10.00000000000000000 1.00000000000000000 0.00000000000000000 
1 0.00000000000000000 0.00000000000000000 0.00000000000000000 -1.00000000000000000 
1 6.28318530717958623 0.00000000000000000 0.00000000000000000 -1.00000000000000000 
1 0.00000000000000000 0.00000000000000000 1.00000000000000000 0.00000000000000000 
1 0.00000000000000000 -5.00000000000000000 1.00000000000000000 0.00000000000000000 
1 0.00000000000000000 0.00000000000000000 1.00000000000000000 0.00000000000000000 
1 0.00000000000000000 -5.00000000000000000 1.00000000000000000 0.00000000000000000 
1 0.00000000000000000 0.00000000000000000 1.00000000000000000 0.00000000000000000 
1 0.00000000000000000 -5.00000000000000000 1.00000000000000000 0.00000000000000000 
1 0.00000000000000000 0.00000000000000000 1.00000000000000000 0.00000000000000000 
1 0.00000000000000000 -10.00000000000000000 1.00000000000000000 0.00000000000000000 
1 0.00000000000000000 0.00000000000000000 0.00000000000000000 -1.00000000000000000 
1 6.28318530717958623 0.00000000000000000 0.00000000000000000 -1.00000000000000000 
1 0.00000000000000000 0.00000000000000000 1.00000000000000000 0.00000000000000000 
1 0.00000000000000000 -5.00000000000000000 1.00000000000000000 0.00000000000000000 
1 0.00000000000000000 0.00000000000000000 1.00000000000000000 0.00000000000000000 
1 0.00000000000000000 -5.00000000000000000 1.00000000000000000 0.00000000000000000 
1 0.00000000000000000 0.00000000000000000 1.00000000000000000 0.00000000000000000 
1 0.00000000000000000 -5.00000000000000000 1.00000000000000000 0.00000000000000000 
1 0.00000000000000000 0.00000000000000000 1.00000000000000000 0.00000000000000000 
1 0.00000000000000000 -10.00000000000000000 1.00000000000000000 0.00000000000000000 
1 0.00000000000000000 0.00000000000000000 0.00000000000000000 -1.00000000000000000 
1 6.28318530717958623 0.00000000000000000 0.00000000000000000 -1.00000000000000000 
1 0.00000000000000000 0.00000000000000000 1.00000000000000000 0.00000000000000000 
1 0.00000000000000000 -5.00000000000000000 1.00000000000000000 0.00000000000000000 
1 0.00000000000000000 0.00000000000000000 1.00000000000000000 0.00000000000000000 
1 0.00000000000000000 -5.00000000000000000 1.00000000000000000 0.00000000000000000 
1 0.00000000000000000 0.00000000000000000 1.00000000000000000 0.00000000000000000 
1 0.00000000000000000 -5.00000000000000000 1.00000000000000000 0.00000000000000000 
1 0.00000000000000000 0.00000000000000000 1.00000000000000000 0.00000000000000000 
1 0.00000000000000000 -10.00000000000000000 1.00000000000000000 0.00000000000000000 
1 0.00000000000000000 0.00000000000000000 0.00000000000000000 -1.00000000000000000 
1 6.28318530717958623 0.00000000000000000 0.00000000000000000 -1.00000000000000000 
1 0.00000000000000000 0.00000000000000000 1.00000000000000000 0.00000000000000000 
1 0.00000000000000000 -5.00000000000000000 1.00000000000000000 0.00000000000000000 
1 0.00000000000000000 0.00000000000000000 1.00000000000000000 0.00000000000000000 
1 0.00000000000000000 -5.00000000000000000 1.00000000000000000 0.00000000000000000 
1 0.00000000000000000 0.00000000000000000 1.00000000000000000 0.00000000000000000 
1 0.00000000000000000 -5.00000000000000000 1.00000000000000000 0.00000000000000000 
1 0.00000000000000000 0.00000000000000000 1.00000000000000000 0.00000000000000000 
1 0.00000000000000000 -10.00000000000000000 1.00000000000000000 0.00000000000000000 
1 0.00000000000000000 0.00000000000000000 0.00000000000000000 -1.00000000000000000 
1 6.28318530717958623 0.00000000000000000 0.00000000000000000 -1.00000000000000000 
1 0.00000000000000000 0.00000000000000000 1.00000000000000000 0.00000000000000000 
1 0.00000000000000000 -5.00000000000000000 1.00000000000000000 0.00000000000000000 
1 0.00000000000000000 0.00000000000000000 1.00000000000000000 0.00000000000000000 
1 0.00000000000000000 -5.00000000000000000 1.00000000000000000 0.00000000000000000 
1 0.00000000000000000 0.00000000000000000 1.00000000000000000 0.00000000000000000 
1 0.00000000000000000 -5.00000000000000000 1.00000000000000000 0.00000000000000000 
1 0.00000000000000000 0.00000000000000000 1.00000000000000000 0.00000000000000000 
1 0.00000000000000000 -10.00000000000000000 1.00000000000000000 0.00000000000000000 
1 0.00000000000000000 0.00000000000000000 0.00000000000000000 -1.00000000000000000 
1 6.28318530717958623 0.00000000000000000 0.00000000000000000 -1.00000000000000000 
1 0.00000000000000000 0.00000000000000000 1.00000000000000000 0.00000000000000000 
1 0.00000000000000000 -5.00000000000000000 1.00000000000000000 0.00000000000000000 
1 0.00000000000000000 0.00000000000000000 1.00000000000000000 0.00000000000000000 
1 0.00000000000000000 -5.00000000000000000 1.00000000000000000 0.00000000000000000 
1 0.00000000000000000 0.00000000000000000 1.00000000000000000 0.00000000000000000 
1 0.00000000000000000 -5.00000000000000000 1.00000000000000000 0.00000000000000000 
1 0.00000000000000000 0.00000000000000000 1.00000000000000000 0.00000000000000000 
1 0.00000000000000000 -10.00000000000000000 1.00000000000000000 0.00000000000000000 
Curves 16
1 -43.25000000000000000 0.00000000000000028 5.00000000000000000 0.00000000000000000 -1.00000000000000000 0.00000000000000022 
2 42.00000000000000000 5.00000000000000000 0.00000000000000000 0.00000000000000000 0.00000000000000000 1.00000000000000000 1.00000000000000000 0.00000000000000000 -0.00000000000000000 -0.00000000000000000 1.00000000000000000 0.00000000000000000 1.25000000000000000
1 -43.25000000000000000 -0.00000000000000439 -16.00000000000000000 0.00000000000000000 -1.00000000000000000 0.00000000000000022 
2 42.00000000000000000 -16.00000000000000000 0.00000000000000000 0.00000000000000000 0.00000000000000000 1.00000000000000000 1.00000000000000000 0.00000000000000000 -0.00000000000000000 -0.00000000000000000 1.00000000000000000 0.00000000000000000 1.25000000000000000
1 10.75000000000000000 -0.00000000000000161 -3.50000000000000000 0.00000000000000000 -1.00000000000000000 0.00000000000000022 
2 -12.00000000000000000 -3.50000000000000000 0.00000000000000000 0.00000000000000000 0.00000000000000000 1.00000000000000000 1.00000000000000000 0.00000000000000000 -0.00000000000000000 -0.00000000000000000 1.00000000000000000 0.00000000000000000 1.25000000000000000
1 34.75000000000000000 0.00000000000000216 13.49999999992603250 0.00000000000000000 -1.00000000000000000 0.00000000000000022 
2 -36.00000000000000000 13.49999999992603250 0.00000000000000000 0.00000000000000000 0.00000000000000000 1.00000000000000000 1.00000000000000000 0.00000000000000000 -0.00000000000000000 -0.00000000000000000 1.00000000000000000 0.00000000000000000 1.25000000000000000
1 34.75000000000000000 -0.00000000000000161 -3.50000000000000000 0.00000000000000000 -1.00000000000000000 0.00000000000000022 
2 -36.00000000000000000 -3.50000000000000000 0.00000000000000000 0.00000000000000000 0.00000000000000000 1.00000000000000000 1.00000000000000000 0.00000000000000000 -0.00000000000000000 -0.00000000000000000 1.00000000000000000 0.00000000000000000 1.25000000000000000
1 10.75000000000000000 0.00000000000000216 13.49999999992603250 0.00000000000000000 -1.00000000000000000 0.00000000000000022 
2 -12.00000000000000000 13.49999999992603250 0.00000000000000000 0.00000000000000000 0.00000000000000000 1.00000000000000000 1.00000000000000000 0.00000000000000000 -0.00000000000000000 -0.00000000000000000 1.00000000000000000 0.00000000000000000 1.25000000000000000
1 -10.75000000000000000 0.00000000000000216 13.49999999992603250 0.00000000000000000 -1.00000000000000000 0.00000000000000022 
2 9.50000000000000000 13.49999999992603250 0.00000000000000000 0.00000000000000000 0.00000000000000000 1.00000000000000000 1.00000000000000000 0.00000000000000000 -0.00000000000000000 -0.00000000000000000 1.00000000000000000 0.00000000000000000 1.25000000000000000
1 -16.25000000000000000 -0.00000000000000439 -16.00000000000000000 0.00000000000000000 -1.00000000000000000 0.00000000000000022 
2 15.00000000000000000 -16.00000000000000000 0.00000000000000000 0.00000000000000000 0.00000000000000000 1.00000000000000000 1.00000000000000000 0.00000000000000000 -0.00000000000000000 -0.00000000000000000 1.00000000000000000 0.00000000000000000 1.25000000000000000
Polygon3D 0
PolygonOnTriangulations 0
Surfaces 40
2 -42.00000000000000000 0.00000000000000028 5.00000000000000000 0.00000000000000000 1.00000000000000000 -0.00000000000000022 -1.00000000000000000 0.00000000000000000 0.00000000000000000 0.00000000000000000 0.00000000000000022 1.00000000000000000 1.25000000000000000
2 -42.00000000000000000 0.00000000000000028 5.00000000000000000 0.00000000000000000 1.00000000000000000 -0.00000000000000022 -1.00000000000000000 0.00000000000000000 0.00000000000000000 0.00000000000000000 0.00000000000000022 1.00000000000000000 1.25000000000000000
2 -42.00000000000000000 0.00000000000000028 5.00000000000000000 0.00000000000000000 1.00000000000000000 -0.00000000000000022 -1.00000000000000000 0.00000000000000000 0.00000000000000000 0.00000000000000000 0.00000000000000022 1.00000000000000000 1.25000000000000000
2 -42.00000000000000000 0.00000000000000028 5.00000000000000000 0.00000000000000000 1.00000000000000000 -0.00000000000000022 -1.00000000000000000 0.00000000000000000 0.00000000000000000 0.00000000000000000 0.00000000000000022 1.00000000000000000 1.25000000000000000
1 -1.56249999999999978 -0.00000000000000065 0.81249999997226008 0.00000000000000000 1.00000000000000000 0.00000000000000000 0.00000000000000000 -0.00000000000000000 1.00000000000000000 1.00000000000000000 0.00000000000000000 -0.00000000000000000 
2 -42.00000000000000000 -0.00000000000000439 -16.00000000000000000 0.00000000000000000 1.00000000000000000 -0.00000000000000022 -1.00000000000000000 0.00000000000000000 0.00000000000000000 0.00000000000000000 0.00000000000000022 1.00000000000000000 1.25000000000000000
2 -42.00000000000000000 -0.00000000000000439 -16.00000000000000000 0.00000000000000000 1.00000000000000000 -0.00000000000000022 -1.00000000000000000 0.00000000000000000 0.00000000000000000 0.00000000000000000 0.00000000000000022 1.00000000000000000 1.25000000000000000
2 -42.00000000000000000 -0.00000000000000439 -16.00000000000000000 0.00000000000000000 1.00000000000000000 -0.00000000000000022 -1.00000000000000000 0.00000000000000000 0.00000000000000000 0.00000000000000000 0.00000000000000022 1.00000000000000000 1.25000000000000000
2 -42.00000000000000000 -0.00000000000000439 -16.00000000000000000 0.00000000000000000 1.00000000000000000 -0.00000000000000022 -1.00000000000000000 0.00000000000000000 0.00000000000000000 0.00000000000000000 0.00000000000000022 1.00000000000000000 1.25000000000000000
1 -1.56249999999999978 -0.00000000000000065 0.81249999997226008 0.00000000000000000 1.00000000000000000 0.00000000000000000 0.00000000000000000 -0.00000000000000000 1.00000000000000000 1.00000000000000000 0.00000000000000000 -0.00000000000000000 
2 12.00000000000000000 -0.00000000000000161 -3.50000000000000000 0.00000000000000000 1.00000000000000000 -0.00000000000000022 -1.00000000000000000 0.00000000000000000 0.00000000000000000 0.00000000000000000 0.00000000000000022 1.00000000000000000 1.25000000000000000
2 12.00000000000000000 -0.00000000000000161 -3.50000000000000000 0.00000000000000000 1.00000000000000000 -0.00000000000000022 -1.00000000000000000 0.00000000000000000 0.00000000000000000 0.00000000000000000 0.00000000000000022 1.00000000000000000 1.25000000000000000
2 12.00000000000000000 -0.00000000000000161 -3.50000000000000000 0.00000000000000000 1.00000000000000000 -0.00000000000000022 -1.00000000000000000 0.00000000000000000 0.00000000000000000 0.00000000000000000 0.00000000000000022 1.00000000000000000 1.25000000000000000
2 12.00000000000000000 -0.00000000000000161 -3.50000000000000000 0.00000000000000000 1.00000000000000000 -0.00000000000000022 -1.00000000000000000 0.00000000000000000 0.00000000000000000 0.00000000000000000 0.00000000000000022 1.00000000000000000 1.25000000000000000
1 -1.56249999999999978 -0.00000000000000065 0.81249999997226008 0.00000000000000000 1.00000000000000000 0.00000000000000000 0.00000000000000000 -0.00000000000000000 1.00000000000000000 1.00000000000000000 0.00000000000000000 -0.00000000000000000 
2 36.00000000000000000 0.00000000000000216 13.49999999992603250 0.00000000000000000 1.00000000000000000 -0.00000000000000022 -1.00000000000000000 0.00000000000000000 0.00000000000000000 0.00000000000000000 0.00000000000000022 1.00000000000000000 1.25000000000000000
2 36.00000000000000000 0.00000000000000216 13.49999999992603250 0.00000000000000000 1.00000000000000000 -0.00000000000000022 -1.00000000000000000 0.00000000000000000 0.00000000000000000 0.00000000000000000 0.00000000000000022 1.00000000000000000 1.25000000000000000
2 36.00000000000000000 0.00000000000000216 13.49999999992603250 0.00000000000000000 1.00000000000000000 -0.00000000000000022 -1.00000000000000000 0.00000000000000000 0.00000000000000000 0.00000000000000000 0.00000000000000022 1.00000000000000000 1.25000000000000000
2 36.00000000000000000 0.00000000000000216 13.49999999992603250 0.00000000000000000 1.00000000000000000 -0.00000000000000022 -1.00000000000000000 0.00000000000000000 0.00000000000000000 0.00000000000000000 0.00000000000000022 1.00000000000000000 1.25000000000000000
1 -1.56249999999999978 -0.00000000000000065 0.81249999997226008 0.00000000000000000 1.00000000000000000 0.00000000000000000 0.00000000000000000 -0.00000000000000000 1.00000000000000000 1.00000000000000000 0.00000000000000000 -0.00000000000000000 
2 36.00000000000000000 -0.00000000000000161 -3.50000000000000000 0.00000000000000000 1.00000000000000000 -0.00000000000000022 -1.00000000000000000 0.00000000000000000 0.00000000000000000 0.00000000000000000 0.00000000000000022 1.00000000000000000 1.25000000000000000
2 36.00000000000000000 -0.00000000000000161 -3.50000000000000000 0.00000000000000000 1.00000000000000000 -0.00000000000000022 -1.00000000000000000 0.00000000000000000 0.00000000000000000 0.00000000000000000 0.00000000000000022 1.00000000000000000 1.25000000000000000
2 36.00000000000000000 -0.00000000000000161 -3.50000000000000000 0.00000000000000000 1.00000000000000000 -0.00000000000000022 -1.00000000000000000 0.00000000000000000 0.00000000000000000 0.00000000000000000 0.00000000000000022 1.00000000000000000 1.25000000000000000
2 36.00000000000000000 -0.00000000000000161 -3.50000000000000000 0.00000000000000000 1.00000000000000000 -0.00000000000000022 -1.00000000000000000 0.00000000000000000 0.00000000000000000 0.00000000000000000 0.00000000000000022 1.00000000000000000 1.25000000000000000
1 -1.56249999999999978 -0.00000000000000065 0.81249999997226008 0.00000000000000000 1.00000000000000000 0.00000000000000000 0.00000000000000000 -0.00000000000000000 1.00000000000000000 1.00000000000000000 0.00000000000000000 -0.00000000000000000 
2 12.00000000000000000 0.00000000000000216 13.49999999992603250 0.00000000000000000 1.00000000000000000 -0.00000000000000022 -1.00000000000000000 0.00000000000000000 0.00000000000000000 0.00000000000000000 0.00000000000000022 1.00000000000000000 1.25000000000000000
2 12.00000000000000000 0.00000000000000216 13.49999999992603250 0.00000000000000000 1.00000000000000000 -0.00000000000000022 -1.00000000000000000 0.00000000000000000 0.00000000000000000 0.00000000000000000 0.00000000000000022 1.00000000000000000 1.25000000000000000
2 12.00000000000000000 0.00000000000000216 13.49999999992603250 0.00000000000000000 1.00000000000000000 -0.00000000000000022 -1.00000000000000000 0.00000000000000000 0.00000000000000000 0.00000000000000000 0.00000000000000022 1.00000000000000000 1.25000000000000000
2 12.00000000000000000 0.00000000000000216 13.49999999992603250 0.00000000000000000 1.00000000000000000 -0.00000000000000022 -1.00000000000000000 0.00000000000000000 0.00000000000000000 0.00000000000000000 0.00000000000000022 1.00000000000000000 1.25000000000000000
1 -1.56249999999999978 -0.00000000000000065 0.81249999997226008 0.00000000000000000 1.00000000000000000 0.00000000000000000 0.00000000000000000 -0.00000000000000000 1.00000000000000000 1.00000000000000000 0.00000000000000000 -0.00000000000000000 
2 -9.50000000000000000 0.00000000000000216 13.49999999992603250 0.00000000000000000 1.00000000000000000 -0.00000000000000022 -1.00000000000000000 0.00000000000000000 0.00000000000000000 0.00000000000000000 0.00000000000000022 1.00000000000000000 1.25000000000000000
2 -9.50000000000000000 0.00000000000000216 13.49999999992603250 0.00000000000000000 1.00000000000000000 -0.00000000000000022 -1.00000000000000000 0.00000000000000000 0.00000000000000000 0.00000000000000000 0.00000000000000022 1.00000000000000000 1.25000000000000000
2 -9.50000000000000000 0.00000000000000216 13.49999999992603250 0.00000000000000000 1.00000000000000000 -0.00000000000000022 -1.00000000000000000 0.00000000000000000 0.00000000000000000 0.00000000000000000 0.00000000000000022 1.00000000000000000 1.25000000000000000
2 -9.50000000000000000 0.00000000000000216 13.49999999992603250 0.00000000000000000 1.00000000000000000 -0.00000000000000022 -1.00000000000000000 0.00000000000000000 0.00000000000000000 0.00000000000000000 0.00000000000000022 1.00000000000000000 1.25000000000000000
1 -1.56249999999999978 -0.00000000000000065 0.81249999997226008 0.00000000000000000 1.00000000000000000 0.00000000000000000 0.00000000000000000 -0.00000000000000000 1.00000000000000000 1.00000000000000000 0.00000000000000000 -0.00000000000000000 
2 -15.00000000000000000 -0.00000000000000439 -16.00000000000000000 0.00000000000000000 1.00000000000000000 -0.00000000000000022 -1.00000000000000000 0.00000000000000000 0.00000000000000000 0.00000000000000000 0.00000000000000022 1.00000000000000000 1.25000000000000000
2 -15.00000000000000000 -0.00000000000000439 -16.00000000000000000 0.00000000000000000 1.00000000000000000 -0.00000000000000022 -1.00000000000000000 0.00000000000000000 0.00000000000000000 0.00000000000000000 0.00000000000000022 1.00000000000000000 1.25000000000000000
2 -15.00000000000000000 -0.00000000000000439 -16.00000000000000000 0.00000000000000000 1.00000000000000000 -0.00000000000000022 -1.00000000000000000 0.00000000000000000 0.00000000000000000 0.00000000000000000 0.00000000000000022 1.00000000000000000 1.25000000000000000
2 -15.00000000000000000 -0.00000000000000439 -16.00000000000000000 0.00000000000000000 1.00000000000000000 -0.00000000000000022 -1.00000000000000000 0.00000000000000000 0.00000000000000000 0.00000000000000000 0.00000000000000022 1.00000000000000000 1.25000000000000000
1 -1.56249999999999978 -0.00000000000000065 0.81249999997226008 0.00000000000000000 1.00000000000000000 0.00000000000000000 0.00000000000000000 -0.00000000000000000 1.00000000000000000 1.00000000000000000 0.00000000000000000 -0.00000000000000000 
Triangulations 0

TShapes 73
Ve
0.000000100000000
43.250000000000000 5.000000000000000 0.000000000000000
0 0

0101101
*
Ed
 0.000000100000000 1 1 0
1  1 0 0.000000000000000 10.000000000000000
3  1 2CN 1 0 0.000000000000000 10.000000000000000
0

0101000
+73 4 -73 6 *
Ed
 0.000000100000000 1 1 0
1  2 0 0.000000000000000 6.283185307179586
2  3 2 10 0.000000000000000 6.283185307179586
2  4 2 12 0.000000000000000 6.283185307179586
2  5 3 16 0.000000000000000 6.283185307179586
2  6 3 18 0.000000000000000 6.283185307179586
2  7 4 22 0.000000000000000 6.283185307179586
2  8 4 24 0.000000000000000 6.283185307179586
2  9 1 25 0.000000000000000 6.283185307179586
2  10 1 26 0.000000000000000 6.283185307179586
0

0101100
+73 0 -73 0 *
Wi

0101100
+72 0 -72 0 -71 4 +71 6 *
Fa
0  0.000000100000000 1 0

0101000
+70 0 *
Wi

0101100
+71 0 *
Fa
0  0.000000100000000 5 0

0101000
+68 28 *
Sh

0101100
+69 0 +67 27 -67 29 *
So

0100000
+66 0 *
Ve
0.000000100000000
43.250000000000000 -16.000000000000000 0.000000000000000
0 0

0101101
*
Ed
 0.000000100000000 1 1 0
1  3 0 0.000000000000000 10.000000000000000
3  11 12CN 6 0 0.000000000000000 10.000000000000000
0

0101000
+64 4 -64 6 *
Ed
 0.000000100000000 1 1 0
1  4 0 0.000000000000000 6.283185307179586
2  13 7 10 0.000000000000000 6.283185307179586
2  14 7 12 0.000000000000000 6.283185307179586
2  15 8 16 0.000000000000000 6.283185307179586
2  16 8 18 0.000000000000000 6.283185307179586
2  17 9 22 0.000000000000000 6.283185307179586
2  18 9 24 0.000000000000000 6.283185307179586
2  19 6 25 0.000000000000000 6.283185307179586
2  20 6 26 0.000000000000000 6.283185307179586
0

0101100
+64 0 -64 0 *
Wi

0101100
+63 0 -63 0 -62 4 +62 6 *
Fa
0  0.000000100000000 6 0

0101000
+61 0 *
Wi

0101100
+62 0 *
Fa
0  0.000000100000000 10 0

0101000
+59 28 *
Sh

0101100
+60 0 +58 27 -58 29 *
So

0100000
+57 0 *
Ve
0.000000100000000
-10.750000000000000 -3.500000000000000 0.000000000000000
0 0

0101101
*
Ed
 0.000000100000000 1 1 0
1  5 0 0.000000000000000 10.000000000000000
3  21 22CN 11 0 0.000000000000000 10.000000000000000
0

0101000
+55 4 -55 6 *
Ed
 0.000000100000000 1 1 0
1  6 0 0.000000000000000 6.283185307179586
2  23 12 10 0.000000000000000 6.283185307179586
2  24 12 12 0.000000000000000 6.283185307179586
2  25 13 16 0.000000000000000 6.283185307179586
2  26 13 18 0.000000000000000 6.283185307179586
2  27 14 22 0.000000000000000 6.283185307179586
2  28 14 24 0.000000000000000 6.283185307179586
2  29 11 25 0.000000000000000 6.283185307179586
2  30 11 26 0.000000000000000 6.283185307179586
0

0101100
+55 0 -55 0 *
Wi

0101100
+54 0 -54 0 -53 4 +53 6 *
Fa
0  0.000000100000000 11 0

0101000
+52 0 *
Wi

0101100
+53 0 *
Fa
0  0.000000100000000 15 0

0101000
+50 28 *
Sh

0101100
+51 0 +49 27 -49 29 *
So

0100000
+48 0 *
Ve
0.000000100000000
-34.750000000000000 13.499999999926033 0.000000000000000
0 0

0101101
*
Ed
 0.000000100000000 1 1 0
1  7 0 0.000000000000000 10.000000000000000
3  31 32CN 16 0 0.000000000000000 10.000000000000000
0

0101000
+46 4 -46 6 *
Ed
 0.000000100000000 1 1 0
1  8 0 0.000000000000000 6.283185307179586
2  33 17 10 0.000000000000000 6.283185307179586
2  34 17 12 0.000000000000000 6.283185307179586
2  35 18 16 0.000000000000000 6.283185307179586
2  36 18 18 0.000000000000000 6.283185307179586
2  37 19 22 0.000000000000000 6.283185307179586
2  38 19 24 0.000000000000000 6.283185307179586
2  39 16 25 0.000000000000000 6.283185307179586
2  40 16 26 0.000000000000000 6.283185307179586
0

0101100
+46 0 -46 0 *
Wi

0101100
+45 0 -45 0 -44 4 +44 6 *
Fa
0  0.000000100000000 16 0

0101000
+43 0 *
Wi

0101100
+44 0 *
Fa
0  0.000000100000000 20 0

0101000
+41 28 *
Sh

0101100
+42 0 +40 27 -40 29 *
So

0100000
+39 0 *
Ve
0.000000100000000
-34.750000000000000 -3.500000000000000 0.000000000000000
0 0

0101101
*
Ed
 0.000000100000000 1 1 0
1  9 0 0.000000000000000 10.000000000000000
3  41 42CN 21 0 0.000000000000000 10.000000000000000
0

0101000
+37 4 -37 6 *
Ed
 0.000000100000000 1 1 0
1  10 0 0.000000000000000 6.283185307179586
2  43 22 10 0.000000000000000 6.283185307179586
2  44 22 12 0.000000000000000 6.283185307179586
2  45 23 16 0.000000000000000 6.283185307179586
2  46 23 18 0.000000000000000 6.283185307179586
2  47 24 22 0.000000000000000 6.283185307179586
2  48 24 24 0.000000000000000 6.283185307179586
2  49 21 25 0.000000000000000 6.283185307179586
2  50 21 26 0.000000000000000 6.283185307179586
0

0101100
+37 0 -37 0 *
Wi

0101100
+36 0 -36 0 -35 4 +35 6 *
Fa
0  0.000000100000000 21 0

0101000
+34 0 *
Wi

0101100
+35 0 *
Fa
0  0.000000100000000 25 0

0101000
+32 28 *
Sh

0101100
+33 0 +31 27 -31 29 *
So

0100000
+30 0 *
Ve
0.000000100000000
-10.750000000000000 13.499999999926033 0.000000000000000
0 0

0101101
*
Ed
 0.000000100000000 1 1 0
1  11 0 0.000000000000000 10.000000000000000
3  51 52CN 26 0 0.000000000000000 10.000000000000000
0

0101000
+28 4 -28 6 *
Ed
 0.000000100000000 1 1 0
1  12 0 0.000000000000000 6.283185307179586
2  53 27 10 0.000000000000000 6.283185307179586
2  54 27 12 0.000000000000000 6.283185307179586
2  55 28 16 0.000000000000000 6.283185307179586
2  56 28 18 0.000000000000000 6.283185307179586
2  57 29 22 0.000000000000000 6.283185307179586
2  58 29 24 0.000000000000000 6.283185307179586
2  59 26 25 0.000000000000000 6.283185307179586
2  60 26 26 0.000000000000000 6.283185307179586
0

0101100
+28 0 -28 0 *
Wi

0101100
+27 0 -27 0 -26 4 +26 6 *
Fa
0  0.000000100000000 26 0

0101000
+25 0 *
Wi

0101100
+26 0 *
Fa
0  0.000000100000000 30 0

0101000
+23 28 *
Sh

0101100
+24 0 +22 27 -22 29 *
So

0100000
+21 0 *
Ve
0.000000100000000
10.750000000000000 13.499999999926033 0.000000000000000
0 0

0101101
*
Ed
 0.000000100000000 1 1 0
1  13 0 0.000000000000000 10.000000000000000
3  61 62CN 31 0 0.000000000000000 10.000000000000000
0

0101000
+19 4 -19 6 *
Ed
 0.000000100000000 1 1 0
1  14 0 0.000000000000000 6.283185307179586
2  63 32 10 0.000000000000000 6.283185307179586
2  64 32 12 0.000000000000000 6.283185307179586
2  65 33 16 0.000000000000000 6.283185307179586
2  66 33 18 0.000000000000000 6.283185307179586
2  67 34 22 0.000000000000000 6.283185307179586
2  68 34 24 0.000000000000000 6.283185307179586
2  69 31 25 0.000000000000000 6.283185307179586
2  70 31 26 0.000000000000000 6.283185307179586
0

0101100
+19 0 -19 0 *
Wi

0101100
+18 0 -18 0 -17 4 +17 6 *
Fa
0  0.000000100000000 31 0

0101000
+16 0 *
Wi

0101100
+17 0 *
Fa
0  0.000000100000000 35 0

0101000
+14 28 *
Sh

0101100
+15 0 +13 27 -13 29 *
So

0100000
+12 0 *
Ve
0.000000100000000
16.250000000000000 -16.000000000000000 0.000000000000000
0 0

0101101
*
Ed
 0.000000100000000 1 1 0
1  15 0 0.000000000000000 10.000000000000000
3  71 72CN 36 0 0.000000000000000 10.000000000000000
0

0101000
+10 4 -10 6 *
Ed
 0.000000100000000 1 1 0
1  16 0 0.000000000000000 6.283185307179586
2  73 37 10 0.000000000000000 6.283185307179586
2  74 37 12 0.000000000000000 6.283185307179586
2  75 38 16 0.000000000000000 6.283185307179586
2  76 38 18 0.000000000000000 6.283185307179586
2  77 39 22 0.000000000000000 6.283185307179586
2  78 39 24 0.000000000000000 6.283185307179586
2  79 36 25 0.000000000000000 6.283185307179586
2  80 36 26 0.000000000000000 6.283185307179586
0

0101100
+10 0 -10 0 *
Wi

0101100
+9 0 -9 0 -8 4 +8 6 *
Fa
0  0.000000100000000 36 0

0101000
+7 0 *
Wi

0101100
+8 0 *
Fa
0  0.000000100000000 40 0

0101000
+5 28 *
Sh

0101100
+6 0 +4 27 -4 29 *
So

0100000
+3 0 *
Co

1100000
+65 0 +56 0 +47 0 +38 0 +29 0 +20 0 +11 0 +2 0 *

+1 0 