
CASCADE Topology V1, (c) Matra-Datavision
Locations 9
1
1.000000000000000 0.000000000000000 0.000000000000000 0.000000000000000 
0.000000000000000 1.000000000000000 0.000000000000000 0.000000000000000 
0.000000000000000 0.000000000000000 1.000000000000000 0.000000000000000 
1
-0.669130606357828 0.743144825477391 0.000001176415793 -28.499990000485194 
0.743144825476493 0.669130606358855 -0.000001159648516 -0.000009856993227 
-0.000001648962607 0.000000098290995 -0.999999999998636 -18.499983481093881 
1
-0.669130606358858 -0.743144825477395 0.000000000000000 -28.500000000000000 
0.743144825477395 -0.669130606358858 0.000000000000000 0.000000000000003 
0.000000000000000 0.000000000000000 1.000000000000000 -10.000000000000000 
2  1 1 2 1 3 -1 0
1
1.000000000000000 0.000000000000000 0.000000000000000 0.000242208938900 
0.000000000000000 1.000000000000000 0.000000000000000 0.000014437536323 
0.000000000000000 0.000000000000000 1.000000000000000 146.885646700009062 
2  1 1 2 1 3 -1 5 1 0
2  3 -1 0
2  1 1 2 1 0
2  3 -1 5 1 0
Curve2ds 0
Curves 12
1 4.01476962350148892 4.45886811603341382 -8.49999053958864259 0.00000164896260690 0.00000009829099471 0.99999999999863565 
1 5.86887158781784013 -1.24747098236513931 -8.49999303605170553 0.00000164896260690 0.00000009829099471 0.99999999999863565 
1 4.01478363966186436 -4.45886895150591211 0.00000000000000000 0.30901699405314537 0.95105651639971345 0.00000000000000000 
1 1.85408794816143363 -5.70633993387037997 -8.49998597755694441 0.00000164896260690 0.00000009829099471 0.99999999999863565 
1 5.86888560398073622 1.24747014689236746 0.00000000000000000 -0.66913060661031065 0.74314482525098535 0.00000000000000000 
1 -4.01479765581132497 -4.45886978697706748 -8.49997642259912034 0.00000164896260690 0.00000009829099471 0.99999999999863565 
1 1.85410196431887186 5.70633909839828046 0.00000000000000000 -0.97814760066345607 -0.20791169114872804 0.00000000000000000 
1 -5.86889962012767530 1.24746931142148654 -8.49997392613605740 0.00000164896260690 0.00000009829099471 0.99999999999863565 
1 -4.01478363966186524 4.45886895150591211 0.00000000000000000 -0.30901699405314520 -0.95105651639971356 0.00000000000000000 
1 -1.85411598047126880 5.70633826292672630 -8.49998098463081853 0.00000164896260690 0.00000009829099471 0.99999999999863565 
1 -5.86888560398073622 -1.24747014689236835 0.00000000000000000 0.66913060661031076 -0.74314482525098535 0.00000000000000000 
1 -1.85410196431887186 -5.70633909839828046 0.00000000000000000 0.97814760066345607 0.20791169114872807 0.00000000000000000 
Polygon3D 0
PolygonOnTriangulations 0
Surfaces 7
1 4.01476962350148892 4.45886811603341382 -8.49999053958864259 0.95105651639842048 0.30901699405298977 -0.00000159863022032 0.30901699405272531 -0.95105651639975886 -0.00000041607717707 -0.00000164896260690 -0.00000009829099471 -0.99999999999863576 
1 5.86887158781784013 -1.24747098236513931 -8.49999303605170553 0.74314482524997516 -0.66913060661042800 -0.00000115964851544 -0.66913060660940105 -0.74314482525087344 0.00000117641579352 -0.00000164896260690 -0.00000009829099471 -0.99999999999863576 
1 1.85408794816143363 -5.70633993387037997 -8.49998597755694441 -0.20791169114844527 -0.97814760066341766 0.00000043898170489 -0.97814760066212636 0.20791169114888547 0.00000159249297059 -0.00000164896260690 -0.00000009829099471 -0.99999999999863565 
1 -4.01479765581132497 -4.45886978697706748 -8.49997642259912034 -0.95105651639842059 -0.30901699405298960 0.00000159863022032 -0.30901699405272515 0.95105651639975897 0.00000041607717707 -0.00000164896260690 -0.00000009829099471 -0.99999999999863565 
1 -5.86889962012767530 1.24746931142148654 -8.49997392613605740 -0.74314482524997505 0.66913060661042800 0.00000115964851544 0.66913060660940116 0.74314482525087344 -0.00000117641579352 -0.00000164896260690 -0.00000009829099471 -0.99999999999863565 
1 -1.85411598047126880 5.70633826292672630 -8.49998098463081853 0.20791169114844529 0.97814760066341766 -0.00000043898170489 0.97814760066212636 -0.20791169114888550 -0.00000159249297059 -0.00000164896260690 -0.00000009829099471 -0.99999999999863565 
1 -28.49999000048519093 -0.00000985699322707 -18.49998348109388147 -0.00000117641579342 0.00000115964851577 0.99999999999863565 0.99999999999930811 0.00000000000000000 0.00000117641579343 0.00000000000136423 0.99999999999932776 -0.00000115964851576 
Triangulations 0

TShapes 34
Ve
0.000000100000000
4.014783639661864 -4.458868951505912 0.000000000000000
0 0

0101101
*
Ed
 0.000000100000000 1 1 0
1  1 0 0.000000000000000 146.885646700209463
0

0101000
+34 4 -34 6 *
Ve
0.000000100000000
5.868885603980736 1.247470146892367 0.000000000000000
0 0

0101101
*
Ed
 0.000000100000000 1 1 0
1  2 0 0.000000000000000 146.885646700209463
0

0101000
+32 4 -32 6 *
Ed
 0.000000100000000 1 1 0
1  3 0 0.000000000000000 5.999999999999999
0

0101000
+34 0 -32 0 *
Wi

0101100
+33 0 -31 0 -30 4 +30 6 *
Fa
0  0.000000100000000 1 0

0101000
+29 0 *
Ve
0.000000100000000
1.854101964318872 5.706339098398280 0.000000000000000
0 0

0101101
*
Ed
 0.000000100000000 1 1 0
1  4 0 0.000000000000000 146.885646700209463
0

0101000
+27 4 -27 6 *
Ed
 0.000000100000000 1 1 0
1  5 0 0.000000000000000 6.000000000000001
0

0101000
+32 0 -27 0 *
Wi

0101100
+31 0 -26 0 -25 4 +25 6 *
Fa
0  0.000000100000000 2 0

0101000
+24 0 *
Ve
0.000000100000000
-4.014783639661865 4.458868951505912 0.000000000000000
0 0

0101101
*
Ed
 0.000000100000000 1 1 0
1  6 0 0.000000000000000 146.885646700209463
0

0101000
+22 4 -22 6 *
Ed
 0.000000100000000 1 1 0
1  7 0 0.000000000000000 6.000000000000001
0

0101000
+27 0 -22 0 *
Wi

0101100
+26 0 -21 0 -20 4 +20 6 *
Fa
0  0.000000100000000 3 0

0101000
+19 0 *
Ve
0.000000100000000
-5.868885603980736 -1.247470146892368 0.000000000000000
0 0

0101101
*
Ed
 0.000000100000000 1 1 0
1  8 0 0.000000000000000 146.885646700209463
0

0101000
+17 4 -17 6 *
Ed
 0.000000100000000 1 1 0
1  9 0 0.000000000000000 5.999999999999999
0

0101000
+22 0 -17 0 *
Wi

0101100
+21 0 -16 0 -15 4 +15 6 *
Fa
0  0.000000100000000 4 0

0101000
+14 0 *
Ve
0.000000100000000
-1.854101964318872 -5.706339098398280 0.000000000000000
0 0

0101101
*
Ed
 0.000000100000000 1 1 0
1  10 0 0.000000000000000 146.885646700209463
0

0101000
+12 4 -12 6 *
Ed
 0.000000100000000 1 1 0
1  11 0 0.000000000000000 6.000000000000000
0

0101000
+17 0 -12 0 *
Wi

0101100
+16 0 -11 0 -10 4 +10 6 *
Fa
0  0.000000100000000 5 0

0101000
+9 0 *
Ed
 0.000000100000000 1 1 0
1  12 0 0.000000000000000 6.000000000000000
0

0101000
+12 0 -34 0 *
Wi

0101100
+11 0 -33 0 -7 4 +7 6 *
Fa
0  0.000000100000000 6 0

0101000
+6 0 *
Wi

0101100
+30 0 +25 0 +20 0 +15 0 +10 0 +7 0 *
Fa
0  0.000000100000000 7 0

0101000
-4 8 *
Sh

0101100
-28 0 -23 0 -18 0 -13 0 -8 0 -5 0 +3 7 -3 9 *
So

1100000
-2 0 *

+1 0 